<svg width="160" height="114" fill="none" xmlns="http://www.w3.org/2000/svg"><g clip-path="url(#clip0_100_658)"><path d="M63.144 1.24c-.499.394-.494.398-.993.792-.5.394-.58.291-1.078.685l-.998.788c-.5.394-.481.416-.985.81-.499.394-.539.345-1.038.739-.498.394-.49.407-.989.801-.498.394-.436.475-.935.869-.499.394-.539.34-1.038.734-.499.394-.486.412-.984.806-.5.394-.535.349-1.034.743s-.445.46-.949.855c-.332.262-.666.524-1.002.783-.499.394-.543.34-1.042.735-.504.393-.477.425-.976.819-.499.394-.485.416-.984.81-.5.394-.54.34-1.043.734-.499.394-.508.38-1.01.775-.5.394-.469.434-.968.828-.498.394-.467.434-.966.828a128.1 128.1 0 01-1.002.784c-.504.394-.548.33-1.052.725-.503.394-.45.46-.949.855-.498.394-.552.327-1.055.716l-.998.788c-.5.394-.477.425-.976.82-.499.393-.556.322-1.056.716-.503.393-.463.438-.966.832-.504.394-.557.323-1.056.716-.499.394-.468.435-.97.824-.5.394-.5.399-.999.793-.503.394-.539.34-1.042.734-.504.394-.446.465-.949.855-.503.394-.486.412-.989.806-.503.394-.534.349-1.038.743-.503.394-.48.42-.98.814-.503.395-.45.457-.953.851-.503.394-.54.345-1.038.739-.503.394-.552.331-1.051.72-.504.395-.468.435-.971.829-.504.394-.477.43-.976.819-.503.394-.57.304-1.07.698-.502.394-.44.475-.939.869-.503.394-.472.43-.976.824-.503.394-.547.33-1.05.725-.5.394-.504.39-1.003.783-.499.394-.468.434-.971.828-.504.394-.526.367-1.025.757-.499.394-.503.39-1.007.783-.503.394-.539.35-1.037.743-.504.394-.481.417-.985.81-.503.395-.494.404-.998.798-.503.394-.485.411-.989.806-.503.393-.53.353-1.033.747-.503.394-.517.376-1.016.77-.503.394-.476.425-.98.82-.503.393-.454.456-.953.85-.503.394-.588.282-1.091.676-.504.394-.486.416-.99.81-.503.394-.458.452-.962.846-.503.394-.56.318-1.064.712-.504.394-.5.403-1.002.797-.299.233-.522.55-.731.855-.214.309-.352.654-.463 1.012-.112.353-.236.716-.236 1.096 0 .636-.036.636-.036 1.272s.156.636.156 1.271c0 .636-.05.636-.05 1.272 0 .635-.097.635-.097 1.271 0 .636.102.636.102 1.271 0 .636-.035.636-.035 1.272s-.027.636-.027 1.271v1.272c0 .635.08.635.08 1.271 0 .636-.062.636-.062 1.271 0 .636.018.636.018 1.272 0 .635.017.635.017 1.271 0 .636-.049.636-.049 1.272 0 .635-.026.635-.026 1.271 0 .636.03.636.03 1.271 0 .636-.017.636-.017 1.272 0 .635.09.635.09 1.271 0 .636-.032.636-.032 1.272 0 .635-.022.635-.022 1.271 0 .636.022.636.022 1.271 0 .636-.058.636-.058 1.272 0 .635-.009.635-.009 1.276 0 .64.107.635.107 1.276 0 .523.094 1.03.303 1.5.21.47.535.859.927 1.208.472.425.48.412.953.837.472.425.396.506.868.931.473.425.522.367.994.788.472.425.423.48.89.9.473.425.442.461.91.882.472.425.476.42.944.841.472.426.575.31 1.047.73.472.425.467.43.94.85.472.426.405.498.877.923.472.425.432.47.905.89.472.426.56.323 1.033.749.472.425.423.478.895.9.473.425.432.465.905.89.472.425.485.408.957.833.473.42.53.354 1.003.779.472.425.436.46.908.886.472.425.428.47.9.895.472.421.517.372.985.797.472.426.476.417.948.838.473.425.482.411.954.837.472.425.503.385.975.81.473.425.455.443.927.868.472.426.405.497.877.923.473.425.495.398.967.823.472.426.477.417.949.842s.494.394.966.819c.473.426.504.39.976.815.472.425.419.484.891.904.472.426.432.47.904.891.473.425.58.305 1.052.73.472.425.44.457.913.882.472.425.419.488.89.909.473.425.49.402.967.828.477.425.468.43.945.855.338.304.77.443 1.185.6.414.156.828.407 1.282.407.633 0 .633-.152 1.261-.152.628 0 .633.121 1.26.121h1.266c.633 0 .633-.067 1.265-.067.633 0 .633-.072 1.26-.072h1.266c.632 0 .632.112 1.265.112.632 0 .632.022 1.265.022.633 0 .633-.062 1.265-.062.633 0 .633.044 1.265.044.633 0 .633.027 1.265.027.633 0 .633-.067 1.265-.067.633 0 .633.067 1.266.067.632 0 .632-.04 1.26-.04s.633-.054 1.265-.054c.633 0 .633-.022 1.26-.022.629 0 .633.116 1.266.116s.633-.04 1.265-.04c.633 0 .633.004 1.265.004.633 0 .633-.08 1.265-.08.633 0 .633-.014 1.265-.014.633 0 .633.085 1.266.085.632 0 .632-.035 1.265-.035.632 0 .632.094 1.265.094.632 0 .632-.072 1.265-.072.632 0 .632-.049 1.265-.049.632 0 .632.054 1.265.054.633 0 .633-.059 1.265-.059.633 0 .633.059 1.265.059.633 0 .637.026 1.274.026s.637-.08 1.274-.08.637.103 1.274.103.637-.112 1.274-.112.637.027 1.274.027.637-.018 1.274-.018.637.062 1.274.062.637-.017 1.274-.017.637.071 1.274.071.637-.121 1.274-.121.637.108 1.274.108.637-.058 1.274-.058.637-.068 1.274-.068.637.103 1.274.103.637-.098 1.274-.098c.638 0 .638-.018 1.275-.018.636 0 .636.049 1.273.049h1.279c.641 0 .637.027 1.274.027s.637-.031 1.274-.031.637.071 1.274.071.637-.04 1.274-.04.637.027 1.274.027.637-.076 1.274-.076.637-.014 1.279-.014h1.278c.641 0 .637.121 1.274.121s.637.023 1.274.023.637-.135 1.274-.135.637.027 1.274.027.637.063 1.278.063c.642 0 .637-.054 1.279-.054.641 0 .637.094 1.274.094s.637.014 1.274.014.637-.117 1.274-.117.637.108 1.278.108c.642 0 .637-.063 1.274-.063s.637.076 1.274.076.637-.054 1.279-.054c.641 0 .637-.058 1.278-.058.642 0 .637-.027 1.279-.027.641 0 .637.112 1.278.112h1.279c.641 0 .637-.098 1.278-.098.642 0 .637.103 1.279.103h1.278c.642 0 .637-.036 1.279-.036.641 0 .637.022 1.278.022.642 0 .637.032 1.279.032.641 0 .637-.139 1.274-.139s.637-.009 1.278-.009c.642 0 .637.125 1.274.125s.637-.022 1.279-.022c.641 0 .637-.063 1.278-.063.642 0 .637.027 1.279.027h2.556c.642 0 .637-.022 1.279-.022.641 0 .637.018 1.278.018.642 0 .637-.036 1.279-.036.641 0 .637-.036 1.278-.036.642 0 .637.058 1.279.058.641 0 .637-.067 1.278-.067h1.279c.637 0 .641.139 1.278.139.397 0 .784-.103 1.141-.224.369-.121.668-.376.975-.6.312-.228.593-.47.82-.783.223-.309.485-.614.61-.985.116-.358.143-.761.143-1.16 0-.635.053-.635.053-1.276 0-.64-.027-.635-.027-1.275 0-.641-.044-.636-.044-1.276 0-.641.076-.636.076-1.276s-.085-.636-.085-1.276-.058-.636-.058-1.276.143-.636.143-1.276-.139-.636-.139-1.276.139-.635.139-1.276c0-.64-.027-.635-.027-1.275 0-.64-.054-.636-.054-1.276s.081-.64.081-1.276-.081-.636-.081-1.276.076-.636.076-1.276.018-.636.018-1.276-.147-.636-.147-1.276.044-.635.044-1.275c0-.64-.035-.64-.035-1.276s.107-.636.107-1.276-.054-.64-.054-1.276.018-.64.018-1.276.031-.64.031-1.276-.067-.64-.067-1.276v-1.276c0-.635.121-.64.121-1.275 0-.636-.049-.64-.049-1.276s-.063-.64-.063-1.28-.009-.64-.009-1.281c0-.38.009-.766-.102-1.12a3.738 3.738 0 00-.499-1.01c-.209-.305-.543-.498-.842-.73-.503-.39-.423-.493-.926-.887-.504-.39-.517-.372-1.021-.761-.503-.39-.512-.376-1.015-.766-.504-.39-.544-.335-1.047-.725-.503-.39-.477-.42-.98-.81-.503-.39-.441-.475-.94-.864-.499-.39-.534-.345-1.038-.739-.503-.39-.499-.398-.998-.788-.503-.39-.53-.353-1.033-.743-.504-.39-.53-.353-1.034-.743-.503-.39-.454-.452-.957-.842-.504-.39-.49-.407-.994-.797-.503-.389-.574-.295-1.078-.689-.503-.39-.463-.443-.966-.833-.504-.389-.535-.349-1.034-.743-.503-.39-.481-.416-.984-.806-.504-.389-.455-.452-.958-.841-.503-.39-.584-.287-1.087-.676-.503-.39-.463-.443-.967-.833-.503-.39-.512-.376-1.015-.765-.504-.39-.477-.426-.98-.815-.504-.39-.49-.407-.994-.797-.503-.39-.574-.3-1.073-.69-.504-.389-.495-.398-.998-.787-.503-.39-.405-.515-.909-.904-.503-.39-.516-.368-1.02-.757-.503-.39-.481-.416-.984-.806l-1.007-.779c-.503-.39-.544-.336-1.047-.725-.503-.39-.557-.322-1.056-.712-.503-.39-.441-.47-.94-.864-.503-.39-.525-.358-1.029-.752-.503-.39-.53-.354-1.033-.743-.503-.39-.472-.43-.976-.82-.503-.389-.503-.384-1.006-.778-.504-.39-.486-.412-.989-.802-.504-.39-.486-.411-.989-.801-.504-.39-.535-.35-1.038-.739-.503-.39-.45-.456-.953-.846-.504-.39-.579-.286-1.083-.676-.503-.39-.432-.479-.935-.868l-1.007-.78c-.503-.389-.508-.384-1.011-.778-.504-.39-.512-.376-1.016-.766-.503-.39-.481-.416-.984-.806-.504-.389-.508-.38-1.012-.77-.503-.389-.507-.38-1.011-.774-.503-.39-.574-.3-1.073-.69-.504-.389-.481-.416-.985-.81-.503-.39-.494-.403-.998-.792-.503-.39-.543-.336-1.046-.73-.504-.39-.495-.403-.998-.792-.504-.39-.504-.385-1.007-.78-.503-.389-.423-.491-.927-.881-.503-.39-.49-.407-.993-.797-.503-.39-.548-.331-1.051-.72-.504-.39-.455-.457-.953-.847-.504-.39-.544-.335-1.047-.725-.504-.39-.481-.416-.985-.806-.503-.39-.52-.367-1.024-.756-.504-.39-.464-.444-.967-.833-.503-.39-.561-.313-1.065-.703-.503-.39-.485-.416-.989-.806-.503-.39-.552-.322-1.055-.716-.504-.39-.41-.515-.913-.904-.504-.39-.553-.327-1.056-.716-.504-.39-.526-.363-1.025-.757-.503-.39-.494-.403-.998-.793-.503-.389-.507-.384-1.01-.774-.504-.39-.45-.461-.954-.85-.503-.39-.548-.332-1.051-.726-.504-.39-.446-.465-.95-.855-.502-.39-.543-.34-1.041-.73-.504-.389-.49-.407-.99-.8-.503-.39-.494-.404-.997-.793-.504-.39-.548-.332-1.051-.726-.504-.389-.517-.376-1.016-.765-.504-.39-.513-.38-1.016-.774-.503-.39-.494-.403-.998-.793-.503-.39-.512-.376-1.015-.77-.504-.39-.522-.367-1.025-.76-.503-.39-.414-.507-.918-.896-.503-.39-.596-.269-1.1-.663-.503-.39-.45-.46-.953-.855-.503-.39-.508-.385-1.011-.779-.504-.39-.544-.34-1.047-.73-.504-.389-.517-.376-1.02-.765-.504-.39-.415-.51-.918-.9-.503-.394-.534-.353-1.038-.747-.503-.394-.557-.327-1.06-.721-.33-.255-.655-.475-1.033-.605-.388-.13-.784-.25-1.185-.246-.406 0-.784.166-1.168.3a3.54 3.54 0 00-1.046.56l-.076.009z" fill="#fff"/><path d="M6.219 55.228c.48.426.432.484.913.91.481.425.499.402.984.828.482.425.562.33 1.047.756.481.425.383.542.864.967.486.425.57.327 1.052.752.485.425.418.502.904.927.486.425.468.443.953.868.486.426.49.417.971.842.486.425.5.407.985.833.48.425.552.344 1.033.77.481.425.41.51.891.935.481.425.468.439.954.864.485.425.56.336 1.046.761.486.426.473.434.958.86.486.425.517.385 1.002.81.486.425.441.475.927.9.486.425.445.47.93.895.486.426.549.35 1.034.775.486.425.495.412.98.837.486.425.468.439.954.864.485.425.392.528.877.953.486.426.561.336 1.047.761.486.426.419.502.9.927.485.426.575.323 1.06.748.486.425.437.479.918.904.485.425.512.394.998.815.485.425.392.528.877.953.486.426.486.421.971.847.486.425.584.308 1.07.734.485.425.422.497.904.922.485.425.516.385 1.002.81.485.425.481.43.966.855.486.425.437.484.918.909.486.425.53.372 1.016.801.485.426.48.43.962.855.486.426.526.38 1.007.806.485.425.387.533.873.958.485.425.494.412.98.837.485.426.579.314 1.064.739.486.425.468.443.954.868.485.426.396.524.882.95.485.425.566.33 1.051.756.486.425.414.51.895.936.486.425.526.376 1.007.801.486.425.526.38 1.007.806.485.425.445.47.926.895.486.426.437.48.918.905.486.425.517.39 1.002.814.486.426.517.39 1.003.815.485.425.459.457.944.878.486.425.472.438.958.864.485.425.454.456.94.882.485.425.588.308 1.069.734.485.425.387.537.868.962.486.425.495.412.98.842.486.425.562.336 1.047.761.486.425.472.443.954.868.485.426.436.484.922.909.485.425.516.39 1.002.815.485.425.463.448.949.877l.97.851c.486.425.45.47.936.895.486.426.535.367 1.025.797" stroke="#595757" stroke-miterlimit="10" stroke-linecap="round"/><path d="M85.394 113.82c-.601-.224-.472-.443-.958-.864-.49-.416-.534-.362-1.024-.779-.49-.416-.432-.483-.922-.9-.49-.416-.468-.438-.958-.855-.49-.416-.539-.358-1.029-.774-.49-.416-.419-.497-.909-.913-.49-.417-.548-.345-1.038-.761-.485-.417-.463-.444-.953-.86-.485-.416-.517-.38-1.007-.797-.485-.416-.423-.492-.913-.909-.485-.416-.485-.42-.97-.837-.486-.416-.584-.304-1.07-.72-.486-.417-.423-.493-.913-.909-.486-.417-.548-.345-1.038-.761-.486-.417-.481-.426-.971-.842-.486-.416-.423-.492-.913-.909-.49-.416-.548-.344-1.038-.765-.49-.416-.5-.403-.99-.824-.49-.416-.445-.47-.935-.886-.49-.417-.436-.48-.926-.896-.486-.416-.57-.317-1.06-.738-.486-.417-.464-.444-.954-.864-.485-.417-.52-.38-1.007-.797-.485-.416-.463-.443-.953-.864-.485-.417-.41-.51-.895-.927-.49-.416-.521-.376-1.011-.792-.49-.417-.508-.394-.998-.81-.49-.417-.45-.466-.936-.882-.49-.417-.48-.426-.97-.842s-.549-.35-1.034-.766c-.49-.416-.495-.412-.98-.828-.49-.416-.481-.425-.967-.846-.49-.416-.45-.461-.935-.882-.49-.416-.517-.385-1.007-.801-.327-.278-.652-.557-.976-.837-.49-.417-.467-.444-.953-.86-.49-.416-.463-.448-.949-.868-.49-.417-.53-.367-1.02-.784-.49-.416-.468-.443-.953-.86a130.14 130.14 0 01-.976-.836c-.49-.417-.498-.408-.988-.824s-.486-.421-.976-.837c-.49-.417-.561-.332-1.047-.752-.49-.417-.392-.533-.878-.95-.49-.416-.579-.308-1.069-.73-.49-.415-.458-.451-.948-.868-.49-.416-.428-.488-.918-.908-.49-.417-.526-.377-1.011-.793-.49-.416-.535-.362-1.025-.783-.49-.417-.419-.502-.904-.922-.49-.417-.495-.412-.98-.833-.49-.416-.508-.394-.998-.81-.49-.417-.494-.412-.984-.829-.49-.416-.544-.353-1.034-.77-.49-.416-.392-.532-.882-.949-.485-.416-.503-.398-.993-.814-.49-.417-.472-.44-.958-.856-.49-.416-.575-.317-1.065-.734-.49-.416-.387-.532-.877-.953-.49-.416-.508-.394-.998-.815l-.98-.837c-.49-.416-.503-.399-.993-.82-.49-.416-.557-.335-1.047-.756-.49-.416-.468-.443-.958-.86-.49-.42-.485-.425-.971-.846-.49-.416-.477-.43-.967-.85-.49-.416-.48-.43-.97-.846-.49-.421-.504-.403-.994-.82-.327-.28-.654-.56-.98-.837-.49-.416-.468-.443-.958-.86-.49-.42-.485-.42-.976-.84-.49-.422-.53-.372-1.02-.793-.49-.421-.45-.466-.94-.887-.49-.42-.45-.47-.94-.89-.49-.421-.498-.408-.988-.829-.281-.241-.432-.541-.424-.882.01-.34.12-.694.41-.926.5-.39.548-.327 1.047-.716.499-.39.472-.421.971-.815.5-.39.53-.345 1.03-.739.498-.39.485-.407.984-.797.499-.39.52-.362 1.02-.752.499-.39.49-.403.984-.792.5-.39.441-.461.94-.85.5-.39.557-.314 1.056-.704.499-.39.4-.514.895-.904.5-.39.495-.394.994-.783.499-.39.565-.305 1.064-.694.5-.39.513-.376 1.007-.766.499-.39.517-.367 1.016-.756.499-.39.41-.506.908-.896.5-.39.522-.358 1.02-.752.5-.39.553-.318 1.052-.707.499-.39.445-.457.944-.846.333-.26.665-.521.998-.784.499-.39.53-.349 1.029-.738.499-.39.53-.35 1.025-.744.498-.389.4-.514.9-.904.498-.39.534-.344 1.033-.734.499-.39.49-.403.989-.792.499-.39.476-.417.975-.806.5-.39.544-.332 1.043-.72.499-.39.53-.35 1.029-.74.499-.39.459-.438.957-.832.5-.39.53-.354 1.025-.743.499-.39.468-.426.967-.82.499-.39.48-.412.98-.806.499-.389.467-.43.966-.819.5-.39.588-.273 1.087-.667.5-.39.441-.465.94-.855.5-.39.508-.376 1.007-.765.499-.39.539-.34 1.033-.73.5-.39.482-.412.976-.806.499-.39.44-.465.94-.855.499-.39.494-.398.993-.788.5-.39.495-.394.994-.783.498-.39.565-.305 1.064-.694.5-.39.441-.466.94-.855.5-.39.553-.318 1.051-.712.5-.39.486-.412.985-.801.499-.39.539-.34 1.038-.735.499-.389.49-.398.989-.792s.503-.385 1.002-.774c.499-.39.49-.403.989-.793s.494-.398.993-.792c.5-.39.517-.372 1.016-.761.499-.39.41-.506.909-.896.499-.393.516-.367 1.02-.76.499-.394.512-.377 1.011-.77a1.212 1.212 0 011.483 0c.5.393.433.478.931.877.5.394.54.345 1.038.739.5.393.521.367 1.02.765.5.394.477.425.976.824.499.394.557.322 1.06.716.5.399.486.416.985.81.498.399.494.403.993.802.499.394.508.385 1.011.779.5.394.446.465.945.864.498.394.53.358 1.029.756.499.394.454.457.953.85.499.395.579.296 1.078.69.332.263.665.527.998.793.499.394.459.447.957.846.5.398.49.407.99.805.498.399.52.372 1.02.766.498.399.507.39 1.006.784.5.393.455.452.958.85.499.394.521.367 1.02.766.499.398.521.367 1.02.765.499.394.508.39 1.007.784.499.393.44.47.94.868.499.398.521.367 1.024.765.5.399.54.345 1.043.74.499.398.516.375 1.015.774.5.398.397.528.896.926.499.394.534.354 1.033.748l.998.792c.499.394.557.323 1.056.717.499.394.485.412.984.81.5.394.53.358 1.03.752.498.394.463.443.961.837.5.394.517.372 1.02.766.5.394.504.39 1.003.783.499.394.485.416.984.81l1.003.793c.498.398.49.407.988.806.499.398.513.38 1.012.774s.481.42.98.815c.499.394.467.439.966.833.499.393.571.304 1.069.698.499.394.419.497.918.89.499.395.557.323 1.056.721.499.394.45.457.953.855.499.395.486.412.989.806.499.399.552.332 1.051.73.499.398.455.452.958.85.499.4.575.3 1.074.699.499.394.401.52.904.918.499.394.552.327 1.051.725.499.394.512.38 1.011.779.499.394.522.367 1.02.765.499.399.508.385 1.007.784.499.398.477.425.976.824.499.398.445.465.949.86.498.398.503.389 1.002.787.499.399.485.416.984.815.499.398.499.398.998.792.499.399.57.305 1.069.703.499.398.495.403.998.797.499.398.441.474.94.873.499.398.588.282 1.087.68.499.399.45.461.949.86.499.398.539.344 1.042.739.499.398.499.402.998.796.499.399.45.462.953.855.499.399.477.426.976.824.499.399.521.372 1.02.77.499.399.517.376 1.016.775.498.398.467.438.966.832.499.399.584.291 1.083.685.499.399.507.385 1.011.784.499.398.503.394 1.002.792s.481.42.985.815c.499.398.481.42.984.815.499.398.477.425.976.823.499.399.485.412.989.81.498.394.539.35 1.037.744.499.398.535.353 1.034.752.499.398.428.488.931.886.499.399.512.385 1.011.78.499.398.535.353 1.034.751.498.399.521.367 1.024.766.499.398.406.52.904.917.499.399.588.282 1.092.68.499.4.49.413.989.811.503.399.432.484.935.878.499.398.579.295 1.083.694.499.398.441.474.94.873.498.398.57.308 1.073.702.503.399.437.48.936.878.503.398.525.367 1.024.765.504.399.481.426.98.824.504.398.722.206.998.784.276.572.031.626.031 1.262 0 .64.027.64.027 1.276s-.076.636-.071 1.276c0 .64.12.64.12 1.276 0 .635-.08.64-.08 1.275 0 .64-.076.64-.072 1.276 0 .64.072.64.072 1.276 0 .64-.067.64-.067 1.276v1.276c0 .64.098.636.102 1.276 0 .635-.017.635-.017 1.276 0 .64-.027.64-.027 1.275 0 .636.058.636.058 1.276 0 .641-.085.641-.085 1.276 0 .636.022.636.022 1.276s-.026.64-.026 1.276c0 .64.004.64.004 1.276 0 .64-.027.64-.027 1.276 0 .64.134.64.138 1.276 0 .64.009.64.009 1.275 0 .641-.098.641-.093 1.276 0 .64-.009.64-.009 1.276 0 .64.062.64.062 1.281 0 .64.437.837-.013 1.289-.454.452-.65-.076-1.287-.076-.637 0-.637.076-1.279.076-.641 0-.637.027-1.278.027-.642 0-.637.013-1.279.013-.641 0-.637-.045-1.274-.045s-.637-.076-1.274-.076-.637.121-1.274.121-.637-.125-1.274-.125-.637.125-1.274.125-.637-.107-1.278-.107c-.642 0-.637.125-1.279.125-.641 0-.637-.067-1.278-.067-.642 0-.637-.085-1.279-.085-.641 0-.637.161-1.278.161-.642 0-.637-.049-1.274-.049s-.637.036-1.279.036c-.641 0-.637-.05-1.278-.05-.642 0-.637-.022-1.279-.022-.641 0-.637.08-1.278.08-.642 0-.637-.071-1.279-.071-.641 0-.637-.081-1.278-.081-.642 0-.637.058-1.279.058-.641 0-.637-.067-1.278-.067-.642 0-.637.166-1.279.166-.641 0-.637-.063-1.278-.063s-.637.045-1.278.045c-.642 0-.637-.045-1.279-.045-.641 0-.637.014-1.278.014-.642 0-.642-.054-1.279-.054-.637 0-.637.004-1.278.004-.642 0-.637-.053-1.279-.053-.641 0-.637.085-1.278.085-.642 0-.637-.081-1.279-.081-.641 0-.637.112-1.278.112-.642 0-.637.009-1.279.009-.641 0-.641-.04-1.278-.04s-.637-.04-1.279-.04c-.641 0-.641.049-1.278.049h-1.279c-.641 0-.641-.041-1.278-.041s-.637.063-1.278.063c-.642 0-.642-.027-1.279-.027-.637 0-.637-.013-1.278-.013-.642 0-.642-.009-1.279-.009h-1.278c-.642 0-.642.036-1.279.036-.637 0-.637.013-1.278.013-.642 0-.642.031-1.279.031-.637 0-.637-.017-1.278-.017-.642 0-.642.022-1.279.022-.637 0-.641-.054-1.278-.054s-.642-.049-1.279-.049c-.637 0-.641.013-1.278.013s-.642.014-1.279.014c-.637 0-.641.049-1.278.049s-.642-.018-1.279-.018c-.637 0-.645-.103-1.282-.027-.65.081-.686.238-1.288.014l.05.004z" fill="#fff"/><path d="M34.394 51.671c.41.25.789.443 1.065.68.4.35.69.708.82.999.213.479.026.958-.428 1.141-.29.117-.735.063-1.27 0-.36-.04-.828-.156-1.292-.295.13.47.179.954.219 1.32.058.542.115.959.009 1.259-.17.492-.54.649-1.007.43-.285-.135-.642-.381-.989-.802-.232-.282-.441-.748-.686-1.173a8.62 8.62 0 01-.775 1.101c-.348.426-.628.721-.913.855-.468.22-.784.063-.954-.43-.102-.3-.227-.716-.164-1.257.04-.367.218-.829.347-1.299-.463.14-.918.323-1.278.363-.54.058-.936-.098-1.226-.215-.45-.183-.645-.506-.427-.985.13-.29.374-.662.775-1.011.276-.242.735-.435 1.145-.685-.41-.251-.878-.44-1.154-.676-.4-.35-.623-.739-.757-1.03-.214-.479-.058-.864.392-1.048.29-.116.717-.223 1.256-.165.36.04.726.157 1.185.295-.13-.47-.258-.841-.299-1.204a2.82 2.82 0 01.17-1.276c.169-.492.57-.73 1.038-.51.285.134.623.443.97.864.232.282.424.662.669 1.083.245-.42.526-.73.757-1.012.348-.425.655-.684.94-.814.468-.22.766-.085.936.407.102.3.191.712.133 1.249-.04.367-.111.766-.24 1.236.463-.14.85-.233 1.211-.274.54-.058.94.068 1.23.184.45.184.66.524.445 1.007-.129.291-.45.591-.85.94a7.827 7.827 0 01-1.003.753v-.005zm53.544-15.548c.427.255.842.506 1.127.748.423.362.686.711.824 1.011.223.493.067.842-.423 1.026a2.662 2.662 0 01-1.292.183c-.374-.04-.798-.197-1.279-.336a7.4 7.4 0 01.228 1.299c.062.56.115 1.011 0 1.316-.183.488-.624.649-1.114.42-.299-.138-.637-.43-.994-.855a8.192 8.192 0 01-.739-1.065c-.254.43-.552.73-.793 1.02-.36.426-.646.762-.944.896-.49.224-.82.027-1.003-.465-.115-.305-.187-.717-.124-1.276.04-.376.156-.864.294-1.343-.481.138-.967.25-1.341.29-.557.063-1.02.13-1.323.014-.486-.184-.535-.609-.312-1.101.138-.3.374-.627.797-.985.29-.246.566-.546.994-.802a7.331 7.331 0 01-1.034-.752 2.87 2.87 0 01-.78-1.03c-.222-.492-.12-.84.37-1.024.303-.117.736-.135 1.288-.072.374.04.802.099 1.283.237-.138-.483-.272-.904-.312-1.28-.062-.56.085-.98.2-1.285.183-.488.522-.694 1.007-.47.299.139.593.47.953.895.245.291.522.64.78 1.07.254-.43.459-.846.7-1.137.36-.425.734-.69 1.033-.828.49-.224.877-.04 1.06.452.116.305.174.743.111 1.303-.04.376-.116.774-.254 1.258.481-.139.891-.112 1.266-.152.556-.063 1.002-.157 1.305-.045.485.183.588.6.36 1.092-.138.3-.356.68-.779 1.039-.29.246-.717.47-1.145.73l.005.004zm35.583 27.487c.41.246.86.447 1.136.68.406.345.646.703.775.99.21.465.023.756-.445.93-.29.108-.677.247-1.203.189a6.947 6.947 0 01-1.172-.229c.13.462.156.824.196 1.182.058.533.041.95-.071 1.24-.174.466-.521.564-.989.35-.285-.13-.663-.318-1.002-.726-.232-.273-.437-.631-.677-1.038-.245.407-.468.747-.699 1.02-.343.408-.651.717-.936.847-.463.21-.806-.014-.98-.48-.107-.29-.249-.698-.191-1.226.04-.358.142-.725.276-1.182-.459.13-.829.193-1.185.228-.53.058-.949.014-1.239-.094-.463-.174-.65-.564-.436-1.034.129-.286.432-.595.833-.936.272-.232.624-.47 1.029-.711-.41-.246-.722-.524-.993-.757-.406-.345-.758-.604-.882-.89-.21-.466.022-.78.485-.954.29-.108.673-.184 1.198-.126.357.04.722.04 1.176.17-.129-.46-.129-.828-.169-1.186-.058-.533-.013-.926.098-1.217.174-.466.503-.668.971-.453.285.13.588.43.931.837.232.274.472.596.713 1.003.245-.407.423-.783.655-1.056.343-.408.757-.546 1.042-.676.463-.21.842-.157 1.016.309.107.29.107.73.049 1.258a7.12 7.12 0 01-.232 1.19c.459-.13.833-.165 1.19-.206.53-.058.935-.017 1.225.09.463.175.672.55.458 1.016-.129.287-.458.573-.859.913-.272.233-.686.484-1.092.726v.009z" fill="#F9D0BD"/><path d="M158.143 71.426c-.504-.39-.566-.305-1.07-.698-.503-.39-.476-.426-.98-.815-.503-.39-.49-.408-.993-.797-.503-.39-.477-.425-.98-.815-.503-.39-.57-.304-1.069-.694-.503-.39-.454-.456-.953-.846-.504-.39-.468-.434-.971-.828-.504-.39-.58-.287-1.083-.676-.503-.39-.445-.466-.944-.855-.504-.39-.557-.318-1.06-.707-.504-.39-.464-.44-.967-.829-.503-.389-.548-.33-1.051-.72-.504-.39-.517-.376-1.016-.766-.503-.39-.45-.46-.949-.85-.503-.39-.526-.363-1.029-.752-.503-.39-.432-.48-.935-.873-.504-.39-.508-.381-1.012-.77-.503-.39-.583-.287-1.086-.676-.336-.26-.672-.521-1.007-.784-.504-.39-.446-.465-.949-.855-.503-.39-.552-.327-1.056-.716-.503-.39-.436-.48-.935-.869-.504-.39-.539-.34-1.043-.73-.503-.389-.507-.38-1.011-.77-.503-.389-.459-.443-.962-.832-.503-.39-.503-.385-1.007-.775-.503-.389-.539-.34-1.038-.734-.503-.39-.499-.394-.997-.783-.504-.39-.473-.43-.976-.82-.503-.389-.579-.286-1.082-.675-.504-.39-.415-.506-.914-.896-.503-.39-.601-.264-1.104-.653-.504-.39-.486-.417-.989-.806-.504-.39-.464-.443-.967-.833-.503-.39-.503-.385-1.007-.779-.503-.39-.472-.43-.975-.819-.504-.39-.562-.313-1.065-.703-.503-.39-.494-.403-.993-.792-.504-.39-.49-.408-.989-.797-.504-.39-.548-.331-1.047-.72-.503-.39-.49-.408-.993-.798-.504-.39-.517-.371-1.021-.76-.503-.39-.458-.448-.962-.838-.503-.39-.499-.394-1.002-.783-.503-.39-.468-.435-.971-.824-.503-.39-.561-.313-1.065-.703-.503-.39-.476-.425-.98-.815-.503-.39-.472-.425-.975-.814-.504-.39-.473-.43-.976-.82-.503-.39-.57-.304-1.073-.694-.504-.39-.446-.465-.949-.855-.504-.39-.535-.344-1.038-.738-.504-.39-.526-.358-1.029-.748-.504-.39-.539-.34-1.043-.73-.503-.39-.472-.43-.975-.819-.503-.39-.459-.448-.962-.841-.504-.39-.49-.408-.994-.797-.503-.39-.543-.34-1.046-.73-.504-.39-.535-.35-1.038-.743-.504-.39-.428-.488-.931-.882-.504-.39-.508-.385-1.012-.775-.503-.39-.574-.295-1.078-.689-.503-.39-.418-.501-.917-.89-.504-.39-.544-.337-1.047-.726-.504-.39-.495-.398-.998-.788s-.499-.398-1.002-.788c-.504-.39-.553-.327-1.056-.716-.503-.39-.45-.461-.953-.85-.504-.39-.508-.381-1.012-.775-.503-.39-.534-.35-1.037-.743-.504-.39-.477-.426-.98-.815-.504-.39-.526-.363-1.03-.752-.503-.39-.534-.35-1.037-.743-.504-.39-.508-.385-1.007-.775-.503-.39-.459-.452-.958-.841-.503-.39-.503-.39-1.011-.78-.503-.389-.481-.42-.98-.81-.503-.39-.499-.398-1.002-.788-.504-.39-.495-.398-.998-.792-.504-.39-.499-.398-1.002-.788-.504-.39-.562-.313-1.065-.707-.503-.39-.437-.48-.94-.869-.503-.39-.512-.38-1.016-.774-.503-.39-.56-.314-1.069-.708-.503-.389-.436-.474-.94-.868-.503-.39-.525-.363-1.029-.752-.503-.39-.485-.416-.989-.81-.503-.39-.53-.359-1.033-.752-.503-.394-.548-.336-1.051-.73-.504-.394-.472-.434-.98-.824-.33-.255-.722-.376-1.096-.501-.388-.13-.77-.21-1.176-.21-.406 0-.824-.032-1.212.102-.374.13-.761.318-1.091.578l-.998.788c-.499.394-.432.479-.936.873-.498.394-.507.385-1.006.779-.5.394-.535.349-1.038.743-.499.394-.499.398-.998.788-.499.394-.486.411-.984.805-.5.394-.526.363-1.025.757-.499.394-.499.398-.998.788-.499.394-.485.412-.984.806-.5.394-.45.456-.95.85-.498.394-.538.34-1.041.734-.5.394-.53.359-1.03.748-.498.394-.48.416-.984.81-.503.394-.503.39-1.007.784-.499.394-.45.456-.953.85-.499.394-.588.278-1.091.672-.5.394-.42.501-.918.895-.499.394-.588.278-1.091.672-.5.394-.45.456-.95.85-.498.394-.48.417-.984.81-.503.395-.494.404-.997.797-.504.394-.508.386-1.007.78-.5.393-.553.326-1.052.72-.498.394-.445.466-.944.86-.499.394-.508.385-1.011.774-.499.394-.495.399-.998.793-.503.393-.499.398-.998.792-.503.394-.525.363-1.024.757-.5.393-.517.371-1.02.765-.5.394-.513.38-1.012.774-.503.394-.512.377-1.015.77-.504.395-.49.408-.994.802-.503.394-.485.412-.988.806-.504.394-.557.322-1.056.716-.504.394-.419.501-.918.895-.503.394-.485.412-.989.806-.503.394-.557.318-1.06.712-.503.394-.49.407-.993.801-.504.394-.477.425-.98.82-.504.393-.513.375-1.016.77-.503.393-.526.362-1.029.756-.503.394-.508.385-1.011.779-.504.394-.526.363-1.025.757-.503.393-.48.42-.98.814-.499.394-.517.372-1.015.766-.5.394-.433.483-.931.873-.504.394-.535.354-1.034.747-.499.394-.49.408-.989.802-.503.394-.476.425-.98.819-.503.394-.499.394-1.002.788-.504.394-.57.304-1.074.698-.503.394-.45.461-.953.85-.503.395-.543.341-1.047.735-.503.394-.432.483-.93.878-.504.393-.598.268-1.101.662s-.477.425-.98.82c-.503.393-.477.425-.98.819-.503.394-.454.456-.953.85-.504.394-.54.345-1.043.739-.503.394-.539.349-1.038.743-.503.394-.463.448-.966.841-.299.233-.58.475-.789.78-.214.308-.312.666-.423 1.025-.111.353-.29.707-.29 1.087 0 .636.156.636.156 1.272s-.124.636-.124 1.271c0 .636.026.636.026 1.272v1.271c0 .636.072.636.072 1.272 0 .635-.147.635-.147 1.27 0 .637.133.637.133 1.272v1.272c0 .635-.138.635-.138 1.271 0 .636.13.636.13 1.271 0 .636-.09.636-.09 1.272 0 .635.12.635.12 1.271 0 .636-.013.636-.013 1.272 0 .635-.151.635-.151 1.271 0 .636.067.636.067 1.271 0 .636-.014.636-.014 1.272 0 .635.018.635.018 1.271 0 .636.076.636.076 1.272 0 .635-.018.635-.018 1.271 0 .636.031.636.031 1.271 0 .636-.036.636-.036 1.272 0 .635.027.635.027 1.276 0 .64-.102.635-.102 1.276 0 .523.214 1.011.418 1.481.205.47.464.913.856 1.263.472.425.499.39.97.815.473.425.455.438.927.863.473.426.46.435.931.86.473.425.446.448.918.873.472.425.508.38.98.806.472.425.432.465.904.89.473.426.455.44.927.865.472.425.534.349 1.007.774.472.425.427.47.9.895.472.426.44.457.913.882.472.426.516.372.989.797.472.426.507.38.98.806.472.425.418.484.89.904.473.426.428.47.9.896.473.42.566.313 1.038.734.472.425.468.425.94.85.472.426.392.51.864.936.473.421.517.372.99.792.471.426.454.444.926.865.472.425.423.474.895.899.472.426.477.417.949.842s.494.398.967.819c.472.426.494.399.966.819.473.426.481.412.954.838.472.425.44.461.908.882.473.425.437.465.905.89.472.426.539.35 1.01.775.473.425.415.488.887.909.473.425.508.38.98.805.473.426.432.471.905.891.472.426.512.376.984.802.472.425.508.385.98.81.472.425.428.474.9.9.472.425.508.385.98.81" stroke="#595757" stroke-miterlimit="10" stroke-linecap="round"/><path d="M16.393 46.07c.503-.394.427-.497.93-.891.504-.394.584-.291 1.087-.685.504-.394.495-.403.998-.801.504-.394.432-.488.936-.882.503-.394.566-.314 1.069-.712l1.007-.792c.503-.394.494-.408.997-.802.504-.394.553-.336 1.056-.73.504-.393.419-.505.922-.9.504-.393.544-.344 1.047-.738.503-.394.517-.38 1.02-.775.504-.393.437-.479.94-.872.503-.394.535-.354 1.043-.748.503-.394.543-.34 1.05-.739.504-.394.526-.367 1.03-.76.503-.395.468-.444.97-.838.504-.394.509-.39 1.012-.788.504-.394.49-.412.994-.806.503-.394.494-.407.997-.8.504-.395.464-.449.967-.847.503-.394.592-.282 1.096-.676.503-.394.468-.443.97-.837.504-.394.513-.385 1.017-.78.503-.393.445-.47.948-.863.504-.394.61-.26 1.114-.658.503-.394.459-.452.962-.85.504-.395.463-.448.967-.847.503-.394.526-.367 1.029-.765.503-.394.463-.448.967-.842.503-.394.534-.358 1.037-.752.504-.394.575-.305 1.078-.698.504-.395.477-.43.98-.824.504-.394.477-.434.98-.828.504-.394.535-.359 1.038-.752.504-.395.481-.426.985-.82.503-.394.494-.407.998-.806.503-.393.539-.349 1.042-.743s.508-.39 1.011-.788c.504-.394.49-.412.994-.81.503-.394.445-.47.948-.868.504-.394.53-.363 1.034-.761.503-.394.494-.408.998-.802.503-.394.508-.39 1.015-.783.504-.394.54-.354 1.043-.748.503-.394.548-.34 1.051-.739.503-.393.499-.407 1.002-.8.508-.4.468-.448.971-.842.504-.394.37-.757 1.012-.757.637 0 .512.34 1.015.734.504.394.517.38 1.016.775.503.394.45.46.949.86.499.393.548.335 1.051.729.499.394.428.492.927.886.499.394.552.332 1.05.73.504.394.46.452.959.846.503.394.583.291 1.082.69.503.398.468.438.971.832.503.399.45.461.953.855.504.399.57.31 1.07.708.503.393.427.488.93.886.504.394.566.318 1.065.712.5.394.508.39 1.007.783.503.394.486.416.984.815.504.394.5.398 1.003.797.503.394.534.353 1.038.747.503.399.494.408.993.802.503.398.428.488.931.882.503.398.588.282 1.091.68.504.394.428.488.931.887.5.393.49.407.99.805.498.394.592.278 1.095.672.499.394.49.407.994.801.503.394.463.443.966.837.5.394.508.385 1.007.784.499.394.436.479.935.873.5.394.544.34 1.043.738.499.394.48.421.984.815.504.394.535.354 1.038.748.504.398.521.367 1.025.765.503.399.423.497.926.891.504.394.513.38 1.016.775.499.394.49.411.989.81.499.394.588.282 1.091.676.499.394.495.403.998.797.499.394.508.385 1.011.783.499.394.437.48.936.873.499.394.561.318 1.064.712.504.398.508.385 1.011.783.504.399.406.52.905.918.503.399.583.291 1.087.69.503.393.494.407.993.8.499.395.45.462.949.86.499.394.494.408.993.802.499.394.53.362 1.029.756.504.399.472.435.976.828.503.399.508.386 1.011.784.503.398.503.394 1.007.788.503.398.543.345 1.042.743.504.398.535.354 1.038.748s.437.474.94.873c.503.398.463.447.962.841.504.399.557.327 1.06.72.504.4.504.395 1.007.789.503.398.486.416.985.815.503.398.556.326 1.06.72.503.399.401.524.904.918.503.398.584.291 1.087.69.503.398.503.394 1.007.787.503.399.49.412.993.806.503.399.446.466.949.864.503.399.521.372 1.024.77.504.399.522.372 1.021.77.503.399.521.372 1.02.77.503.399.485.417.989.81l1.002.793c.503.398.508.39 1.011.788.503.398.539.349 1.042.743.504.398.482.425.98.82.504.398.473.433.976.827.503.394.512.385 1.011.78.504.398.499.402.998.796.503.399.445.47.949.869.503.398.606.26 1.109.658s.414.51.918.904c.503.398.579.3 1.078.698.503.399.436.48.94.878.503.398.512.38 1.015.779.504.398.535.354 1.038.752.504.398.499.403 1.002.797.504.398.446.47.949.864.504.398.539.349 1.043.747.503.399.552.332 1.055.73.504.399.415.51.918.909.503.398.539.353 1.038.752.503.398.481.425.984.824.504.398.539.353 1.043.752M66.57 97.766c-.486-.416-.504-.394-.994-.81-.485-.416-.41-.506-.895-.922-.486-.416-.481-.42-.971-.837-.486-.417-.472-.434-.958-.85-.486-.417-.557-.337-1.047-.753-.485-.416-.476-.43-.962-.846s-.459-.452-.944-.869c-.486-.416-.548-.344-1.034-.76-.485-.417-.468-.444-.953-.86a281.8 281.8 0 00-.976-.833c-.485-.416-.445-.465-.93-.882-.486-.416-.53-.367-1.016-.783-.486-.416-.441-.475-.927-.89-.485-.417-.49-.413-.975-.83-.486-.415-.473-.433-.963-.85-.485-.416-.543-.349-1.033-.765-.486-.417-.481-.421-.971-.837-.486-.417-.517-.38-1.007-.797-.485-.417-.468-.443-.953-.86-.486-.416-.401-.52-.887-.935-.485-.417-.503-.399-.989-.815-.485-.416-.472-.439-.957-.855-.486-.417-.58-.31-1.065-.725-.485-.417-.419-.497-.909-.914-.485-.416-.574-.318-1.06-.734-.485-.416-.463-.448-.949-.864-.485-.416-.405-.515-.89-.931-.486-.416-.522-.376-1.012-.793-.485-.416-.459-.447-.949-.864-.485-.416-.494-.411-.98-.828-.485-.416-.498-.403-.984-.819-.486-.416-.508-.394-.993-.81-.486-.416-.446-.466-.931-.882-.486-.416-.589-.3-1.074-.716-.486-.417-.454-.457-.94-.873l-.975-.833c-.486-.416-.428-.488-.914-.904-.485-.417-.548-.345-1.038-.761-.485-.417-.512-.385-1.002-.802-.485-.416-.472-.438-.958-.855-.485-.416-.445-.47-.93-.886-.49-.416-.504-.399-.994-.815-.486-.416-.53-.367-1.016-.788-.49-.416-.476-.43-.966-.846s-.46-.452-.945-.868c-.485-.417-.467-.444-.953-.864-.485-.417-.459-.448-.949-.869-.49-.416-.485-.42-.975-.837-.49-.416-.49-.412-.98-.833-.49-.416-.54-.358-1.025-.774-.49-.416-.499-.408-.989-.824s-.44-.474-.93-.89M11.688 77.85c.482.42.522.371 1.003.792.48.42.454.452.93.868.482.421.5.399.98.815.482.421.54.35 1.02.77.482.421.482.417.963.837.481.421.388.524.869.945.48.416.53.358 1.006.779.482.42.49.407.972.824.48.42.494.403.975.823.481.421.472.426.953.847.481.42.42.492.896.908.48.421.53.363 1.011.784.481.42.45.452.931.873.481.42.535.358 1.016.774.48.42.41.501.886.922.481.421.543.345 1.025.766.48.42.512.385.989.801.48.421.427.48.908.9.481.42.5.398.98.82.481.42.415.496.896.913.48.42.508.389.989.805.48.421.458.444.94.864.48.421.57.314 1.05.734.482.421.455.453.936.874.481.42.401.51.882.93.481.421.561.332 1.043.753m5.876 11.744c-.49-.434-.477-.448-.967-.882s-.44-.488-.93-.922c-.49-.435-.558-.359-1.048-.793-.49-.434-.458-.47-.948-.904-.49-.434-.455-.475-.945-.909-.49-.434-.45-.483-.94-.918-.49-.434-.588-.322-1.078-.756-.49-.434-.494-.43-.984-.864s-.455-.475-.945-.909c-.49-.434-.427-.506-.917-.94-.49-.434-.526-.394-1.016-.828-.49-.434-.548-.372-1.038-.806-.49-.434-.45-.484-.94-.918-.49-.434-.476-.452-.966-.886s-.45-.484-.94-.918" stroke="#595757" stroke-linecap="round" stroke-linejoin="round"/><path d="M30.616 45.617c.299-.375.562-.702.829-.9.44-.322.882-.349 1.171-.21.285.135.481.493.54 1.039.035.331.057.743-.014 1.213-.053.358-.187.752-.312 1.186a9.33 9.33 0 011.203-.26c.477-.07.877-.048 1.212-.008.547.067.935.215 1.05.52.112.295-.008.715-.347 1.159-.205.268-.552.492-.926.788-.285.223-.53.505-.918.738.388.233.704.425.99.65.378.3.694.581.899.85.334.443.325.86.214 1.155-.116.304-.415.474-.967.542-.33.04-.726.044-1.203-.027-.36-.054-.81-.144-1.247-.269.125.439.25.886.303 1.245.071.479.17.9.13 1.23-.068.551-.362.87-.664.986-.294.111-.727.09-1.168-.247-.267-.206-.458-.59-.757-.971a9.842 9.842 0 01-.73-1.039c-.232.39-.42.824-.642 1.11-.298.381-.65.605-.922.81-.441.337-.788.417-1.082.3-.303-.116-.597-.402-.664-.953-.04-.331.018-.752.089-1.23.053-.364.174-.766.298-1.205a9.474 9.474 0 01-1.202.26 4.422 4.422 0 01-1.212.013c-.548-.067-.94-.22-1.056-.524-.111-.295.09-.658.428-1.101.205-.269.45-.578.828-.877.285-.224.606-.48.998-.712-.387-.233-.7-.502-.984-.725a4.859 4.859 0 01-.86-.851c-.334-.443-.539-.828-.428-1.124.116-.304.53-.42 1.078-.488.33-.04.718-.009 1.194.059.361.053.713-.01 1.15.116a8.509 8.509 0 01-.237-1.097c-.07-.465-.107-.873-.075-1.204.053-.533.25-.95.516-1.102.285-.16.7-.013 1.14.291.268.184.616.403.914.77" stroke="#595757" stroke-linecap="round" stroke-linejoin="round"/><path d="M68.82 24.836c.4.242.792.48 1.064.708.397.335.69.635.815.913.205.456.036.841-.418 1.011-.286.108-.695.117-1.212.059-.348-.04-.81-.17-1.256-.3.129.447.294.909.334 1.258.058.52-.01.926-.116 1.213-.17.457-.544.654-.998.443-.276-.125-.534-.465-.869-.864-.227-.268-.494-.533-.73-.936-.24.403-.414.744-.642 1.017a2.771 2.771 0 01-.98.747c-.454.206-.841.058-1.01-.403-.108-.286-.081-.698-.023-1.217.04-.35.044-.716.174-1.164-.446.13-.811.139-1.159.174-.516.059-.94.108-1.224 0-.455-.17-.535-.564-.326-1.02a2.63 2.63 0 01.718-.972c.267-.228.694-.439 1.095-.68-.4-.242-.833-.448-1.1-.676-.396-.336-.668-.663-.793-.945-.205-.456-.04-.882.414-1.052.285-.107.704-.053 1.22 0 .348.04.75.08 1.195.21-.13-.447-.272-.841-.312-1.19-.058-.52.071-.927.178-1.213.17-.457.5-.605.958-.399.276.13.628.354.962.752.227.269.428.582.664.98a7.03 7.03 0 01.681-.97c.334-.4.655-.672.936-.802.454-.206.78-.014.949.443.107.287.187.676.129 1.195-.04.35-.134.766-.263 1.213.445-.13.864-.188 1.216-.228.517-.058.904-.022 1.19.085.454.17.547.466.338.922-.13.278-.347.591-.744.927a7.988 7.988 0 01-1.038.734l-.018.027zm34.162 27.319c.401.241.69.479.962.711.401.34.726.627.855.91.21.46-.022.805-.476.98-.286.107-.669.111-1.19.053-.352-.04-.77-.058-1.22-.188.129.453.236.864.276 1.218a2.61 2.61 0 01-.129 1.213c-.174.457-.526.663-.985.452-.28-.13-.557-.456-.891-.855a8.125 8.125 0 01-.721-1.02c-.241.403-.437.8-.664 1.07a2.734 2.734 0 01-.98.743c-.459.21-.891.103-1.06-.358-.107-.287.013-.721.07-1.245.041-.354.019-.739.148-1.19-.45.129-.815.263-1.167.304-.521.058-.931-.086-1.216-.193-.455-.174-.646-.52-.432-.985.129-.282.41-.6.806-.935.272-.229.62-.453 1.02-.694-.4-.242-.686-.547-.953-.775-.401-.34-.69-.604-.816-.886-.209-.461-.07-.77.388-.94.285-.108.673-.108 1.19-.05.351.04.761.04 1.211.17-.13-.452-.12-.864-.16-1.217-.058-.524-.165-.945-.054-1.236.174-.456.584-.577 1.043-.367.28.13.601.385.935.784.227.273.463.55.704.953.24-.403.499-.662.73-.935.339-.403.629-.694.909-.82.459-.21.891-.076 1.06.385.107.287-.004.717-.062 1.236-.04.353-.067.792-.196 1.244.45-.13.887-.165 1.238-.206.522-.058.923-.089 1.208.018.454.175.552.506.343.967-.13.282-.285.69-.682 1.026-.272.228-.619.398-1.02.64l-.022.018z" fill="#FCE4DA"/><path d="M80.325 31.172c-.062-.475.01-.882.063-1.204.084-.533.302-.873.628-.954.294-.076.721.01 1.14.345.258.206.468.573.753.94.218.282.468.573.695.954.231-.39.396-.762.623-1.048a5 5 0 01.882-.873c.441-.336.851-.35 1.15-.237.303.116.459.43.525.985.04.33.045.725-.026 1.204-.054.363-.098.779-.223 1.218a9.869 9.869 0 011.203-.283c.476-.071.877.01 1.207.05.548.067.89.197 1.007.501.11.296-.005.663-.339 1.106-.205.269-.49.542-.869.842-.285.223-.574.492-.962.725.388.233.722.443 1.007.667.379.3.677.586.882.86.334.443.356.832.24 1.127-.115.305-.4.578-.948.645-.33.04-.74-.036-1.216-.107a9.075 9.075 0 01-1.199-.247c.125.44.147.851.2 1.214.072.479.09.873.05 1.204-.067.55-.219.89-.526 1.007-.294.112-.637-.031-1.078-.371-.267-.206-.641-.403-.94-.784-.223-.286-.405-.712-.637-1.101-.232.39-.463.774-.69 1.06-.299.381-.575.686-.842.892-.441.335-.824.38-1.118.268-.303-.116-.535-.416-.602-.971-.04-.331-.022-.743.05-1.222a9.73 9.73 0 01.275-1.209c-.436.125-.828.309-1.189.363-.477.071-.89-.081-1.22-.121-.548-.067-.9-.202-1.016-.51-.112-.296.031-.654.365-1.097.205-.269.45-.587.829-.887.285-.224.61-.456.998-.694a9.898 9.898 0 01-.985-.667c-.37-.286-.592-.617-.797-.877-.33-.421-.486-.748-.42-1.043.077-.327.37-.546.896-.636.321-.054.722-.161 1.194-.103m35.022 30.917c.183-.126.366-.234.579-.363-.387-.233-.668-.524-.953-.748-.379-.3-.686-.555-.886-.824-.334-.443-.486-.828-.375-1.128.116-.304.49-.515 1.038-.582.33-.04.753-.094 1.23-.022.361.053.708.183 1.145.309a8.865 8.865 0 01-.241-1.124 4.612 4.612 0 01-.035-1.195c.053-.533.236-.887.503-1.034.285-.162.69-.13 1.131.179.268.183.495.523.798.89m1.523-.031c.299-.372.602-.658.869-.846.441-.318.895-.43 1.18-.282.281.143.477.56.535 1.1a4.9 4.9 0 01-.013 1.219c-.054.353-.196.707-.317 1.137a9.115 9.115 0 011.158-.269c.477-.072.882.031 1.212.072.548.067.851.215.967.519.111.295.018.636-.317 1.079a4.834 4.834 0 01-.859.846c-.285.224-.624.497-1.011.734.387.233.77.452 1.055.676.379.3.593.654.793.922.334.444.57.806.455 1.106-.116.305-.522.52-1.07.587a4.52 4.52 0 01-1.229 0c-.361-.054-.757-.238-1.194-.363.089.313.089.645.143.922m-56.85-48.151c.303-.349.495-.72.762-.881.437-.26.891-.26 1.154-.04.223.187.32.59.36 1.1.023.323.08.717.01 1.16-.054.34-.196.694-.312 1.106.436-.126.82-.21 1.18-.264a4.53 4.53 0 011.22-.023c.549.067.94.25 1.057.56.11.295-.045.703-.38 1.141-.204.269-.445.61-.823.91-.285.223-.668.407-1.056.64.388.232.73.47 1.016.693.378.3.623.622.828.891.334.443.562.828.45 1.124-.116.304-.539.483-1.087.55-.33.04-.753.112-1.23.045-.36-.054-.725-.21-1.162-.336.125.44.165.829.218 1.187.072.479.076.882.036 1.213-.067.55-.214.971-.517 1.088-.294.112-.672-.112-1.113-.452-.268-.206-.624-.421-.918-.802-.223-.286-.423-.671-.655-1.06a9.77 9.77 0 01-.704 1.024c-.298.381-.52.748-.788.954-.441.336-.846.3-1.145.188-.303-.116-.517-.39-.584-.94-.04-.331-.013-.734.058-1.213.054-.363.143-.806.268-1.25a9.85 9.85 0 01-1.243.265c-.477.072-.869.05-1.203.009-.548-.067-.926-.188-1.042-.497-.112-.296-.045-.743.29-1.186.204-.269.52-.551.9-.851.284-.224.583-.412.97-.645-.387-.232-.7-.403-.984-.626-.379-.3-.69-.596-.891-.864-.334-.444-.437-.914-.32-1.21.115-.303.525-.492 1.077-.559.33-.04.744-.071 1.22 0 .361.054.771.215 1.208.34-.116-.411-.223-.81-.276-1.15-.072-.443-.036-.828-.014-1.15.04-.51.076-.936.303-1.12.263-.215.73-.201 1.172.059.267.16.485.505.788.854m35.784 27.541c.298-.372.552-.68.819-.873.441-.318.829-.39 1.118-.242.276.143.49.488.548 1.03.036.331-.076.72-.147 1.19-.053.354-.027.717-.151 1.147.436-.126.788-.22 1.145-.269.476-.072.886.031 1.216.072.548.067.904.206 1.02.514.111.296-.009.676-.348 1.12-.205.268-.423.635-.802.935-.285.224-.668.385-1.055.622.387.233.753.421 1.038.645.378.3.668.605.873.878.334.443.441.877.329 1.172-.115.305-.507.457-1.055.524-.33.04-.735.09-1.212.023a9.106 9.106 0 01-1.172-.269c.125.439.112.833.165 1.19.072.48.156.878.116 1.214-.067.55-.298.815-.601.931-.294.112-.7.157-1.14-.179-.268-.206-.526-.541-.82-.922-.223-.287-.437-.667-.668-1.061-.232.39-.442.774-.664 1.061-.299.38-.66.582-.927.788-.44.336-.806.582-1.1.47-.303-.117-.445-.542-.512-1.092-.04-.332-.143-.748-.072-1.227.054-.363.21-.743.335-1.182-.437.126-.838.152-1.194.206-.477.072-.887.184-1.216.143-.548-.067-.918-.317-1.034-.622-.111-.295.063-.667.397-1.11.205-.269.41-.64.788-.936.285-.224.69-.403 1.082-.64a9.626 9.626 0 01-1.033-.703c-.379-.3-.708-.55-.913-.82-.334-.442-.432-.868-.317-1.168.116-.304.49-.479 1.038-.546.33-.04.744-.12 1.221-.049.36.054.762.224 1.198.35-.129-.448-.151-.883-.205-1.25-.07-.492-.133-.895-.089-1.235.08-.564.285-.914.62-.999.302-.076.663.099 1.1.457.267.22.65.43.949.824" stroke="#595757" stroke-linecap="round" stroke-linejoin="round"/><path d="M75.523 46.08c.464-.404.196.34.664.935.214.278.495.587.784.94.24.296.495.618.775.945.259.295.481.649.762.962.272.296.561.591.85.887.286.29.651.505.945.788.299.282.553.613.86.877.316.273.677.483.993.716.343.251.673.497 1.011.69.38.215.767.34 1.127.46.45.153.838.359 1.217.507.45.174.846.349 1.207.519a9.1 9.1 0 011.131.654c.41.277.775.505 1.034.81.294.345.414.76.583 1.173.134.327.12.698-.12 1.101-.178.3-.477.582-.766.886-.267.278-.535.574-.833.824-.317.269-.602.564-.887.775-.548.407-.45.801-1.01.635-.62-.183-.526-.398-1.07-.752-.543-.353-.592-.273-1.136-.627-.543-.353-.486-.443-1.029-.796-.543-.354-.539-.358-1.082-.708-.544-.353-.58-.295-1.123-.644-.543-.354-.526-.385-1.069-.739-.543-.354-.561-.327-1.105-.676-.543-.354-.557-.336-1.1-.685-.543-.354-.526-.38-1.07-.734-.543-.354-.516-.394-1.06-.748-.543-.353-.53-.376-1.073-.73-.543-.353-.62-.237-1.163-.59-.543-.354-.886-.13-1.042-.766-.16-.64.254-.6.566-1.182.312-.577.312-.582.623-1.16.312-.577.352-.559.664-1.136.312-.578.348-.56.66-1.142.311-.582.4-.542.668-1.141.262-.6.12-.699.614-1.129z" fill="#DDDCD6"/><path d="M99.266 74.395c.227-.587-.388-.457-.793-.936-.406-.479-.415-.465-.82-.944-.405-.48-.338-.533-.744-1.012-.405-.48-.508-.39-.913-.869-.4-.479-.334-.537-.74-1.011-.405-.48-.436-.448-.841-.927-.406-.479-.397-.483-.802-.962-.406-.48-.423-.462-.829-.94-.405-.48-.387-.493-.793-.972-.405-.48-.44-.452-.846-.931-.405-.48-.347-.524-.793-.967-.365-.202-.7-.394-1.051-.591-.361-.206-.686-.461-1.03-.663-.36-.21-.757-.34-1.1-.541-.36-.215-.659-.506-.997-.717-.357-.219-.69-.452-1.03-.662-.356-.224-.739-.385-1.068-.6-.357-.233-.664-.506-.985-.725-.356-.238-.744-.394-1.064-.614-.357-.246-.62-.582-.931-.801-.361-.26-.718-.457-1.012-.68.17-.412.397-.793.53-1.191.143-.421.178-.864.285-1.276.112-.43.165-.86.241-1.276.076-.434.263-.85.303-1.271.04-.44-.067-.878-.071-1.308 0-.438.026-.873-.018-1.298-.045-.434-.156-.855-.245-1.276-.09-.425-.218-.837-.348-1.249-.133-.412-.25-.828-.423-1.226-.174-.394-.36-.784-.57-1.164-.21-.376-.414-.757-.66-1.12-.24-.358-.467-.73-.739-1.07-.267-.335-.57-.649-.864-.97-.29-.314-.646-.57-.962-.874-.308-.295-.615-.595-.949-.877-.325-.278-.606-.623-.953-.887-.339-.26-.682-.528-1.043-.774-.352-.242-.801-.345-1.171-.573-.366-.224-.668-.56-1.047-.775-.374-.21-.797-.335-1.185-.537-.379-.197-.713-.506-1.105-.694-.387-.183-.85-.21-1.247-.39-.379-.165-.713-.474-1.118-.608-.392-.13-.842-.103-1.256-.202-.401-.098-.815-.16-1.234-.232-.41-.068-.82-.144-1.243-.184a19.184 19.184 0 00-1.252-.094c-.414-.018-.833-.148-1.26-.139-.42.005-.833.148-1.257.175-.418.027-.837.027-1.256.076-.414.05-.824.139-1.243.21-.414.072-.833.108-1.247.202-.41.09-.833.143-1.238.255-.406.112-.807.242-1.207.376-.401.134-.758.38-1.15.533-.392.152-.842.175-1.22.35-.383.174-.726.438-1.1.635-.375.197-.722.438-1.079.658-.36.22-.73.42-1.078.658-.347.242-.677.506-1.002.765-.33.265-.672.51-.98.797-.312.287-.615.582-.9.891-.285.31-.534.654-.797.985-.263.331-.49.685-.722 1.039-.231.353-.45.707-.65 1.083-.2.372-.454.716-.624 1.106a13.51 13.51 0 00-.436 1.19c-.134.417-.227.842-.33 1.258-.107.426-.196.847-.272 1.272-.075.43-.169.855-.218 1.28-.049.434-.102.864-.12 1.294-.018.434.044.868.058 1.298.013.434.044.864.084 1.294.04.434.16.85.232 1.276.071.43.13.855.232 1.271.102.421.236.828.365 1.24.129.412.17.855.33 1.258s.414.761.6 1.15c.188.39.304.816.518 1.196.213.376.44.748.677 1.11.236.358.592.636.855.98.263.341.494.704.784 1.03.285.323.61.605.918.914.307.304.583.63.913.917.325.283.632.587.98.847.343.26.74.443 1.1.68.36.237.655.587 1.03.797.373.21.823.282 1.21.47.388.188.745.439 1.146.6.396.161.788.344 1.202.483.406.135.82.264 1.243.376.432.117.86.233 1.283.323.437.094.873.17 1.3.237.442.067.878.134 1.31.179.442.045.887.063 1.32.076.445.018.886-.094 1.318-.103.445-.013.877-.072 1.31-.112.44-.04.881-.045 1.309-.112.437-.067.882-.09 1.305-.183.432-.099.824-.336 1.243-.461.423-.126.882-.144 1.287-.296.415-.156.829-.309 1.23-.492.4-.184.775-.51 1.158-.721.339.269.695.586 1.038.85.343.265.672.551 1.02.81.352.26.73.48 1.078.735.356.26.722.497 1.07.743.36.255.676.56 1.028.806.365.255.73.492 1.083.73.37.25.752.46 1.1.694.379.255.753.479 1.096.707.392.255.69.595 1.024.81.415.269.758.542 1.07.739.694.439.503.501 1.149.537.619.036.606-.063 1.225-.139.619-.08.628.014 1.247-.067.62-.08.624-.045 1.238-.12.62-.081.606-.18 1.225-.256.62-.08.628-.004 1.243-.085.62-.08.624-.045 1.238-.125.62-.08.606-.188 1.221-.269.62-.08.615-.12 1.23-.201.619-.08.628 0 1.242-.081l1.239-.161c.619-.08.628-.013 1.243-.094.619-.08.605-.17 1.225-.246.619-.08.623-.247 1.242-.175.677.076.985.452 1.208-.134l.04-.018z" fill="#fff"/><path d="M70.636 67.375c-.4-.148-.726-.443-1.095-.609a15.498 15.498 0 01-1.1-.568c-.37-.21-.745-.38-1.083-.61-.352-.236-.664-.51-.98-.76-.33-.264-.673-.502-.971-.775-.312-.286-.62-.568-.896-.864-.294-.309-.597-.595-.864-.9-.28-.322-.526-.662-.78-.971-.276-.336-.494-.694-.743-.998-.277-.34-.615-.596-.873-.887-.299-.336-.468-.734-.704-1.03-.285-.353-.637-.6-.842-.917a6.62 6.62 0 01-.575-1.11c-.16-.39-.178-.802-.254-1.218-.071-.385-.196-.775-.218-1.222-.018-.38.036-.792.04-1.245 0-.38.009-.792.018-1.24.009-.385.062-.797.076-1.24.009-.39-.04-.806-.036-1.244a18.57 18.57 0 00-.031-1.254c-.022-.443-.031-.86-.085-1.253-.058-.434-.116-.85-.21-1.24a11.245 11.245 0 00-.333-1.214c-.138-.394-.437-.72-.61-1.1-.174-.372-.254-.793-.46-1.17-.19-.357-.48-.67-.694-1.047-.192-.336-.348-.747-.57-1.141-.205-.363-.473-.712-.682-1.084-.223-.39-.383-.788-.575-1.132.468-.31.557-.068 1.1-.197.544-.126.544-.14 1.088-.269.547-.125.516-.26 1.064-.385s.553-.098 1.1-.215c.638-.139.477-.116 1.306-.17.37-.022.81-.04 1.31-.04.4 0 .837.08 1.305.107.41.018.841.094 1.296.144.414.04.864-.014 1.31.058.418.067.841.183 1.282.277.415.09.842.18 1.274.296.41.112.802.331 1.225.47.406.134.851.183 1.266.344.4.157.797.363 1.202.551.317-.524-.258-.416-.788-.944-.25-.247-.557-.529-.904-.824-.286-.246-.646-.457-.994-.716a13.76 13.76 0 00-1.015-.668c-.34-.21-.704-.38-1.079-.564-.36-.174-.712-.38-1.1-.519-.379-.134-.748-.345-1.15-.43-.391-.085-.81-.107-1.22-.134-.124-.009-.25 0-.374 0a28.094 28.094 0 01-1.265-.116c-.405-.045-.828-.099-1.265-.144-.41-.04-.829-.125-1.265-.152-.41-.022-.842.023-1.274.027-.41.005-.829.099-1.265.143-.41.04-.833.05-1.26.135-.402.08-.812.183-1.235.309-.392.116-.766.317-1.176.478-.379.153-.802.242-1.194.44-.365.183-.695.465-1.069.693-.352.21-.757.358-1.122.609-.334.233-.646.533-.99.806-.32.255-.663.506-.993.797-.383.188-.708.46-1.055.676-.366.223-.7.456-1.03.702-.338.256-.685.484-.988.766-.312.286-.646.546-.922.855-.281.318-.508.672-.753 1.007-.25.34-.464.699-.677 1.057-.214.362-.481.694-.664 1.07-.183.38-.325.779-.472 1.168-.152.394-.2.815-.325 1.218-.12.403-.303.788-.397 1.195-.093.412-.187.82-.258 1.231-.067.417-.125.833-.17 1.25-.044.42 0 .845-.022 1.257-.022.425-.174.842-.174 1.254 0 .425.125.846.143 1.258.022.43-.062.86-.027 1.267.04.434.143.846.2 1.249.063.434.157.846.237 1.235.089.443.093.878.196 1.25.116.42.28.827.423 1.226.147.412.414.77.584 1.16.173.398.374.778.57 1.154.2.385.343.797.57 1.16.227.367.539.676.788 1.025.254.354.437.752.709 1.083.276.336.543.672.837.985.294.318.673.55.98.846.312.3.628.591.949.869.325.282.58.653.913.918.339.268.709.496 1.056.747.352.255.717.488 1.069.72.36.243.722.48 1.083.704.37.228.712.497 1.078.712.378.219.77.398 1.14.6.223.12.646.313 1.1.698.29.246.53.644.887.967.302.273.632.56.966.868.308.287.682.528 1.003.833.311.295.654.573.966.873.317.304.57.671.878.971.32.314.681.569.98.86.33.322.557.72.842 1.003.285.282.668.447.984.684.32.238.615.52.962.703.352.188.749.264 1.127.394.374.13.74.314 1.132.376.387.063.788 0 1.19-.013.44-.009.859 0 1.246-.094.415-.103.838-.188 1.208-.39.356-.192.641-.528.966-.819.294-.264.53-.604.816-.953.249-.305.53-.614.775-.985.218-.332.53-.636.752-1.02.335-.583.352-.57.686-1.151.334-.582.285-.61.62-1.187.334-.582.276-.613.614-1.195.335-.582.352-.564.629-1.177.249-.551.155-.462.03-1.169-.062-.345-.2-.725-.387-1.137a4.773 4.773 0 00-.646-1.007c-.231-.291-.428-.663-.766-.936-.29-.233-.695-.349-1.078-.55a8.78 8.78 0 00-1.1-.466l.026-.009z" fill="#DDDCD6"/><path d="M71.88 39.484c-.188.6-.526 1.169-1.052 1.509-.214.139-.205.161-.419.3m-1.064 1.68c.57.201.556.228 1.127.43.57.2.574.178 1.145.38.57.201.56.22 1.131.42.57.202.588.144 1.158.345.09.032.103.135.085.229-.183.86-.147.868-.33 1.728" stroke="#595757" stroke-miterlimit="10" stroke-linecap="round"/><path d="M59.143 54.387c-.619-.228-.623.05-1.216.452-.334.229-.633.596-.86 1.007-.191.35-.245.766-.222 1.272.017.367.124.747.356 1.141.191.332.414.68.735.98.29.27.637.484 1.016.69.347.193.712.372 1.127.488.383.108.784.202 1.211.22.392.017.802-.04 1.225-.117.383-.067.798-.13 1.203-.282a8.176 8.176 0 001.114-.542c.338-.192.73-.505 1.078-.77-.401-.546-.673-.264-1.23-.649-.557-.385-.534-.42-1.091-.806-.557-.384-.503-.46-1.06-.846l-1.114-.77c-.557-.385-.646-.264-1.176-.689-.53-.42-.459-.546-1.096-.779zm37.405 5.512c-.41.031-.806.134-1.207.166-.41.035-.828-.085-1.225-.05-.41.04-.81.126-1.207.161-.414.04-.806.188-1.203.229-.419.045-.824.063-1.211.103-.424.045-.833.063-1.212.103-.437.049-.85.009-1.22.053-.46.054-.856.193-1.199.233-.766.094-1.568-.367-1.26.157.325.55.552.367 1.033.783.486.417.521.372 1.007.788.485.417.392.524.877.945.481.416.566.322 1.052.738.485.417.427.484.913.9.485.417.44.47.922.887.485.416.557.331 1.042.747.486.421.41.506.895.927.486.42 1.145.143.954.752-.192.605-.566-.022-1.199.022-.628.04-.623.162-1.251.202-.633.04-.633.018-1.265.063-.633.04-.633.004-1.265.044-.633.04-.629.072-1.261.112-.633.04-.633-.009-1.265.032-.633.04-.628.085-1.26.125-.633.04-.629.108-1.261.148-.633.04-.642-.08-1.27-.036-.633.04-.633.022-1.265.063-.633.04-.633.044-1.26.09-.633.04-.633.026-1.266.066-.632.04-.628.072-1.26.112-.633.04-.624.18-1.257.22-.632.04-.686-.247-1.283-.027-.637.233-.267.452-.597 1.253-.147.354-.173.837-.36 1.32-.152.39-.401.78-.566 1.24-.147.404-.348.816-.504 1.268-.138.412-.204.873-.347 1.32-.134.421-.232.869-.36 1.317-.126.309-.295.73-.455 1.258-.116.38-.227.814-.356 1.289-.112.403-.188.846-.308 1.303-.107.416-.325.819-.436 1.271-.107.42-.192.864-.299 1.307-.102.425-.156.873-.263 1.316-.102.43-.213.864-.316 1.303-.102.434-.294.85-.396 1.285-.098.434-.174.877-.272 1.316-.098.43-.192.864-.254 1.294a19.08 19.08 0 00-.143 1.311c-.026.44-.062.882-.058 1.321.005.439.143.873.183 1.312.04.439.098.868.17 1.303.07.434.03.89.138 1.316.106.425.285.837.423 1.253.138.417.374.797.543 1.2.17.403.334.81.535 1.2.2.389.463.738.695 1.114.231.372.445.753.703 1.106.259.354.535.69.82 1.021.285.331.543.685.855.998.308.309.637.596.971.882.508.408.446.484.958.887.513.402.575.317 1.087.716.512.403.45.483.962.886.513.403.54.363 1.052.766.512.398.516.394 1.029.797.512.402.579.317 1.091.716.512.403.494.425 1.007.824.512.402.45.483.962.881.341.269.683.536 1.024.802.513.403.464.492 1.079.707.605.211.619.009 1.26.009.642 0 .637.099 1.279.099.641 0 .637.009 1.278.009.642 0 .637-.014 1.279-.014.641 0 .636-.076 1.273-.076.638 0 .638-.04 1.275-.04.636 0 .636.121 1.274.121.637 0 .637-.041 1.274-.041s.637.063 1.278.063.637-.116 1.278-.116c.642 0 .642.116 1.279.116.637 0 .637-.134 1.278-.134.642 0 .637.013 1.279.013.641 0 .637.076 1.278.076.642 0 .637.023 1.279.023.641 0 .637-.054 1.278-.054.642 0 .637.013 1.279.013.641 0 .637.05 1.278.05.642 0 .637-.126 1.279-.126.641 0 .637.076 1.278.076.642 0 .637-.031 1.279-.031.641 0 .637.098 1.278.098.642 0 .637-.098 1.279-.098.641 0 .641.018 1.278.018s.637-.058 1.279-.058c.641 0 .637-.018 1.278-.018s.637-.009 1.278-.009c.642 0 .637.148 1.279.148.641 0 .641-.05 1.278-.05h1.279c.641 0 .637-.049 1.278-.049.642 0 .642-.009 1.279-.009h1.278c.637 0 .637.027 1.279.027.641 0 .641-.022 1.278-.022s.642-.036 1.279-.036c.637 0 .641.058 1.278.058s.642-.054 1.279-.054c.637 0 .641.018 1.278.018s.642.054 1.279.054c.637 0 .641.085 1.278.085h1.278c.637 0 .637-.058 1.279-.058.641 0 .641-.014 1.278-.014s.637.045 1.279.045c.641 0 .641-.081 1.278-.081s.637.036 1.279.036c.641 0 .641-.067 1.278-.067s.642.09 1.279.09c.637 0 .641.04 1.278.04s.642-.148 1.279-.148c.637 0 .641.085 1.278.085s.642-.031 1.279-.031c.637 0 .641.098 1.278.098s.642-.009 1.279-.009c.637 0 .641-.071 1.278-.071s.641-.049 1.283-.049c.641 0 .815.501 1.274.053.445-.438.067-.617.067-1.244s-.049-.627-.049-1.254c0-.626-.072-.626-.072-1.253 0-.627.116-.627.116-1.254 0-.626-.133-.626-.133-1.253 0-.627.12-.627.12-1.254 0-.626-.085-.626-.085-1.253 0-.627-.009-.627-.009-1.254 0-.626.089-.626.089-1.253 0-.627-.089-.627-.089-1.254 0-.626.009-.626.009-1.258 0-.63-.013-.626-.013-1.258 0-.63.138-.626.138-1.253 0-.627-.022-.627-.022-1.258s.009-.627.009-1.258.009-.627.009-1.258-.032-.631-.032-1.258c0-.626.196-.676-.107-1.222-.311-.564-.525-.309-1.064-.658-.544-.345-.495-.42-1.038-.77-.544-.345-.503-.412-1.042-.757-.544-.349-.624-.219-1.168-.564-.543-.344-.547-.335-1.091-.68-.543-.345-.494-.42-1.038-.766-.543-.349-.579-.29-1.122-.635-.544-.345-.53-.363-1.074-.712-.543-.35-.526-.372-1.069-.72-.544-.35-.486-.44-1.025-.789-.543-.349-.601-.255-1.14-.604-.543-.345-.512-.399-1.051-.743-.544-.345-.526-.372-1.069-.717-.544-.344-.579-.29-1.118-.635-.544-.35-.513-.39-1.056-.739-.544-.345-.615-.228-1.158-.573-.544-.35-.535-.363-1.074-.707-.543-.345-.49-.426-1.033-.775-.544-.349-.588-.273-1.132-.618-.543-.349-.494-.425-1.033-.77-.544-.349-.553-.33-1.096-.68-.544-.35-.504-.407-1.047-.757-.543-.349-.628-.215-1.172-.56-.543-.344-.53-.366-1.073-.716-.544-.349-.508-.402-1.051-.751-.544-.35-.566-.314-1.11-.663-.543-.35-.521-.38-1.064-.725-.544-.35-.553-.336-1.096-.685-.544-.35-.495-.43-1.056-.752-.557-.318-.583-.269-1.154-.56-.57-.29-.623-.188-1.193-.479-.571-.29-.517-.398-1.087-.685-.571-.29-.553-.327-1.123-.613-.57-.291-.583-.269-1.154-.555-.57-.291-.565-.3-1.136-.591-.57-.291-.623-.184-1.198-.47-.57-.291-.53-.372-1.1-.663-.57-.29-.566-.304-1.136-.59-.57-.292-.566-.3-1.136-.587-.57-.291-.61-.215-1.18-.506-.571-.291-.544-.34-1.119-.631-.57-.291-.605-.224-1.18-.515-.57-.291-.521-.394-1.091-.685-.37-.188-.753-.345-1.127-.515-.375-.17-.753-.345-1.132-.501-.383-.157-.784-.264-1.171-.399-.388-.139-.771-.3-1.163-.42-.392-.121-.815-.144-1.212-.247-.396-.107-.793-.22-1.194-.309-.4-.09-.81-.125-1.216-.197-.405-.071-.81-.13-1.216-.183-.41-.054-.806-.197-1.216-.237-.41-.036-.819-.09-1.234-.108-.41-.018-.824-.063-1.238-.067-.41 0-.824.116-1.234.13-.41.018-.82.04-1.234.071l.013-.013z" fill="#fff"/><path d="M96.883 62.168c.454.398.428.43.882.833.454.398.557.286 1.011.685.454.398.423.434.878.837.454.403.387.479.841.877.455.403.557.282 1.012.685m-25.69 10.15l1.266-.09c.632-.044.623-.156 1.256-.2.632-.046.641.08 1.274.035.632-.045.623-.166 1.256-.21.632-.045.637 0 1.27-.05.632-.044.632-.071 1.265-.12.632-.045.632-.04 1.265-.086.632-.044.632-.067 1.265-.111.632-.045.637.004 1.27-.04.632-.046.627-.1 1.26-.144.633-.045.633-.05 1.265-.094l1.265-.09c.633-.044.642.05 1.274.005.633-.045.637-.014 1.27-.058.632-.045.628-.13 1.26-.175.633-.045.633-.022 1.27-.067.633-.045.628-.103 1.26-.148.633-.045.638 0 1.27-.045.633-.044.633-.03 1.27-.076.632-.044.628-.147 1.26-.197.633-.044.637.005 1.27-.04.632-.045.641.063 1.274.018.632-.045.624-.175 1.256-.22.633-.044.637.019 1.274-.026.633-.045.633-.108 1.265-.153M69.644 49.209c.049.698-.023.569.138 1.397.075.403.151.882.294 1.374.124.425.432.82.614 1.267.174.425.357.846.597 1.254" stroke="#595757" stroke-miterlimit="10" stroke-linecap="round"/><path d="M77.67 69.605c.624-.04.624-.032 1.247-.072l1.248-.08c.623-.04.623-.072 1.247-.112.623-.04.628.044 1.251 0 .624-.04.629.018 1.252-.023.624-.04.624-.045 1.247-.085.624-.04.624-.067 1.248-.107.624-.04.615-.17 1.238-.21.624-.041.628.03 1.252-.014.624-.04.624-.058 1.247-.099.624-.04.628-.004 1.252-.044.624-.04.632.03 1.256-.01s.615-.196 1.243-.237c.165-.009.24-.143.116-.255l-.927-.797c-.463-.398-.476-.385-.94-.788-.463-.398-.472-.389-.935-.787-.463-.399-.428-.444-.891-.842-.463-.399-.441-.425-.904-.828-.464-.403-.446-.426-.91-.824-.462-.403-.52-.336-.984-.739" stroke="#595757" stroke-linecap="round" stroke-linejoin="round"/><path d="M62.507 43.68c-.512.241-.36.273-.886.698-.259.206-.615.385-.891.703-.232.268-.41.613-.606.962m9.591-8.648c-.682.116-.58.09-1.203.604-.303.25-.686.542-.93 1.025m-2.322 7.417c-.116.377-.214.766-.446 1.07-.231.31-.547.551-.877.766-.272.175-.307.12-.575.295" stroke="#595757" stroke-miterlimit="10" stroke-linecap="round"/><path d="M109.24 97.494c-.347-.206-.485-.69-.352-1.079.107-.317.205-.747.383-1.217.138-.367.379-.734.548-1.15.156-.381.312-.784.49-1.174.178-.39.392-.76.584-1.132.205-.394.316-.829.53-1.164.254-.399.534-.743.793-1.008.24-.241.623-.407 1.024-.586a7.29 7.29 0 011.096-.416c.365-.099.748-.215 1.145-.282.383-.067.793 0 1.18-.045.397-.05.789-.076 1.168-.103.409-.031.801-.12 1.162-.139a4.66 4.66 0 011.292.13c.423.099.842.233 1.221.443.378.21.672.537.984.846.312.31.695.61 1.029.958.33.345.655.699.949 1.039.343.398.664.761.886 1.092.259.394.121.806-.147 1.272-.196.34-.441.725-.806 1.092-.303.304-.637.631-1.002.94-.343.295-.7.595-1.047.89-.365.305-.775.547-1.091.843-.37.349-.718.689-.945 1.011-.254.358-.459.743-.695 1.088-.258.376-.459.766-.681 1.097-.276.412-.508.788-.695 1.079-.25.38-.815.519-1.207.286-.557-.331-.508-.411-1.065-.743-.557-.331-.557-.327-1.114-.658s-.539-.362-1.091-.694c-.557-.331-.575-.3-1.132-.631-.556-.331-.61-.237-1.167-.569-.556-.33-.521-.389-1.091-.698-.57-.313-.579-.29-1.136-.622v.004z" fill="#fff"/><path d="M122.719 85.305c-.164-.117-.352-.193-.556-.17-.286.031-.74.103-1.283.197-.388.062-.811.201-1.266.3-.414.094-.833.206-1.251.335-.423.13-.829.287-1.207.457-.424.193-.802.385-1.11.64-.303.25-.672.56-.899 1.03-.183.38-.188.877-.33 1.343-.129.425-.307.855-.405 1.307-.098.452-.214.904-.281 1.343-.08.484-.16.945-.209 1.357-.072.586-.081 1.074-.103 1.365a.786.786 0 00.178.542c.192.237.504.63.891 1.083.281.327.57.716.9 1.075.316.349.704.644 1.025.962.369.367.708.712 1.02.953.352.27.726.193 1.185-.017.338-.153.779-.278 1.153-.591.312-.26.615-.591.94-.91.308-.3.637-.59.945-.899.32-.318.605-.65.913-.927.356-.322.655-.671.98-.86.321-.187.762-.353 1.162-.657.335-.255.66-.578 1.016-.873.339-.282.646-.627.976-.918.347-.309.677-.622.984-.904.374-.34.74-.622 1.011-.873.357-.336.303-.86-.102-1.15-.526-.377-.517-.386-1.043-.762-.525-.376-.516-.39-1.042-.765-.526-.376-.512-.399-1.033-.775-.526-.376-.557-.331-1.083-.707-.525-.376-.499-.416-1.029-.788-.53-.371-.534-.367-1.06-.743h.013z" fill="#fff"/><path d="M88.958 106.695c.557-.287.472-.09 1.176-.453.316-.161.668-.402 1.091-.617.343-.175.749-.3 1.15-.506.352-.184.65-.52 1.038-.716.36-.184.726-.381 1.109-.578.365-.188.757-.336 1.136-.528.365-.188.766-.327 1.14-.515.37-.188.713-.434 1.087-.622s.766-.341 1.14-.529c.375-.188.767-.349 1.136-.532.379-.193.758-.372 1.127-.555.383-.193.704-.488 1.069-.672.388-.192.78-.336 1.145-.515.392-.192.775-.367 1.132-.541.405-.197.753-.44 1.1-.605.428-.201.829-.344 1.154-.492m21.106 11.889c-.543-.358-.637-.219-1.18-.577-.548-.358-.486-.448-1.034-.806-.543-.358-.566-.331-1.109-.685-.548-.358-.552-.349-1.096-.707-.543-.359-.579-.305-1.122-.663-.548-.358-.486-.452-1.034-.81-.548-.358-.53-.381-1.078-.739-.365-.239-.729-.477-1.091-.716-.548-.358-.557-.34-1.105-.699-.548-.358-.584-.299-1.131-.658-.548-.358-.526-.389-1.07-.747-.547-.358-.525-.385-1.073-.743-.548-.358-.566-.332-1.109-.69-.548-.358-.513-.412-1.06-.77-.548-.358-.606-.268-1.154-.626-.548-.359-.57-.323-1.118-.681m13.278-16.967c.254-.555.174-.591.428-1.146.254-.551.311-.529.565-1.08.254-.554.281-.54.535-1.096.254-.555.174-.591.428-1.146.253-.555.32-.524.574-1.079.254-.555.334-.52.593-1.07.254-.555.231-.564.49-1.12" stroke="#595757" stroke-miterlimit="10" stroke-linecap="round"/><path d="M149.207 87.991c-.326.528-.33.524-.655 1.052s-.33.524-.655 1.048c-.325.528-.298.541-.628 1.07-.325.528-.459.443-.789.971-.325.528-.245.578-.57 1.106l-.65 1.056c-.325.529-.276.56-.601 1.088-.241.39-.66.605-1.007.855-.361.26-.704.578-1.132.68-.427.104-.882.01-1.318-.058-.423-.067-.887-.12-1.274-.358-.521-.336-.468-.42-.985-.76-.521-.341-.485-.39-1.006-.735-.517-.34-.606-.206-1.127-.546-.522-.34-.441-.461-.963-.801-.516-.34-.592-.233-1.109-.574-.521-.34-.445-.452-.966-.796-.522-.34-.513-.354-1.034-.694-.521-.34-.552-.296-1.069-.636-.521-.34-.579-.246-1.1-.59-.522-.341-.437-.47-.958-.811-.521-.34-.579-.246-1.1-.591-.522-.34-.45-.452-.967-.792-.521-.34-.53-.323-1.051-.668-.521-.34-.597-.219-1.118-.56-.522-.34-.504-.37-1.025-.71-.521-.341-.49-.39-1.011-.735" stroke="#595757" stroke-linecap="round" stroke-linejoin="round"/><path d="M114.487 91.356c.584-.367.415-.367 1.176-.72.361-.17.82-.283 1.301-.462.405-.147.824-.358 1.296-.479.428-.112.896-.134 1.368-.206.445-.067.9-.179 1.367-.192m1.27 1.563a5.56 5.56 0 00-1.154.2 7.734 7.734 0 00-1.104.404c-.37.165-.74.322-1.061.515-.369.223-.637.541-.913.747-.566.416-.508.296-.935.698m2.512 2.096c.392-.489.348-.39.882-.905.268-.255.633-.497.989-.774.321-.247.704-.426 1.078-.632.37-.201.722-.443 1.118-.555m-27.556-24.2c.61-.045.61-.04 1.22-.085.61-.045.61-.072 1.221-.116.61-.045.61-.072 1.22-.117.611-.044.616.014 1.226-.031s.615.013 1.229-.027M84.205 95.107c.53.3.508.332 1.038.627.53.3.561.233 1.091.533.526.295.548.26 1.074.56.53.3.53.295 1.056.59.53.3.499.354 1.024.65.53.3.508.335 1.038.63.53.3.544.274 1.074.57.53.3.539.281 1.064.581M85.64 61.054c-.392-.246-.775-.47-1.14-.703-.392-.25-.802-.439-1.159-.676-.392-.26-.743-.533-1.091-.774-.392-.27-.78-.498-1.118-.74-.397-.286-.673-.613-.994-.854.17-.408.361-.775.5-1.173.142-.421.12-.878.227-1.29.111-.43.25-.837.325-1.253.076-.434.093-.864.133-1.29.04-.438.183-.863.179-1.293 0-.439-.179-.86-.223-1.285a12.074 12.074 0 00-.196-1.276c-.09-.425-.138-.855-.267-1.267-.134-.411-.308-.805-.477-1.204-.17-.394-.258-.837-.468-1.218-.205-.376-.52-.689-.766-1.052a16.346 16.346 0 00-.748-1.056c-.268-.336-.526-.68-.82-1.003-.29-.313-.615-.595-.931-.9-.307-.295-.664-.541-.998-.823-.325-.278-.579-.654-.926-.918" stroke="#595757" stroke-miterlimit="10" stroke-linecap="round"/><path d="M108.816 96.389c.107-.318.397-.68.571-1.146.138-.367.267-.78.436-1.196.156-.38.25-.81.428-1.2.178-.389.365-.778.561-1.145.205-.394.49-.726.704-1.061.254-.399.45-.793.713-1.052.24-.242.592-.462.993-.64.33-.148.704-.3 1.105-.408a14.03 14.03 0 011.149-.26c.383-.067.788-.03 1.176-.076.396-.049.784-.125 1.163-.156.41-.032.802-.103 1.167-.121m1.465 10.726c-.254.358-.605.64-.842.985-.258.376-.432.784-.654 1.115-.277.412-.495.797-.686 1.083m3.907-16.636c-.285.032-.758-.027-1.301.063-.388.063-.82.174-1.274.277-.414.094-.855.153-1.274.282-.423.13-.806.372-1.19.547a4.785 4.785 0 00-1.1.671m7.786 7.889c.299-.18.584-.502.945-.78.303-.232.681-.42 1.006-.693.308-.26.593-.56.9-.833.308-.277.66-.506.954-.774M83.016 52.57c.307.22.588.435.886.6.334.188.624.408.945.515.472.166.89.354 1.287.51.472.188.895.363 1.27.551.463.233.895.403 1.233.64.419.3.718.65.98.98.294.368.495.766.664 1.21.12.313.013.64-.178 1.024-.147.296-.258.672-.517.976M58.947 53.42c-.013-.362-.04-.752-.04-1.177 0-.363-.04-.757-.031-1.178.004-.367.067-.756.067-1.172 0-.372-.058-.761-.058-1.178 0-.456.147-.895.12-1.303-.031-.456-.196-.873-.263-1.275-.071-.448-.115-.873-.227-1.276-.116-.43-.28-.824-.432-1.222-.156-.403-.379-.77-.575-1.16-.191-.38-.298-.806-.52-1.19-.21-.363-.41-.744-.642-1.129m17.703 28.347c-.277-.184-.646-.238-.99-.403-.298-.143-.6-.323-.957-.448-.397-.143-.77-.309-1.14-.47-.384-.17-.785-.295-1.14-.479-.37-.197-.722-.416-1.066-.631a15.9 15.9 0 01-1.033-.68c-.338-.247-.637-.538-.944-.797a21.161 21.161 0 01-.927-.815c-.307-.287-.62-.56-.9-.846-.294-.305-.52-.654-.788-.95a45.635 45.635 0 01-.815-.922M49.784 70.41c.397.25.758.546 1.154.78.405.236.842.407 1.238.63.41.229.784.52 1.185.735.214.111.526.376.945.711.276.215.65.39.989.676.285.242.525.578.841.85.29.252.664.43.971.704.294.26.602.514.9.788" stroke="#595757" stroke-miterlimit="10" stroke-linecap="round"/><path d="M69.237 34.972c-.32-.206-.726-.29-1.078-.479-.338-.183-.659-.412-1.024-.568a12.344 12.344 0 00-1.1-.403c-.37-.117-.735-.269-1.123-.345-.379-.076-.78-.05-1.172-.076-.133-.009-.262-.067-.4-.076-.406-.032-.829 0-1.261-.054-.405-.05-.81-.201-1.238-.25-.406-.05-.825-.108-1.252-.144-.41-.031-.833-.004-1.26-.018-.41-.009-.825.072-1.257.09-.41.018-.824.009-1.256.063-.406.049-.81.143-1.234.232-.401.085-.842.05-1.256.175-.392.116-.74.394-1.145.55-.379.148-.77.292-1.163.484-.365.18-.775.304-1.15.524-.351.201-.69.46-1.05.703-.339.223-.718.42-1.07.68-.33.242-.672.475-1.01.752-.402.184-.771.39-1.141.596a12.66 12.66 0 00-1.096.689c-.36.25-.686.537-1.007.815-.33.282-.623.604-.913.913-.298.313-.641.595-.9.931-.267.345-.387.784-.614 1.146-.232.367-.517.699-.709 1.08-.196.384-.445.751-.605 1.15-.16.403-.236.837-.366 1.244-.129.412-.218.837-.316 1.254-.098.42-.13.85-.2 1.276-.072.43-.148.85-.188 1.275-.044.435-.124.86-.142 1.285a25.24 25.24 0 00-.018 1.294c.005.439 0 .873.022 1.294.027.438.152.864.2 1.28.05.443.09.873.157 1.285.075.443.049.895.138 1.294.102.452.285.85.4 1.23" stroke="#595757" stroke-miterlimit="10" stroke-linecap="round"/><path d="M54.19 36.763c.482-.358.597-.099 1.185-.22.588-.12.57-.2 1.158-.322.589-.12.61-.013 1.199-.134.588-.121.597-.085 1.185-.197.583-.112.41-.197 1.167-.242.334-.018.74.085 1.194.08.365 0 .761-.111 1.194-.093.374.013.766.125 1.184.16.38.032.784-.035 1.199.014.383.045.766.184 1.171.251.383.063.793.04 1.194.125M159.555 91.2c-.544-.346-.512-.395-1.056-.744-.543-.345-.561-.318-1.1-.663-.544-.344-.566-.313-1.105-.658-.543-.349-.508-.403-1.047-.752-.543-.344-.601-.255-1.14-.604-.544-.345-.557-.327-1.096-.672-.543-.349-.459-.479-1.002-.828-.544-.344-.575-.295-1.114-.644-.543-.35-.539-.354-1.078-.703-.543-.35-.557-.327-1.1-.672-.544-.349-.521-.38-1.065-.725-.543-.345-.57-.304-1.109-.65-.543-.344-.579-.286-1.118-.635-.544-.345-.53-.367-1.069-.716-.544-.35-.486-.439-1.029-.784-.544-.344-.539-.353-1.078-.698-.544-.35-.61-.242-1.154-.586-.543-.35-.499-.417-1.038-.766-.543-.35-.588-.278-1.131-.627-.544-.349-.522-.38-1.065-.73-.543-.349-.517-.384-1.06-.734-.544-.349-.539-.353-1.083-.698-.543-.35-.592-.269-1.136-.618-.543-.344-.49-.43-1.033-.774-.543-.35-.575-.296-1.118-.645-.544-.349-.495-.42-1.038-.77-.544-.349-.601-.25-1.145-.6-.543-.349-.485-.438-1.029-.788-.543-.349-.557-.33-1.118-.649-.557-.318-.584-.264-1.154-.555-.57-.29-.53-.371-1.1-.662-.57-.291-.579-.269-1.149-.56-.57-.291-.579-.273-1.15-.56-.57-.29-.543-.344-1.113-.635-.57-.291-.646-.14-1.216-.43-.571-.291-.539-.35-1.114-.64-.57-.291-.597-.238-1.167-.529-.57-.29-.53-.367-1.1-.653l-1.141-.582c-.57-.291-.606-.215-1.18-.506-.57-.29-.53-.371-1.1-.662-.571-.292-.615-.21-1.185-.502-.571-.29-.566-.304-1.136-.595-.37-.188-.7-.448-1.074-.618-.374-.17-.793-.237-1.176-.39a27.374 27.374 0 00-1.154-.434c-.387-.139-.757-.331-1.149-.452-.392-.12-.802-.188-1.198-.295-.397-.108-.789-.247-1.19-.336-.401-.09-.793-.237-1.198-.305-.405-.071-.815-.13-1.225-.183-.41-.054-.828 0-1.238-.04-.41-.036-.82-.068-1.23-.085-.41-.018-.82 0-1.234 0-.41 0-.82 0-1.234.013-.41.018-.828-.067-1.238-.036-.454.036-.9.13-1.345.17-.46.04-.909.085-1.35.126-.459.044-.904.152-1.34.197-.464.044-.932-.05-1.364 0-.468.049-.913.174-1.336.219-.481.054-.922.166-1.337.215M74.699 71.637c-.138.344-.339.707-.499 1.132-.134.363-.32.734-.468 1.146-.133.372-.294.752-.432 1.16-.124.376-.187.792-.312 1.2-.12.385-.236.779-.352 1.186-.124.309-.276.739-.436 1.267-.116.38-.312.792-.446 1.267-.11.403-.098.873-.218 1.33-.107.411-.205.85-.316 1.302-.107.42-.36.82-.468 1.267-.102.425-.17.873-.276 1.316-.102.43-.085.896-.187 1.334-.103.434-.29.85-.388 1.29-.098.434-.12.89-.213 1.33-.094.42-.205.827-.268 1.248-.062.425-.16.842-.187 1.267-.031.425-.071.855-.067 1.28 0 .43.125.851.16 1.276.036.426.032.855.099 1.276.067.42.124.846.222 1.263.099.416.192.837.321 1.24.13.407.343.783.504 1.181M59.175 54.424c-.642.157-.597.094-1.194.497-.334.228-.722.497-.95.909-.19.349-.333.792-.31 1.298.017.403.27.828.547 1.262.227.358.503.73.882 1.043.339.278.717.555 1.154.752.4.18.842.35 1.314.426.432.071.89-.054 1.372-.094" stroke="#595757" stroke-miterlimit="10" stroke-linecap="round"/><path d="M61.945 56.65c-.298-.283-.516-.654-.668-1.026-.147-.367-.124-.783-.133-1.195-.01-.39.009-.784.12-1.186.102-.377.17-.797.374-1.155.196-.34.454-.668.74-.972.285-.304.636-.52.962-.734.347-.228.686-.47 1.051-.596a4.18 4.18 0 011.194-.219c.414-.018.824.054 1.198.18.379.13.708.37 1.007.653.298.282.468.636.619 1.007.147.367.258.739.272 1.15.009.39-.09.77-.2 1.173a4.71 4.71 0 01-.455 1.093c-.196.34-.298.765-.584 1.07-.285.304-.703.43-1.029.649-.347.228-.637.546-1.006.676-.392.134-.811.166-1.199.179-.414.018-.837.018-1.211-.108a2.961 2.961 0 01-1.052-.635v-.005z" fill="url(#paint0_radial_100_658)"/><path d="M73.309 51.96c-.25.47.468-.03 1.038-.254.298-.117.619-.314.944-.506.303-.18.57-.425.82-.676.338-.34.52-.685.623-1.008.205-.658.633-1.37.072-1.163-.588.215-.46.416-.896.868s-.459.43-.895.882c-.437.452-.339.555-.815.967-.481.416-.597.331-.891.886v.005z" fill="url(#paint1_radial_100_658)"/><path d="M76.44 48.309c-.418.47-.306.465-.788.989-.267.29-.605.582-.895.895-.32.34-.637.663-.882.905" stroke="#595757" stroke-miterlimit="10" stroke-linecap="round"/><path d="M123.548 102.299c0 .573-.436 1.128-1.006 1.128-.57 0-.958-.555-.958-1.128 0-.573.383-.994.958-.994.574 0 1.006.416 1.006.994zm3.497-.001c0 .573-.392.958-.962.958s-1.047-.38-1.047-.958c0-.577.472-1.114 1.047-1.114s.962.537.962 1.114zm3.626-1.255c0 .574-.463 1.088-1.034 1.088-.57 0-.957-.514-.957-1.088 0-.573.387-.984.957-.984.571 0 1.034.411 1.034.984zm1.083-3.186c0 .573-.508 1.035-1.078 1.035a1.036 1.036 0 01-1.038-1.035c0-.573.467-1.011 1.038-1.011.57 0 1.078.438 1.078 1.011zm.017-3.402c0 .573-.526 1.106-1.1 1.106-.575 0-1.078-.528-1.078-1.106 0-.577.508-1.12 1.078-1.12.57 0 1.1.547 1.1 1.12z" fill="#DDDCD6"/><path d="M122.029 101.17c.57 0 .998.398.998.971s-.428 1.084-.998 1.084c-.57 0-.998-.506-.998-1.084m4.54-1.043c.57 0 1.113.47 1.113 1.047 0 .578-.539 1.025-1.113 1.025-.575 0-1.105-.447-1.105-1.025m4.663-2.377c.57 0 .958.55.958 1.123s-.383.954-.958.954c-.574 0-1.042-.376-1.042-.954m2.077-4.207c.57 0 1.051.443 1.051 1.016s-.481 1.052-1.051 1.052c-.571 0-1.083-.48-1.083-1.052m1.083-4.44c.57 0 .957.465.957 1.043 0 .577-.383.998-.957.998-.575 0-1.092-.42-1.092-.998" stroke="#595757" stroke-linecap="round" stroke-linejoin="round"/><path d="M67.87 84.24c.406.25.82.434 1.096.671.401.35.557.761.686 1.052.214.475.09.739-.36.922-.29.117-.669.224-1.2.166a6.931 6.931 0 01-1.21-.233c.128.466.137.873.173 1.236.058.537.138.971.031 1.267-.17.488-.592.649-1.055.434-.286-.13-.615-.407-.958-.828-.232-.282-.45-.68-.69-1.097-.241.416-.54.752-.771 1.034-.343.42-.593.774-.878.904-.468.215-.85.023-1.02-.465-.102-.3-.143-.725-.085-1.258.04-.363.112-.752.24-1.218-.458.134-.854.112-1.21.152-.535.058-.927.076-1.217-.04-.45-.183-.672-.56-.459-1.039.13-.29.513-.528.914-.877.271-.237.56-.537.966-.788a7.372 7.372 0 01-.993-.757c-.401-.349-.744-.622-.873-.913-.214-.474-.036-.949.414-1.132.29-.117.726-.01 1.256.053.356.04.802.08 1.256.215-.129-.465-.258-.904-.298-1.271-.058-.537-.071-.985.031-1.285.17-.488.593-.604 1.056-.39.285.13.592.404.935.824.232.282.49.546.735.963.24-.417.423-.748.655-1.025.343-.421.74-.61 1.025-.74.467-.214.81-.093.98.4.102.3.124.72.067 1.253-.04.362-.152.82-.281 1.285.459-.135.904-.3 1.26-.34.535-.059.967-.014 1.257.102.45.184.543.578.33 1.052-.13.291-.34.659-.74 1.003-.272.237-.66.457-1.065.708z" fill="#F9D0BD"/><path d="M68.574 86.606c-.316.022-.703.143-1.14.072-.339-.054-.708-.229-1.114-.345.125.439.178.86.232 1.218.071.479.17.886.13 1.222-.068.55-.34.828-.642.944-.294.112-.686.103-1.127-.232-.268-.206-.486-.564-.78-.94-.223-.287-.499-.565-.73-.954-.232.39-.495.676-.718.962-.298.381-.503.761-.77.967-.441.336-.869.35-1.167.238-.303-.117-.504-.444-.57-.994-.04-.331 0-.734.07-1.213.054-.363.054-.726.179-1.164-.437.125-.797.143-1.154.197a4.412 4.412 0 01-1.207.018c-.548-.068-.824-.256-.94-.56-.111-.296-.151-.712.187-1.155.205-.269.521-.55.9-.85.285-.224.744-.412 1.131-.645-.387-.233-.78-.506-1.064-.73-.379-.3-.758-.506-.958-.774-.334-.444-.392-.882-.276-1.178.116-.304.468-.55 1.015-.618.33-.04.753-.058 1.23.01.36.053.717.187 1.154.313a8.757 8.757 0 01-.25-1.209c-.071-.501-.009-.913.045-1.254.084-.568.267-.895.614-.962.308-.063.642.134 1.078.497.268.224.669.425.963.82m1.113-.093c.298-.385.597-.69.864-.9.441-.345.838-.336 1.136-.237.316.107.61.362.681.922.045.336-.03.752-.102 1.236-.053.362-.178.819-.307 1.258.436-.126.877-.305 1.238-.359.477-.071.9-.094 1.23-.049.547.067.815.358.93.663.112.295.036.626-.298 1.065-.205.269-.41.636-.788.936-.285.224-.615.398-1.003.631.646.39 1.154.739 1.515 1.097" stroke="#595757" stroke-linecap="round" stroke-linejoin="round"/><path d="M47.28 66.663c.393.251.602.542.865.78.383.344.713.604.842.886.21.47.044.85-.383 1.034-.28.12-.69.246-1.216.188-.348-.04-.78-.246-1.23-.385.125.456.303.904.343 1.267.058.528-.018.953-.116 1.253-.16.493-.534.676-.988.461-.277-.13-.517-.474-.851-.89a8.326 8.326 0 01-.758-1.075c-.236.416-.44.868-.663 1.146-.334.42-.709.609-.985.739-.454.21-.855.13-1.015-.367-.098-.296-.036-.735.017-1.263.04-.358.085-.748.21-1.209-.45.135-.824.265-1.172.305-.525.058-.966.018-1.243-.099-.423-.183-.583-.649-.374-1.119.13-.286.388-.64.77-.985.264-.237.66-.42 1.052-.667-.392-.25-.748-.479-1.011-.716-.383-.345-.664-.663-.788-.95-.21-.47-.054-.885.374-1.069.28-.12.703-.161 1.225-.103.347.04.793.206 1.238.34-.125-.456-.276-.913-.312-1.271-.058-.528-.058-.967.04-1.263.16-.492.566-.635 1.02-.425.277.13.575.412.91.833.222.277.471.604.707 1.02a8 8 0 01.69-1.034c.335-.42.629-.743.905-.868.454-.21.864-.01 1.025.488.098.295.133.73.075 1.253-.04.358-.151.761-.276 1.218.45-.134.855-.134 1.203-.175.526-.058.895-.04 1.176.081.423.183.65.528.441.998-.13.287-.437.591-.82.931a6.353 6.353 0 01-.922.717l-.004-.005z" fill="#FCE4DA"/><path d="M46.907 62.535c.472-.063.886-.121 1.207-.072.53.085.864.38.944.707.076.296-.013.73-.343 1.156-.205.26-.57.47-.94.76-.28.22-.579.466-.957.694.387.233.703.475.989.699.378.3.717.546.917.814.334.444.379.856.263 1.155-.116.305-.45.466-.998.533-.33.04-.721.027-1.198-.044-.361-.054-.704-.023-1.14-.148.124.439.155.779.209 1.137.071.479 0 .882-.036 1.218-.067.55-.205.895-.512 1.011-.294.112-.7.045-1.14-.29-.268-.207-.54-.515-.838-.896a9.676 9.676 0 01-.681-1.003c-.232.39-.401.761-.624 1.048-.299.38-.682.577-.949.783-.44.336-.788.461-1.082.35-.303-.117-.548-.44-.615-.99-.04-.331-.009-.748.062-1.227.054-.362.183-.792.308-1.23-.437.125-.878.17-1.239.223-.476.072-.886.242-1.216.201-.548-.067-.815-.384-.93-.689-.112-.295-.037-.627.298-1.07.205-.268.41-.635.788-.935.285-.224.601-.412.993-.645-.387-.233-.632-.52-.913-.743-.378-.3-.726-.524-.93-.793-.335-.443-.344-.819-.232-1.114.115-.305.383-.573.93-.64.33-.04.736.049 1.212.12.361.054.793.126 1.23.251-.125-.439-.24-.868-.294-1.227-.072-.479-.125-.895-.085-1.23.067-.551.303-.94.606-1.057.294-.112.722.018 1.163.354.267.205.512.532.81.913.223.286.477.676.709 1.065.227-.38.427-.801.645-1.083.29-.372.62-.605.878-.81.423-.332.775-.488 1.07-.412.324.08.49.412.574.944.053.323.058.708 0 1.182" stroke="#595757" stroke-linecap="round" stroke-linejoin="round"/></g><defs><radialGradient id="paint0_radial_100_658" cx="0" cy="0" r="1" gradientUnits="userSpaceOnUse" gradientTransform="matrix(-2.94264 3.1492 -2.51854 -2.35334 64.439 53.076)"><stop stop-color="#FCE3D4"/><stop offset=".33" stop-color="#FCE5D7"/><stop offset=".61" stop-color="#FCEBE1"/><stop offset=".87" stop-color="#FEF7F3"/><stop offset="1" stop-color="#fff"/></radialGradient><radialGradient id="paint1_radial_100_658" cx="0" cy="0" r="1" gradientUnits="userSpaceOnUse" gradientTransform="matrix(1.8655 .41666 -.41853 1.8739 75.173 50.243)"><stop stop-color="#FBDACF"/><stop offset=".31" stop-color="#FBDCD2"/><stop offset=".58" stop-color="#FCE4DC"/><stop offset=".83" stop-color="#FDF2EE"/><stop offset="1" stop-color="#fff"/></radialGradient><clipPath id="clip0_100_658"><path fill="#fff" d="M0 0h160v114H0z"/></clipPath></defs></svg>