<svg width="122" height="64" fill="none" xmlns="http://www.w3.org/2000/svg"><g clip-path="url(#clip0_100_510)"><path d="M98.702 47.507c-.691-.731-.011-.96-.011-1.964 0-1.003-.011-1.003-.011-2.007 0-1.003.027-1.003.027-2.007 0-1.004-.07-1.004-.07-2.007 0-1.004.037-1.004.037-2.007 0-1.004-.049-1.004-.049-2.007 0-1.004.077-1.004.077-2.008 0-1.003-.055-1.003-.055-2.007 0-1.003-.044-1.003-.044-2.007 0-1.003.099-1.003.099-2.007 0-1.004-.082-1.004-.082-2.007v-2.007c0-1.004-.011-1.004-.011-2.008 0-1.003.05-1.003.05-2.012 0-1.01-.747-1.32-.061-2.062.63-.682.987.027 1.92.027.932 0 .932.093 1.865.093.933 0 .933-.022 1.865-.022.933 0 .933-.087 1.871-.087s.938.076 1.871.076c.932 0 1.239.65 1.832-.07.724-.879.115-1.102.115-2.242s-.082-1.135-.082-2.275.28-1.172-.011-2.269a20.06 20.06 0 01-1.838-.436c-.631-.185-1.196-.469-1.766-.704a17.29 17.29 0 01-1.723-.785c-.582-.31-1.196-.524-1.701-.862-.548-.37-1.036-.78-1.503-1.172-.51-.426-.894-.944-1.311-1.37-.477-.485-.998-.872-1.366-1.33-.444-.562-.697-1.162-.993-1.62-.636-.987-.082-1.27-.993-1.538-.949-.278-.965-.131-1.953-.131h-1.98c-.993 0-.987.01-1.975.01-.988 0-.988.072-1.98.072-.993 0-.988-.006-1.975-.006-.988 0-.988.017-1.98.017-.994 0-.988-.022-1.976-.022-.987 0-.987-.017-1.98-.017s-.987.077-1.975.077c-.987 0-.987-.022-1.98-.022S75.908.71 74.916.71c-.994 0-.988.065-1.981.065-.993 0-.988-.055-1.98-.055-.993 0-.988-.01-1.98-.01-.994 0-.988-.006-1.981-.006-.993 0-.988.06-1.98.06-.994 0-.994-.005-1.981-.005-.988 0-.993-.071-1.98-.071-.988 0-.988-.011-1.975-.011-.988 0-.988.01-1.98.01h-1.976c-.987 0-.987.066-1.98.066S52.154.7 51.167.7c-.987 0-.987-.011-1.98-.011S48.199.67 47.212.67c-.988 0-.988.104-1.98.104-.994 0-.988-.087-1.976-.087-.987 0-.987.076-1.98.076s-.987-.087-1.98-.087h-1.98c-.994 0-.988.027-1.981.027-.993 0-.988-.033-1.98-.033-.993 0-.988.137-1.981.137-.993 0-.987-.142-1.98-.142s-.993.06-1.98.06c-.988 0-1.016-.213-1.965.065-.91.268-.367.562-1.004 1.55-.29.452-.603 1.014-1.053 1.57-.362.458-.724.987-1.196 1.473-.417.43-.949.796-1.454 1.222-.466.387-.987.741-1.536 1.107-.504.343-1.003.742-1.58 1.052-.543.29-1.146.486-1.755.731-.57.23-1.125.562-1.755.742-.593.17-1.224.251-1.866.376-.296 1.097-.01 1.135-.01 2.27 0 1.134-.05 1.134-.05 2.274 0 1.14-.63 1.363.093 2.247.587.72.894-.038 1.833-.038.938 0 .932.092 1.865.092.932 0 .932-.049 1.865-.049.933 0 .933.088 1.87.088.939 0 .939-.05 1.871-.05.933 0 1.256-.72 1.893-.038.686.737.005 1.02.005 2.024 0 1.003.033 1.003.033 2.007 0 1.004-.044 1.004-.044 2.007 0 1.004.066 1.004.066 2.007 0 1.004-.098 1.004-.098 2.008 0 1.003-.039 1.003-.039 2.007 0 1.003.11 1.003.11 2.007 0 1.003-.044 1.003-.044 2.007 0 1.004-.027 1.004-.027 2.007 0 1.004.043 1.004.043 2.007 0 1.004-.038 1.004-.038 2.008 0 1.003-.044 1.003-.044 2.007 0 1.003-.016 1.003-.016 2.007 0 1.003.076 1.003.076 2.012 0 1.01.642 1.244-.049 1.98-.642.688-.905.011-1.854.011h-1.887c-.944 0-.944-.038-1.887-.038-.944 0-.944.136-1.888.136-.943 0-.943-.12-1.887-.12-.943 0-.943.12-1.887.12h-1.887c-.944 0-.944-.092-1.887-.092H6.463c-.944 0-.944-.039-1.893-.039-.949 0-1.19-.589-1.843.099-.686.72-.017.949-.017 1.941 0 .993.039.993.039 1.986 0 .992.01.992.01 1.985 0 .993-.054.993-.054 1.985 0 .993.05.993.05 1.986 0 .992-.088.992-.088 1.985 0 .993-.022.993-.022 1.99 0 .999-.708 1.315 0 2.024.696.699 1.025.033 2.013.033.987 0 .987-.147 1.98-.147s.988.065 1.98.065c.994 0 .988.039 1.981.039.993 0 .988-.055 1.98-.055.993 0 .988.093 1.975.093.988 0 .988.01 1.975.01h1.975c.988 0 .988-.103 1.975-.103.988 0 .988.07 1.975.07h1.975c.987 0 .987-.114 1.98-.114s.988.006 1.98.006c.994 0 .988.082 1.976.082.987 0 .987-.028 1.975-.028.987 0 .987-.032 1.974-.032h1.975c.988 0 .988-.039 1.975-.039.988 0 .988.148 1.98.148.994 0 .988-.06 1.981-.06H44.2c.987 0 .987-.033 1.975-.033.987 0 .987.033 1.975.033.987 0 .987-.088 1.98-.088s.988.011 1.98.011c.993 0 .988.093 1.981.093.993 0 .987-.087 1.98-.087s.988-.006 1.975-.006c.988 0 .988-.01 1.98-.01.994 0 .988.027 1.981.027h1.98c.993 0 .988.087 1.98.087.994 0 .988-.01 1.981-.01h1.98c.994 0 .988.026 1.981.026.993 0 .987-.136 1.98-.136s.988.05 1.98.05c.994 0 .988.048 1.981.048.993 0 .988-.016 1.98-.016h1.981c.993 0 .987.022 1.98.022s.988.021 1.98.021c.994 0 .988.022 1.981.022.993 0 .988-.098 1.975-.098.988 0 .988.06 1.98.06.993 0 .988.016 1.975.016.988 0 .988-.103 1.98-.103.994 0 .988.103 1.981.103.993 0 .993-.06 1.98-.06h1.981c.993 0 .987-.06 1.98-.06s.993.104 1.981.104c.987 0 .993.011 1.98.011.988 0 .993-.13 1.981-.13.987 0 .993.086 1.98.086s.993-.06 1.98-.06c.988 0 .993.071 1.981.071.987 0 .993.006 1.986.006s1.316.703 2.013 0c.702-.704-.022-1.026-.022-2.018 0-.993-.077-.993-.077-1.986 0-.992.082-.992.082-1.985 0-.993.017-.993.017-1.985 0-.993.033-.993.033-1.986 0-.992.011-.992.011-1.985 0-.993-.143-.993-.143-1.99 0-.999.735-1.25.05-1.97-.648-.682-.922-.033-1.866-.033-.943 0-.943-.021-1.887-.021-.943 0-.943.087-1.887.087-.943 0-.943-.022-1.887-.022-.944 0-.944-.038-1.887-.038-.944 0-.944-.027-1.887-.027-.944 0-.944.027-1.887.027-.944 0-.944-.038-1.888-.038-.943 0-.943.01-1.887.01-.943 0-.971-.196-1.898 0-.965.202-1.19.677-1.838-.01l-.016.038z" fill="#fff"/><path d="M99.152 47.89c-.708-.683-.088-.95-.088-1.926 0-.977-.016-.982-.016-1.958 0-.977.049-.982.049-1.964s-.05-.982-.05-1.958.083-.982.083-1.963c0-.982.016-.982.016-1.959 0-.976.011-.981.011-1.963 0-.982-.022-.982-.022-1.963 0-.982-.066-.982-.066-1.964s.017-.982.017-1.964c0-.981-.016-.981-.016-1.963V24.38c0-.981.033-.981.033-1.963 0-.982.027-.982.027-1.964 0-.981-.658-1.232.01-1.958.62-.665.901.022 1.817.022.916 0 .91.044 1.826.044.917 0 .911-.06 1.827-.06.916 0 .916-.098 1.827-.098.911 0 .916.109 1.832.109s1.273.687 1.855-.017c.707-.856-.083-1.129-.083-2.236 0-1.107.115-1.113.115-2.225 0-1.113.187-1.135-.131-2.198a17.081 17.081 0 01-1.97-.47c-.691-.212-1.327-.512-1.942-.78-.663-.288-1.261-.638-1.843-.976-.625-.365-1.273-.66-1.805-1.058-.587-.442-1.064-.96-1.541-1.412a17.957 17.957 0 01-1.432-1.517c-.505-.6-.971-1.134-1.3-1.63-.708-1.075.033-1.571-.96-1.899-.916-.3-.988.028-1.953.028-.966 0-.966.109-1.937.109-.97 0-.965-.017-1.93-.017-.966 0-.966-.087-1.937-.087-.971 0-.966-.016-1.931-.016-.966 0-.966.01-1.937.01-.97 0-.965.06-1.93.06-.966 0-.966-.076-1.937-.076-.971 0-.966.011-1.931.011-.966 0-.966.055-1.937.055-.97 0-.965-.06-1.936-.06s-.966-.022-1.937-.022c-.97 0-.965.142-1.93.142-.966 0-.966-.006-1.937-.006-.971 0-.966-.054-1.937-.054-.97 0-.965-.038-1.936-.038s-.971.027-1.937.027c-.965 0-.97.06-1.936.06s-.966-.126-1.931-.126c-.966 0-.966-.021-1.937-.021-.97 0-.965.158-1.93.158-.966 0-.966-.071-1.937-.071h-1.932c-.965 0-.965-.077-1.936-.077s-.965.022-1.931.022c-.965 0-.965.093-1.936.093s-.966.022-1.931.022c-.966 0-.966-.093-1.937-.093-.971 0-.965.055-1.937.055-.97 0-.965-.022-1.936-.022s-.966-.055-1.931-.055c-.966 0-.966-.027-1.937-.027h-3.873c-.97 0-.97.038-1.936.038s-1.02-.273-1.942.027c-.993.322-.247.786-.955 1.86-.329.497-.839.998-1.35 1.598-.41.491-.828 1.059-1.37 1.577-.478.452-1.06.85-1.64 1.292-.533.404-1.114.78-1.745 1.14-.582.338-1.196.65-1.86.938-.614.268-1.245.579-1.937.791-.641.197-1.36.333-2.073.464-.324 1.063.066 1.118.066 2.23 0 1.113-.006 1.113-.006 2.226s-.67 1.314.039 2.17c.575.704.85.083 1.76.083.911 0 .911-.088 1.827-.088.916 0 .91.131 1.827.131h1.827c.91 0 .916-.016 1.832-.016s1.267-.78 1.887-.115c.67.72-.11 1.031-.11 2.013s-.01.982-.01 1.958.038.982.038 1.963c0 .982-.055.982-.055 1.959 0 .976.137.981.137 1.963 0 .982.006.982.006 1.958s-.072.982-.072 1.964c0 .981.072.981.072 1.963 0 .982-.011.982-.011 1.964 0 .981-.11.981-.11 1.963 0 .982.099.982.099 1.964s-.044.982-.044 1.963c0 .982-.038.982-.038 1.964s-.039.982-.039 1.963c0 .982.828 1.331.12 2.018-.723.704-1.063-.043-2.078-.043s-1.015-.05-2.03-.05-1.015-.026-2.03-.026-1.015.109-2.03.109-1.015-.093-2.03-.093c-1.014 0-1.014.076-2.03.076-1.014 0-1.014.033-2.029.033s-1.015-.071-2.03-.071-1.015-.01-2.035-.01c-1.02 0-1.256-.634-1.991.065-.703.67-.072.921-.072 1.892 0 .971.05.971.05 1.942 0 .97.027.97.027 1.936 0 .965-.093.971-.093 1.942 0 .97.033.97.033 1.942 0 .97-.022.97-.022 1.941 0 .971.082.971.082 1.947 0 .977-.74 1.25-.044 1.937.697.687.977.049 1.959.049.982 0 .982.027 1.97.027.987 0 .981-.104 1.969-.104.987 0 .981.011 1.969.011.987 0 .982.104 1.964.104s.982-.13 1.964-.13.982-.017 1.964-.017.982.016 1.964.016.982-.022 1.964-.022.982.05 1.97.05c.986 0 .981.098 1.969.098.987 0 .982-.066 1.969-.066h1.964c.982 0 .982.005 1.964.005s.982.06 1.964.06.982-.092 1.964-.092.982-.044 1.964-.044.982.131 1.969.131c.987 0 .982-.082 1.97-.082.987 0 .981-.049 1.969-.049.987 0 .982.017 1.964.017s.982.043 1.964.043.982-.06 1.97-.06c.987 0 .981.126 1.969.126h1.969c.987 0 .982-.044 1.97-.044.987 0 .981.044 1.969.044.987 0 .982-.093 1.97-.093.987 0 .981.093 1.969.093.987 0 .982-.011 1.97-.011.987 0 .981-.028 1.969-.028.987 0 .981-.032 1.969-.032.987 0 .982-.06 1.97-.06.987 0 .981.147 1.969.147.987 0 .982-.098 1.97-.098.987 0 .981.109 1.969.109.987 0 .982-.055 1.97-.055.987 0 .981-.103 1.969-.103.987 0 .981.016 1.969.016.987 0 .982.12 1.97.12.987 0 .981-.038 1.969-.038.987 0 .987-.022 1.97-.022.981 0 .981-.07 1.969-.07.987 0 .982.108 1.97.108.987 0 .981.044 1.969.044.987 0 .981-.11 1.969-.11.987 0 .982.066 1.97.066.987 0 .987.022 1.969.022.982 0 .982-.005 1.969-.005.988 0 .988-.06 1.97-.06s.987-.055 1.969-.055c.982 0 .987.022 1.969.022h1.97c.982 0 .987-.011 1.969-.011h1.97c.982 0 .987.06 1.969.06.982 0 .988-.044 1.975-.044.987 0 1.289.748 1.991.055.697-.682-.054-.987-.054-1.958s.011-.971.011-1.942c0-.97.043-.97.043-1.942 0-.97-.049-.97-.049-1.941 0-.971.082-.971.082-1.942 0-.97-.087-.97-.087-1.942 0-.97.104-.97.104-1.947 0-.976.598-1.238-.104-1.909-.73-.698-.982-.076-1.997-.076-1.015 0-1.015.054-2.03.054s-1.015-.076-2.03-.076-1.015.07-2.03.07c-1.014 0-1.014-.032-2.029-.032s-1.015.082-2.03.082-1.015.027-2.03.027-1.015-.043-2.03-.043-1.047-.279-2.046-.077c-1.048.213-1.262.715-1.991.011h-.044z" fill="#EFEEE8"/><path d="M2.677 47.632c-.878-.18-.483-.644-1.026-1.506-.285-.452-.636-.954-.834-1.56-.175-.54-.323-1.129-.318-1.75 0-.557.077-1.168.313-1.762.22-.551.658-1.031 1.18-1.435.45-.349.998-.676 1.612-.927.543-.218 1.169-.31 1.8-.458.587-.136 1.2-.207 1.826-.284.61-.076 1.218-.245 1.844-.267.625-.022 1.25.027 1.86.055.641.027 1.256.136 1.843.212.658.088 1.267.191 1.815.339.67.18 1.377.218 2.085.283.68.066 1.382.082 2.101.071a30.76 30.76 0 002.101-.125c.686-.055 1.393-.055 2.101-.137.686-.076 1.377-.223 2.08-.31.69-.082 1.387-.186 2.09-.252.696-.065 1.398-.087 2.106-.125.68-.038 1.35.022 2.002.093.686.082 1.339.223 1.953.414.67.208 1.322.398 1.871.715a6.3 6.3 0 011.547 1.27c.46.519.801 1.113.955 1.746.148.616.082 1.276-.127 1.969-.28.916-.603 1.582-.888 2.094-.85 1.528-.406 1.49-1.564 1.49-1.01 0-1.01.043-2.019.043-1.009 0-1.009.076-2.018.076-1.01 0-1.01-.13-2.02-.13-1.009 0-1.009.065-2.018.065-1.01 0-1.01.076-2.019.076-1.01 0-1.01-.022-2.019-.022-1.009 0-1.009-.098-2.018-.098-1.01 0-1.01.017-2.02.017h-2.018c-1.01 0-1.01.043-2.019.043-1.01 0-1.01-.087-2.018-.087-1.01 0-1.01.11-2.02.11-1.009 0-1.009.021-2.018.021-1.01 0-1.01-.066-2.019-.066-1.01 0-1.015-.081-2.024.011-1.026.093-1.048.279-2.04.071v.017z" fill="#fff"/><path d="M3.906 47.54c-1.026-.24-.67-.65-1.268-1.637-.334-.55-.663-1.183-.762-1.914-.082-.638-.104-1.358.208-2.073.247-.562.768-1.058 1.416-1.445.52-.317 1.201-.464 1.903-.677.61-.185 1.251-.425 1.948-.54.653-.103 1.338-.103 2.019-.141.674-.044 1.355-.153 2.024-.137.697.011 1.371.148 2.013.213.724.076 1.421.082 2.014.224.647.152 1.3.267 1.99.321a20.41 20.41 0 002.025.093c.664-.01 1.344.055 2.035 0 .664-.049 1.339-.142 2.02-.207.663-.066 1.338-.147 2.018-.218.67-.071 1.344-.126 2.019-.186.67-.06 1.344-.153 2.019-.185.63-.033 1.256-.066 1.86-.006.636.06 1.24.235 1.82.388.632.163 1.191.42 1.723.676.598.289 1.174.55 1.596.938.489.453.834.987 1.01 1.544.181.561.088 1.161-.132 1.8-.28.818-.56 1.407-.845 1.86-.812 1.287-.444 1.341-1.48 1.341H33.15c-.977 0-.977.033-1.948.033-.97 0-.97-.044-1.947-.044-.977 0-.977-.076-1.948-.076-.97 0-.976.104-1.947.104h-1.948c-.97 0-.976-.039-1.947-.039-.971 0-.977-.032-1.948-.032-.97 0-.976.087-1.953.087-.976 0-.976-.082-1.953-.082h-1.947c-.971 0-.976.027-1.953.027-.976 0-.976-.016-1.953-.016-.976 0-.976.093-1.953.093-.976 0-.976-.082-1.953-.017-.982.071-1.004.159-1.953-.06l.006-.01z" fill="#E8EED1"/><path d="M86.534 47.567c-.878-.18-.538-.551-1.081-1.419-.285-.452-.598-.976-.801-1.587a5.5 5.5 0 01-.28-1.75c0-.557.176-1.119.412-1.713.22-.551.598-.993 1.119-1.396.45-.35.932-.753 1.547-1.004.543-.218 1.14-.42 1.772-.567a17.44 17.44 0 011.838-.306c.608-.076 1.234-.092 1.854-.114.625-.022 1.256-.071 1.86-.05.641.028 1.261.126 1.848.208.659.087 1.256.267 1.805.414.67.18 1.382.164 2.09.23.68.065 1.377.103 2.096.087.685-.011 1.388.016 2.101-.044.686-.054 1.393-.082 2.101-.163.686-.077 1.371-.262 2.079-.344.691-.082 1.404-.06 2.107-.126.696-.065 1.393-.12 2.095-.158.68-.038 1.361-.147 2.008-.076.686.082 1.35.24 1.964.43.669.208 1.256.54 1.81.857.615.355 1.202.71 1.619 1.178.46.518.779 1.135.932 1.767.148.617.039 1.266-.17 1.959-.28.916-.455 1.658-.74 2.17-.851 1.528-.522 1.413-1.674 1.413-1.009 0-1.009.164-2.018.164-1.01 0-1.01-.126-2.019-.126-1.01 0-1.01.087-2.019.087-1.009 0-1.009-.125-2.019-.125-1.009 0-1.009.13-2.019.13-1.009 0-1.009-.092-2.018-.092h-2.019c-1.01 0-1.01.05-2.019.05-1.009 0-1.009.07-2.019.07-1.01 0-1.01-.147-2.019-.147-1.009 0-1.009.12-2.018.12-1.01 0-1.01.027-2.02.027-1.009 0-1.008-.125-2.018-.125h-2.019c-1.01 0-1.02-.077-2.03 0-1.014.07-1.03.278-2.024.076l.006-.005z" fill="#fff"/><path d="M87.62 47.49c-1.026-.24-.68-.605-1.273-1.592-.334-.55-.696-1.178-.795-1.909-.088-.644.055-1.303.373-2.013.252-.567.702-1.009 1.35-1.396.526-.316 1.102-.709 1.804-.916.615-.186 1.3-.295 1.997-.404.653-.103 1.333-.207 2.019-.25.68-.044 1.366.021 2.035.032.697.01 1.377.104 2.019.17a16.37 16.37 0 011.986.348c.647.153 1.344.115 2.035.175a20.66 20.66 0 002.03.092c.664-.01 1.349.022 2.041-.027.663-.049 1.333-.218 2.018-.289.67-.065 1.35-.082 2.03-.153.669-.07 1.344-.207 2.024-.261.675-.06 1.355-.099 2.036-.131.631-.028 1.267 0 1.87.06.637.06 1.268.141 1.849.289.631.163 1.18.502 1.706.758a6.28 6.28 0 011.525 1.02c.489.452.922.91 1.103 1.467.181.567.143 1.189-.077 1.833-.28.818-.625 1.39-.911 1.843-.811 1.287-.455 1.266-1.492 1.266-.976 0-.976.098-1.953.098-.976 0-.976-.055-1.958-.055s-.977-.07-1.953-.07c-.977 0-.977.06-1.959.06-.981 0-.976-.017-1.958-.017s-.976.093-1.958.093-.977-.022-1.959-.022c-.982 0-.976-.11-1.958-.11s-.982.044-1.959.044c-.976 0-.982.082-1.958.082-.977 0-.982-.07-1.959-.07-.976 0-.976.081-1.958.081s-.977-.13-1.959-.13c-.982 0-.981.092-1.958.092s-.987-.142-1.964-.087c-.976.054-.987.218-1.942 0h.011z" fill="#E8EED1"/><path d="M70.378 42.576c-.768.698-.999.055-2.035.055-1.037 0-1.043.043-2.08.043h-2.079c-1.036 0-1.042-.082-2.079-.082-1.036 0-1.036-.049-2.079-.049-1.042 0-1.042.077-2.079.077-1.037 0-1.042.065-2.08.065-1.036 0-1.041-.07-2.084-.07-1.042 0-1.305.697-2.073 0-.703-.639.06-.939.06-1.883 0-.943-.088-.943-.088-1.887v-1.892c0-.95.077-.944.077-1.893 0-.949-.066-.944-.066-1.893 0-.949-.044-.943-.044-1.887 0-.943.099-.943.099-1.892 0-.95-.05-.944-.05-1.893 0-.949-.021-.944-.021-1.893 0-.949-.011-.949-.011-1.892 0-.944-.653-1.25.05-1.887.767-.698 1.03.07 2.073.07 1.042 0 1.042-.032 2.079-.032 1.037 0 1.042-.027 2.079-.027 1.037 0 1.042.01 2.08.01 1.036 0 1.036-.021 2.078-.021 1.043 0 1.043.01 2.08.01 1.036 0 1.042-.038 2.079-.038 1.036 0 1.042.033 2.084.033 1.043 0 1.35-.758 2.118-.06.702.638-.099.982-.099 1.93 0 .95.143.944.143 1.888s-.05.944-.05 1.893c0 .949.033.943.033 1.892 0 .95-.11.944-.11 1.893 0 .949.072.944.072 1.887 0 .944-.055.944-.055 1.893 0 .949.066.943.066 1.892 0 .95-.039.944-.039 1.893 0 .949-.11.949.088 1.876.209.971.582 1.222-.12 1.866l-.017.005z" fill="#fff"/><path d="M96.677.612c-.987 0-.987-.022-1.975-.022-.987 0-.987.092-1.98.092S91.735.64 90.747.64c-.987 0-.987.033-1.98.033s-.988-.11-1.975-.11c-.987 0-.987.077-1.98.077s-.988-.022-1.975-.022c-.988 0-.988.022-1.98.022-.994 0-.988.016-1.976.016-.987 0-.987-.098-1.98-.098s-.987.125-1.98.125-.988-.087-1.98-.087c-.994 0-.988.044-1.981.044-.993 0-.988-.093-1.98-.093-.994 0-.988.033-1.981.033-.993 0-.987-.033-1.98-.033s-.993.12-1.98.12c-.988 0-.994-.13-1.981-.13-.988 0-.988.081-1.98.081h-3.957c-.987 0-.987.022-1.98.022s-.988.016-1.975.016c-.988 0-.988-.093-1.98-.093-.994 0-.988.033-1.975.033-.988 0-.988-.005-1.98-.005-.994 0-.988.076-1.976.076-.987 0-.987-.093-1.98-.093s-.988.05-1.98.05c-.994 0-.988-.066-1.981-.066-.993 0-.987.06-1.98.06s-.988.055-1.98.055c-.994 0-.988-.093-1.981-.093-.993 0-.988.027-1.98.027-.993 0-.993.044-1.981.044-.987 0-.993.032-1.98.032m63.867 16.635c1.015 0 1.015-.033 2.03-.033h2.03c1.014 0 1.014-.016 2.03-.016 1.014 0 1.014.06 2.029.06s1.015-.028 2.03-.028 1.015.022 2.029.022c1.015 0 1.015.017 2.03.017s1.015-.093 2.03-.093 1.015.13 2.035.13h2.035c.154 0 .33-.18.33-.332 0-1.09-.138-1.09-.138-2.182 0-1.09.072-1.09.072-2.181s.016-1.091.016-2.182m-97.697.004c0 1.09.11 1.09.11 2.182 0 1.09-.094 1.09-.094 2.181s.055 1.091.055 2.182c0 .153.115.196.269.196.949 0 .949.011 1.898.011s.949.087 1.898.087h1.898c.949 0 .949-.06 1.898-.06.95 0 .95.093 1.898.093.95 0 .95-.027 1.893-.027.943 0 .949-.07 1.898-.07s.949.092 1.898.092.949-.131 1.898-.131c.95 0 .95.07 1.904.07s.949-.005 1.903-.005m65.221 3.377c0 .921.006.921.006 1.838 0 .916-.055.922-.055 1.838s.093.916.093 1.838-.044.922-.044 1.838-.022.922-.022 1.838.094.922.094 1.838-.028.922-.028 1.844c0 .921-.077.921-.077 1.843m-75.117-.07c0-.938.06-.938.06-1.87 0-.934-.099-.939-.099-1.872 0-.932-.033-.932-.033-1.87 0-.939.121-.939.121-1.871 0-.933-.077-.938-.077-1.871s.082-.938.082-1.87c0-.934-.11-.939-.11-1.877 0-.938-.027-.938-.027-1.876m64.904-8.317c.943 0 .943-.066 1.887-.066.943 0 .943-.049 1.887-.049.944 0 .944.033 1.887.033.944 0 .944.098 1.887.098.944 0 .944-.027 1.887-.027.944 0 .944-.088 1.888-.088.943 0 .943.071 1.892.071s.944-.07 1.893-.07m-86.544-.011c.954 0 .954.104 1.903.104.949 0 .954-.077 1.903-.077.95 0 .955.027 1.904.027s.949-.032 1.904-.032c.954 0 .954.027 1.903.027.95 0 .955.044 1.904.044s.954-.088 1.903-.088c.95 0 .955.093 1.91.093.954 0 .954-.01 1.908-.01M30.43 3.818c-.647.862-.686.835-1.333 1.697-.647.861-.625.878-1.273 1.74m12.963-3.442c-.307.861-.274.872-.581 1.734-.307.862-.384.834-.691 1.696M51.26 3.834c-.154.862-.197.85-.35 1.713-.154.861-.116.867-.275 1.729M92.13 3.861c.647.862.74.791 1.393 1.653s.648.862 1.3 1.723M81.816 3.813l.615 1.723c.307.862.258.878.565 1.74M71.377 3.828c.154.862.143.862.296 1.724.154.861.115.867.269 1.729M54.92 21.778c.948 0 .948-.044 1.903-.044.954 0 .949.022 1.904.022.954 0 .949.044 1.898.044s.949-.022 1.903-.022c.955 0 .95.044 1.904.044s.949.076 1.903.076c.955 0 .955-.13 1.91-.13.954 0 .954.108 1.908.108.154 0 .225.06.225.213 0 1.014.06 1.014.06 2.023 0 1.01-.054 1.015-.054 2.024 0 1.009.005 1.014.005 2.024 0 1.009-.032 1.014-.032 2.023 0 1.009-.017 1.015-.017 2.023 0 1.01.055 1.015.055 2.024 0 1.01.016 1.015.016 2.024 0 1.009-.049 1.014-.049 2.023v2.029c0 1.015.055 1.015.055 2.029 0 .153-.115.338-.269.338-1.01 0-1.01-.12-2.019-.12-1.01 0-1.01.06-2.019.06-1.009 0-1.009-.038-2.018-.038-1.01 0-1.01-.027-2.02-.027h-4.037c-1.01 0-1.01.005-2.018.005-1.01 0-1.01.006-2.025.006s-1.01.049-2.024.049c-.154 0-.313-.12-.313-.273 0-1.025.11-1.025.11-2.05 0-1.026-.154-1.026-.154-2.052 0-1.025.077-1.025.077-2.05 0-1.026.077-1.026.077-2.051 0-1.026-.143-1.026-.143-2.05 0-1.026.022-1.026.022-2.052 0-1.025.06-1.025.06-2.05 0-1.026.066-1.026.066-2.051 0-1.026-.082-1.031-.082-2.057 0-1.025.044-1.03.044-2.056" stroke="#595757" stroke-linecap="round" stroke-linejoin="round"/><path d="M51.688 30.86c.669-.644.663-.65 1.327-1.293.67-.644.708-.605 1.377-1.255.67-.649.68-.638 1.344-1.281.67-.65.636-.676 1.306-1.326.669-.649.625-.692 1.294-1.341.67-.65.752-.568 1.421-1.217.67-.649.368-1.276 1.306-1.276.932 0 .642.616 1.31 1.26.67.644.665.65 1.334 1.298.67.65.647.671 1.317 1.315.669.649.685.632 1.35 1.276.668.649.729.584 1.398 1.233.67.649.62.698 1.29 1.347.669.649.696.621 1.365 1.27M2.693 47.56c.982 0 .982-.027 1.97-.027.987 0 .982-.044 1.97-.044.987 0 .981.131 1.969.131.987 0 .982-.098 1.97-.098.987 0 .981.06 1.969.06.987 0 .981-.082 1.963-.082h1.964c.982 0 .982.017 1.964.017s.982.021 1.964.021.982.055 1.964.055.982-.07 1.97-.07c.987 0 .982.07 1.969.07.988 0 .982-.109 1.97-.109.987 0 .981.05 1.969.05.987 0 .982-.045 1.964-.045s.982.131 1.964.131.982-.103 1.964-.103.982.049 1.97.049c.986 0 .981-.06 1.968-.06.988 0 .983.114 1.97.114h1.97c.987 0 .981-.087 1.969-.087.987 0 .982-.049 1.97-.049.987 0 .981.01 1.969.01.987 0 .982.04 1.969.04.988 0 .982.026 1.97.026h1.969c.987 0 .982.017 1.97.017.987 0 .981-.017 1.969-.017.987 0 .987.011 1.97.011.981 0 .981.05 1.969.05.987 0 .982-.028 1.969-.028.987 0 .982-.049 1.97-.049.987 0 .987-.022 1.969-.022.982 0 .982.082 1.97.082.987 0 .981-.06 1.969-.06.987 0 .987.01 1.97.01.981 0 .981.094 1.968.094.988 0 .988-.153 1.97-.153s.987.044 1.97.044c.981 0 .987.076 1.969.076.982 0 .987-.027 1.97-.027.981 0 .987.032 1.969.032.982 0 .982-.07 1.97-.07.986 0 .986.01 1.968.01.983 0 .983.088 1.97.088s.987-.044 1.97-.044c.981 0 .981-.022 1.969-.022.987 0 .987-.016 1.97-.016.981 0 .987.027 1.969.027.982 0 .987-.06 1.969-.06.982 0 .988-.016 1.969-.016.982 0 .988-.017 1.97-.017s.987.099 1.969.099c.982 0 .988-.115 1.97-.115s.987.05 1.969.05c.982 0 .988.07 1.97.07s.987-.027 1.974-.027c.988 0 .988-.099 1.975-.099M2.743 48.941v2.073c0 1.036-.038 1.036-.038 2.073 0 1.036.016 1.036.016 2.072 0 1.037-.076 1.037-.076 2.073s.137 1.036.137 2.072c0 1.037-.039 1.037-.039 2.078v2.079m116.684-14.52c0 1.037-.011 1.037-.011 2.073s.055 1.036.055 2.073c0 1.036-.116 1.036-.116 2.072 0 1.037.154 1.037.154 2.073s-.082 1.036-.082 2.072c0 1.037-.05 1.037-.05 2.078 0 1.042.105 1.037.105 2.079m-7.675-14.52c0 1.037-.06 1.037-.06 2.073s.022 1.036.022 2.073c0 1.036.011 1.036.011 2.072 0 1.037.022 1.037.022 2.073s.06 1.036.06 2.072v2.078c0 1.042-.077 1.037-.077 2.079M10.193 48.941c0 1.037-.1 1.037-.1 2.073s.094 1.036.094 2.073c0 1.036.038 1.036.038 2.072 0 1.037-.098 1.037-.098 2.073s.033 1.036.033 2.072c0 1.037-.066 1.037-.066 2.078 0 1.042.066 1.037.066 2.079m26.283-14.52c0 1.037-.006 1.037-.006 2.073s.05 1.036.05 2.073c0 1.036.021 1.036.021 2.072 0 1.037-.104 1.037-.104 2.073s.028 1.036.028 2.072c0 1.037.104 1.037.104 2.078 0 1.042-.104 1.037-.104 2.079m7.461-14.52c0 1.037.01 1.037.01 2.073s.083 1.036.083 2.073c0 1.036-.082 1.036-.082 2.072 0 1.037.01 1.037.01 2.073s.083 1.036.083 2.072c0 1.037-.115 1.037-.115 2.078 0 1.042.143 1.037.143 2.079m34.011-14.52c0 1.037.055 1.037.055 2.073s-.033 1.036-.033 2.073c0 1.036.027 1.036.027 2.072 0 1.037-.093 1.037-.093 2.073s.11 1.036.11 2.072c0 1.037-.038 1.037-.038 2.078 0 1.042-.044 1.037-.044 2.079m7.428-14.52c0 1.037.137 1.037.137 2.073s-.038 1.036-.038 2.073v2.072c0 1.037-.105 1.037-.105 2.073s.022 1.036.022 2.072v2.078c0 1.042.055 1.037.055 2.079M29.618 34.427c0-1.025.022-1.025.022-2.056 0-1.03.104-1.025.104-2.056 0-1.031-.016-1.026-.016-2.056 0-1.031-.099-1.026-.099-2.057v-2.056c0-1.025.033-1.03.033-2.056 0-.153.143-.279.296-.279 1.032 0 1.032.077 2.058.077 1.025 0 1.03-.11 2.057-.11 1.026 0 1.031.055 2.057.055s1.031-.049 2.057-.049h2.057c1.026 0 1.032.055 2.063.055 1.031 0 1.031-.093 2.063-.093.153 0 .329.191.329.344 0 1.014-.06 1.014-.06 2.023 0 1.01-.055 1.015-.055 2.024 0 1.009.021 1.014.021 2.023 0 1.01.11 1.015.11 2.024 0 1.009-.088 1.014-.088 2.023 0 1.01.011 1.015.011 2.024 0 1.009-.021 1.014-.021 2.023 0 1.01.11 1.015.11 2.024 0 1.009-.045 1.014-.045 2.029 0 1.014.028 1.014.028 2.029 0 .153-.187.245-.335.245-1.201 0-1.201-.016-2.397-.016-1.196 0-1.202.12-2.398.12m52.494-8.258c0-1.025-.038-1.025-.038-2.056 0-1.03-.017-1.025-.017-2.056 0-1.031-.038-1.026-.038-2.056 0-1.031.104-1.026.104-2.057 0-1.03-.043-1.03-.043-2.056 0-1.025.021-1.03.021-2.056 0-.153-.164-.191-.318-.191-1.031 0-1.031-.038-2.057-.038s-1.031-.017-2.057-.017-1.031.017-2.057.017-1.032-.115-2.058-.115c-1.025 0-1.03.017-2.057.017-1.026 0-1.031.125-2.062.125-1.032 0-1.032-.06-2.063-.06a.262.262 0 00-.269.267v2.024c0 1.009.06 1.014.06 2.023 0 1.01-.11 1.015-.11 2.024 0 1.009.034 1.014.034 2.023 0 1.01-.006 1.015-.006 2.024 0 1.009-.022 1.014-.022 2.023 0 1.015.094 1.015.094 2.024 0 1.009-.083 1.014-.083 2.023 0 1.01-.044 1.015-.044 2.03 0 1.014.06 1.014.06 2.028 0 .153.138.306.291.306 1.202 0 1.202-.098 2.398-.098 1.196 0 1.201.076 2.397.076" stroke="#595757" stroke-linecap="round" stroke-linejoin="round"/><path d="M1.317 45.587c-.335-.633-.647-1.375-.74-2.204-.077-.725 0-1.494.318-2.296.219-.55.554-1.085 1.08-1.489.45-.349 1.043-.584 1.663-.834.543-.219 1.124-.459 1.755-.606.587-.136 1.212-.185 1.838-.262a20.749 20.749 0 011.848-.158c.626-.022 1.251-.076 1.86-.049.642.027 1.262.11 1.849.186.658.087 1.284.18 1.827.327.669.18 1.35.316 2.062.382.68.065 1.383.065 2.102.049a30.822 30.822 0 002.1-.088c.686-.054 1.383-.141 2.096-.223.686-.077 1.377-.218 2.085-.3.691-.082 1.404-.05 2.106-.12a53.745 53.745 0 012.101-.153c.68-.038 1.35-.038 1.997.038.686.082 1.355.164 1.975.355.67.207 1.235.578 1.783.894.614.355 1.234.655 1.651 1.124.461.518.675 1.167.829 1.8a3.56 3.56 0 01-.055 1.941m47.71 1.685c-.335-.633-.697-1.369-.79-2.198-.077-.725.093-1.484.411-2.285a3.352 3.352 0 011.098-1.43c.45-.349.992-.643 1.607-.894.543-.218 1.119-.469 1.75-.616a18.654 18.654 0 011.832-.333c.61-.076 1.24-.038 1.86-.06.625-.022 1.25-.12 1.86-.093.641.028 1.256.153 1.843.235.658.087 1.267.207 1.816.349.669.18 1.36.305 2.073.37.681.066 1.388.017 2.107 0a34.72 34.72 0 002.101-.092c.686-.054 1.393-.049 2.107-.13.685-.077 1.382-.175 2.09-.257.691-.082 1.382-.251 2.084-.322.697-.065 1.399-.076 2.107-.109.68-.038 1.36-.11 2.008-.033.685.082 1.322.344 1.936.53.669.207 1.289.441 1.838.757a6.157 6.157 0 011.541 1.244c.461.518.779 1.09.933 1.724.148.616.093 1.243-.121 1.936M84.47 12.158c-.976.087-.981.043-1.963.13-.982.088-.988-.01-1.97.077s-.97.18-1.953.267c-.981.088-.987 0-1.969.082-.982.088-1.004.486-1.97.284-.998-.213-.85-.606-1.744-1.085-.894-.486-.932-.42-1.827-.906-.9-.485-.883-.507-1.782-.993-.9-.485-.823-.681-1.81-.943-.89-.235-.922-.027-1.839-.027-.916 0-.916-.028-1.832-.028s-.916.115-1.838.115c-.921 0-.916-.038-1.837-.038-.922 0-.917.005-1.838.005-.922 0-.922-.087-1.838-.087s-.932-.098-1.821.142c-.982.261-.9.436-1.794.921-.894.486-.933.415-1.832.895-.9.485-.878.513-1.778.998s-.8.725-1.8.933c-.96.201-.965-.12-1.941-.208-.982-.087-.988-.016-1.964-.098-.982-.087-.982-.049-1.964-.136-.982-.087-.988-.044-1.964-.131-.982-.087-.976-.147-1.958-.235m-.005 2.569c0 1.211.071 1.211.071 2.422 0 .136.044.316.181.333.955.114.971 0 1.926.114.954.115.954.126 1.909.24.954.115.954.104 1.914.218.955.115.955.142 1.91.257.954.114.97.496 1.92.31.91-.18.833-.447 1.64-.905.806-.458.751-.556 1.558-1.014.806-.458.795-.48 1.602-.944.806-.463.833-.414 1.645-.873.812-.458.713-.698 1.618-.938.89-.234.928-.027 1.844-.027s.921.11 1.838.11c.916 0 .921-.083 1.837-.083.916 0 .922.082 1.844.082.921 0 .921-.016 1.843-.016.921 0 .954-.267 1.843-.027.9.24.812.447 1.618.905.807.458.768.524 1.58.982l1.619.921c.806.464.839.404 1.65.868.807.463.698.774 1.614.954.943.186.954-.185 1.909-.305.954-.115.96-.066 1.914-.186.955-.114.96-.076 1.915-.19.955-.115.949-.164 1.909-.279.954-.114.965-.07 1.92-.185.137-.017.16-.18.16-.317 0-1.341.043-1.341.043-2.683M24.55 2.139c-.44.856-.226.714-.983 1.658-.34.425-.811.878-1.333 1.396-.417.415-.938.802-1.475 1.238-.472.382-.971.78-1.542 1.156-.51.339-1.037.71-1.635 1.026-.543.289-1.168.48-1.783.742-.57.24-1.146.54-1.782.747m83.631-7.936c.44.856.357.627 1.109 1.57.34.426.768.912 1.289 1.43.417.414.839.91 1.382 1.353.472.381.982.78 1.553 1.15.51.339 1.086.638 1.684.955.543.289 1.157.502 1.777.763.571.24 1.147.551 1.783.759" stroke="#595757" stroke-linecap="round" stroke-linejoin="round"/></g><defs><clipPath id="clip0_100_510"><path fill="#fff" d="M0 0h122v64H0z"/></clipPath></defs></svg>