<svg width="263" height="137" fill="none" xmlns="http://www.w3.org/2000/svg"><g clip-path="url(#clip0_100_550)"><path d="M262.448 118.355a79.305 79.305 0 00-1.745-1.309c-.575-.418-1.127-.878-1.726-1.29-.588-.4-1.264-.675-1.87-1.076-.593-.388-1.175-.806-1.792-1.188-.605-.377-1.163-.843-1.786-1.207a133.614 133.614 0 00-3.756-2.109c-.629-.335-1.3-.603-1.941-.932-.635-.323-1.282-.633-1.928-.956-.641-.311-1.276-.651-1.929-.956-.647-.304-1.323-.543-1.982-.842-.647-.293-1.282-.639-1.946-.926-.653-.281-1.318-.556-1.982-.837-.659-.274-1.312-.567-1.982-.836-.659-.263-1.353-.46-2.03-.723-.664-.257-1.341-.49-2.023-.741-.671-.251-1.347-.484-2.024-.728-.67-.239-1.323-.544-2.006-.777-.676-.233-1.335-.526-2.017-.753-.677-.227-1.377-.394-2.065-.615-.683-.215-1.365-.436-2.053-.645-.683-.21-1.371-.407-2.066-.61-.682-.203-1.388-.352-2.082-.55-.689-.197-1.353-.471-2.048-.662-.688-.192-1.376-.389-2.077-.574-.688-.185-1.382-.37-2.082-.55-.695-.179-1.383-.376-2.083-.55-.695-.172-1.407-.274-2.107-.441-.694-.168-1.394-.323-2.101-.484-.694-.162-1.382-.383-2.088-.538-.701-.155-1.413-.239-2.119-.388-.7-.15-1.394-.335-2.101-.478-.7-.144-1.424-.191-2.13-.329-.7-.137-1.412-.25-2.118-.382-.701-.132-1.389-.353-2.101-.478-.706-.126-1.412-.221-2.125-.347-.706-.12-1.424-.179-2.13-.298-.706-.114-1.406-.263-2.118-.37a113.18 113.18 0 00-2.125-.317c-.706-.108-1.418-.186-2.13-.287-.706-.102-1.418-.197-2.13-.293-.707-.095-1.419-.191-2.131-.28-.712-.09-1.4-.347-2.112-.43-.712-.09-1.442-.013-2.154-.096-.713-.084-1.419-.233-2.131-.311-.712-.078-1.43-.078-2.148-.15-.712-.071-1.412-.286-2.13-.358-.712-.066-1.424-.143-2.142-.203-.713-.066-1.437-.054-2.149-.113-.712-.06-1.43-.096-2.148-.156-.712-.053-1.424-.12-2.142-.167-.712-.048-1.424-.191-2.142-.239-.712-.048-1.43-.09-2.148-.131-.712-.042-1.436-.018-2.154-.054-.718-.036-1.437.018-2.155-.018-.718-.036-1.43-.185-2.148-.215-.718-.03-1.436.072-2.154.048-.718-.024-1.424-.221-2.148-.24-.718-.017-1.436-.03-2.154-.047-.718-.018-1.436.125-2.16.107-.718-.012-1.43-.083-2.154-.09-.718-.005-1.436-.041-2.154-.047-.718 0-1.436.012-2.154.012s-1.419 0-2.131.006c-.712 0-1.418.09-2.13.101-.712.006-1.424-.101-2.13-.09-.712.013-1.419.114-2.125.126-.712.018-1.418-.006-2.13.012-.712.018-1.418.09-2.124.114-.713.024-1.419.06-2.125.09-.712.03-1.418.023-2.13.06-.712.029-1.419.065-2.125.1-.712.037-1.418.066-2.124.108-.712.042-1.418.066-2.124.114-.713.047-1.413.185-2.119.233-.712.047-1.43-.078-2.136-.024-.706.054-1.407.215-2.113.269-.706.06-1.406.185-2.112.25-.707.066-1.413.12-2.119.186-.706.066-1.418.066-2.124.137-.706.072-1.419.084-2.125.156-.706.077-1.412.149-2.118.233-.706.083-1.412.16-2.113.244-.706.084-1.406.233-2.106.323-.706.09-1.4.245-2.101.34-.706.096-1.406.198-2.107.293-.706.102-1.424.102-2.124.203-.706.102-1.406.222-2.1.329-.707.108-1.39.329-2.084.442-.7.114-1.418.144-2.112.263-.7.12-1.389.31-2.083.436-.7.126-1.412.191-2.107.317-.7.131-1.412.185-2.106.316-.7.138-1.395.299-2.089.442-.7.138-1.37.395-2.065.538-.7.144-1.412.197-2.107.347-.694.149-1.364.424-2.053.58-.694.154-1.424.16-2.112.322-.695.161-1.371.382-2.06.55-.694.167-1.388.316-2.07.49-.689.172-1.365.4-2.048.579-.688.179-1.388.304-2.07.49-.69.185-1.348.472-2.024.663-.689.19-1.4.275-2.077.472-.683.203-1.36.418-2.036.627-.682.21-1.335.496-2.011.705-.683.215-1.336.49-2.012.711-.676.221-1.4.305-2.065.532-.677.227-1.341.483-2.006.722-.676.239-1.33.52-1.988.765-.67.245-1.359.43-2.017.675-.67.251-1.288.628-1.94.884-.665.263-1.354.448-2.007.717-.664.269-1.305.58-1.952.855-.659.28-1.33.513-1.976.8-.653.287-1.311.556-1.952.848-.653.299-1.288.616-1.923.921-.647.31-1.27.651-1.899.967-.64.323-1.293.61-1.917.932-.635.329-1.287.622-1.904.956-.63.341-1.181.819-1.793 1.165-.623.353-1.281.633-1.887.992-.617.37-1.204.765-1.804 1.135-.605.382-1.246.705-1.833 1.093-.6.395-1.104.92-1.68 1.321-.587.412-1.228.734-1.792 1.153-.575.43-1.097.92-1.643 1.356-.564.448-1.2.866-1.733 1.314-.214 1.01-.018 1.045-.018 2.079 0 1.034.113 1.034.113 2.061 0 1.028-.107 1.028-.107 2.061 0 1.034.024 1.034.024 2.061 0 1.028.089 1.034.089 2.061 0 1.028.006 1.034.006 2.061 0 1.028-.101 1.034-.101 2.068 0 1.033-.736 1.403 0 2.12.765.741 1.115-.095 2.184-.095 1.068 0 1.062.012 2.124.012s1.062-.048 2.124-.048c1.063 0 1.063.018 2.125.018s1.062.119 2.124.119 1.062-.012 2.125-.012c1.062 0 1.062-.018 2.13-.018 1.068 0 1.062-.065 2.13-.065 1.068 0 1.063.048 2.13.048 1.069 0 1.063-.036 2.131-.036h2.124c1.063 0 1.063-.072 2.125-.072s1.062.131 2.124.131 1.062-.077 2.125-.077c1.062 0 1.062-.03 2.124-.03s1.062.054 2.125.054c1.062 0 1.062-.084 2.124-.084s1.062.114 2.124.114c1.063 0 1.063-.06 2.125-.06s1.062.036 2.124.036 1.062-.072 2.13-.072c1.069 0 1.063.078 2.13.078 1.069 0 1.063.041 2.131.041 1.068 0 1.062.024 2.13.024 1.069 0 1.063-.125 2.13-.125 1.069 0 1.063.09 2.131.09 1.068 0 1.062-.006 2.125-.006 1.062 0 1.062-.114 2.124-.114s1.062.03 2.124.03c1.063 0 1.063.024 2.125.024s1.062.101 2.124.101c1.063 0 1.063-.131 2.13-.131 1.069 0 1.063.066 2.131.066h2.13c1.069 0 1.063.047 2.13.047 1.069 0 1.063-.012 2.131-.012 1.068 0 1.062-.005 2.13-.005 1.069 0 1.063-.006 2.13-.006 1.069 0 1.063-.018 2.125-.018h2.124c1.063 0 1.063.047 2.13.047 1.069 0 1.063-.113 2.131-.113 1.068 0 1.062.084 2.13.084 1.069 0 1.063.053 2.13.053 1.07 0 1.063-.131 2.131-.131 1.068 0 1.063.066 2.13.066h2.131c1.068 0 1.062.035 2.13.035 1.068 0 1.063-.095 2.131-.095 1.068 0 1.062-.012 2.13-.012 1.068 0 1.062.012 2.13.012 1.069 0 1.063.006 2.131.006 1.068 0 1.062-.03 2.13-.03 1.068 0 1.062.131 2.13.131 1.069 0 1.063.03 2.131.03 1.068 0 1.062-.131 2.13-.131 1.068 0 1.062.089 2.13.089 1.069 0 1.063-.107 2.131-.107 1.068 0 1.062.113 2.13.113 1.068 0 1.062.042 2.13.042 1.069 0 1.063-.012 2.131-.012 1.068 0 1.062-.053 2.13-.053 1.068 0 1.062-.084 2.131-.084 1.068 0 1.062.107 2.13.107h2.13c1.068 0 1.062-.113 2.131-.113 1.068 0 1.062-.024 2.13-.024 1.068 0 1.062.012 2.13.012h2.131c1.068 0 1.062.006 2.124.006s1.062.137 2.124.137c1.063 0 1.063-.083 2.125-.083s1.062.012 2.124.012 1.062.053 2.125.053c1.062 0 1.062.018 2.13.018 1.068 0 1.062.018 2.13.018 1.069 0 1.063-.036 2.131-.036 1.068 0 1.062-.023 2.13-.023 1.068 0 1.062-.12 2.124-.12 1.063 0 1.063.143 2.125.143s1.062.03 2.124.03c1.063 0 1.063-.137 2.131-.137 1.068 0 1.062.054 2.13.054h2.13c1.068 0 1.063.041 2.131.041 1.068 0 1.062-.071 2.13-.071 1.068 0 1.062.065 2.13.065 1.069 0 1.063-.101 2.131-.101 1.068 0 1.062.066 2.13.066 1.068 0 1.062-.042 2.13-.042 1.069 0 1.063.107 2.131.107 1.068 0 1.062-.065 2.13-.065 1.068 0 1.062.012 2.13.012 1.069 0 1.069.041 2.131.041 1.062 0 1.062-.053 2.13-.053 1.068 0 1.062.059 2.131.059 1.068 0 1.062-.077 2.13-.077 1.068 0 1.068-.054 2.13-.054 1.062 0 1.062.054 2.131.054 1.068 0 1.062-.036 2.13-.036 1.068 0 1.068.012 2.13.012 1.062 0 1.062.03 2.131.03h2.13c1.062 0 1.062.018 2.13.018 1.068 0 1.068.077 2.131.077 1.062 0 1.068-.155 2.13-.155 1.062 0 1.068.072 2.13.072 1.063 0 1.063-.078 2.131-.078 1.068 0 1.068.125 2.13.125 1.062 0 1.062-.095 2.13-.095 1.069 0 1.069.119 2.131.119 1.062 0 1.062-.077 2.13-.077 1.068 0 1.068-.024 2.13-.024 1.063 0 1.063-.012 2.131-.012 1.068 0 1.068.113 2.13.113 1.062 0 1.068-.036 2.13-.036 1.063 0 1.069.024 2.131.024 1.062 0 1.068-.029 2.13-.029 1.062 0 1.068-.03 2.131-.03 1.062 0 1.068-.048 2.13-.048 1.062 0 1.068.125 2.13.125 1.062 0 1.068-.024 2.136-.024 1.069 0 1.431.759 2.161-.023.777-.831-.095-1.165-.095-2.307 0-1.141.017-1.141.017-2.282s-.023-1.141-.023-2.282.077-1.141.077-2.282.035-1.141.035-2.282.048-1.141.048-2.282-.214-1.147-.131-2.288c.089-1.153.303-1.171.077-2.288l-.047-.006z" fill="#fff"/><path d="M51.864 99.895c.837-.67 1.098.036 2.16.102 1.063.065 1.063.137 2.125.203 1.068.065 1.062.095 2.13.161 1.068.066 1.068.185 2.124.024 1.027-.161.665-.406 1.751-1.04a13.503 13.503 0 011.851-.902c.6-.239 1.24-.49 1.959-.645a12.09 12.09 0 012.047-.25c.659-.03 1.353-.12 2.071-.03a12.82 12.82 0 012.035.447c.807.24 1.514.574 2.184.819.813.293 1.567.49 2.19.788a9.913 9.913 0 011.958 1.255c.742.597 1.234 1.195 1.359 1.858.13.693-.154 1.41-.635 2.204-.285.472-.896.879-1.72 1.327-.582.316-1.211.741-1.965 1.033-.653.251-1.37.478-2.107.711a57.48 57.48 0 01-2.136.61c-.724.191-1.442.406-2.148.567a59.81 59.81 0 01-2.178.46c-.801.155-1.566.161-2.213.251-1.08.155-1.858.221-2.19.161-.421-.071-1.11-.34-2-.681-.587-.227-1.258-.502-1.982-.77-.635-.233-1.34-.377-2.041-.604-.665-.215-1.33-.49-2.024-.669-.694-.179-1.412-.197-2.106-.305-.718-.107-1.413-.25-2.101-.25-.071-1.165.25-1.136.522-2.271.273-1.135.505-1.099.552-2.264.048-1.243-.38-1.577.528-2.306v.006zm11.578-70.819c.077-.723.089-1.44.112-2.139.024-.729.101-1.446.066-2.145-.036-.729-.22-1.428-.32-2.12a19.84 19.84 0 00-.416-2.097 17.246 17.246 0 00-.659-2.032 14.587 14.587 0 00-.931-1.911 13.287 13.287 0 00-1.175-1.775c-.446-.555-.855-1.147-1.395-1.619-.528-.46-1.18-.764-1.804-1.135-.593-.358-1.157-.812-1.84-1.081-.64-.251-1.347-.37-2.065-.538-.664-.155-1.353-.358-2.088-.436-.718-.078-1.448.012-2.178.06-.718.048-1.448.083-2.16.245-.7.155-1.377.43-2.065.693-.67.257-1.371.478-2.018.824-.635.34-1.175.849-1.774 1.273-.588.418-1.199.806-1.745 1.296-.54.484-1.003 1.04-1.483 1.59a18.933 18.933 0 00-1.324 1.726c-.41.597-.866 1.17-1.204 1.816-.333.64-.647 1.302-.908 1.99-.255.674-.374 1.403-.54 2.12-.166.705-.333 1.41-.41 2.145-.077.765-.047 1.523.012 2.276.054.759.172 1.506.344 2.246.178.741.422 1.452.707 2.163.278.705.61 1.38.985 2.05.367.662.64 1.391 1.086 2.012.439.616.996 1.16 1.5 1.727-.011.568-.106 1.267-.16 2.025-.04.645.018 1.344-.07 2.031-.084.675-.327 1.333-.47 1.978-.154.699-.296 1.368-.533 1.947-.291.717-.683 1.261-1.134 1.631-.748.735-.712.771-1.442 1.524s-.742.74-1.466 1.493c-.73.753-.617.86-1.347 1.613l-1.46 1.506c-.73.753-1.697.406-1.584 1.452.119 1.063.973.55 1.852 1.153.878.603.896.573 1.78 1.177.878.603.801.723 1.68 1.32.877.603.949.502 1.827 1.105s.86.64 1.739 1.237c.878.603.854.645 1.732 1.248.879.604.902.568 1.78 1.171.879.604.879.61 1.757 1.213.878.604.837.67 1.715 1.273.878.603.914.555 1.792 1.159.884.603.878.615 1.757 1.218.884.604.73 1.392 1.774 1.177 1.003-.203.504-.89 1.015-1.774.516-.89.463-.92.979-1.81s.64-.819 1.151-1.709c.516-.89.504-.896 1.02-1.786.517-.89.452-.926.968-1.816s.504-.896 1.015-1.787c.516-.89.522-.884 1.038-1.774s.6-.842 1.116-1.732c.516-.89.415-.95.931-1.846.517-.89 1.033-.735 1.08-1.763.048-1.01-.949.078-1.91-.52-.475-.292-.896-.77-1.258-1.5-.25-.507-.57-1.098-.677-1.887-.077-.58-.06-1.255-.024-2.02.024-.609.048-1.314.16-2.048.63-.353 1.324-.681 1.876-1.171.534-.472.961-1.082 1.418-1.673.44-.562.872-1.147 1.246-1.798.35-.616.706-1.26.997-1.948.28-.657.416-1.38.641-2.097.22-.68.522-1.356.688-2.079.167-.699.28-1.422.398-2.157.119-.71.225-1.433.303-2.174v-.006z" fill="#fff"/><path d="M49.319 97.713c.664-.185 1.323-.358 1.994-.537.664-.18 1.34-.353 2.011-.526.665-.173 1.33-.382 2.006-.55.67-.167 1.341-.352 2.018-.52.67-.16 1.353-.298 2.03-.46.67-.155 1.334-.37 2.01-.525.677-.155 1.354-.293 2.036-.442.677-.15 1.353-.293 2.036-.436.676-.144 1.382-.144 2.065-.281.676-.137 1.353-.28 2.041-.412.677-.132 1.347-.335 2.03-.466.682-.126 1.358-.263 2.047-.389.682-.119 1.365-.233 2.053-.346.682-.114 1.359-.275 2.047-.382.683-.114 1.442-.102 2.13-.21-.089-.71-.207-1.499-.308-2.246-.095-.717-.261-1.44-.368-2.18-.107-.723-.154-1.464-.273-2.193-.113-.723-.273-1.446-.398-2.174-.124-.73-.22-1.464-.356-2.187-.13-.735-.273-1.458-.415-2.175-.148-.734-.261-1.47-.415-2.174-.166-.735-.428-1.434-.6-2.133-.184-.74-.403-1.446-.599-2.127-.214-.747-.309-1.493-.54-2.15-.267-.753-.67-1.387-.955-1.99-.309-.657-.558-1.362-.968-2.001a22.78 22.78 0 00-1.27-1.822c-.45-.574-.973-1.112-1.477-1.655-.499-.538-1.092-.998-1.626-1.506-.534-.514-1.015-1.081-1.573-1.565-.563-.49-1.115-.992-1.685-1.446-.593-.472-1.216-.878-1.798-1.302a70.535 70.535 0 00-1.81-1.285c-.653-.448-1.317-.788-1.893-1.159-.7-.448-1.258-.973-1.798-1.296-1.18-.705-.896-1.326-1.97-1.057-.967.239-.866.513-1.733 1.015-.866.502-.854.526-1.715 1.028-.866.502-.854.526-1.72 1.027-.867.502-.748.926-1.745.968-1.045.048-.968-.388-1.923-.812-.955-.425-.967-.395-1.928-.813l-1.917-.848c-.956-.424-.944-.46-1.9-.884-.955-.425-.966-.407-1.922-.83-.961-.425-.967-.407-1.928-.831-.962-.424-.879-.64-1.911-.83-1.05-.192-.712.25-1.864.95-.516.31-1.091.74-1.774 1.182-.552.353-1.18.693-1.816 1.123-.558.377-1.115.83-1.72 1.267-.558.4-1.128.83-1.715 1.272-.558.419-1.086.896-1.656 1.35-.546.437-1.133.849-1.685 1.315-.54.454-1.045.962-1.579 1.44-.528.472-1.056.944-1.578 1.445-.51.49-1.01 1.004-1.508 1.518a45.146 45.146 0 00-1.43 1.589c-.474.538-1.009 1.021-1.448 1.577-.445.562-.884 1.13-1.293 1.709-.416.591-.712 1.248-1.08 1.852-.368.621-.772 1.213-1.08 1.846-.291.597-.612 1.236-.89 1.953-.244.634-.457 1.32-.695 2.037-.213.652-.38 1.357-.587 2.068-.19.669-.392 1.356-.576 2.073-.172.68-.285 1.386-.457 2.103-.16.687-.356 1.374-.51 2.09-.148.694-.415 1.369-.558 2.08-.136.692-.22 1.41-.356 2.12-.13.7-.267 1.404-.392 2.115-.124.705-.148 1.428-.267 2.139-.118.705-.231 1.416-.344 2.127-.113.71-.213 1.422-.314 2.127-.107.71-.303 1.41-.404 2.115-.113.782-.202 1.559-.196 2.323 0 .789.072 1.572.184 2.324l.072-.006.035-.006c.107.717.196 1.434.398 2.115.207.693.45 1.374.747 2.02.297.657.647 1.29 1.027 1.893.024.042.077.06.1.102.137.209.286.406.428.609.042.06.042.15.083.203.137.186.35.317.493.502.053.066.095.144.148.209.143.174.255.371.404.538.065.072.154.114.213.179.149.162.226.395.386.55.065.066.172.095.243.161.16.15.386.221.552.371.071.059.053.215.125.274.124.108.267.198.397.299a15.35 15.35 0 002.505 1.613c.676.347 1.37.687 2.094.938.718.245 1.49.299 2.243.442.742.138 1.49.305 2.255.335.748.024 1.508-.096 2.273-.185.742-.09 1.49-.198 2.243-.401 1.074-.227 1.086-.179 2.16-.382 1.08-.203 1.086-.179 2.166-.382 1.08-.204 1.068-.251 2.148-.46 1.08-.204 1.092-.138 2.172-.341s1.068-.281 2.142-.484c1.08-.203 1.069-.251 2.149-.46 1.08-.203 1.11-.042 2.19-.245 1.08-.203 1.067-.269 2.147-.478 1.08-.203 1.075-.245 2.154-.454 1.08-.203 1.075-.251 2.155-.454 1.08-.203 1.097-.119 2.177-.322 1.08-.204 1.086-.168 2.166-.371 1.08-.203 1.086-.191 2.166-.4 1.08-.209 1.537.442 2.214-.436.623-.801-.119-1.07-.261-2.079-.143-1.01-.303-.986-.44-1.996-.142-1.009-.077-1.015-.22-2.025-.094-.673-.187-1.346-.278-2.019-.142-1.01-.184-1.004-.326-2.013-.143-1.01.528-1.333-.214-2.032-.676-.639-.932-.012-1.863-.012-.932 0-.932-.083-1.864-.041-.931.035-.937.167-1.857.023l.024-.005z" fill="#fff"/><path d="M61.643 13.698a13.93 13.93 0 00-1.584-1.661c-.54-.484-1.068-1.063-1.721-1.535-.611-.442-1.288-.825-1.964-1.213a19.38 19.38 0 00-2.065-1.01 13.564 13.564 0 00-2.19-.68c-.783-.18-1.537-.353-2.267-.311-.747.041-1.46.047-2.118.131-.76.096-1.46.221-2.095.352-.777.168-1.454.413-2.03.622-.83.304-1.46.651-1.869.986-.86.52-.718.37-1.738 1.01a25.69 25.69 0 00-1.644 1.158c-.516.388-1.033.825-1.531 1.296-.487.46-1.015.897-1.43 1.428-.422.544-.807 1.117-1.074 1.72-.315.7-.564 1.465-.795 2.217a27.675 27.675 0 00-.618 2.27 39.307 39.307 0 00-.45 2.313c-.214 1.386-.173 1.17-.22 2.341-.042 1.118-.036.915.118 2.235.078.651.173 1.416.345 2.216.148.7.35 1.44.599 2.163.243.705.617 1.368.985 2.013a8.026 8.026 0 001.335 1.774c.451.449.849.968 1.217 1.482.397.562.789 1.1 1.062 1.601.534.98.653 2.7.83 1.763.173-.926-.065-.956-.106-1.9-.042-.944-.13-.938-.172-1.882-.042-.944.018-.95-.024-1.894-.041-.944.22-.992-.142-1.864a6.598 6.598 0 01-1.994-1.219c-.659-.58-1.068-1.272-1.347-1.947-.327-.8-.475-1.613-.398-2.336.101-.938.522-1.709 1.027-2.097.57-.436 1.163-.532 1.68-.442.895.155.89.227 1.542.83h.018c.083.06.065.024.107.114.403.938.391.938.741 1.9.35.961.434.932.784 1.887.077.215.278.192.32-.035.19-1.13.285-1.112.475-2.235.19-1.129.136-1.135.326-2.264.19-1.13.03-1.17.344-2.27.345-1.189.546-1.123 1.015-2.27.469-1.147.463-1.153.938-2.3.468-1.147.112-1.369.931-2.295.736-.836.736.413 1.994.944.588.251 1.33.425 2.095.741.64.263 1.3.621 2.023.908.665.263 1.353.544 2.06.813.682.263 1.37.555 2.065.806.7.257 1.454.353 2.148.586.718.245 1.4.561 2.089.764.747.227 1.465.43 2.136.598.801.197 1.477.275 2.113.352.718-.89.154-.908.089-2.24a20.088 20.088 0 00-.256-2.276c-.124-.74-.29-1.506-.551-2.223-.268-.734-.695-1.374-1.158-1.947v.012z" fill="#898885"/><path d="M49.265 28.891c0 .394-.368.64-.76.64-.391 0-.647-.246-.647-.64s.256-.633.641-.633c.386 0 .76.233.766.627v.006zm9.323-.001c0 .395-.327.67-.718.676-.392.006-.748-.275-.748-.67 0-.393.356-.728.742-.728s.718.335.718.729l.006-.006z" fill="#595757"/><path d="M53.947 31.537c.498 1.476.41 1.506.908 2.987.024.078.071.185 0 .227-.694.359-.736.281-1.43.64m6.426-11.732c-1.098-.7-1.14-.652-2.516-.275m-11.132.394c.694-.448.6-.502 1.531-.64.48-.071 1.039.066 1.644.228m.86 14.844c1.063.443.956.353 2.255.401.683.024 1.484.012 2.285-.257m-4.99-2.879c-.908.782-.902.609-1.686 1.702-.427.604-.854 1.344-1.133 2.139M34.703 49.908c.6.813.582.825 1.181 1.637.6.813.617.795 1.216 1.607.6.813.671.759 1.27 1.571.6.813.505.885 1.104 1.697.6.813.605.807 1.21 1.62.6.812.244 1.469 1.253 1.534 1.204.078 1.015-.597 1.988-1.314.653-.478 1.305-.954 1.958-1.428.98-.717.985-.705 1.964-1.416m2.397-.046c.914.454.92.442 1.834.896s.943.4 1.857.854c.914.454.849 1.302 1.81.962.914-.329.344-.914.7-1.822s.303-.932.653-1.84c.35-.909.386-.897.736-1.81m10.367 18.908c.107 1.045.143 1.04.25 2.085.106 1.045.035 1.051.142 2.097.071.697.144 1.391.22 2.084.106 1.046.171 1.04.278 2.08.107 1.045.095 1.045.202 2.09.107 1.046.113 1.046.225 2.091.107 1.046.03 1.058.137 2.103.107 1.046.053 1.052.16 2.097M20.016 65.273c.172.036.7.58 1.376 1.59a28.94 28.94 0 011.122 1.834 35.62 35.62 0 011.027 1.894c.308.609.634 1.254.931 1.941.28.64.582 1.297.843 1.99.249.657.368 1.38.581 2.078.208.676.534 1.333.706 2.044.167.693.232 1.415.35 2.132.12.705.28 1.416.339 2.133m11.554-55.793c.397 1.093.415 1.087.819 2.18.077.216.385.18.421-.047.196-1.16.208-1.16.404-2.318.195-1.165.183-1.165.373-2.33.196-1.165.107-1.183.416-2.324.237-.884.326-.854.67-1.703.35-.848.416-.818.766-1.667l.7-1.69" stroke="#595757" stroke-linecap="round" stroke-linejoin="round"/><path d="M63.684 19.911c-.023-.717-.237-1.547-.38-2.426-.124-.788-.272-1.607-.551-2.377a7.277 7.277 0 00-1.157-2.127c-.374-.466-.778-1.034-1.324-1.547-.468-.436-1.038-.819-1.608-1.255-.522-.4-1.044-.854-1.626-1.225-.57-.364-1.14-.758-1.744-1.063a16.98 16.98 0 00-1.881-.789c-.653-.245-1.336-.334-1.982-.46a7.95 7.95 0 00-2.006-.125 31.97 31.97 0 00-2.172.18c-.783.095-1.501.178-2.154.322-.801.173-1.49.4-2.089.621-.86.31-1.567.532-1.988.878-.884.538-.718.424-1.762 1.082-.517.322-1.08.746-1.686 1.194-.528.4-1.05.86-1.572 1.345-.505.472-1.045.92-1.472 1.457a8.68 8.68 0 00-1.068 1.78c-.326.723-.6 1.488-.837 2.259-.243.788-.48 1.571-.646 2.324-.19.86-.345 1.673-.451 2.372-.22 1.421-.285 1.188-.333 2.39-.041 1.146.071.937.232 2.293.077.67.154 1.458.332 2.27.154.717.356 1.476.617 2.217.25.723.611 1.41.985 2.073.38.675.873 1.255 1.413 1.78.462.46.83 1.04 1.204 1.566.41.573.688 1.194.973 1.708.552 1.004.748 2.688.873 1.715.148-1.135.035-1.141-.018-2.288-.054-1.148-.119-1.148-.172-2.294-.054-1.148-.066-1.148-.119-2.295" stroke="#595757" stroke-linecap="round" stroke-linejoin="round"/><path d="M44.155 15.281c.944.418.724.299 1.9.8.545.228 1.18.515 1.892.807.594.245 1.258.442 1.935.711.61.245 1.234.55 1.893.807.629.245 1.317.37 1.97.61.64.238 1.264.555 1.905.788.658.233 1.34.358 1.982.567.67.221 1.293.556 1.928.747a42.95 42.95 0 001.988.532 17.9 17.9 0 002.024.376m-25.558 3.21c-.683-.615-.677-.657-1.602-.813-.534-.09-1.163-.06-1.75.389-.47.358-.778 1.075-.92 1.905-.113.652-.173 1.404.04 2.151.185.645.582 1.26 1.087 1.858.421.502.896 1.07 1.59 1.464m1.081 9.42a26.74 26.74 0 01-.369 2.377c-.166.837-.296 1.66-.575 2.342m19.286 2.457a9.79 9.79 0 01-.226-2.288c.018-.681.202-1.398.333-2.247.629-.352 1.139-.836 1.69-1.326a11.804 11.804 0 001.502-1.577 14.59 14.59 0 001.223-1.81c.35-.615.587-1.314.878-2.002.279-.657.593-1.314.825-2.025.22-.68.504-1.362.676-2.09.166-.7.166-1.447.285-2.181.119-.711.261-1.428.338-2.169.066-.657.19-1.302.214-1.942.024-.657.024-1.314 0-1.953-.024-.663-.184-1.302-.255-1.936M40.322 39.316c.635.753.51.574 1.389 1.386.421.389.878.879 1.454 1.32.486.377 1.014.783 1.602 1.148.54.334 1.127.645 1.733.932.581.275 1.18.567 1.816.764.617.192 1.275.281 1.934.37m29.605 45.368c-.083-.669-.308-1.338-.403-2.037-.09-.675-.024-1.38-.125-2.073-.095-.675-.279-1.35-.385-2.037-.107-.681-.19-1.368-.303-2.055-.113-.681-.261-1.362-.38-2.043-.119-.688-.273-1.363-.403-2.038-.131-.687-.303-1.356-.445-2.025-.143-.687-.303-1.362-.457-2.025-.16-.693-.184-1.398-.35-2.05-.179-.692-.499-1.326-.695-1.959-.208-.699-.326-1.386-.546-2.001-.249-.7-.475-1.362-.742-1.936a18.193 18.193 0 00-.985-1.822c-.356-.574-.83-1.087-1.252-1.643-.41-.538-.819-1.1-1.281-1.619-.451-.514-.98-.962-1.466-1.452a41.92 41.92 0 00-1.49-1.421c-.51-.466-.99-.962-1.519-1.398a51.003 51.003 0 00-1.608-1.297c-.558-.43-1.175-.759-1.715-1.147-.581-.418-1.11-.866-1.65-1.237-.605-.412-1.204-.752-1.744-1.093a53.019 53.019 0 00-1.757-1.063m-24.882-1.924c-.534.323-1.169.675-1.851 1.111-.558.365-1.128.825-1.763 1.255-.57.388-1.204.74-1.816 1.177-.563.406-1.103.896-1.697 1.344-.563.424-1.169.824-1.744 1.284-.552.442-1.039.992-1.602 1.464-.546.46-1.11.908-1.656 1.398-.534.478-1.145.884-1.668 1.392-.516.502-.961 1.087-1.46 1.607a47.39 47.39 0 00-1.46 1.607c-.48.544-.93 1.105-1.382 1.673-.45.573-.938 1.111-1.353 1.697-.415.597-.848 1.188-1.216 1.804-.374.627-.582 1.338-.896 1.983-.297.61-.736 1.219-1.021 1.948-.25.645-.44 1.362-.676 2.097-.22.669-.416 1.38-.624 2.109-.195.68-.439 1.38-.623 2.108-.178.693-.344 1.41-.516 2.14-.166.698-.303 1.421-.457 2.15-.154.705-.368 1.416-.51 2.145-.143.71-.13 1.463-.267 2.192-.137.717-.291 1.434-.422 2.163-.124.723-.344 1.428-.462 2.156-.12.723-.28 1.44-.398 2.17-.113.728-.077 1.475-.19 2.198-.107.728-.309 1.44-.41 2.168-.112.8-.124 1.601-.118 2.378 0 .806.113 1.589.231 2.366.101.657.238 1.296.416 1.929.184.64.326 1.285.581 1.894.261.61.54 1.213.867 1.786.332.574.736 1.1 1.133 1.625.398.526.783 1.064 1.246 1.542.457.472.938.938 1.448 1.35.427.346.873.675 1.33.974.456.298.985.484 1.465.741.688.358 1.389.705 2.13.961.73.251 1.484.484 2.255.628.76.137 1.543.197 2.327.221.765.024 1.542-.036 2.332-.126.76-.089 1.53-.191 2.302-.394 1.027-.215 1.009-.311 2.041-.508 1.033-.197 1.033-.167 2.066-.364 1.032-.197 1.05-.096 2.082-.287 1.033-.197 1.039-.155 2.072-.347 1.032-.197 1.026-.215 2.059-.412 1.032-.197 1.014-.281 2.047-.478 1.032-.197 1.05-.101 2.083-.298 1.032-.198 1.014-.281 2.047-.478 1.032-.197 1.05-.108 2.083-.305 1.032-.197 1.02-.251 2.053-.448s1.033-.203 2.065-.4c1.033-.197 1.015-.281 2.047-.472 1.033-.197 1.057-.078 2.09-.275 1.032-.197 1.038-.173 2.07-.37 1.033-.198 1.49.436 2.113-.419.611-.842-.267-1.063-.41-2.091-.142-1.033-.118-1.033-.26-2.067-.143-1.033-.024-1.051-.167-2.079-.142-1.033-.196-1.027-.338-2.055-.143-1.033-.178-1.027-.32-2.061-.143-1.034.557-1.44-.232-2.12-.813-.706-1.122.053-2.196.035-1.074-.024-1.074.024-2.148 0s-1.074-.06-2.148-.084c-1.074-.023-1.074-.131-2.148-.155-1.074-.024-1.08.078-2.154.054-1.074-.024-1.074 0-2.154-.024-1.074-.024-1.074-.066-2.154-.09-1.074-.023-1.074-.09-2.154-.113-1.08-.024-1.08.12-2.154.095-1.075-.023-1.075-.095-2.155-.12-1.074-.023-1.08.025-2.154 0-1.074-.023-1.074-.148-2.148-.166-1.074-.024-1.08.012-2.154-.012-1.08-.024-1.08.065-2.16.047-1.08-.023-1.074-.107-2.154-.125m34.216-46.669c-.884.513-.92.454-1.804.968-.884.513-.89.501-1.774 1.015-.884.514-.86.556-1.745 1.07-.884.513-.748 1.075-1.768 1.117-1.068.047-1.015-.448-2-.879-.98-.43-.926-.55-1.905-.985-.979-.436-1.026-.329-2.006-.759-.979-.436-.985-.424-1.964-.86s-.961-.472-1.946-.902c-.98-.437-.997-.4-1.982-.83-.98-.437-.98-.443-1.964-.873m20.729 52.148c1.073.066 1.067.15 2.141.216 1.074.065 1.08.155 2.143-.006 1.026-.156.61-.514 1.69-1.148.517-.304 1.182-.525 1.906-.812.599-.239 1.24-.472 1.964-.633.64-.138 1.317-.317 2.041-.353.659-.03 1.36-.036 2.077.054.653.084 1.318.305 2.012.514.807.239 1.53.502 2.207.747.813.292 1.525.585 2.148.884.82.394 1.52.723 2.03 1.135.742.597 1.234 1.219 1.359 1.888.13.693-.16 1.428-.647 2.222-.285.472-.902.884-1.727 1.332-.581.317-1.222.717-1.976 1.01-.653.251-1.353.538-2.089.771-.694.215-1.436.358-2.16.549-.724.191-1.454.359-2.16.52-.753.173-1.495.269-2.183.4-.802.156-1.543.311-2.184.401-1.08.155-1.864.179-2.196.119a13.285 13.285 0 01-2.51-.717c-.73-.281-1.56-.597-2.45-.914" stroke="#595757" stroke-linecap="round" stroke-linejoin="round"/><path d="M68.111 100.271c1.063-.059.849.048 2.125.126a24.83 24.83 0 012.106.239c.665.101 1.395.131 2.107.322.67.18 1.341.448 2.006.723m-8.498 1.47c.997-.096.795.018 2.006-.024.581-.018 1.264-.191 2.006-.185.634.006 1.305.191 2 .233.658.041 1.329.095 1.993.185m-7.998 2.867c1.015-.137 1.015-.131 2.023-.268 1.015-.138 1.003-.239 2.012-.377 1.015-.137 1.02-.077 2.035-.215" stroke="#595757" stroke-linecap="round" stroke-linejoin="round"/><path d="M127.369 19.972c.974.322-.077.782-.207 2.06-.06.586-.095 1.285-.16 2.062-.054.64-.232 1.32-.285 2.05-.048.656.023 1.355-.018 2.066-.036.67-.16 1.356-.184 2.061-.024.681.053 1.374.041 2.067-.011.693-.089 1.38-.083 2.067.006.7.107 1.386.143 2.067.035.711.024 1.404.089 2.067.071.723.219 1.398.332 2.038.131.735.172 1.44.368 2.037.249.753.629 1.368.997 1.822-.291.95-.659.436-1.875.67-.546.1-1.205.119-1.97.089-.588-.024-1.258-.012-1.976-.173-.588-.132-1.175-.46-1.846-.723-.575-.221-1.282-.407-1.911-.735-.172-1.04.232-1.058.345-2.11.112-1.05.059-1.056.172-2.102.112-1.051.154-1.045.273-2.097.112-1.051.023-1.057.136-2.109.113-1.051.154-1.045.267-2.097.075-.7.152-1.4.232-2.097.112-1.051.118-1.051.237-2.097.113-1.051.101-1.051.214-2.103.112-1.051.172-1.045.29-2.096.113-1.052.054-1.058.166-2.11.119-1.05-.474-1.367.262-2.12.694-.711 1.014.024 1.999-.054.985-.078 1.003-.018 1.97-.221.991-.203 1.033-.478 1.977-.167l.005-.012z" fill="#C8B197"/><path d="M113.371 8.615c-.741 0-1.483.06-2.195.168-.73.113-1.436.322-2.136.543-.701.221-1.407.454-2.066.777-.658.322-1.246.777-1.851 1.195-.605.412-1.216.824-1.762 1.32a17.475 17.475 0 00-2.837 3.37c-.398.615-.819 1.224-1.145 1.893-.32.657-.558 1.362-.807 2.067a19.36 19.36 0 00-.623 2.121c-.16.711-.333 1.44-.41 2.18-.077.724 0 1.47 0 2.217 0 .705-.095 1.392-.018 2.061.078.7.315 1.35.463 2.008.155.68.368 1.326.594 1.953.237.651.385 1.332.694 1.936.314.615.682 1.2 1.074 1.756.392.562.843 1.087 1.3 1.59.462.501 1.026.895 1.548 1.332.517.436 1.021.896 1.591 1.278.564.37 1.187.717 1.798 1.028.113 1.087-.16 1.093-.338 2.174-.178 1.082-.184 1.076-.362 2.157s-.291 1.063-.469 2.139c-.178 1.081-.083 1.093-.261 2.174-.178 1.082-.137 1.088-.315 2.169s-1.009 1.219-.439 2.157c.534.872.979.298 1.964.543.985.245.991.21 1.982.454.985.245.997.197 1.988.442.985.245.967.317 1.958.562.985.245.991.227 1.982.472.991.245.997.221 1.982.466.991.245 1.069.944 1.959.442.866-.484.35-.902.635-1.864.284-.956.225-.974.51-1.936.285-.961.237-.973.522-1.935.285-.962.35-.938.6-1.912-.066-.03-.03-.102-.042-.173-.231-1.111-.303-1.1-.534-2.217-.232-1.117-.273-1.105-.51-2.222-.232-1.117-.624-1.117-.499-2.252a16.18 16.18 0 002.219-.598 13.73 13.73 0 002.03-.908 12.8 12.8 0 001.822-1.272c.569-.472 1.115-.974 1.596-1.554.463-.561.86-1.188 1.228-1.863.327-.592.582-1.273.784-2.014.184-.669.356-1.38.463-2.12.1-.706.089-1.44.136-2.17.047-.728.196-1.451.214-2.162.017-.753.023-1.488.023-2.175 0-.746-.166-1.481-.249-2.204-.083-.74-.154-1.476-.32-2.187a18.886 18.886 0 00-.612-2.126 18.293 18.293 0 00-.854-2.044c-.332-.669-.736-1.278-1.139-1.893-.41-.622-.807-1.243-1.282-1.799-.481-.561-1.021-1.063-1.561-1.553-.552-.496-1.11-.974-1.715-1.386-.611-.412-1.21-.848-1.875-1.17-.659-.323-1.4-.449-2.101-.67-.694-.221-1.376-.544-2.106-.651-.718-.108-1.46-.12-2.202-.12l-.024.006z" fill="#fff"/><path d="M126.931 14.368c-.463-.579-.79-1.188-1.199-1.636a21.143 21.143 0 00-1.442-1.428c-.617-.544-1.222-.849-1.679-1.135-1.205-.753-.879-.436-1.804-.819-1.223-.508-.938-.567-2.38-1.129-.73-.28-1.584-.567-2.54-.705a19.646 19.646 0 00-2.219-.18c-.718-.023-1.472-.119-2.237-.059a19.11 19.11 0 00-2.22.299c-.724.137-1.418.43-2.136.663-.7.227-1.43.418-2.107.753-.658.322-1.246.8-1.863 1.236-.599.425-1.246.807-1.792 1.345-.516.513-.908 1.159-1.359 1.78a14.212 14.212 0 00-1.157 1.906c-.338.657-.783 1.26-1.062 1.941-.28.681-.386 1.428-.611 2.127-.232.705-.576 1.368-.754 2.08-.184.716-.303 1.45-.44 2.168-.136.735-.219 1.47-.314 2.192-.095.747-.106 1.488-.166 2.205-.06.752-.136 1.487-.154 2.204-.018.765-.06 1.506-.042 2.21.018.783.125 1.518.184 2.205.072.813.113 1.553.22 2.193.118.717.362 1.362.611 1.971.267.663.623 1.23 1.02 1.78.41.568.82 1.112 1.336 1.56.516.454 1.062.878 1.656 1.23.593.353 1.24.58 1.875.843.641.263 1.27.55 1.922.74.677.198 1.336.449 1.988.568.712.138 1.419.096 2.059.167.76.084 1.454.126 2.048.15 1.252.053 1.572.98 2.023.053-.522-.531-.931-1.093-1.347-1.672a15.108 15.108 0 01-1.145-1.852c-.338-.657-.582-1.339-.825-2.02-.249-.693-.487-1.38-.653-2.079-.172-.722-.29-1.44-.391-2.15a29.19 29.19 0 01-.202-2.193c-.629-.299-1.11-.71-1.513-1.129-.475-.49-.914-.962-1.122-1.511-.237-.64-.202-1.303-.16-1.882.053-.741.208-1.416.581-1.775.879-.842 1.965-.466 2.558-.179.018-.107 0-.12.059-.18.588-.477 1.039-1.068 1.52-1.63.48-.562.919-1.147 1.329-1.786.391-.616.86-1.207 1.21-1.888.333-.645.606-1.344.932-2.037.309-.657.576-1.357.89-2.055.303-.664.683-1.249 1.009-1.942.623.406 1.175.777 1.762 1.13.641.387 1.252.764 1.846 1.098.653.37 1.353.574 1.958.896.653.359 1.282.7 1.881 1.028.653.352 1.24.765 1.834 1.111.635.37 1.276.687 1.851 1.081.594.407 1.092.927 1.632 1.392.528.46 1.062.897 1.543 1.452 1.044-.454.208-.866.291-2.234.041-.663.13-1.434.035-2.282a12.327 12.327 0 00-.48-2.235c-.208-.693-.439-1.427-.813-2.132-.338-.64-.849-1.207-1.353-1.834l.018.011z" fill="#C8B197"/><path d="M116.979 28.395c0 .358-.255.561-.611.567-.356 0-.7-.209-.7-.561 0-.359.344-.633.7-.633s.611.274.611.633v-.006zm8.764.395c0 .358-.302.675-.652.675-.356 0-.612-.317-.612-.67 0-.352.256-.645.606-.645.356 0 .653.287.658.646v-.006z" fill="#595757"/><path d="M121.952 31.143c.35 1.051.445 1.015.801 2.067.018.053-.053.215-.1.239-.493.257-.534.173-1.027.43m4.937-9.271c-.807-.664-.73-.58-1.97-.24m-9.608.138c.991-.639 1.045-.687 2.285-.352" stroke="#595757" stroke-linecap="round" stroke-linejoin="round"/><path d="M140.781 86.816c-.071-.621-.178-1.35-.279-2.127-.083-.65-.261-1.344-.362-2.09-.095-.67-.124-1.374-.237-2.103-.101-.675-.184-1.38-.303-2.097-.112-.681-.19-1.386-.314-2.097-.125-.687-.267-1.38-.404-2.08-.136-.686-.314-1.373-.463-2.066-.148-.687-.397-1.356-.557-2.044-.161-.692-.226-1.403-.404-2.084-.178-.688-.469-1.345-.664-2.014-.202-.687-.267-1.41-.481-2.067-.226-.687-.605-1.302-.849-1.947-.255-.681-.374-1.398-.652-2.02-.303-.669-.683-1.278-1.009-1.864-.362-.65-.789-1.218-1.187-1.75-.457-.61-.861-1.195-1.359-1.613-.558-.466-1.181-.795-1.691-1.195-.582-.454-1.08-.932-1.602-1.308-.606-.436-1.152-.86-1.68-1.201-.647-.418-1.293-.663-1.827-.962-.713-.4-1.259-.848-1.775-1.075-1.282-.574-1.092-1.135-1.97-.598-.86.52-.415.723-1.329 1.488-.445.37-.985.776-1.685 1.075-.558.24-1.211.347-1.947.448-.605.084-1.258.186-1.994.12-.611-.054-1.281-.126-1.988-.31-.599-.156-1.198-.473-1.869-.742-.581-.233-1.216-.442-1.851-.77-.564-.293-1.146-.556-1.751-.926-1.08-.048-.771.233-1.97.836-.558.28-1.222.591-1.929.992-.581.334-1.216.693-1.863 1.11-.581.377-1.11.903-1.715 1.345-.57.418-1.163.837-1.727 1.314-.546.46-1.127.903-1.65 1.416-.516.508-.978 1.07-1.441 1.631-.47.556-.944 1.111-1.341 1.715-.398.61-.66 1.29-.968 1.947-.296.64-.653 1.309-.99 2.044-.303.657-.73 1.296-1.057 2.013-.303.675-.576 1.386-.878 2.09-.297.688-.564 1.399-.849 2.11-.285.699-.516 1.428-.777 2.133a66.55 66.55 0 00-.766 2.138 41.154 41.154 0 00-.67 2.169c-.208.753-.499 1.464-.647 2.18-.142.694-.184 1.386-.285 2.044-.107.693-.231 1.368-.297 2.03a41.88 41.88 0 00-.16 2.05c-.035.693.065 1.374.065 2.055 0 .687-.053 1.368-.03 2.055.025.681.013 1.398.054 2.091.7-.107 1.436-.185 2.142-.287.7-.101 1.383-.322 2.09-.418.7-.095 1.417-.065 2.124-.155.7-.09 1.394-.269 2.1-.358.7-.084 1.407-.186 2.113-.27.7-.083 1.418-.077 2.124-.155.706-.077 1.407-.185 2.113-.257.706-.071 1.418-.083 2.124-.149.706-.066 1.413-.137 2.119-.197.706-.06 1.406-.18 2.118-.233.706-.06 1.412-.096 2.125-.15.706-.053 1.412-.077 2.124-.125.706-.048 1.412-.15 2.118-.197.707-.042 1.425.024 2.131-.018.706-.042 1.412-.125 2.124-.161.706-.036 1.413-.191 2.125-.221.706-.03 1.418-.054 2.13-.078.706-.024 1.418.03 2.13.012.706-.024 1.419 0 2.131-.024.706-.018 1.418-.03 2.13-.048.706-.012 1.418-.125 2.13-.131.712-.006 1.419-.03 2.131-.036.712 0 1.418.12 2.13.12.629 0 1.258-.096 1.881-.09.629 0 1.258.036 1.881.042.629.006 1.252.066 1.881.077.629.012 1.282.012 1.911.024l-.006-.006z" fill="#EEE9D1"/><path d="M128.854 61.785c.356 1.07.225.843.611 2.175.178.627.439 1.344.652 2.162.179.681.297 1.434.475 2.205.16.71.41 1.434.552 2.192.143.735.273 1.482.38 2.229.113.758.219 1.511.285 2.246.065.777-.024 1.541-.03 2.258-.006.807-.006 1.566-.131 2.247-.136.758-.207 1.451-.32 2.055-.154.8-.303 1.47-.415 2.031M98.547 71.39c-.22.992-.184.753-.439 1.99-.112.574-.332 1.23-.475 1.984-.118.62-.19 1.302-.32 2.013-.113.645-.261 1.308-.374 2.001-.107.657-.077 1.35-.178 2.031-.1.67-.267 1.333-.35 2.014-.089.68-.243 1.35-.308 2.019m25.517-49.465c-1.015-.048-1.009-.203-2.024-.25-1.014-.048-1.02.035-2.035-.013-.13-.006-.32.12-.309.245.066.514.475 1.72 2.238 2.043a1.77 1.77 0 001.548-.43c.487-.43.73-1.075.807-1.422.024-.119-.1-.167-.225-.173zm6.1 2.992c.083.68.362 1.296.492 1.894.149.687.178 1.362.398 1.917a5.157 5.157 0 001.056 1.637c-.486 1.087-.783.448-2.261.67-.652.1-1.447.196-2.367.143-.706-.042-1.508-.102-2.362-.293-.712-.161-1.454-.46-2.261-.765m-12.503-17.934c.51-.478.902-1.057 1.329-1.601.428-.538.92-1.034 1.288-1.637.356-.58.7-1.189 1.027-1.816.314-.604.557-1.255.866-1.9.291-.61.611-1.23.908-1.876" stroke="#595757" stroke-linecap="round" stroke-linejoin="round"/><path d="M129.535 22.535c.054-.68.125-1.481.03-2.371-.077-.735-.279-1.5-.522-2.312-.214-.717-.392-1.506-.783-2.24a12.088 12.088 0 00-1.348-1.966c-.486-.592-.925-1.135-1.358-1.595-.54-.574-1.098-.998-1.555-1.398-.641-.556-1.187-.974-1.662-1.267-1.252-.764-.961-.34-1.946-.663-.866-.287-.605-.436-1.602-.896-.481-.221-1.045-.478-1.692-.675-.551-.167-1.133-.388-1.768-.478-.653-.09-1.353-.102-2.077-.137-.67-.03-1.365-.012-2.077.023-.676.036-1.371.09-2.071.192-.676.101-1.365.209-2.047.382-.665.173-1.323.394-1.976.657-.641.251-1.258.562-1.875.908-.6.335-1.193.693-1.751 1.123-.546.413-1.026.914-1.519 1.422-.475.49-.997.956-1.418 1.536-.392.55-.724 1.17-1.056 1.81a26.37 26.37 0 00-.861 1.858c-.267.627-.469 1.284-.688 1.93a33.807 33.807 0 00-.6 1.959c-.184.663-.439 1.302-.581 1.971-.143.675-.226 1.357-.332 2.026-.107.687-.19 1.362-.268 2.037-.077.693-.095 1.38-.136 2.049-.042.705-.09 1.386-.095 2.05a39.37 39.37 0 00.006 2.054c.024.723.119 1.404.178 2.043.071.747-.006 1.452.095 2.05.124.746.403 1.416.664 2.049.285.68.618 1.32 1.033 1.876.427.58 1.003 1.01 1.543 1.47.54.465 1.026 1.015 1.644 1.373.617.359 1.329.52 1.994.783.664.269 1.293.645 1.97.83.7.198 1.424.257 2.106.383.736.137 1.448.239 2.113.31.789.084 1.507.227 2.118.251 1.294.054 1.519.807 2.095-.09-.487-.483-.843-1.015-1.246-1.547-.41-.55-.801-1.093-1.122-1.678-.332-.598-.712-1.171-.961-1.787a18.483 18.483 0 01-.665-1.923c-.189-.663-.201-1.357-.326-2.008-.125-.68-.279-1.338-.344-1.995" stroke="#595757" stroke-linecap="round" stroke-linejoin="round"/><path d="M114.345 15.156c.652.412 1.234.879 1.845 1.243.665.394 1.335.71 1.958 1.057.677.377 1.342.7 1.965 1.034.682.364 1.335.699 1.964 1.033.676.365 1.305.753 1.923 1.112.658.376 1.281.77 1.881 1.176.617.419 1.204.86 1.768 1.339a16.21 16.21 0 011.573 1.559m-21.684 2.605c-.682-.496-.664-.573-1.525-.627-.498-.03-1.015.137-1.507.603a2.65 2.65 0 00-.801 1.667c-.054.58.006 1.249.237 1.888.196.556.546 1.111 1.003 1.613.392.424.92.777 1.537 1.093m-.891 12.826c-.053.52-.077.514-.13 1.033m14.206-.817l-.344-1.667c-.172-.83-.617-.843-.445-1.679.736-.15 1.519-.346 2.207-.597.7-.251 1.353-.604 2-.962.647-.365 1.317-.7 1.893-1.171.57-.472 1.133-.968 1.614-1.547.463-.562.754-1.267 1.122-1.936a9.039 9.039 0 00.789-1.995c.184-.67.356-1.375.463-2.115.101-.705.243-1.428.296-2.157.048-.729-.053-1.464-.041-2.174.018-.753.148-1.488.142-2.17m-25.635 21.944a37.9 37.9 0 00-1.875.932c-.564.299-1.198.615-1.845.998-.57.334-1.14.759-1.745 1.165-.564.376-1.133.782-1.709 1.213-.552.412-1.062.896-1.602 1.356a28.81 28.81 0 00-1.52 1.44 23.22 23.22 0 00-1.424 1.535c-.45.538-.973 1.027-1.352 1.607-.386.585-.671 1.237-.974 1.87-.279.58-.599 1.195-.913 1.852-.285.597-.529 1.242-.825 1.888-.28.609-.576 1.23-.86 1.876-.274.62-.642 1.212-.909 1.852-.267.627-.48 1.29-.736 1.93-.255.638-.534 1.272-.771 1.917-.237.651-.41 1.326-.623 1.971-.22.664-.499 1.303-.677 1.954-.19.681-.267 1.374-.409 2.025-.148.705-.356 1.38-.463 2.05-.113.71-.208 1.403-.279 2.078a37.455 37.455 0 00-.154 2.091c-.036.705.071 1.404.071 2.097 0 .7-.035 1.392-.006 2.091.024.693.06 1.386.101 2.091m37.147-42.07c-.32.382-.742.938-1.43 1.392-.498.328-1.122.55-1.834.776-.581.186-1.21.377-1.94.425-.611.041-1.282.101-2.006.006-.611-.078-1.246-.311-1.94-.508-.6-.174-1.223-.389-1.887-.663-.582-.24-1.217-.466-1.846-.795m34.164 37.787c-.078-.634.006-1.374-.095-2.163-.089-.663-.309-1.362-.422-2.12-.095-.682-.207-1.393-.32-2.128-.107-.687-.261-1.392-.386-2.12-.119-.694-.077-1.434-.208-2.151-.13-.7-.332-1.392-.474-2.103-.143-.7-.35-1.392-.505-2.097-.154-.699-.326-1.398-.498-2.097-.172-.699-.362-1.392-.546-2.085-.19-.699-.321-1.41-.528-2.09-.208-.7-.439-1.381-.665-2.05a44.904 44.904 0 00-.748-2.02c-.267-.692-.445-1.397-.735-2.03-.315-.682-.754-1.267-1.092-1.859-.374-.663-.689-1.314-1.098-1.852-.469-.615-1.021-1.069-1.537-1.487-.641-.526-1.211-1.058-1.792-1.5a45.544 45.544 0 00-1.887-1.374c-.7-.484-1.377-.872-1.976-1.242-.76-.466-1.436-.83-2.036-1.135-.896-.46-1.572-.825-2.094-1.016" stroke="#595757" stroke-linecap="round" stroke-linejoin="round"/><path d="M114.564 94.762c1.02.24.801.663 1.626 1.309.824.645.866.591 1.697 1.236.825.646.813.663 1.638 1.309.824.645.789.693 1.62 1.338.824.645.878.579 1.703 1.225.83.645.795.693 1.62 1.338.825.645.807.669 1.637 1.314.825.645.819.657 1.65 1.303.831.645.902.549 1.733 1.194.831.646.783.699 1.614 1.351.825.645.884.567 1.715 1.212.831.646.783.705 1.608 1.35.831.646.855.616 1.679 1.261.831.645.867.603 1.692 1.249.83.645.777.711 1.608 1.362.831.651 1.887.263 1.661 1.296-.225 1.028-1.014.269-2.035.496-1.021.227-1.027.185-2.047.412-1.021.227-1.027.191-2.048.418-1.02.227-1.002.293-2.023.52-1.021.227-1.044.126-2.065.353-1.021.227-.997.316-2.018.543-1.02.227-1.044.12-2.065.347-1.021.227-.991.352-2.012.579-1.02.227-1.014.257-2.035.484-1.021.227-1.044.108-2.065.335-1.021.227-1.003.298-2.024.526-1.02.227-1.026.203-2.047.43-1.02.227-1.032.179-2.053.406-1.021.227-.991.352-2.012.579-1.02.227-1.026.209-2.047.436-1.021.228-1.032.186-2.053.413-1.021.227-1.015.263-2.036.49-1.02.227-1.02.245-2.041.472-1.021.227-1.056.699-2.047.346-.997-.352-.677-.795-1.347-1.619-.671-.824-.623-.866-1.294-1.697-.67-.824-.718-.782-1.394-1.613-.67-.824-.718-.788-1.389-1.613-.67-.824-.617-.872-1.288-1.696-.67-.825-.712-.795-1.382-1.625-.67-.831-.7-.801-1.371-1.631-.67-.831-.57-.914-1.24-1.739-.67-.824-.712-.794-1.383-1.619-.67-.83-.647-.848-1.317-1.679-.67-.83-.736-.776-1.407-1.607-.67-.83-.64-.848-1.317-1.678-.67-.831-.724-.789-1.4-1.613-.677-.825-1.644-.687-1.288-1.697.35-1.004 1.044-.137 2.083-.347 1.032-.203 1.038-.185 2.07-.394 1.04-.203 1.01-.328 2.048-.537 1.038-.204 1.05-.132 2.083-.341 1.038-.203 1.044-.18 2.077-.382 1.038-.204 1.02-.3 2.053-.502 1.038-.203 1.05-.132 2.089-.335 1.038-.203 1.038-.209 2.071-.412 1.038-.203 1.032-.233 2.071-.436 1.038-.203 1.038-.18 2.077-.382 1.038-.203 1.038-.192 2.077-.395 1.038-.203 1.026-.269 2.059-.472 1.038-.203 1.032-.215 2.071-.424 1.038-.203 1.056-.107 2.065-.442 1.021-.34 1.062-.573 2.095-.334v.03z" fill="#fff"/><path d="M122.765 112.184c-1.086.239-1.075.292-2.161.531-1.085.239-1.091.221-2.177.466-1.086.245-1.068.317-2.154.556-1.086.239-1.11.143-2.196.382-1.086.239-1.074.299-2.16.544-1.086.239-1.092.215-2.178.454-1.086.245-1.062.37-2.148.609-1.086.245-1.098.209-2.184.448m-4.248-3.047c1.015-.209 1.015-.203 2.03-.412 1.014-.209 1.008-.239 2.023-.448 1.015-.209 1.003-.263 2.018-.472 1.015-.209 1.026-.143 2.041-.352.677-.14 1.353-.277 2.03-.412 1.014-.21 1.014-.222 2.029-.431s1.033-.125 2.047-.328c1.015-.209 1.015-.215 2.036-.418 1.02-.203.997-.305 2.011-.514m-20.152.692c1.032-.239 1.044-.185 2.076-.424 1.033-.239 1.003-.358 2.036-.603 1.026-.239 1.044-.167 2.077-.406 1.032-.239 1.015-.299 2.047-.538 1.033-.239 1.05-.161 2.083-.4 1.032-.239 1.003-.371 2.035-.61 1.033-.239 1.033-.233 2.065-.472 1.033-.239 1.057-.131 2.089-.37" stroke="#595757" stroke-miterlimit="10" stroke-linecap="round"/><path d="M83.457 100.856c1.039-.203 1.056-.096 2.095-.299 1.032-.203 1.003-.358 2.041-.561 1.039-.203 1.062-.072 2.1-.275 1.04-.203 1.016-.299 2.054-.502 1.038-.203 1.044-.155 2.083-.358 1.038-.204 1.038-.18 2.077-.383 1.038-.203 1.02-.275 2.059-.478 1.038-.203 1.05-.137 2.089-.34 1.038-.203 1.02-.299 2.053-.508 1.038-.203 1.044-.161 2.083-.364 1.038-.204 1.05-.132 2.089-.335 1.038-.203 1.008-.347 2.047-.55 1.038-.203 1.056-.101 2.095-.304 1.038-.203 1.032-.233 2.071-.442 1.038-.203 1.062-.7 2.083-.43 1.145.304.896.8 1.833 1.529.938.729.961.705 1.899 1.434.938.734.902.776 1.84 1.511.937.735.973.687 1.91 1.422m6.291 17.624c-.668.147-1.337.296-2.006.448-1.002.221-1.008.203-2.005.424-1.003.221-1.009.191-2.012.412-1.003.221-1.003.209-2.006.436-1.003.221-.985.311-1.988.538-1.003.221-1.008.209-2.011.43-1.003.221-1.021.143-2.024.364-1.003.221-.979.323-1.982.544l-2.006.442c-1.002.221-.997.263-1.999.49-1.003.221-1.033.084-2.036.311-.668.147-1.339.296-2.011.448-1.003.221-1.057.962-2.024.609-1.003-.364-.7-.872-1.377-1.703-.676-.83-.641-.86-1.317-1.69-.677-.831-.647-.855-1.317-1.691-.677-.83-.63-.872-1.3-1.703-.677-.83-.777-.746-1.454-1.583-.676-.83-.688-.818-1.365-1.655-.676-.83-.6-.896-1.27-1.726-.676-.831-.718-.795-1.394-1.625-.677-.831-.659-.848-1.33-1.679-.676-.83-.688-.824-1.364-1.655-.677-.836-.63-.872-1.306-1.708-.676-.837-.67-.843-1.347-1.679-.374-.46-.445-.406-.819-.866" stroke="#595757" stroke-linecap="round" stroke-linejoin="round"/><path d="M149.321 96.698c1.02.239.824.633 1.649 1.278.825.645.807.67 1.638 1.314.825.646.813.664 1.638 1.309.825.645.819.651 1.65 1.302.824.645.872.586 1.703 1.231.83.645.842.627 1.667 1.278.825.646.861.604 1.685 1.249l1.656 1.296c.831.646.825.652 1.65 1.297.83.645.825.651 1.649 1.302.825.645.807.669 1.638 1.314.831.646.783.705 1.614 1.351.831.645.908.543 1.733 1.188.831.646.748.753 1.573 1.398.83.646.89.568 1.72 1.219.831.645 1.84.293 1.615 1.326-.226 1.028-1.021.156-2.036.383-1.021.227-.991.364-2.012.591-1.02.227-1.026.191-2.047.418-1.02.227-1.032.168-2.053.395s-1.009.28-2.029.508c-1.021.227-1.003.292-2.024.519-1.021.227-1.027.209-2.047.436-1.021.227-1.039.156-2.053.383-1.021.227-1.015.257-2.036.484-1.021.227-1.009.28-2.029.507-1.021.227-1.021.233-2.042.46-1.02.227-1.038.162-2.059.389l-2.041.454c-1.021.227-1.015.251-2.036.478-1.02.227-1.02.239-2.041.466-1.021.227-1.038.155-2.059.382-1.021.227-.997.335-2.018.562-1.02.227-1.032.197-2.053.424-1.021.227-1.086.794-2.071.442-.997-.353-.718-.813-1.388-1.643-.671-.824-.635-.854-1.306-1.685-.67-.824-.647-.848-1.317-1.672-.671-.825-.629-.861-1.3-1.691-.67-.825-.647-.849-1.317-1.673l-1.347-1.655c-.671-.83-.689-.812-1.359-1.643-.671-.824-.695-.806-1.365-1.637-.671-.824-.718-.788-1.389-1.619-.67-.83-.682-.818-1.353-1.649-.67-.83-.706-.8-1.376-1.63-.671-.831-.659-.843-1.33-1.667-.67-.831-.629-.867-1.299-1.697-.671-.83-1.644-.627-1.288-1.637.35-1.004.961-.311 1.994-.514s1.062-.077 2.095-.28c1.038-.204 1.026-.269 2.059-.472.692-.136 1.383-.273 2.071-.413 1.038-.203 1.038-.197 2.077-.4 1.038-.203 1.038-.185 2.077-.388 1.038-.203 1.038-.185 2.077-.388 1.038-.204 1.014-.305 2.053-.514 1.038-.203 1.05-.15 2.083-.353 1.038-.203 1.044-.167 2.077-.37 1.038-.203 1.026-.257 2.065-.46 1.038-.203 1.044-.162 2.083-.37 1.038-.204 1.032-.234 2.071-.443 1.038-.203 1.092-.018 2.094-.352 1.021-.34 1.027-.675 2.06-.43l.006.012z" fill="#fff"/><path d="M162.262 115.499c-1.032.227-1.038.209-2.071.442-1.032.233-1.021.293-2.053.526-.688.155-1.377.309-2.065.46-1.033.233-1.021.287-2.053.52-1.033.227-1.033.221-2.065.454-1.033.233-1.063.107-2.095.34-1.033.233-1.021.293-2.053.52-1.033.233-1.057.126-2.089.359-1.033.233-1.021.298-2.053.531-1.033.233-1.015.323-2.048.55-.575.131-1.187.03-1.727-.155-.54-.18-.973-.568-1.358-1.016-.736-.86-.772-.824-1.502-1.685-.736-.86-.694-.89-1.43-1.75-.397-.46-.504-.992-.338-1.5.172-.508.546-1.021 1.139-1.141.997-.209 1.003-.179 2-.388.997-.209 1.015-.132 2.012-.341.997-.209.997-.215 1.994-.424.996-.209.979-.304 1.976-.514.997-.209 1.008-.137 2.005-.346.997-.209.991-.227 1.988-.436s1.003-.173 2-.383c.997-.209 1.003-.185 2-.394.997-.209.991-.257 1.988-.466.997-.209.991-.239 1.994-.448a2.906 2.906 0 012.338.538c1.056.818 1.026.86 2.083 1.679 1.056.818 1.032.854 2.088 1.672.534.413.653 1.01.529 1.577-.125.568-.487 1.064-1.146 1.213l.012.006z" fill="#EFEEE8"/><path d="M161.159 105.982c.884.687.938.616 1.816 1.303.878.687.86.717 1.745 1.404.878.687.925.627 1.809 1.314.885.687.819.771 1.698 1.458.884.687.842.741 1.72 1.428.885.687.98.555 1.864 1.248.589.458 1.177.918 1.762 1.38.884.687.795.807 1.674 1.5.207.161.19.478-.066.537-1.014.227-1.008.257-2.023.484-1.015.227-1.027.174-2.047.401-1.015.227-1.009.268-2.024.489-1.015.228-1.033.162-2.047.383-1.015.227-1.015.233-2.03.46-1.014.227-1.038.131-2.053.358-1.015.227-1.003.287-2.018.514-1.014.227-1.02.221-2.035.448-1.015.227-1.032.167-2.047.394-1.015.227-.979.389-2 .616-1.015.227-1.038.131-2.053.358-1.015.227-.997.317-2.018.544-1.015.227-1.02.221-2.035.448-1.021.227-1.015.245-2.03.472-1.02.227-1.032.155-2.053.382s-1.015.257-2.029.484m-5.674 1.255c-.658-.813-.587-.873-1.252-1.685-.658-.813-.724-.765-1.382-1.577-.659-.813-.606-.861-1.264-1.673-.659-.813-.683-.795-1.347-1.613-.659-.813-.701-.783-1.359-1.595-.659-.813-.594-.872-1.252-1.685-.665-.812-.612-.86-1.27-1.673-.659-.812-.695-.788-1.353-1.607-.439-.541-.878-1.085-1.318-1.631-.658-.812-.712-.776-1.37-1.589-.665-.812-.582-.884-1.241-1.697-.664-.812-.777-.716-1.442-1.535-.664-.818-.646-.83-1.311-1.649-.665-.818-.694-.794-1.353-1.607-.125-.155.024-.418.225-.454 1.021-.203 1.027-.179 2.048-.376 1.02-.203 1.003-.287 2.023-.49 1.021-.203 1.027-.191 2.048-.394l2.041-.407c1.021-.203 1.044-.101 2.065-.304 1.021-.203.997-.311 2.024-.514 1.02-.203 1.038-.114 2.059-.317 1.02-.203 1.008-.263 2.035-.466 1.021-.203 1.009-.28 2.03-.484 1.02-.203 1.038-.125 2.059-.328 1.02-.203 1.014-.257 2.035-.454 1.021-.203 1.021-.221 2.041-.424 1.021-.204 1.033-.15 2.054-.353 1.026-.203 1.02-.233 2.041-.436 1.027-.203 1.027-.185 2.053-.388" stroke="#595757" stroke-linecap="round" stroke-linejoin="round"/><path d="M221.437 36.269a5.904 5.904 0 01-1.739 1.272c-.67.317-1.37.568-2.077.615-.729.048-1.465-.09-2.142-.328-.67-.24-1.246-.681-1.78-1.201-.534-.526-.997-1.087-1.252-1.756-.261-.681-.327-1.416-.297-2.151.03-.717.089-1.47.386-2.15.285-.646.748-1.243 1.27-1.787a5.96 5.96 0 011.774-1.249c.671-.316 1.383-.466 2.089-.514.73-.047 1.477-.053 2.16.186.67.239 1.288.675 1.822 1.2.534.526.848 1.183 1.103 1.853.262.68.345 1.38.315 2.114-.03.717-.101 1.44-.398 2.121-.284.645-.712 1.237-1.234 1.78v-.005z" fill="#898885"/><path d="M204.946 3.106c.736-.096 1.472-.09 2.196-.078.742.012 1.483 0 2.201.126.724.125 1.425.37 2.119.603a15.94 15.94 0 012.035.842c.653.329 1.246.765 1.852 1.183.599.412 1.222.813 1.768 1.308.54.49 1.098.98 1.584 1.542.475.555.831 1.213 1.247 1.828.403.61.872 1.189 1.21 1.852.333.651.594 1.344.855 2.043.255.687.51 1.38.688 2.109.172.705.338 1.434.439 2.18.095.718.065 1.47 0 2.217-.059.723-.308 1.428-.486 2.15a19.43 19.43 0 01-.635 2.104c-.255.693-.505 1.386-.813 2.049-.321.68-.606 1.368-.95 1.995-.38.675-.747 1.326-1.121 1.906-.439.693-.938 1.254-1.312 1.774-.783 1.093-1.287.645-1.27 1.745.024 1.093.25 1.051.552 2.103.303 1.051.356 1.04.659 2.09.303 1.052.297 1.058.599 2.11.303 1.057.238 1.075.546 2.126.303 1.058.309 1.058.611 2.11.303 1.057.926 1.05.552 2.09-.385 1.07-.884.645-1.804 1.303-.919.657-.908.675-1.827 1.332-.92.657-.908.669-1.828 1.332-.92.657-.914.663-1.834 1.326-.92.657-.908.675-1.827 1.333-.92.657-.974.585-1.893 1.242-.92.663-.902.687-1.828 1.344-.92.663-.706 1.578-1.81 1.32-1.116-.262-.528-.991-1.08-2.007-.558-1.01-.57-1.003-1.128-2.013-.557-1.01-.658-.956-1.216-1.965-.558-1.016-.504-1.04-1.062-2.056-.558-1.015-1.353-.908-1.122-2.043.22-1.07.878-.675 1.775-1.302.89-.628.902-.616 1.792-1.237.059-.042.071-.066.077-.131.083-1.135.113-1.135.196-2.27.083-1.136.178-1.13.261-2.27.083-1.142.356-1.172.083-2.277-.748-.048-1.484-.095-2.202-.25a13.198 13.198 0 01-2.142-.64c-.688-.275-1.341-.645-1.976-1.04a12.046 12.046 0 01-1.792-1.332 11.83 11.83 0 01-1.478-1.678c-.397-.544-.67-1.225-.967-1.936-.273-.64-.611-1.296-.813-2.013a26.57 26.57 0 01-.528-2.115 48.637 48.637 0 01-.368-2.145c-.113-.747-.071-1.494-.16-2.169-.095-.74-.297-1.47-.315-2.198-.018-.747.149-1.482.214-2.21.071-.741.071-1.494.219-2.205.155-.729.41-1.428.647-2.12.238-.706.439-1.429.754-2.086.32-.669.801-1.248 1.199-1.864.403-.621.759-1.278 1.234-1.834.481-.561 1.044-1.045 1.59-1.535.552-.49 1.122-.95 1.733-1.356.611-.407 1.216-.843 1.881-1.153.659-.311 1.371-.538 2.077-.747a14.97 14.97 0 012.154-.454l-.012.012z" fill="#fff"/><path d="M204.282 21.973c.053.4.373.64.777.586.397-.054.629-.359.575-.765-.053-.4-.356-.645-.753-.591-.398.053-.647.37-.594.77h-.005zm-9.506.007a.75.75 0 00.836.633.732.732 0 00.623-.825c-.053-.4-.409-.657-.813-.603-.397.054-.7.394-.646.8v-.006z" fill="#595757"/><path d="M202.318 43.378c.54-.908.415.807 1.519 1.518.486.316 1.121.615 1.928.842.594.167 1.288.221 2.083.275.629.042 1.323.018 2.095-.042.641-.048 1.353-.012 2.101-.15.64-.119 1.335-.268 2.059-.465.641-.174 1.276-.484 1.982-.723.635-.215 1.252-.406 1.94-.681.054 1.1-.314 1.04-.611 2.097s-.309 1.057-.605 2.115c-.297 1.063-.267 1.069-.564 2.132-.297 1.058-.184 1.094-.481 2.151-.296 1.063-.368 1.04-.664 2.103-.297 1.063-.285 1.063-.582 2.127-.297 1.063-.326 1.051-.629 2.115-.297 1.063-.303 1.057-.599 2.12-.297 1.064-.309 1.058-.606 2.121-.296 1.064-.189 1.094-.492 2.157-.297 1.063-.398 1.034-.7 2.097-.297 1.063-.339 1.051-.635 2.109-.297 1.063-.19 1.093-.487 2.156-.297 1.064-.285 1.064-.587 2.127-.297 1.064-.321 1.058-.623 2.121-.297 1.064-.327 1.058-.629 2.121-.303 1.063.373 1.595-.558 2.18-.92.574-1.104-.197-2.166-.406-1.062-.209-1.039-.34-2.101-.55-1.062-.208-1.074-.143-2.136-.352s-1.05-.275-2.113-.49c-1.062-.209-1.074-.149-2.142-.364-1.062-.21-1.572.52-2.172-.394-.599-.908.273-1.094.499-2.157.225-1.063.178-1.075.403-2.139.226-1.063.297-1.051.516-2.115.226-1.063.119-1.087.345-2.15.225-1.064.29-1.052.516-2.115l.451-2.133c.225-1.063.279-1.052.504-2.12.226-1.064.19-1.076.416-2.14.225-1.063.285-1.051.504-2.12.226-1.064.16-1.082.38-2.145.225-1.064.142-1.081.368-2.15.225-1.064.291-1.052.516-2.116.226-1.063.297-1.051.522-2.115.226-1.063.166-1.08.392-2.144.225-1.07.314-1.052.403-2.14.095-1.116-.118-1.224.44-2.162v-.006z" fill="#fff"/><path d="M198.585 24.81c-.208 1.088-.243 1.082-.457 2.17-.012.059-.053.166 0 .184.522.186.54.138 1.062.323" stroke="#595757" stroke-linecap="round" stroke-linejoin="round"/><path d="M220.809 8.733c-.427-.615-.979-1.153-1.519-1.696a16.972 16.972 0 00-1.703-1.5 19.307 19.307 0 00-1.887-1.26c-.671-.4-1.353-.741-2.012-1.04-.742-.334-1.43-.669-2.095-.866-.641-.191-1.287-.388-1.94-.472-.659-.09-1.329 0-1.994.006-.665 0-1.312.084-1.976.173-.653.09-1.335.054-1.982.215-.641.162-1.234.496-1.863.717-.624.221-1.276.377-1.882.651-.676.305-1.317.83-1.999 1.368a18.925 18.925 0 00-1.787 1.643c-.575.58-1.198 1.124-1.709 1.739-.439.526-.741 1.14-1.074 1.732-.332.598-.706 1.183-.943 1.816-.243.652-.404 1.327-.564 1.972a21.388 21.388 0 00-.386 2.013c-.118.747-.302 1.428-.35 2.025-.095 1.231-.842 1.506-.023 2.11.468-.443 1.002-1.004 1.554-1.524.481-.448 1.051-.86 1.614-1.344.505-.436.962-.98 1.543-1.434a32.905 32.905 0 011.709-1.225c.558-.37 1.181-.699 1.816-1.063.582-.335 1.187-.687 1.84-1.01.605-.298 1.216-.645 1.887-.926a32.31 32.31 0 011.97-.74c.641-.228 1.323-.37 2.017-.574.196.538.529 1.147.855 1.834.273.573.546 1.207.872 1.834.309.591.629 1.2.956 1.792.338.61.664 1.213.991 1.775.379.639.724 1.236 1.044 1.738.552.872.997 1.482 1.187 1.643.059.06.012-.012.041.09.558-.359 1.597-.73 2.6-.018.522.37.961 1.14 1.038 2.085.059.729-.119 1.541-.516 2.324-.327.639-.878 1.236-1.614 1.762.142.64.421 1.32.563 2.013.131.652.125 1.35.25 2.032.118.663.332 1.32.439 2.001.107.675.172 1.338.261 2.013.38-.597.765-1.117 1.115-1.637.404-.591.831-1.093 1.193-1.595.422-.585.748-1.165 1.116-1.655.427-.58.848-1.087 1.21-1.583.416-.567.76-1.123 1.098-1.667.35-.567.665-1.135.938-1.756.255-.573.516-1.177.712-1.864.202-.705.368-1.422.457-2.145.089-.723.13-1.463.124-2.192-.011-.735-.172-1.458-.273-2.175-.1-.729-.201-1.452-.373-2.15-.178-.723-.362-1.44-.6-2.103a19.93 19.93 0 00-.878-2.002c-.344-.693-.688-1.35-1.074-1.9h.006z" fill="#898885"/><path d="M204.317 18.198c.754-.275.736-.198 1.597-.072.474.066.931.293 1.388.705m-10.272-.61c-1.406-.508-1.602-.561-2.795.508m4.801 11.506c.986.042.986.066 1.977.107.985.042.991-.036 1.976 0 .172.006.326.215.284.383-.136.531-.652 1.589-2.344 1.744-.694.066-1.198-.173-1.519-.496-.439-.448-.48-1.14-.534-1.505-.018-.15.018-.245.166-.24l-.006.007z" stroke="#595757" stroke-linecap="round" stroke-linejoin="round"/><path d="M202.965 96.644c-.866-.424-.932.334-1.863.603-.926.269-.944.215-1.87.484-.925.269-.931.263-1.857.526-.926.269-.884.478-1.851.502-1.122.03-.784-.424-2.077-.795-.629-.18-1.383-.287-2.214-.364-.694-.066-1.442-.108-2.237-.024-.706.072-1.46.143-2.219.382a11.63 11.63 0 00-2.071.902c-.665.37-1.276.723-1.822 1.07a20.56 20.56 0 00-1.715 1.23c-.647.508-1.074 1.064-1.442 1.53-.54.675-.938 1.26-.92 1.87.018.633.368 1.284.95 1.893.344.359 1.026.55 1.839.783.576.161 1.229.299 1.953.412.629.096 1.293.215 1.982.275.652.054 1.329.137 1.999.167.677.03 1.353-.036 2.006-.03.7 0 1.377.084 2.006.066.742-.018 1.412-.149 2-.191.985-.078 1.673-.197 1.952-.317a11.71 11.71 0 002.023-1.087c.576-.382 1.223-.818 1.935-1.26.629-.395 1.3-.777 1.994-1.153.676-.365 1.341-.777 2.047-1.07.73-.299 1.401-.52 2.125-.675-.095-1.045-.404-.944-.861-1.888-.457-.95-.665-.878-.932-1.9-.284-1.087.072-1.475-.866-1.941h.006zm-42.53-4.021c-1.11.25-.855.699-1.632 1.53-.778.836-.7.913-1.478 1.75-.777.836-.842.776-1.62 1.613-.249.268-.949.316-1.288.412-.688.191-1.364.436-2.047.645-.605.191-1.228.323-1.839.496-.612.18-1.235.305-1.84.502-.57.185-1.11.46-1.656.705-.545.245-1.044.585-1.584.836-.599.281-1.187 1.147-.795 1.816.243.412.789.759 2.017.717-.451.729-.896 1.392-1.287 2.049a36.477 36.477 0 00-1.163 2.145c-.528 1.04-.896 1.858-.819 2.306.124.711.498 1.285.931 1.751.434.471 1.015.758 1.692.961.587.174 1.234.377 1.952.329.611-.048 1.27-.209 1.946-.43.594-.197 1.169-.532 1.792-.872.535-.293 1.158-.634 1.763-1.106.522-.406 1.038-.89 1.572-1.374.511-.46 1.063-.902 1.561-1.392.505-.502.896-1.105 1.359-1.595.51-.549 1.074-.992 1.489-1.469.576-.658.932-1.303 1.223-1.691.273-.359.789-.825 1.335-1.422.404-.442.801-.98 1.27-1.476.445-.472 1.009-.842 1.454-1.302.486-.502.949-.98 1.359-1.392.807-.819 1.863-.633 1.258-1.398-.617-.777-.807-.532-1.68-.992-.872-.46-.902-.412-1.774-.872s-.979-.31-1.756-.926c-.801-.633-.748-1.087-1.715-.872v.018z" fill="#fff"/><path d="M236.861 82.043c-.006-.729.148-1.47.136-2.204-.012-.735-.13-1.464-.148-2.199-.018-.735-.107-1.47-.125-2.198-.024-.741.054-1.476.03-2.205-.03-.74-.095-1.475-.125-2.198-.035-.747.018-1.488-.024-2.205-.041-.747-.077-1.481-.13-2.192-.053-.76-.148-1.488-.208-2.193-.065-.765-.219-1.487-.296-2.174a50.336 50.336 0 00-.285-2.175c-.125-.8-.149-1.547-.303-2.18-.208-.879-.445-1.602-.7-2.092-.303-.58-.76-1.117-1.193-1.69a19.685 19.685 0 00-1.335-1.566c-.463-.49-1.015-.908-1.531-1.374-.504-.454-.997-.932-1.537-1.362-.534-.43-1.062-.872-1.614-1.278-.564-.412-1.08-.878-1.638-1.255-.587-.394-1.21-.71-1.768-1.063-.617-.389-1.235-.7-1.786-1.022-.665-.394-1.223-.812-1.739-1.099-1.116-.615-1.045-1.583-1.816-.908-.813.705-.558.908-1.086 1.846-.528.938-.576.908-1.104 1.846a282.65 282.65 0 01-1.062 1.87c-.528.938-.427.997-.955 1.935-.528.938-.505.95-1.033 1.888-.528.938-.659.867-1.193 1.805l-1.056 1.875c-.528.938-.415 1.004-.949 1.942-.528.938-.629.884-1.157 1.822-.529.938-.523.944-1.057 1.882-.528.938-.552.926-1.08 1.864-.352.625-.706 1.25-1.062 1.876-.528.938-.487.962-1.015 1.9-.352.625-.704 1.252-1.056 1.882-.534.938-.433.997-.967 1.935-.534.938-.57.92-1.104 1.858-.119.21-.433.096-.409-.143.089-1.076.059-1.076.148-2.151.089-1.075.148-1.07.237-2.15.089-1.076.036-1.082.125-2.157.089-1.076.071-1.076.16-2.157.089-1.075.119-1.075.208-2.15.089-1.076-.018-1.088.071-2.163.089-1.076.231-1.064.32-2.145.09-1.075-.065-1.087.024-2.169.089-1.075.196-1.07.285-2.144.089-1.076.006-1.082.095-2.163.089-1.076.101-1.076.19-2.15.089-1.076.184-1.07.273-2.146.089-1.08.024-1.087.113-2.162.089-1.082.492-1.117.16-2.15-.338-1.052-.754.274-2.03.758-.587.22-1.299.436-2.059.77a44.23 44.23 0 00-1.982.956c-.623.317-1.246.717-1.905 1.1-.617.358-1.27.699-1.893 1.117-.599.4-1.163.872-1.75 1.332-.576.448-1.145.908-1.691 1.41-.54.496-1.158.92-1.65 1.47-.439.495-.736 1.14-1.151 1.72-.386.538-.861 1.052-1.235 1.655-.35.567-.67 1.177-1.02 1.798-.327.586-.671 1.183-.997 1.81-.315.598-.558 1.243-.878 1.87-.303.604-.677 1.183-.991 1.81-.303.604-.659 1.195-.98 1.823-.308.603-.593 1.236-.913 1.858-.315.603-.517 1.278-.849 1.887-.32.598-.754 1.153-1.098 1.757a68.555 68.555 0 01-1.032 1.792c-.374.627-.689 1.308-1.086 1.93-.398.621-.855 1.2-1.27 1.81-.416.61-.861 1.195-1.288 1.798-.433.598-.789 1.255-1.228 1.84-.445.592-.985 1.105-1.442 1.679-.457.585-.95 1.135-1.413 1.703-.474.573-.937 1.147-1.406 1.702-.487.568-.92 1.165-1.4 1.715-.499.567-1.003 1.1-1.49 1.63-.51.562-.979 1.136-1.466 1.656-.522.555-1.02 1.105-1.513 1.613-.54.555-1.121 1.015-1.614 1.511-.558.562-1.015 1.153-1.495 1.625-.6.591-1.211 1.022-1.668 1.452-1.014.962-2.183.621-1.525 1.5.653.877.902.573 1.828 1.146.926.574.932.568 1.863 1.142.926.573.861.687 1.786 1.26.932.574.956.532 1.887 1.111.932.574.784 1.237 1.876 1.171 1.103-.066.919-.663 1.792-1.344.872-.681.83-.735 1.703-1.422.872-.681.813-.759 1.685-1.44.872-.68.961-.567 1.834-1.248.872-.681.848-.711 1.727-1.392.872-.681.836-.73 1.709-1.41.872-.681.937-.604 1.81-1.285.872-.68.801-.776 1.679-1.457.872-.681.789-.83 1.774-1.339.712.096 1.424.257 2.131.359.712.102 1.441.09 2.148.197.712.108 1.412.287 2.118.4.712.114 1.436.132 2.136.245.712.12 1.407.31 2.113.43.712.12 1.412.251 2.118.377.707.125 1.425.209 2.125.346.706.132 1.4.31 2.101.448.706.138 1.394.359 2.094.502.706.144 1.413.275 2.107.418.706.15 1.454.3 2.148.454-.777.556-.914.34-1.816.658-.902.316-.949.179-1.851.495-.902.317-.855.46-1.757.777-.902.317-1.578-.37-1.851.55-.321 1.075.475 1.027.991 2.03.51.999.54.987 1.05 1.984.51.998.469 1.022.985 2.02.516 1.003.594.961 1.11 1.959.516 1.004-.018 1.583 1.003 2.043.937.419.991-.352 1.958-.693.967-.34.979-.31 1.94-.645.968-.34.974-.317 1.941-.657.967-.341.926-.448 1.893-.789.967-.34.967-.328 1.934-.669.968-.34 1.003-.233 1.971-.573.967-.341.907-.502 1.875-.843.967-.34.979-.304 1.946-.645.967-.34.997-.263 1.964-.603.968-.341.985-.287 1.959-.628.973-.34.896-.603 1.91-.764.79.245 1.591.442 2.368.699.789.257 1.567.52 2.338.776.783.263 1.573.592 2.338.861.439-1.129.042-1.219.071-2.432.03-1.207-.344-1.272.03-2.42.137-.418.404-.149.813-.292.611-.215 1.216-.442 1.739-.8.528-.365.979-.843 1.388-1.327.41-.49.671-1.07.938-1.655.261-.573.528-1.153.629-1.798.101-.657.231-1.404.308-2.24.066-.687.131-1.44.173-2.258.029-.706.047-1.458.053-2.265 0-.71-.137-1.463-.154-2.264v-.012z" fill="#898885"/><path d="M200.425 44.035c-.629.753-.706.687-1.336 1.44-.629.753-.522.842-1.151 1.595l-1.258 1.511c-.629.753-.73.67-1.359 1.428-.629.76-1.311.568-1.234 1.554.077 1.051.771.74 1.513 1.487l1.484 1.494" stroke="#595757" stroke-linecap="round" stroke-linejoin="round"/><path d="M200.353 52.197c-.925.67-.89.723-1.815 1.392-.618.446-1.235.894-1.852 1.344-.926.675-.949.646-1.875 1.315-.926.669-1.418.316-1.757 1.416-.332 1.063.339 1.027.73 2.073.392 1.045.356 1.057.748 2.103.392 1.045.362 1.057.754 2.096.391 1.046.457 1.022.848 2.068.392 1.045.35 1.063.742 2.108.392 1.046.51 1.004.902 2.05.392 1.045.362 1.057.754 2.108.391 1.052.273 1.094.67 2.14m20.568-29.246c.433.974.284 1.04.718 2.013.433.974.557.914.991 1.888.433.974.314 1.028.747 2.002.433.973 1.175.89.873 1.917-.291.992-.879.484-1.751 1.022-.878.538-.866.556-1.739 1.093-.878.538-.83.616-1.703 1.153" stroke="#595757" stroke-linecap="round" stroke-linejoin="round"/><path d="M215.206 52.99c.736.884.671.938 1.401 1.816.736.885.819.813 1.549 1.691.736.884.741.878 1.477 1.763.736.884 1.591.65 1.514 1.804-.072 1.081-.968.615-1.804 1.29-.843.675-.742.8-1.579 1.482-.843.675-.949.537-1.792 1.218-.843.675-.742.807-1.579 1.482-.842.675-.919.58-1.762 1.255-.843.675-.76.782-1.596 1.457-.843.675-.938.556-1.78 1.231-.843.681-.778.753-1.62 1.434-.843.68-.808.723-1.65 1.398-.843.68-.932.567-1.774 1.248-.843.681-.831.693-1.674 1.374m-2.189 3.085c0 1.165.119 1.165.119 2.33s-.119 1.165-.119 2.33c0 1.164-.03 1.164-.03 2.33 0 1.164.006 1.164.006 2.335s.155 1.165.155 2.336m-11.306-27.476c-.261 1.087-.201.842-.474 2.187-.131.633-.309 1.374-.457 2.192-.125.687-.238 1.434-.356 2.21-.113.718-.119 1.476-.214 2.235-.095.735-.32 1.47-.392 2.216-.071.753 0 1.518-.029 2.247-.036.776-.143 1.53-.119 2.24.024.699.03 1.368.048 2.007.011.711.006 1.38.011 2.008.006.728.018 1.398.012 2.001 0 .77.054 1.446.042 2.007-.03 1.297-.083.998-.137 1.996m44.239-31.927c-.748.759-.528.622-1.353 1.643a34.664 34.664 0 00-1.288 1.697c-.379.538-.854 1.087-1.252 1.726-.356.58-.593 1.273-.931 1.924-.321.615-.671 1.237-.956 1.906-.273.645-.599 1.284-.819 1.971-.213.67-.35 1.374-.492 2.08-.143.692-.291 1.391-.344 2.108-.054.705-.036 1.422.011 2.139m-.747-44.616c.374.574.486 1.26.599 1.942.107.657.137 1.326 0 2.02-.124.65-.314 1.308-.647 1.929a7.137 7.137 0 01-1.181 1.667c-.391.406-.824.74-1.269 1.027a7.053 7.053 0 01-1.46.717m-6.408-18.22a40.69 40.69 0 01-1.264-2.049c-.38-.64-.766-1.362-1.175-2.097a89.728 89.728 0 01-1.152-2.115 49.198 49.198 0 01-1.062-2.162" stroke="#595757" stroke-linecap="round" stroke-linejoin="round"/><path d="M191.197 17.367a29.41 29.41 0 01.244-2.12c.1-.664.237-1.369.415-2.092.166-.675.421-1.344.671-2.019.243-.663.528-1.314.872-1.936.338-.62.759-1.183 1.21-1.732.392-.478.695-1.058 1.128-1.518.433-.466.884-.914 1.341-1.332.475-.436 1.056-.729 1.543-1.081.54-.394 1.026-.8 1.555-1.046.617-.28 1.264-.52 1.898-.746.641-.233 1.312-.353 1.971-.52.664-.167 1.317-.323 1.988-.412.676-.096 1.347-.204 2.023-.21.682 0 1.353.078 2.03.174.67.09 1.353.137 2.011.334.683.203 1.43.472 2.19.819.676.31 1.335.764 2.023 1.177.653.394 1.33.8 1.953 1.284.617.478 1.133 1.075 1.673 1.631.552.562 1.128 1.1 1.561 1.739.392.573.813 1.218 1.169 1.941.32.645.492 1.398.754 2.139.249.693.611 1.374.795 2.127.178.723.195 1.493.296 2.252.101.747.137 1.494.149 2.252.012.753.077 1.518-.018 2.264-.089.747-.285 1.482-.493 2.211a14.644 14.644 0 01-.7 1.942c-.285.645-.564 1.254-.926 1.84-.344.561-.741 1.11-1.169 1.696-.373.52-.718 1.105-1.163 1.703-.374.514-.789 1.051-1.216 1.66-.368.52-.789 1.058-1.199 1.674-.356.537-.759 1.14-1.151 1.762-.083-.645-.166-1.344-.267-1.99-.101-.65-.273-1.284-.386-1.923a113.03 113.03 0 00-.362-1.924c-.13-.657-.231-1.302-.368-1.924" stroke="#595757" stroke-linecap="round" stroke-linejoin="round"/><path d="M207.48 9.355c-.712.216-1.436.323-2.089.556-.7.251-1.359.556-1.993.825-.689.292-1.312.657-1.929.967-.671.335-1.294.681-1.893 1.028-.647.376-1.258.753-1.834 1.135-.623.424-1.222.818-1.762 1.243-.599.466-1.134.943-1.65 1.392-.575.501-1.175.914-1.667 1.38-.564.537-.968 1.159-1.442 1.613m21.921 1.29c.611-.58.629-.646 1.477-.819.493-.095 1.104-.054 1.656.34.498.36.777 1.16.896 2.05.089.687.095 1.47-.208 2.234-.255.645-.647 1.32-1.27 1.882m-11.945 13.914c.083-1.105.528-1.135.255-2.21-.748-.048-1.502-.108-2.22-.257-.73-.155-1.43-.412-2.118-.681-.688-.275-1.317-.67-1.947-1.063-.623-.389-1.228-.807-1.78-1.315-.534-.496-1.092-.991-1.543-1.607-.397-.543-.718-1.207-1.014-1.918-.273-.639-.416-1.356-.617-2.078a26.698 26.698 0 01-.523-2.103c-.142-.717-.243-1.44-.356-2.14-.113-.746-.213-1.469-.302-2.15-.078-.58-.178-1.147-.202-1.72m25.57 15.103c.309 1.07.285 1.075.588 2.139.308 1.07.362 1.051.67 2.115m-14.877 3.924c.457.382 1.086.77 1.994 1.081.623.215 1.347.436 2.225.52.683.06 1.448.155 2.303.096a20.29 20.29 0 002.29-.33c.7-.13 1.418-.43 2.214-.65.694-.197 1.442-.377 2.213-.651" stroke="#595757" stroke-linecap="round" stroke-linejoin="round"/><path d="M203.368 42.207c-.089 1.07.083 1.082 0 2.151-.089 1.07-.131 1.07-.214 2.139-.089 1.07-.131 1.07-.214 2.139-.059.712-.116 1.427-.172 2.144-.089 1.07-.095 1.07-.184 2.139-.089 1.07-.148 1.063-.237 2.139-.089 1.07-.053 1.075-.136 2.145-.09 1.069-.001 1.08-.09 2.15-.089 1.07-.195 1.064-.278 2.133-.089 1.07-.101 1.07-.19 2.139-.089 1.07.047 1.081-.042 2.156-.089 1.07-.071 1.076-.16 2.145-.089 1.075-.22 1.064-.309 2.139-.089 1.075.042 1.081-.047 2.157-.018.239.178.304.297.09.522-.945.54-.933 1.062-1.87.522-.945.486-.963 1.009-1.906.522-.944.635-.879 1.157-1.823s.492-.962 1.014-1.905l1.045-1.882c.522-.944.504-.956 1.026-1.9.523-.944.54-.932 1.063-1.876.522-.944.451-.986.973-1.924.522-.944.599-.902 1.121-1.846.523-.944.558-.926 1.08-1.864.523-.944.469-.973.997-1.911.523-.944.606-.896 1.128-1.84.522-.944.386-1.022.908-1.966s.605-.896 1.127-1.84c.522-.944.57-.92 1.098-1.864.522-.944.51-.956 1.033-1.9m12.557 59.45c.024-.843.042-.843.065-1.679.024-.842-.023-.842 0-1.685m-11.672-56.306c.462.245 1.133.615 1.946 1.087.576.335 1.228.71 1.923 1.141.599.37 1.281.687 1.934 1.123.605.4 1.223.819 1.846 1.267.599.43 1.157.938 1.744 1.404.588.466 1.217.878 1.769 1.374.563.508 1.097 1.04 1.602 1.57a19.965 19.965 0 011.448 1.715c.474.622.943 1.225 1.27 1.858.243.472.439 1.165.635 1.99.142.597.213 1.296.332 2.055.101.64.184 1.326.273 2.061.077.657.196 1.344.261 2.067.065.663.083 1.362.136 2.08.054.674.066 1.367.107 2.078.042.675.155 1.368.19 2.073.036.681.065 1.374.095 2.08.03.686.113 1.38.137 2.078.023.687.053 1.386.071 2.085.018.693-.006 1.386.006 2.085.012.693.065 1.386.077 2.085.012.693-.059 1.392-.054 2.085.018.819.018 1.59.012 2.324 0 .825.066 1.601.036 2.324-.036.842-.202 1.601-.261 2.312-.077.86-.143 1.625-.249 2.3-.101.657-.256 1.297-.523 1.882a7.311 7.311 0 01-1.032 1.655c-.416.502-.956.866-1.49 1.243-.522.37-1.038.788-1.661 1.01-.416.149-.433.095-.849.238-.902.323-.89.34-1.792.663s-.896.329-1.798.651c-.902.323-.896.347-1.798.67-.902.322-.902.328-1.804.65-.973.347-.979.341-1.952.694-.973.346-.985.316-1.958.663-.974.346-.962.382-1.935.735-.973.346-.973.358-1.946.711-.974.346-.974.358-1.947.705-.973.346-1.02.215-1.994.561-.973.347-.985.317-1.958.669-.973.347-.961.383-1.94.729-.974.347-.962.388-1.935.735-.979.346-.955.406-1.934.759-.98.346-1.027 1.087-1.976.657-1.045-.472-.463-1.058-.98-2.085-.516-1.028-.522-1.022-1.044-2.049-.516-1.028-.493-1.04-1.009-2.061-.516-1.028-.593-.986-1.115-2.014-.517-1.027-1.49-1.003-1.098-2.085.38-1.033 1.115-.304 2.148-.687 1.032-.376 1.009-.436 2.041-.812 1.033-.377 1.039-.359 2.071-.735 1.033-.376 1.003-.46 2.03-.836 1.032-.377 1.08-.251 2.106-.628 1.033-.376 1.015-.424 2.048-.8 1.032-.377 1.008-.448 2.035-.825 1.033-.376 1.074-.25 2.107-.633 1.032-.376 1.026-.388 2.059-.765 1.032-.376.997-.466 2.029-.842 1.033-.376 1.033-.37 2.065-.747 1.033-.376 1.027-.406 2.059-.782 1.033-.377 1.075-.263 2.107-.646m-22.063-45.063c-.528.198-1.205.335-1.905.634-.564.245-1.163.555-1.81.872-.569.28-1.163.603-1.774.938-.57.31-1.157.633-1.745.998-.558.346-1.05.818-1.602 1.212-.54.383-1.151.681-1.679 1.111-.517.419-.926.974-1.413 1.44-.48.46-.943.938-1.388 1.446-.445.508-.908 1.027-1.329 1.625-.392.556-.831 1.111-1.205 1.732-.356.586-.593 1.255-.944 1.894-.326.604-.712 1.19-1.044 1.834-.315.61-.671 1.22-.991 1.864-.309.616-.582 1.267-.896 1.906-.303.621-.682 1.219-.997 1.858-.309.621-.534 1.296-.86 1.936-.315.615-.683 1.218-1.015 1.852-.327.615-.671 1.23-1.021 1.852-.338.609-.623 1.26-.985 1.876-.356.603-.771 1.176-1.145 1.774-.374.597-.772 1.17-1.163 1.762-.392.586-.695 1.23-1.098 1.805-.404.579-.914 1.08-1.329 1.648-.416.568-.778 1.183-1.205 1.739-.433.561-.932 1.063-1.365 1.607-.439.556-.831 1.147-1.276 1.685-.451.55-.878 1.11-1.329 1.642-.463.544-.991 1.022-1.442 1.542-.475.544-.896 1.105-1.359 1.619-.486.538-.997 1.021-1.46 1.523-.498.538-.985 1.046-1.447 1.53-.511.537-.974 1.075-1.437 1.547-.534.544-1.038 1.034-1.495 1.482-.57.567-1.104 1.033-1.531 1.445-.967.926-2.172.646-1.531 1.482.677.878.95.585 1.887 1.17.938.592.902.64 1.84 1.232.937.591.985.513 1.916 1.105.938.591.914.627 1.852 1.218.937.592.789 1.267 1.893 1.201 1.121-.065.854-.776 1.739-1.475.878-.699.872-.711 1.75-1.416s.961-.598 1.84-1.303c.878-.699.783-.818 1.661-1.523.878-.699.926-.645 1.804-1.344.878-.7.908-.663 1.786-1.368.879-.7.825-.777 1.703-1.476.885-.699.902-.675 1.787-1.374.884-.699.86-.729 1.744-1.428m15.892 8.663c-.6.173-.57.418-1.193.382-1.121-.066-.789-.472-2.083-.848-.629-.18-1.371-.377-2.201-.46-.695-.066-1.442.036-2.238.12-.706.071-1.453.113-2.213.358-.676.215-1.389.478-2.083.86-.664.37-1.258.747-1.81 1.093-.658.419-1.252.807-1.744 1.189a8.927 8.927 0 00-1.478 1.5c-.54.675-.73 1.29-.712 1.906.018.633.291 1.206.872 1.816.344.358.95.621 1.757.854.575.161 1.222.358 1.946.466.629.096 1.3.125 1.994.185.653.054 1.329.078 2 .108.676.03 1.347.053 2.006.059.7 0 1.376.114 2.011.096.742-.018 1.418-.096 2.006-.137.985-.078 1.703-.18 1.982-.293.445-.185 1.199-.729 2.172-1.374.641-.424 1.341-.956 2.124-1.44m-51.84-2.019c.997-.269.979-.335 1.97-.604.997-.268.991-.28 1.988-.549a.41.41 0 01.368.083c.255.239.849.64 1.857.526.523-.054 1.181-.161 1.923-.615m-10.498 8.251c.535-.825.612-.771 1.146-1.595.534-.825.528-.831 1.056-1.655.534-.825.493-.849 1.027-1.679m-.6 5.321c.689-1.045.659-1.069 1.341-2.115.459-.697.918-1.396 1.377-2.097m.041 4.218c.706-.878.659-.914 1.365-1.798.706-.878.766-.83 1.472-1.709" stroke="#595757" stroke-linecap="round" stroke-linejoin="round"/><path d="M154.406 97.887c-.688.19-1.359.448-2.041.663-.606.191-1.217.376-1.822.55-.611.179-1.246.262-1.852.46-.569.185-1.121.436-1.667.681-.546.244-1.062.549-1.602.8-.6.281-1.217 1.261-.825 1.93.243.412.866.705 2.095.663-.451.729-.843 1.446-1.229 2.103-.463.776-.931 1.463-1.252 2.097-.528 1.039-.878 1.87-.801 2.318.125.711.516 1.272.95 1.744.433.472.973.878 1.649 1.082.588.173 1.258.119 1.97.065.612-.048 1.288-.042 1.965-.263.593-.197 1.192-.501 1.809-.842a13.23 13.23 0 001.733-1.159c.522-.406 1.08-.836 1.614-1.32.511-.46.973-.998 1.466-1.488.504-.502.973-1.027 1.436-1.517.51-.55.955-1.1 1.371-1.577.575-.658 1.098-1.165 1.388-1.554.184-.245.481-.526.796-.884m19.837 1.016c.813-.502.724-.341 1.709-.86.51-.269 1.086-.58 1.709-.855.581-.257 1.163-.567 1.762-.752.659-.204 1.311-.347 1.881-.371m-6.142 4.42c1.015-.436.897-.298 2.107-.699.641-.209 1.389-.37 2.142-.543.736-.174 1.478-.353 2.166-.395m-3.4 2.623c1.021-.107 1.015-.143 2.036-.245 1.02-.107 1.014-.155 2.035-.262" stroke="#595757" stroke-linecap="round" stroke-linejoin="round"/><path d="M8.902 114.137c-.582.37-1.217.645-1.78 1.021a62.31 62.31 0 00-1.692 1.159c-.564.401-1.092.837-1.632 1.243a71.133 71.133 0 00-3.204 2.557M160.239 87.79c-.707-.054-1.419-.024-2.125-.072-.706-.047-1.418-.047-2.124-.09-.706-.047-1.407-.226-2.113-.268-.706-.042-1.418-.078-2.124-.114-.706-.035-1.418-.083-2.125-.12-.706-.029-1.418.03-2.13 0-.706-.029-1.412-.142-2.124-.166-.707-.024-1.419-.018-2.125-.036s-1.418-.024-2.13-.042c-.706-.018-1.418-.036-2.13-.048-.707-.012-1.419.078-2.131.066-.706-.006-1.418-.138-2.13-.144-.706 0-1.418.06-2.131.06-.712 0-1.43-.083-2.148-.077-.718 0-1.43.095-2.142.101-.718.006-1.43-.042-2.148-.03-.718.012-1.43.03-2.148.048-.718.018-1.43.018-2.148.036-.718.018-1.43.054-2.143.078-.718.024-1.43.083-2.142.113-.718.03-1.43.09-2.142.12-.718.035-1.424.125-2.142.167-.718.036-1.436-.066-2.148-.03-.718.042-1.43.108-2.143.15-.718.047-1.424.208-2.136.262-.718.048-1.436.03-2.148.084-.718.054-1.43.107-2.142.167-.712.06-1.424.18-2.136.24-.713.065-1.43.095-2.143.16-.712.066-1.43.078-2.142.156-.712.071-1.412.239-2.124.316-.712.078-1.419.204-2.125.287-.712.084-1.442.024-2.148.108-.712.09-1.412.25-2.118.34-.713.09-1.413.227-2.119.323-.712.095-1.43.101-2.136.203-.712.102-1.406.269-2.113.376-.712.108-1.424.18-2.124.287-.712.114-1.412.263-2.113.376-.706.114-1.4.3-2.106.419-.706.12-1.43.137-2.13.263-.707.125-1.419.209-2.12.34-.705.131-1.4.293-2.1.424-.706.138-1.4.317-2.094.46-.707.144-1.407.269-2.107.418-.7.15-1.389.365-2.083.514-.7.156-1.395.323-2.089.484-.7.161-1.412.239-2.106.4-.7.168-1.4.293-2.095.466m206.401 23.008c-.546-.424-1.116-.842-1.685-1.26-.558-.406-1.116-.843-1.697-1.243-.57-.394-1.199-.717-1.792-1.105-.582-.382-1.092-.878-1.698-1.255-.587-.364-1.252-.621-1.863-.979-.599-.353-1.145-.807-1.762-1.153-.606-.341-1.264-.592-1.887-.932-.612-.329-1.247-.628-1.876-.95-.617-.317-1.192-.735-1.827-1.046-.623-.31-1.306-.502-1.947-.8-.629-.299-1.228-.669-1.869-.962a130.97 130.97 0 00-1.923-.854c-.635-.281-1.252-.634-1.899-.903-.64-.268-1.311-.489-1.964-.752-.647-.263-1.276-.58-1.934-.837-.647-.251-1.353-.382-2.012-.633-.653-.245-1.299-.514-1.964-.753-.653-.239-1.288-.555-1.952-.788-.659-.233-1.353-.371-2.024-.598m-26.419-7.17c-.742-.156-1.496-.281-2.249-.43-.742-.15-1.496-.275-2.249-.419-.748-.143-1.496-.293-2.243-.43-.748-.137-1.49-.322-2.244-.454-.747-.131-1.507-.227-2.26-.352-.748-.126-1.496-.281-2.255-.407-.754-.12-1.526-.095-2.285-.209" stroke="#595757" stroke-miterlimit="10" stroke-linecap="round"/></g><defs><clipPath id="clip0_100_550"><path fill="#fff" d="M0 0h263v137H0z"/></clipPath></defs></svg>