<svg width="103" height="97" fill="none" xmlns="http://www.w3.org/2000/svg"><g clip-path="url(#clip0_100_735)"><path d="M45.585 64.009c-.31.234-.7.451-1.006.672-.32.23-.627.462-.938.673-.333.227-.657.435-.97.626-.36.218-.654.494-.964.647-.415.204-.807.27-1.108.321-.382.068-.787.205-1.209.345-.382.126-.77.295-1.172.448-.39.15-.808.23-1.2.376-.398.147-.78.328-1.173.445-.418.124-.823.25-1.218.302-.438.059-.86.043-1.255-.029-.411-.075-.77-.263-1.114-.53-.327-.256-.457-.558-.47-.938-.01-.331-.01-.714.173-1.098a5.4 5.4 0 01.6-.958c.217-.279.488-.555.765-.831.258-.257.553-.497.85-.74.287-.234.617-.423.931-.637.31-.211.598-.465.928-.646.333-.185.693-.315 1.032-.462.353-.152.693-.33 1.046-.431.372-.108.761-.11 1.12-.153.311-.036.608-.133.902-.211.3-.081.615-.218.896-.335.506.218.44.348.892.66.45.311.447.318.898.63.45.311.418.36.87.672.453.312.443.338.933.581.514.257.638.146.948.598l.013.003zM85.536 12.33c.007-.404-.088-.784-.114-1.183-.026-.403-.108-.796-.167-1.189-.058-.4-.12-.792-.212-1.182-.095-.393-.101-.809-.225-1.189-.128-.383-.376-.72-.536-1.084-.164-.37-.245-.78-.438-1.127-.196-.354-.51-.634-.738-.962a10.52 10.52 0 00-.736-.948c-.267-.302-.5-.64-.8-.906-.304-.266-.657-.471-.99-.695a8.944 8.944 0 00-1.042-.604c-.36-.176-.713-.38-1.101-.504-.38-.12-.781-.188-1.186-.256-.396-.068-.785-.094-1.157-.124-.399-.032-.787-.074-1.163-.068-.402.007-.79.017-1.166.068-.396.052-.785.11-1.15.208a8.717 8.717 0 00-1.111.37c-.366.15-.68.394-1.01.585-.34.198-.657.413-.96.65-.308.24-.654.435-.928.708-.275.276-.442.643-.68.948-.239.305-.497.591-.7.92-.202.327-.408.655-.578 1.003a13.4 13.4 0 00-.454 1.065c-.137.364-.294.721-.395 1.091-.105.377-.105.773-.173 1.147-.072.383-.193.756-.229 1.133-.036.393-.062.78-.062 1.156 0 .377.03.763.036 1.147.006.383.049.763.065 1.146.017.383.007.767.036 1.147.03.383.05.766.095 1.143.046.383.088.766.157 1.136.068.38.166.754.261 1.118.098.377.235.734.363 1.088.134.367.28.717.45 1.055.174.348.37.676.585.984a6.378 6.378 0 001.608 1.631c.307.214.627.428.987.594.336.156.67.27 1.055.383.167.55-.01.562-.01 1.134 0 .571.062.575.062 1.15 0 .574 0 .571.043 1.143.046.571.062.565.153 1.13.092.565.036.575.128 1.14.091.565.173.552.264 1.12.092.565.01.578.102 1.147.091.565.18.552.27 1.117.092.565-.032.584.056 1.153.092.565.157.555.249 1.124.091.565.068.571.16 1.136.091.569.16.556.251 1.124.092.568-.447 1.046.112 1.195.558.146.365-.503.725-.951.36-.449.369-.439.732-.887.36-.448.366-.445.725-.893.36-.448.317-.484.676-.932.36-.448.347-.462.706-.91.36-.448.37-.441.729-.89.36-.448.44-.386.8-.834.36-.448.29-.504.65-.952.36-.448.353-.454.713-.903.359-.448.366-.445.725-.893.36-.448.392-.425.751-.873.363-.449.366-.445.726-.897.362-.448.565-.344.758-.886.209-.601-.072-.65-.053-1.283.02-.634.079-.634.099-1.267.02-.636.062-.633.081-1.27.02-.636-.078-.64-.059-1.276.02-.637.04-.633.154-1.26.238-.27.372-.591.585-.887.212-.292.45-.565.637-.883.18-.309.376-.62.532-.952.15-.325.203-.695.33-1.04.121-.337.288-.662.383-1.016.333-.334.549-.71.696-1.088.173-.435.261-.87.238-1.27-.03-.5-.144-.951-.382-1.227l.006.003z" fill="#fff"/><path d="M39.125 67.8c-.392-.435-.539-.195-1.117-.305-.579-.11-.582-.091-1.16-.202-.578-.11-.598-.013-1.176-.123-.579-.11-.562-.201-1.14-.312-.579-.11-.595-.023-1.174-.133-.578-.11-.575-.12-1.156-.23-.578-.111-.582-.092-1.163-.202-.579-.11-.575-.127-1.154-.237-.578-.11-.575-.12-1.153-.23-.578-.111-.578-.12-1.157-.231-.578-.11-.568-.166-1.146-.276-.579-.11-.585-.075-1.167-.186-.581-.11-.585-.077-1.166-.188-.582-.11-.64-.552-1.17-.292-.402.195-.095.464-.18.9-.085.435-.473.578-.173.906.392.435.601.133 1.18.243.578.11.581.1 1.16.211.578.11.575.12 1.153.23.578.111.588.06 1.166.17.579.11.572.152 1.15.263.579.11.582.094 1.16.204.578.11.598.017 1.176.127.579.11.576.124 1.157.234.578.11.575.127 1.153.237.579.11.582.1 1.16.208.579.11.566.178 1.144.289.578.11.588.062 1.166.172.582.11.572.153 1.154.263.581.11.617.432 1.146.172.402-.195.046-.412.222-.821.187-.43.4-.533.102-.864l.003.003z" fill="#C8B197"/><path d="M70.958 25.031c-.317-.503-.421.27-1.02.724-.267.205-.558.484-.927.747-.298.211-.64.42-.993.656-.314.208-.644.432-.997.653-.327.201-.66.422-1.016.624-.19.11-.569.243-1.04.506-.29.163-.633.345-1.002.572-.3.185-.621.403-.96.64-.298.207-.546.516-.87.763-.29.224-.644.4-.947.66-.281.24-.585.48-.873.756-.27.257-.48.591-.751.877-.258.27-.54.532-.794.831-.245.286-.441.617-.683.926-.229.295-.536.549-.758.87-.216.309-.333.689-.542 1.02-.2.318-.477.6-.667.942-.183.328-.363.669-.536 1.02-.17.337-.326.688-.486 1.042-.154.344-.327.689-.471 1.052-.147.374-.21.77-.356 1.13-.15.37-.337.722-.49 1.079-.157.367-.317.727-.474 1.081-.163.364-.34.715-.506 1.066-.17.357-.334.714-.513 1.062-.18.35-.363.698-.556 1.042-.192.344-.372.692-.578 1.03-.206.334-.438.652-.66.98-.216.325-.477.62-.712.942-.229.315-.428.656-.677.968a28.88 28.88 0 01-.758.906c-.251.293-.558.546-.833.841-.261.283-.46.637-.745.923-.27.273-.6.5-.895.776a46.3 46.3 0 01-.866.802c-.287.257-.608.487-.915.75-.294.25-.568.536-.879.79-.297.243-.594.503-.911.753-.304.24-.644.442-.967.685-.307.234-.595.51-.918.747-.31.23-.663.49-.99.725.333.474.532.276 1.01.604.476.328.483.321.963.65.477.327.464.35.941.681.477.328.467.348.944.676.477.328.455.364.932.691.477.328.473.338.95.67.477.33.523.266 1 .597.477.331.435.393.912.724.477.328.486.315.967.643.477.332.483.322.964.65.48.331.522.266 1.003.598l.957.659c.48.331.467.347.947.679.48.33.412.441.938.695.523.25.55.201 1.105.37.555.169.568.127 1.123.292.556.17.546.195 1.102.36.555.17.565.134 1.12.303.556.169.536.234 1.091.4.556.168.588.058 1.144.227.555.168.546.194 1.101.363.556.17.546.202 1.101.37.556.17.556.166 1.11.335.556.169.573.117 1.128.283.556.168.536.23 1.095.399.555.169.562.146 1.117.312.555.169.546.204 1.101.373.556.17.552.182 1.108.351.555.169.558.153 1.117.322.556.169.569.126 1.124.292.555.169.559.156 1.114.325.556.169.546.198 1.101.367.556.168.559.152 1.114.321.556.17.55.195 1.105.364.555.169.552.179 1.107.347.556.17.572.117 1.127.286.556.17.566.14 1.121.309.556.169.523.273 1.082.442.555.168.568.12 1.124.289.37.112.74.224 1.11.334.556.169.576.1 1.13.27.556.169.53.256 1.086.425.555.169.565.136 1.12.305.556.17.553.182 1.108.351.555.169.565.143 1.12.309.556.169.55.195 1.105.363.555.17.552.186 1.107.354.556.17.569.127 1.124.296.556.169.533.243 1.088.412.556.17.572.12 1.128.29.555.168.549.188 1.107.357.556.169.575.104 1.134.273.559.168.53.256 1.088.425.559.169.549.289 1.13.256.618-.035.197-.37.412-1.14.095-.33.118-.75.235-1.21.092-.361.164-.767.268-1.203.088-.373.193-.782.288-1.208.242-.285.49-.587.712-.912.212-.306.389-.64.585-.984.183-.325.389-.643.559-1 .16-.338.359-.666.503-1.033.137-.348.225-.721.346-1.095.114-.354.271-.708.376-1.085.098-.36.166-.737.251-1.12.082-.364.128-.744.196-1.13.066-.367.102-.75.157-1.137.052-.37.19-.737.235-1.127.043-.374.04-.757.069-1.146.029-.374.082-.754.101-1.144.02-.376.01-.76.023-1.15.01-.376.043-.76.046-1.149 0-.396-.01-.79-.013-1.182 0-.396.029-.79.023-1.182-.007-.397-.053-.79-.066-1.183-.013-.396.01-.792-.009-1.185-.02-.396-.062-.79-.089-1.182-.022-.396-.091-.786-.12-1.18-.03-.395-.076-.785-.112-1.178-.035-.396-.042-.79-.085-1.179-.042-.393-.127-.783-.176-1.17-.049-.392-.131-.779-.186-1.168-.056-.393-.079-.79-.141-1.176-.062-.393-.049-.796-.117-1.179-.072-.39-.187-.773-.262-1.156-.078-.39-.153-.776-.238-1.16-.088-.39-.206-.766-.297-1.146-.095-.386-.219-.763-.324-1.137-.104-.383-.176-.773-.291-1.146-.117-.383-.206-.77-.33-1.137-.127-.38-.317-.73-.454-1.094-.14-.374-.229-.764-.379-1.124-.153-.37-.37-.708-.532-1.059-.17-.364-.33-.724-.51-1.068-.186-.358-.33-.731-.526-1.062-.206-.348-.523-.614-.739-.936-.225-.334-.395-.695-.633-.997-.249-.318-.47-.65-.732-.932-.236-.25-.556-.513-.899-.808-.28-.244-.62-.475-.954-.738-.304-.237-.585-.536-.918-.786-.314-.233-.683-.419-1.013-.656-.323-.234-.68-.432-1.006-.666-.33-.233-.618-.529-.944-.756-.337-.237-.677-.458-.997-.682-.346-.24-.696-.445-1.01-.666-.355-.253-.65-.536-.944-.75-.35-.257-.745-.449-1.084-.692-.363-.263-.667-.581-.994-.815-.385-.276-.754-.51-1.058-.728-.637-.451-.477-1.01-1.023-.675-.49.295-.402.386-.732.854-.33.468-.284.497-.614.965-.33.467-.28.5-.608.967-.33.468-.401.42-.728.887-.33.468-.317.474-.647.942-.33.468-.366.442-.696.91-.33.467-.248.522-.578.99-.33.467-.373.435-.703.906-.33.467-.277.503-.607.97-.33.469-.396.423-.726.89l-.657.936c-.217.312-.437.624-.66.936-.33.467-.326.47-.656.938-.33.468-.072 1.101-.628.945-.588-.166-.173-.572-.29-1.166-.118-.594-.079-.604-.193-1.198-.118-.598-.15-.591-.268-1.186-.118-.597-.108-.597-.226-1.195-.117-.597-.124-.594-.241-1.192-.118-.594-.098-.6-.216-1.195-.117-.594-.105-.598-.222-1.195-.118-.598-.085-.6-.203-1.198-.117-.598-.192-.585-.225-1.192-.033-.634.108-.708-.216-1.225l-.003-.003z" fill="#fff"/><path d="M71.226 26.43c-.262-.465-.32.291-.863.717-.238.185-.562.35-.898.591-.265.192-.513.461-.837.676-.28.185-.624.311-.947.51-.291.178-.572.409-.895.594-.197.113-.592.253-1.088.532-.304.17-.631.416-1.017.66-.313.198-.676.386-1.029.64-.31.22-.594.513-.928.779-.3.24-.588.523-.901.805-.291.26-.638.478-.932.773-.277.276-.565.559-.843.867-.26.293-.447.663-.705.985-.249.305-.533.59-.775.925-.232.319-.51.617-.731.965-.213.331-.38.701-.585 1.059-.196.34-.409.685-.595 1.052-.18.35-.389.701-.555 1.075-.16.36-.314.737-.464 1.117-.144.364-.183.763-.324 1.117-.147.364-.405.672-.555 1.023-.154.36-.222.747-.38 1.095-.16.354-.368.682-.532 1.026-.166.35-.33.698-.506 1.04-.177.344-.346.688-.533 1.026-.19.334-.428.64-.627.97-.2.329-.337.696-.552 1.02-.213.319-.46.614-.69.93-.225.308-.408.652-.653.957-.235.3-.49.591-.745.89-.248.286-.49.588-.758.877-.258.276-.575.51-.853.79-.264.269-.542.535-.83.808-.274.26-.513.572-.807.835-.28.253-.607.467-.908.724-.287.247-.559.523-.866.773-.294.24-.637.429-.947.672-.298.234-.572.51-.886.75-.3.231-.637.43-.954.663-.304.224-.614.48-.934.711.327.465.447.36.915.682.467.322.496.283.963.608.468.321.438.363.905.688.468.322.523.244.99.568.468.322.419.393.886.715.467.321.477.312.944.633.467.322.493.29.96.61.468.322.484.3.955.624.467.322.483.302.95.624.468.322.422.39.892.711.468.322.49.296.958.617.467.325.447.354.915.679.47.325.467.328.934.653.47.325.428.406.941.653.526.253.562.165 1.12.334.56.169.572.127 1.128.296.555.169.552.182 1.11.35.56.17.572.12 1.131.29.559.168.556.181 1.111.35.559.17.536.24 1.095.41.558.168.562.149 1.12.318.559.169.55.191 1.108.36.559.17.572.124 1.13.293.56.168.572.126 1.13.295.56.169.54.227 1.099.396.558.17.549.195 1.107.364.559.169.562.153 1.12.322.56.168.58.1 1.138.27.559.168.542.223 1.098.392l1.114.338c.558.169.549.198 1.107.367.373.112.744.225 1.115.338.558.169.555.175 1.114.344.558.169.562.159 1.117.328.559.169.552.191 1.108.36.558.17.575.114 1.133.283l1.118.338c.558.169.549.201 1.104.37.559.169.565.146 1.124.315.559.169.555.172 1.114.341.559.169.566.146 1.124.315.559.169.542.22 1.098.39.559.169.581.094 1.14.263.559.169.559.165 1.118.334.558.17.535.247 1.09.416.56.169.586.085 1.144.253.56.17.536.247 1.095.416.559.169.575.11 1.134.28.558.168.558.165 1.117.334.559.169.559.165 1.118.334.558.17.552.192 1.11.36l1.121.339c.562.169.523.38 1.108.35.604-.029.094-.392.307-1.146.091-.325.238-.701.356-1.153.091-.354.16-.75.264-1.176.089-.367.157-.776.249-1.192.255-.298.562-.587.794-.932.219-.324.424-.675.627-1.039.19-.344.402-.692.575-1.072.16-.357.301-.74.444-1.13.138-.367.183-.776.304-1.176.115-.376.33-.734.432-1.136.094-.38.062-.802.14-1.208.078-.387.17-.78.232-1.19.062-.389.18-.779.229-1.191.045-.393.081-.796.117-1.205.036-.393.007-.799.033-1.211.023-.397.147-.796.16-1.205.013-.397-.019-.802-.016-1.215 0-.386-.039-.773-.043-1.16 0-.386.046-.772.036-1.159-.006-.386.013-.776 0-1.16-.013-.386-.098-.769-.117-1.155-.02-.387-.075-.77-.098-1.157-.023-.386-.059-.773-.089-1.156-.029-.386-.019-.776-.055-1.16-.036-.386-.105-.769-.147-1.149-.043-.386-.033-.776-.082-1.156-.049-.387-.065-.773-.121-1.153a56.832 56.832 0 00-.176-1.147c-.062-.383-.115-.77-.18-1.146-.068-.383-.248-.744-.323-1.117-.079-.383-.105-.77-.187-1.143-.084-.38-.183-.754-.274-1.127-.095-.38-.189-.754-.291-1.12-.104-.378-.173-.76-.284-1.128-.114-.373-.317-.714-.438-1.078-.124-.37-.242-.737-.376-1.095-.137-.367-.264-.73-.411-1.081-.15-.364-.307-.715-.468-1.059-.166-.357-.307-.718-.483-1.052-.183-.348-.425-.656-.617-.98-.2-.342-.409-.663-.621-.978-.222-.328-.36-.705-.595-1a14.825 14.825 0 00-.748-.89c-.229-.247-.588-.452-.925-.741-.274-.24-.516-.568-.846-.828-.297-.234-.627-.458-.95-.702-.308-.23-.664-.419-.987-.653-.317-.23-.65-.444-.97-.675-.324-.23-.648-.458-.968-.682-.33-.23-.647-.471-.96-.692-.337-.237-.618-.526-.922-.74-.35-.247-.735-.39-1.022-.601-.31-.227-.64-.471-.987-.698-.337-.221-.64-.507-.984-.718-.356-.218-.738-.383-1.071-.575-.386-.224-.755-.412-1.066-.585-.64-.354-.581-.974-1.088-.643-.477.315-.287.517-.617.984-.327.465-.35.452-.676.916-.327.468-.31.48-.637.945-.327.465-.363.442-.693.906-.327.468-.3.484-.627.952-.327.468-.373.435-.7.903-.326.468-.238.53-.568.994-.327.464-.363.441-.69.91-.326.467-.323.467-.653.934-.327.468-.356.449-.683.913-.326.468-.274.503-.6.971-.33.468-.34.461-.668.929-.33.468-.124 1.033-.676.887-.578-.153-.081-.562-.2-1.147-.113-.584-.215-.565-.33-1.15-.113-.584-.117-.584-.231-1.169-.114-.584 0-.607-.118-1.192-.114-.584-.157-.578-.27-1.16-.115-.584-.112-.584-.226-1.168-.115-.585-.124-.582-.239-1.17-.114-.584-.183-.574-.222-1.172-.04-.614.095-.675-.196-1.195l-.003-.036z" fill="#898885"/><path d="M25.622 67.858c-.602-.114-.605-.091-1.206-.208-.601-.114-.611-.049-1.212-.166-.601-.113-.592-.152-1.193-.27-.6-.113-.598-.12-1.199-.236-.601-.114-.601-.104-1.202-.218s-.598-.127-1.2-.24c-.6-.114-.594-.143-1.195-.257-.601-.114-.595-.146-1.196-.26-.346-.065-.637-.208-.823-.477a1.243 1.243 0 01-.186-.945c.094-.497.107-.494.205-.988.066-.344.203-.685.474-.867.271-.182.647-.22.993-.156.602.114.592.166 1.19.28.6.113.604.087 1.205.201.601.114.595.146 1.193.26.601.114.598.117 1.199.23.601.114.617.026 1.219.14.6.114.6.104 1.202.218.601.113.595.152 1.196.266.6.114.588.182 1.189.295.346.066.624.225.807.494.183.27.31.601.242.945-.095.497-.105.494-.203.99a1.32 1.32 0 01-.53.842c-.27.182-.623.182-.973.117l.004.01zM87.71 96.671c.026-.643.026-.558.153-1.28.069-.386.154-.834.294-1.26.138-.415.406-.772.634-1.114.317-.243.579-.542.886-.792.307-.253.64-.48.934-.744.3-.266.614-.516.899-.789.29-.276.588-.545.862-.828.284-.286.546-.591.81-.88.272-.299.5-.63.755-.929.261-.309.546-.594.784-.903.249-.321.428-.682.654-1 .235-.335.487-.643.692-.971.22-.351.47-.666.65-1.004.197-.367.36-.734.507-1.085.163-.386.19-.799.29-1.156.102-.37.285-.682.367-.984.104-.386.104-.744.183-1.033.114-.425.277-.737.34-.99.336-1.332.47-.948.1-.582-.418.416-.463-.123-1.205-.214-.333-.039-.732-.045-1.176-.107-.36-.052-.748-.123-1.166-.195-.37-.062-.772-.049-1.18-.127-.372-.071-.755-.185-1.15-.27-.376-.08-.745-.23-1.137-.32-.376-.092-.78-.105-1.166-.205-.376-.1-.739-.27-1.121-.384-.376-.11-.755-.22-1.13-.347-.373-.123-.762-.214-1.131-.35-.37-.14-.712-.342-1.075-.494-.366-.153-.709-.341-1.065-.514-.356-.172-.748-.272-1.091-.46-.35-.192-.65-.455-.977-.666-.337-.215-.66-.432-.97-.666-.32-.24-.664-.439-.951-.702-.294-.266-.605-.523-.86-.815-.261-.299-.421-.672-.637-.997a7.89 7.89 0 01-.594-1.01c-.167-.354-.33-.708-.438-1.088-.105-.364-.164-.747-.265-1.124-.098-.367-.235-.73-.33-1.104-.095-.37-.14-.757-.232-1.13-.095-.374-.183-.747-.274-1.12-.092-.374-.226-.738-.314-1.111-.088-.377-.14-.76-.225-1.134-.089-.38-.17-.753-.255-1.127-.085-.38-.281-.734-.363-1.104-.085-.383-.046-.786-.127-1.153-.082-.386-.23-.75-.308-1.114-.081-.39-.163-.766-.238-1.13-.082-.396-.2-.767-.271-1.124-.082-.406-.134-.79-.203-1.137-.085-.432-.176-.808-.238-1.13-.138-.718.395-1.01-.157-1.185-.585-.185-.627.084-1.242.084-.614 0-.614-.09-1.225-.09-.61 0-.614.003-1.225.003-.611 0-.614.01-1.225.01-.611 0-.614.045-1.225.045h-1.226c-.61 0-.614-.042-1.225-.042-.61 0-.614.045-1.225.045H63.44c-.611 0-.615.036-1.229.036-.614 0-.64-.23-1.225-.046-.559.176-.17.403-.366 1.105-.092.321-.085.73-.21 1.152-.1.348-.264.708-.378 1.105-.105.357-.248.72-.366 1.11-.108.364-.186.747-.304 1.127-.114.367-.232.74-.35 1.114-.117.37-.274.731-.395 1.101-.12.374-.242.744-.366 1.111-.127.373-.166.776-.294 1.137-.134.376-.346.717-.48 1.072-.144.383-.271.75-.412 1.094-.16.39-.245.783-.395 1.104-.193.413-.454.721-.624.99-.167.26-.441.54-.761.89-.239.26-.461.588-.768.894-.262.26-.54.536-.84.825-.271.26-.608.474-.905.753-.278.26-.549.546-.843.822-.278.263-.496.6-.787.88-.278.266-.608.494-.889.773-.278.273-.503.597-.784.88-.275.276-.585.523-.856.809-.271.282-.523.584-.788.877-.264.289-.542.571-.797.867-.258.298-.562.558-.807.86-.248.309-.44.656-.67.968-.235.322-.486.627-.699.949-.219.334-.369.701-.558 1.032-.2.348-.376.692-.536 1.04-.17.363-.347.71-.464 1.075-.128.383-.213.76-.278 1.136-.069.393-.082.78-.075 1.163-.016.607-.065.604-.092 1.211-.026.605-.078.605-.104 1.209-.026.607.013.607-.013 1.214-.026.608.036.608.01 1.215-.026.607-.082.604-.108 1.208-.026.607-.033.607-.059 1.211-.026.608-.052.605-.078 1.212-.027.607-.014.607-.043 1.211-.026.608.016.608-.01 1.215-.026.607-.072.604-.098 1.211-.026.608-.046.608-.072 1.215" fill="#fff"/><path d="M88.01 96.672c.026-.64.036-.555.16-1.276.065-.386.215-.812.353-1.237.134-.42.294-.828.52-1.17.31-.243.617-.49.917-.743.3-.257.588-.526.88-.79.293-.266.617-.5.898-.772.284-.276.535-.585.803-.867.275-.29.526-.591.785-.884.264-.299.555-.571.8-.87.255-.309.425-.676.657-.984.242-.322.532-.595.751-.913.229-.334.47-.65.667-.977.209-.348.356-.721.529-1.056.186-.364.3-.744.441-1.088.157-.383.346-.73.441-1.088.098-.37.239-.692.317-.997.101-.386.082-.747.157-1.04.111-.425.229-.746.29-1.003.328-1.331.487-.961.118-.59-.415.418-.45-.05-1.195-.14-.334-.04-.73-.075-1.173-.14-.36-.052-.742-.17-1.16-.237-.37-.062-.771-.052-1.18-.13-.372-.072-.758-.17-1.156-.254-.376-.08-.762-.162-1.154-.256-.375-.091-.77-.146-1.156-.247-.376-.1-.722-.322-1.105-.435-.375-.11-.767-.175-1.143-.299-.373-.123-.732-.289-1.101-.429-.37-.136-.726-.302-1.088-.454-.366-.153-.739-.283-1.091-.452-.36-.172-.72-.328-1.062-.516-.35-.192-.687-.393-1.017-.604-.336-.215-.646-.455-.957-.689-.32-.24-.604-.506-.892-.766-.294-.266-.591-.523-.85-.815a9.155 9.155 0 01-.712-.933 7.83 7.83 0 01-.561-1.026c-.164-.354-.347-.701-.451-1.081-.102-.364-.177-.744-.278-1.12-.098-.368-.261-.725-.36-1.098-.094-.37-.156-.75-.248-1.127-.091-.374-.16-.754-.251-1.127-.092-.374-.245-.734-.334-1.108-.088-.377-.104-.766-.192-1.14-.089-.377-.239-.74-.32-1.11-.085-.38-.07-.78-.15-1.15l-.252-1.127c-.082-.387-.177-.76-.252-1.127-.082-.39-.18-.763-.258-1.127-.082-.396-.144-.776-.216-1.134-.081-.406-.225-.773-.294-1.117-.088-.432-.13-.818-.193-1.136-.14-.718.353-.981-.196-1.17-.532-.181-.575.101-1.14.101s-.565-.12-1.127-.12-.565.036-1.127.036-.566.016-1.127.016c-.562 0-.566-.007-1.128-.007-.562 0-.565-.026-1.127-.026s-.565-.006-1.127-.006-.565.078-1.127.078-.566-.023-1.13-.023c-.566 0-.566-.075-1.131-.075-.565 0-.595-.12-1.13.062-.553.188-.102.422-.295 1.124-.088.321-.166.705-.284 1.13-.098.344-.274.702-.389 1.098-.101.357-.225.727-.34 1.114-.104.36-.186.743-.297 1.123-.111.367-.18.754-.294 1.127-.114.37-.288.725-.405 1.095-.118.373-.173.763-.294 1.13-.124.373-.327.718-.451 1.078-.13.377-.255.747-.382 1.101-.14.383-.232.764-.37 1.108-.153.39-.359.727-.506 1.052-.186.412-.333.773-.503 1.043-.163.26-.343.617-.65.964-.232.26-.575.474-.873.776-.254.26-.51.552-.803.841-.265.26-.5.575-.791.855-.268.263-.559.522-.843.802-.271.266-.581.507-.862.782-.272.27-.507.585-.785.864-.27.273-.532.559-.803.842-.268.279-.575.523-.84.808-.265.286-.49.601-.748.893-.258.293-.503.591-.752.887-.251.299-.529.572-.768.877-.241.309-.529.581-.751.893-.229.322-.346.711-.552 1.033-.213.331-.409.662-.592.997-.192.347-.437.656-.59 1.003-.164.364-.315.725-.429 1.082-.12.38-.18.766-.238 1.137-.066.39-.125.773-.115 1.153-.016.607 0 .607-.026 1.211-.026.604-.088.604-.114 1.208-.026.608.032.608.006 1.215-.026.607-.049.604-.075 1.211-.026.608-.04.604-.065 1.212-.026.607.03.607 0 1.214-.026.608-.085.604-.111 1.208-.026.608-.033.605-.062 1.212-.027.607-.03.607-.056 1.211l-.052 1.215c-.026.607.046.61.02 1.218m39.017-46.774c-.232-.546.186-.565.324-1.14.14-.575.065-.594.202-1.17.14-.574.124-.577.265-1.155.14-.575.216-.556.356-1.13.14-.575.056-.595.196-1.173.14-.575.252-.549.389-1.124.14-.575.059-.594.2-1.169.14-.575.172-.568.313-1.143.14-.575.154-.572.294-1.146.14-.575.065-.595.203-1.17.14-.575.222-.555.362-1.13.14-.575.088-.588.229-1.166.14-.575.124-.581.261-1.156.14-.575.124-.578.265-1.153.14-.575.219-.555.36-1.133.14-.575.12-.582.26-1.157.141-.575.07-.594.206-1.169.141-.578.223-.558.36-1.133.137-.575-.294-.903.212-1.215.52-.318.637.13 1.232.26s.588.166 1.183.292c.396.087.794.172 1.192.257.595.13.863-.24 1.213.253.34.477-.157.588-.252 1.166s0 .594-.095 1.17c-.095.577-.13.57-.225 1.149-.095.578-.173.565-.268 1.143-.095.578-.069.581-.163 1.16-.095.578-.004.59-.099 1.169-.094.578-.205.558-.3 1.136-.095.579.013.595-.082 1.173-.095.578-.219.558-.314 1.133-.094.578.017.595-.078 1.173-.095.578-.193.562-.287 1.14-.095.578-.085.578-.183 1.156-.095.578-.023.588-.118 1.166s-.147.568-.242 1.146c-.094.578-.055.585-.15 1.163-.095.578-.163.565-.258 1.143-.095.578.01.595-.085 1.173-.095.578-.19.561-.284 1.14-.095.578-.085.578-.183 1.156-.095.578-.108.578-.203 1.156-.095.578.363.87-.167 1.133-.516.257-.493-.243-.996-.526-.503-.282-.523-.25-1.026-.532-.503-.283-.487-.312-.99-.598-.503-.283-.5-.292-1.003-.575-.506-.282-.467-.357-1.016-.542-.578-.195-.774-.068-1-.598l-.01-.003z" fill="#EEE9D1"/><path d="M63.038 56.757c.569 0 .569.023 1.134.023s.568-.01 1.134-.01c.565 0 .568-.033 1.133-.033h1.134c.569 0 .569-.016 1.134-.016s.568.056 1.134.056c.565 0 .568-.069 1.133-.069.566 0 .569-.023 1.137-.023.569 0 .569.004 1.137.004m-2.11-30.207c.313.52.32.517.633 1.036.314.52.327.514.64 1.033.315.52.292.533.605 1.056.314.523.402.47.716.99.314.523.222.575.539 1.098m-1.803 1.679c.46-.393.522-.322.983-.715.46-.396.376-.49.837-.883.46-.396.513-.335.97-.73.46-.394.408-.452.87-.848.46-.393.49-.361.947-.757.46-.393.467-.387.924-.783.46-.396.49-.36.951-.753.46-.397.457-.4.918-.796.46-.396.477-.377.938-.773m.271 22.484c.523.296.386.234 1.033.61.297.173.65.368 1.039.599.32.188.699.337 1.065.555.326.195.64.454.996.672.334.202.65.448 1 .666.337.208.676.422 1.016.636.337.215.7.393 1.036.611.34.218.676.435 1.006.656.34.227.647.484.97.708.34.237.69.438 1 .666.34.25.69.458.984.692.343.272.666.52.928.763M66.792 30.951c.111.549.065.559.176 1.108.111.549.131.545.242 1.094.111.549.059.559.173 1.11.112.55.157.543.268 1.092.111.549.131.546.242 1.095.111.548.03.565.14 1.114.112.548.167.539.278 1.087.111.55.101.553.213 1.101.11.55.078.556.19 1.108.11.552.08.559.192 1.108.111.552.144.545.255 1.094m2.239 7.363c.32-.488.375-.452.695-.939.32-.487.294-.503.615-.99l.64-.975c.32-.487.36-.461.68-.948.32-.487.274-.517.594-1.004.32-.487.31-.493.63-.977.321-.487.292-.507.612-.994s.34-.474.66-.962c.32-.487.33-.48.65-.967s.323-.484.644-.971c.32-.487.31-.494.63-.981s.324-.484.644-.971.346-.471.666-.958c.32-.487.334-.481.654-.968s.33-.48.65-.968c.32-.487.31-.494.63-.98.32-.488.33-.481.65-.969.32-.487.252-.532.573-1.02.32-.487.356-.464.676-.951.32-.487.356-.464.676-.952.32-.487.314-.493.637-.98.324-.488.262-.526.585-1.014" stroke="#595757" stroke-linecap="round" stroke-linejoin="round"/><path d="M75.581 41.432c-.274-.458-.239-.4-.634-.867-.209-.25-.48-.51-.761-.76-.271-.24-.556-.487-.866-.646a2.003 2.003 0 00-1.055-.224c-.324.026-.637.188-.945.47-.274.25-.506.546-.623.923-.102.325-.125.705-.115 1.117.007.344.02.724.101 1.12.072.342.196.699.32 1.079.112.338.311.66.461 1.023.138.331.278.675.451 1.026.16.325.291.679.477 1.017.18.33.389.623.543.919.176.34.343.656.486.948.177.354.226.724.356 1.01.177.387.367.689.471.955.274.685-.157 1.146.363 1.03.578-.13.493-.351 1.016-.634.523-.28.555-.22 1.078-.5s.506-.309 1.032-.588c.523-.28.536-.256 1.062-.536.523-.279.856-.016 1.01-.587.16-.582-.324-.488-.627-1.007-.304-.52-.294-.526-.598-1.046s-.262-.546-.566-1.065c-.303-.52-.362-.488-.666-1.007-.304-.52-.258-.549-.562-1.069-.307-.52-.33-.506-.627-1.032-.298-.526-.265-.546-.575-1.062l-.007-.007z" fill="#fff"/><path d="M61.598 50.45c-.05-.553-.066-.423-.13-1.101-.034-.319.025-.702-.017-1.111-.036-.344-.082-.715-.124-1.101-.04-.357-.138-.718-.183-1.095-.046-.363-.137-.727-.186-1.094-.05-.373-.066-.747-.118-1.104m10.91-28.389c-.22.643-.305.614-.524 1.26-.026.075.063.16.134.195.291.15.298.133.588.283m2.506 1.182c.53.364.477.273.925.9.212.302.333.727.503 1.185m-7.508-6.69c.503.329.657.368 1.183-.022m6.579-.029c-.503.328-.624.425-1.15.032m-5.449-2.833c-.801.1-.801.12-1.602.22m6.842-.249c.8.1.798.15 1.598.25m-4.79 8.62c.823-.13.79-.072 1.66.052m-2.898 24.06c-.297.465-.389.406-.686.87-.297.465-.248.494-.546.959-.297.464-.346.431-.643.896-.298.464-.19.533-.487.997-.297.464-.304.461-.601.926-.298.464-.307.458-.605.922m16.496-37.097c.464-.348.451-.348 1.043-.4.343-.029.712 0 1.058.312.229.205.382.54.464.945.066.325.144.698.072 1.079-.062.334-.216.681-.412 1.01-.173.292-.444.535-.738.786-.255.217-.513.487-.87.652-.303.14-.675.17-1.06.26m1.738.241c-.127.33-.294.643-.448.958-.157.318-.29.65-.474.945-.186.302-.437.558-.646.838-.213.282-.409.575-.647.831-.092.624-.043.63-.036 1.263.006.634.094.63.101 1.264" stroke="#595757" stroke-linecap="round" stroke-linejoin="round"/><path d="M85.43 11.041c-.03-.399-.102-.792-.164-1.182-.062-.396-.118-.789-.213-1.175-.094-.39-.173-.783-.3-1.157-.128-.38-.314-.737-.474-1.097a12.846 12.846 0 00-.52-1.075c-.199-.351-.447-.663-.676-.988-.232-.328-.431-.678-.696-.974a9.928 9.928 0 00-.85-.848 9.06 9.06 0 00-.943-.747 8.98 8.98 0 00-1.036-.62c-.36-.172-.761-.247-1.147-.37a8.437 8.437 0 00-1.16-.305c-.395-.069-.78-.13-1.153-.163-.399-.032-.79-.006-1.166 0-.402.007-.788.036-1.16.085-.396.052-.788.084-1.154.178a9.05 9.05 0 00-1.11.358c-.367.149-.703.354-1.033.545a9.19 9.19 0 00-.967.646c-.307.24-.585.514-.856.786-.275.276-.49.598-.729.9-.238.305-.45.62-.653.948-.203.328-.438.64-.608.984-.17.348-.284.718-.421 1.079-.138.363-.294.717-.396 1.088-.104.376-.19.753-.261 1.127-.072.383-.085.77-.121 1.15-.036.392-.127.772-.127 1.149 0 .4-.033.799-.026 1.198.006.4.068.8.088 1.199.02.403.068.799.101 1.195.033.403.105.796.157 1.189.052.402.055.805.13 1.192.079.4.203.779.31 1.159.112.39.174.796.321 1.16.15.376.37.72.565 1.065.2.35.422.685.673.994.252.311.5.633.804.896.297.256.68.412 1.036.617.336.192.676.403 1.068.546.36.13.755.21 1.167.295.375.078.764.195 1.186.23.382.033.787-.054 1.209-.058.382-.003.764.059 1.133.023.383-.036.742-.169 1.108-.24m10.948 3.423c-.258-.185-.432-.455-.654-.617-.336-.247-.715-.439-1.042-.68-.35-.253-.703-.48-1.02-.707-.369-.267-.656-.588-.954-.8-.47-.334-.875-.525-1.058-.652-.075-.052-.196-.068-.248.003-.343.488-.314.507-.657.99l-.683.972c-.343.487-.356.474-.7.961-.342.488-.3.517-.64 1-.343.488-.35.481-.689.968-.343.488-.389.455-.732.939-.343.487-.261.542-.601 1.03-.343.487-.402.444-.742.932l-.683.974c-.343.487-.372.464-.715.952-.343.487-.31.51-.653.997-.344.487-.298.52-.64 1.006-.344.488-.406.445-.749.933-.082.116-.242.094-.268-.046-.111-.562-.147-.555-.258-1.12-.111-.562-.127-.559-.239-1.124-.11-.565-.058-.575-.17-1.137l-.222-1.127c-.11-.562-.114-.562-.225-1.127s-.137-.558-.248-1.12l-.223-1.127c-.11-.565-.02-.582-.13-1.147-.111-.565-.16-.555-.271-1.12-.112-.565-.085-.569-.197-1.134-.022-.12-.18-.136-.274-.058-.186.153-.497.39-.902.692-.264.198-.558.445-.905.688-.287.202-.617.396-.954.617-.3.198-.62.406-.957.61-.314.192-.686.313-1.023.504-.19.11-.483.393-.954.653-.29.162-.647.312-1.016.543-.3.185-.637.373-.977.61-.297.208-.578.474-.898.721-.291.224-.601.451-.905.711-.281.24-.598.465-.886.74-.27.257-.558.517-.83.803-.258.27-.437.623-.695.922-.246.286-.536.54-.778.851-.229.296-.399.647-.624.968-.216.309-.484.591-.69.922-.199.319-.388.653-.581.994-.183.328-.373.663-.546 1.014-.17.337-.307.694-.467 1.052-.154.344-.31.691-.454 1.055-.147.374-.32.728-.467 1.088-.15.37-.3.734-.451 1.091-.157.367-.255.754-.415 1.108-.163.364-.353.708-.523 1.059-.17.357-.327.717-.506 1.068-.18.351-.399.682-.588 1.023-.193.345-.409.67-.615 1.007-.206.335-.428.656-.647.987-.215.325-.382.689-.617 1.01a33.185 33.185 0 01-1.47 1.852c-.252.292-.536.571-.807.864-.262.282-.497.604-.781.89-.271.272-.585.519-.876.795-.28.266-.549.556-.85.825-.287.257-.63.464-.937.727-.294.25-.569.536-.879.793-.297.244-.595.507-.912.753-.303.24-.63.462-.95.705-.307.234-.611.487-.935.728-.31.23-.647.432-.977.666.343.48.47.353.958.688.486.335.529.276 1.016.61.487.335.46.37.947.705.487.335.454.383.941.718.487.335.536.266 1.023.6.487.335.496.322.983.657.487.334.419.432.905.766.487.335.523.283 1.01.618.487.334.474.353.96.688.487.334.474.354.961.688.487.335.542.257 1.033.592.486.334.48.347.967.682m48.209 8.697c.215-.331.486-.64.682-1.01.187-.347.386-.705.553-1.088.156-.36.323-.737.464-1.13.133-.37.196-.776.313-1.179.111-.377.252-.76.35-1.166.091-.383.144-.79.222-1.195.075-.39.157-.786.219-1.198.059-.393.134-.793.18-1.205.045-.393.114-.796.15-1.209.033-.396.003-.805.029-1.217.023-.397.007-.803.02-1.218.013-.4.088-.803.091-1.215 0-.396-.042-.79-.045-1.182 0-.396 0-.79-.01-1.182-.007-.396.013-.79 0-1.182-.013-.397-.043-.79-.062-1.183-.02-.396-.004-.792-.03-1.182-.023-.396-.029-.792-.059-1.182-.029-.396-.117-.783-.153-1.176-.036-.396-.033-.792-.075-1.182-.043-.393-.105-.786-.154-1.172-.049-.393-.068-.79-.124-1.18-.055-.392-.144-.779-.206-1.165-.062-.393-.108-.786-.176-1.17-.072-.39-.157-.776-.232-1.159-.079-.39-.258-.753-.343-1.136-.088-.39-.164-.777-.255-1.153-.095-.387-.212-.764-.314-1.14-.104-.384-.147-.783-.261-1.157-.118-.383-.271-.747-.395-1.117-.128-.38-.245-.757-.383-1.12-.14-.374-.297-.737-.447-1.095-.154-.37-.242-.763-.406-1.114a24.77 24.77 0 00-.526-1.062c-.186-.357-.405-.688-.6-1.023-.207-.347-.39-.698-.608-1.02-.226-.334-.56-.58-.798-.883-.248-.318-.437-.672-.699-.955-.212-.227-.487-.461-.79-.724-.252-.22-.497-.487-.794-.724m-4.105-3.555c.54.117.553.052 1.092.169.539.117.542.1 1.085.217.539.117.532.156 1.071.273.085.02.105.091.092.179-.095.568-.105.568-.196 1.137-.095.568-.007.584-.102 1.153-.094.568-.18.555-.27 1.123-.096.569-.076.572-.17 1.143-.095.569-.063.575-.157 1.144-.095.568-.157.558-.252 1.127-.095.568-.079.571-.173 1.14-.095.568-.066.575-.157 1.143-.095.568-.072.571-.167 1.14-.094.568-.143.562-.238 1.13-.095.568-.075.572-.17 1.14-.095.568-.079.572-.173 1.143-.095.569-.026.581-.121 1.15-.095.568-.137.562-.232 1.133-.095.569-.144.562-.239 1.13-.094.569-.114.566-.209 1.137-.094.569-.055.575-.15 1.147-.095.571-.137.562-.232 1.133-.095.572-.082.572-.176 1.143-.095.572-.066.575-.157 1.147m-5.914-3.579c.134-.559.137-.559.27-1.114.135-.559.138-.559.272-1.114.134-.559.095-.569.229-1.124l.268-1.117c.134-.559.157-.552.29-1.11.134-.56.203-.543.337-1.102s.072-.572.21-1.13c.133-.559.185-.546.323-1.104.133-.559.156-.553.294-1.111.134-.559.11-.565.245-1.12.134-.56.055-.579.19-1.137.133-.559.205-.543.339-1.101.134-.559.144-.556.278-1.114.089-.373.18-.745.27-1.117.135-.559.112-.566.25-1.124.133-.559.12-.562.257-1.12.134-.56.18-.55.314-1.108.134-.559.12-.562.255-1.124" stroke="#595757" stroke-linecap="round" stroke-linejoin="round"/><path d="M60.333 53.603c-.102.348-.19.734-.31 1.14-.105.361-.24.734-.357 1.127-.111.367-.147.767-.264 1.153-.115.37-.223.75-.344 1.134-.117.373-.248.747-.369 1.124-.12.376-.264.747-.389 1.117-.127.38-.199.776-.326 1.14-.134.383-.288.75-.422 1.107-.144.387-.34.737-.48 1.085-.16.396-.353.744-.507 1.072a9.45 9.45 0 01-.542 1.042c-.167.26-.346.624-.663.971-.239.26-.53.53-.837.832-.26.26-.578.497-.878.786-.272.26-.575.51-.87.789-.277.26-.532.562-.826.838-.278.263-.578.52-.87.796-.277.266-.561.539-.845.818-.278.273-.572.532-.853.812-.275.276-.513.594-.784.88-.272.282-.504.604-.768.893-.265.29-.543.568-.797.864-.258.299-.54.575-.784.88-.249.309-.441.656-.67.965-.236.321-.47.633-.686.954-.22.335-.464.644-.654.978-.2.348-.421.679-.581 1.026-.17.364-.31.738-.428 1.098-.128.383-.187.773-.252 1.15a5.895 5.895 0 00-.065 1.169c-.017.607-.004.607-.033 1.211-.026.605-.075.605-.101 1.209-.026.607-.085.604-.115 1.208-.026.607.079.61.053 1.218-.026.607-.138.6-.167 1.208-.026.607.023.607-.007 1.214-.026.608-.075.605-.1 1.209-.027.607.097.61.068 1.218-.026.607-.134.6-.16 1.208-.026.607.026.61 0 1.218-.026.607 0 .607-.03 1.214M73.03 51.57c-.602 0-.602.004-1.203.004-.601 0-.601-.078-1.206-.078-.604 0-.6.065-1.205.065-.605 0-.601-.036-1.206-.036-.604 0-.6-.029-1.205-.029-.605 0-.602.068-1.206.068s-.601-.032-1.206-.032h-1.205c-.605 0-.605-.013-1.206-.013s-.604.013-1.205.013m37.495 26.813c-.588-.045-.425-.117-1.166-.207-.334-.04-.73-.069-1.174-.134-.359-.052-.754-.074-1.172-.146-.37-.062-.749-.185-1.154-.263-.372-.071-.758-.156-1.156-.24-.376-.081-.765-.15-1.157-.244-.376-.09-.761-.172-1.147-.276-.376-.1-.764-.175-1.147-.289-.375-.11-.767-.188-1.143-.312-.373-.123-.722-.324-1.091-.46-.37-.14-.722-.313-1.085-.469-.366-.152-.755-.25-1.108-.418-.356-.173-.696-.38-1.039-.566-.35-.191-.705-.363-1.035-.571-.337-.215-.611-.507-.922-.737a12.8 12.8 0 01-.898-.754 11.1 11.1 0 01-.84-.818 8.828 8.828 0 01-.732-.916 7.871 7.871 0 01-.581-1.017 7.113 7.113 0 01-.412-1.094c-.101-.36-.18-.737-.281-1.11-.098-.365-.183-.738-.281-1.112-.095-.367-.203-.734-.294-1.107-.091-.37-.281-.718-.372-1.091-.092-.37-.157-.75-.246-1.12-.088-.374-.13-.758-.215-1.128-.085-.377-.173-.75-.258-1.12-.085-.38-.164-.754-.245-1.124-.085-.38-.15-.757-.23-1.124-.08-.383-.225-.743-.303-1.107-.082-.387-.137-.767-.212-1.127-.082-.393-.111-.78-.183-1.133-.082-.403-.167-.777-.236-1.124-.084-.426-.222-.79-.284-1.111-.108-.555-.183-.945-.215-1.124-.013-.068.058-.15.12-.185.526-.299.556-.25 1.079-.549.526-.298.473-.386 1-.685.526-.299.532-.289 1.055-.588.526-.299.562-.234 1.091-.532.526-.3.533-.293 1.059-.591m7.926 48.153c.026-.643-.062-.565.065-1.286.069-.387.245-.805.386-1.231.137-.416.248-.87.477-1.208.317-.244.637-.494.944-.747.307-.254.673-.442.97-.705.301-.266.526-.607.814-.88.29-.276.617-.513.895-.792a32.06 32.06 0 001.608-1.764c.261-.308.496-.633.735-.942.248-.321.549-.597.77-.916.236-.334.426-.688.632-1.016.218-.351.437-.686.617-1.023.196-.367.356-.734.503-1.085.164-.386.249-.78.347-1.14.1-.37.199-.705.28-1.007.105-.383.206-.711.285-1.003" stroke="#595757" stroke-linecap="round" stroke-linejoin="round"/><path d="M79.665 48.413c-.29-.496-.36-.46-.65-.958-.291-.496-.229-.535-.52-1.032-.29-.497-.323-.481-.617-.978l-.582-.997c-.29-.497-.313-.484-.608-.984-.294-.5-.3-.494-.59-.994-.295-.5-.203-.552-.5-1.049-.275-.461-.308-.344-.703-.815a7.583 7.583 0 00-.729-.786c-.271-.24-.555-.474-.866-.633a1.9 1.9 0 00-1.032-.192c-.323.026-.618.146-.925.432-.277.26-.535.526-.656.893a3.327 3.327 0 00-.177 1.117c.007.345.082.721.167 1.118.072.34.248.682.375 1.058.115.338.19.705.347 1.069.14.331.264.688.438 1.04.16.324.317.668.503 1.01.18.33.421.603.575.899.176.34.307.672.45.964.177.354.337.673.468.958.176.387.258.734.366 1 .274.686.261.468.385.982" stroke="#595757" stroke-linecap="round" stroke-linejoin="round"/><path d="M71.475 41.36c.248.493.166.467.437 1.013.157.315.307.678.468 1.003.206.42.411.783.5.984m-.71-4.182c.366.578.297.484.7 1.169.208.354.486.737.718 1.16.219.399.474.795.666 1.191" stroke="#595757" stroke-linecap="round" stroke-linejoin="round"/><path d="M41.024 66.858c-.284.062-.65.179-1.052.289-.33.09-.706.127-1.065.237-.346.11-.7.227-1.033.35-.362.134-.663.371-.963.514-.34.162-.729.224-1.082.305-.395.091-.78.176-1.11.143-.442-.042-.824-.217-.984-.516-.157-.29.153-.663.562-1.033.284-.253.62-.533.967-.763.408-.27.83-.458 1.068-.617.265-.176.533-.387.781-.569.431-.315.3-.776.755-.617.61.218.493.432 1.02.809.525.377.548.344 1.1.685.556.344.598.305 1.043.78l-.007.003z" fill="#fff"/><path d="M73.85 40.895c.35.604.408.545.76 1.172.256.455.52.929.67 1.224M33.47 66.754c-.546-.103-.536-.155-1.085-.263-.545-.103-.536-.162-1.081-.266-.546-.104-.559-.052-1.104-.156-.55-.104-.55-.097-1.098-.201-.55-.104-.54-.153-1.088-.257m-.197 1.766c.602.114.598.133 1.203.247.6.113.598.133 1.202.25l1.206.227c.6.114.607.094 1.209.208.6.114.59.162 1.195.28.602.113.618.042 1.22.155.6.114.604.11 1.205.228.604.113.585.217 1.186.33.604.114.624.014 1.225.127.088.017.222.026.238-.061.118-.617.115-.617.232-1.234m-6.718-2.427c.207-.305.393-.662.677-.967.258-.277.575-.52.886-.786.294-.254.575-.54.901-.77.32-.227.677-.413 1.02-.61.346-.199.692-.394 1.052-.55.369-.162.764-.24 1.134-.35.392-.117.764-.273 1.143-.315.546-.062 1.082-.156 1.575-.341" stroke="#595757" stroke-linecap="round" stroke-linejoin="round"/><path d="M45.434 64.078c-.362.273-.741.533-1.11.793-.383.27-.72.59-1.088.828-.412.263-.804.51-1.167.711a6.355 6.355 0 01-1.486.555c-.37.094-.794.244-1.242.38-.408.124-.836.244-1.242.39-.44.16-.859.315-1.205.48-.34.163-.712.26-1.065.338-.396.091-.781.192-1.111.16-.441-.043-.79-.247-.95-.546-.158-.289.12-.646.528-1.017.285-.253.621-.535.964-.766.409-.27.82-.47 1.059-.63.264-.175.565-.344.81-.526.431-.315.363-.322.739-.617M16.689 62.53c.601.113.585.188 1.186.305.601.113.591.159 1.192.272.602.114.608.075 1.21.189.6.113.594.15 1.192.263.601.114.604.094 1.205.208.602.113.602.117 1.2.23.6.114.597.133 1.199.25.6.114.617.026 1.218.14.347.065.654.276.837.546.183.27.212.62.147.964-.095.497-.053.504-.147 1a1.323 1.323 0 01-.533.845c-.271.182-.637.237-.983.169-.601-.114-.605-.1-1.203-.215-.6-.113-.594-.149-1.192-.263-.601-.113-.601-.117-1.2-.23-.6-.114-.607-.078-1.205-.192-.601-.114-.598-.13-1.196-.243-.6-.114-.598-.127-1.199-.24-.601-.114-.608-.075-1.209-.19-.6-.113-.594-.155-1.195-.269-.347-.065-.683-.23-.866-.5a1.369 1.369 0 01-.203-.997c.095-.497.14-.487.239-.98" stroke="#595757" stroke-linecap="round" stroke-linejoin="round"/><path d="M32.241 89.248c0 .406-.12.783-.17 1.147-.052.402-.068.789-.18 1.14-.12.383-.29.73-.476 1.052a5.117 5.117 0 01-.683.932 5.637 5.637 0 01-.866.776c-.31.215-.66.39-1.02.559-.336.159-.712.263-1.094.386-.356.117-.725.23-1.114.319a16.13 16.13 0 01-1.14.214c-.373.058-.762.062-1.154.104-.376.042-.755.123-1.15.152-.379.03-.764.052-1.156.072-.38.02-.765.065-1.157.075-.382.01-.768.016-1.16.022-.382.007-.768-.065-1.16-.065-.382 0-.77.056-1.163.056-.382 0-.771.006-1.163.006s-.771-.036-1.153-.036c-.39 0-.775.069-1.154.062-.389-.006-.774-.02-1.153-.03a60.556 60.556 0 01-1.153-.038c-.39-.016-.775-.065-1.15-.088a41.065 41.065 0 01-1.15-.078c-.393-.035-.765-.15-1.138-.198-.392-.049-.777-.058-1.146-.123-.39-.069-.778-.088-1.14-.176-.386-.094-.736-.272-1.089-.39a9.804 9.804 0 01-1.065-.422 7.12 7.12 0 01-.986-.575c-.327-.217-.647-.418-.915-.685-.271-.27-.566-.53-.768-.857-.196-.315-.275-.702-.405-1.075-.121-.344-.291-.695-.35-1.091-.052-.358-.023-.744-.023-1.147s.026-.799.066-1.166c.045-.412.156-.78.251-1.133.105-.396.203-.767.37-1.101a4.98 4.98 0 01.62-.984c.252-.302.5-.608.817-.845a6.11 6.11 0 011.013-.6c.34-.163.706-.328 1.091-.449.36-.113.758-.159 1.153-.24.373-.075.765-.094 1.167-.146.376-.049.758-.172 1.16-.205.382-.029.774 0 1.176-.023.382-.016.774-.012 1.176-.022.386-.01.775 0 1.173 0 .386 0 .778-.098 1.176-.098.386 0 .778.033 1.177.036.388 0 .78.052 1.176.052.389 0 .78-.049 1.176-.049.395 0 .777-.013 1.163-.013.392 0 .778.075 1.163.078.392 0 .781-.084 1.163-.078.392.007.781.03 1.16.043.392.01.778.087 1.157.103.395.02.784-.029 1.163 0 .395.03.78.075 1.157.117.395.043.78.101 1.153.16.392.061.758.214 1.124.295.389.088.77.153 1.127.266a9.83 9.83 0 011.072.439c.36.169.741.289 1.052.5.323.224.617.49.879.77.261.279.486.6.68.942.186.321.284.698.401 1.081.111.348.206.718.262 1.117.049.36.134.744.134 1.15l-.004.003z" fill="#fff"/><path d="M32.231 89.429c0 .416-.02.812-.069 1.179-.055.412-.15.799-.267 1.153a5.24 5.24 0 01-.48 1.081c-.206.341-.527.588-.804.864a5.286 5.286 0 01-.922.718c-.32.205-.643.425-1.02.585-.349.149-.711.308-1.104.422-.365.107-.758.165-1.156.247-.376.074-.758.165-1.16.22-.379.052-.771.12-1.173.156-.382.036-.777.052-1.18.078-.385.023-.78-.042-1.182-.029-.389.013-.781.085-1.18.091-.388.007-.78.03-1.18.032-.388 0-.783-.035-1.182-.035-.392 0-.784.006-1.183.006-.398 0-.787-.029-1.176-.032-.395 0-.787.052-1.176.045-.395-.006-.787-.048-1.173-.061-.399-.013-.787-.059-1.17-.078-.398-.02-.79-.007-1.173-.033a41.23 41.23 0 01-1.17-.107c-.398-.042-.78-.133-1.156-.192a22.34 22.34 0 01-1.153-.201c-.396-.084-.788-.13-1.147-.24-.389-.117-.771-.218-1.117-.364-.373-.16-.739-.322-1.059-.52-.34-.21-.591-.53-.87-.789-.283-.266-.594-.516-.806-.841-.21-.318-.36-.682-.497-1.059-.127-.347-.268-.718-.33-1.124a7.886 7.886 0 01-.065-1.169c0-.409.056-.818.098-1.188.049-.42.12-.81.219-1.17.114-.406.235-.786.412-1.12a4.67 4.67 0 01.702-.965c.265-.295.572-.545.905-.773.32-.217.65-.448 1.03-.61a8.368 8.368 0 011.14-.37c.372-.101.758-.218 1.163-.29.379-.064.79-.013 1.199-.055.385-.039.777-.14 1.186-.165.389-.023.787-.055 1.196-.069.392-.013.79-.022 1.195-.029.392-.003.791.04 1.2.04.391 0 .79.045 1.195.048.396 0 .794-.091 1.2-.091.395 0 .793.03 1.198.03.406 0 .794.035 1.183.035.399 0 .794.036 1.183.039.398 0 .794 0 1.183.006.401.007.794.03 1.18.043.401.013.8-.065 1.185-.043.402.023.79.137 1.173.173.402.035.804-.004 1.183.048.402.055.777.198 1.15.273.399.078.807.068 1.173.175.392.114.735.325 1.085.475a6.99 6.99 0 011.035.548c.34.215.634.458.909.734.277.276.516.572.722.913.196.325.353.67.48 1.059.114.354.284.714.34 1.124.049.367.081.76.081 1.175l-.003-.003z" fill="#EFEEE8"/><path d="M27.693 71.493c0-.296-.334-.526-.85-.786a6.5 6.5 0 00-1.12-.448c-.353-.104-.726-.293-1.157-.383-.372-.079-.784-.105-1.206-.173-.382-.061-.787-.1-1.209-.152a38.34 38.34 0 00-1.208-.13c-.393-.036-.798-.059-1.216-.088-.395-.026-.804-.026-1.215-.045a43.23 43.23 0 00-1.219-.036c-.402-.01-.807-.02-1.219-.02-.411 0-.816-.029-1.218-.02-.412.01-.817.043-1.216.06-.415.016-.817.084-1.212.11-.415.026-.823.026-1.215.061a42.609 42.609 0 00-2.414.292c-.426.069-.834.102-1.203.183-.431.09-.843.146-1.196.25-.45.133-.807.354-1.11.506-.517.26-.867.52-.867.816-.062.58-.022.441-.091 1.169-.033.334-.108.724-.128 1.169-.013.36.017.757.023 1.176.004.373.046.763.072 1.169.026.376.026.773.075 1.169.05.38.183.754.258 1.146.072.38.076.78.177 1.163.101.374.258.737.392 1.108.13.367.281.727.45 1.084.168.351.311.721.517 1.06.203.33.503.597.745.912.239.305.431.656.709.938.271.273.546.565.863.809.303.237.633.461.976.666.327.195.7.34 1.069.506.346.156.732.247 1.117.37.363.118.722.287 1.12.377.373.082.759.179 1.16.234.377.052.778.007 1.187.033.379.022.77.042 1.18.042.408 0 .793-.03 1.169-.052.405-.026.79-.052 1.166-.104.402-.055.788-.104 1.157-.185.395-.088.79-.136 1.15-.257.386-.126.748-.276 1.095-.432.366-.165.718-.344 1.045-.539.343-.208.65-.454.948-.692.31-.246.545-.565.81-.84.274-.286.61-.51.843-.82.235-.314.379-.684.572-1.019.196-.34.362-.688.516-1.042.157-.358.35-.702.47-1.069.125-.373.167-.763.255-1.14.092-.383.271-.744.33-1.124.066-.39.046-.785.085-1.165.04-.397.052-.786.069-1.163.016-.406.016-.793.013-1.166a20.39 20.39 0 00-.059-1.166c-.03-.439-.056-.828-.098-1.16-.088-.72-.065-.578-.137-1.152v-.01z" fill="#fff"/><path d="M27.736 71.488c0-.292-.343-.51-.82-.766-.284-.153-.608-.38-1.036-.513-.336-.104-.722-.173-1.133-.264-.353-.077-.73-.188-1.134-.256-.366-.062-.755-.094-1.154-.146-.372-.049-.76-.046-1.16-.085-.375-.035-.754-.162-1.15-.191-.379-.026-.77.039-1.166.022-.382-.016-.768 0-1.163-.01-.382-.01-.771-.113-1.163-.113s-.781.026-1.163.032c-.396.01-.781.05-1.163.065-.396.017-.785.017-1.164.043-.395.026-.784.052-1.16.087-.398.04-.787.056-1.16.104-.401.052-.77.205-1.136.267-.406.068-.807.042-1.16.12-.412.09-.778.243-1.114.35-.428.137-.8.264-1.085.416-.477.257-.771.556-.771.845-.059.571-.056.428-.121 1.143-.03.328-.036.714-.052 1.15-.013.353.042.74.045 1.15 0 .363-.094.753-.072 1.149.023.37.108.75.15 1.143.043.374.16.744.226 1.127.066.374.137.747.229 1.124.091.37.13.757.252 1.124.12.363.228.733.382 1.087.15.351.398.657.585.994.186.335.303.712.529 1.027.219.311.48.6.742.886.254.283.555.526.852.78.288.246.572.506.899.724.313.205.637.425.993.6.337.166.729.231 1.101.364.353.127.696.319 1.085.413.362.088.755.094 1.15.153.37.055.748.12 1.147.149.372.026.758.039 1.16.039.402 0 .777-.042 1.15-.068.395-.026.78-.04 1.146-.094.393-.059.785-.078 1.144-.166.386-.094.725-.296 1.075-.422.372-.133.709-.305 1.042-.471.353-.175.696-.331 1.01-.54.326-.217.624-.448.908-.698.29-.256.618-.474.87-.756.254-.29.453-.62.669-.936.216-.318.376-.665.552-1.003.177-.341.37-.67.51-1.023.144-.358.31-.705.418-1.069.111-.367.2-.743.281-1.114.082-.376.091-.763.147-1.136.056-.384.154-.757.186-1.13.033-.39-.036-.777-.023-1.147.013-.396.108-.78.102-1.143-.007-.41-.131-.786-.154-1.14-.03-.429.052-.825.016-1.147-.081-.708-.104-.561-.17-1.127l-.006-.003z" fill="#EEE9D1"/><path d="M25.612 72.846c-.35.1-.741.198-1.166.286-.37.075-.765.143-1.183.208-.379.058-.784.042-1.199.09-.382.046-.774.163-1.186.199-.389.035-.79.006-1.202.032-.392.026-.79.049-1.2.065-.391.017-.793-.026-1.202-.016-.395.007-.794.114-1.199.114s-.82 0-1.218-.01c-.412-.01-.82-.042-1.22-.058-.414-.017-.82-.02-1.218-.046a43.735 43.735 0 01-1.215-.088c-.418-.039-.824-.074-1.212-.123-.422-.052-.81-.195-1.193-.257-.425-.068-.82-.156-1.192-.234-.432-.09-.83-.162-1.183-.266m19.384-2.519a14.955 14.955 0 00-1.189-.302c-.372-.082-.784-.12-1.212-.189-.386-.061-.788-.152-1.209-.204-.392-.049-.804-.023-1.225-.062-.396-.036-.8-.075-1.222-.104-.399-.026-.804-.09-1.222-.11-.402-.017-.81-.088-1.225-.094-.402-.01-.814.042-1.229.042-.415 0-.813.042-1.212.048-.412.01-.814.036-1.209.052-.412.017-.817-.003-1.212.023-.415.026-.82.03-1.212.065-.415.039-.82.072-1.206.12-.418.052-.82.104-1.202.163-.422.068-.807.204-1.18.282-.428.091-.826.156-1.18.26" stroke="#595757" stroke-linecap="round" stroke-linejoin="round"/><path d="M4.515 71.501c-.104.575-.095.429-.163 1.156-.033.335-.101.725-.121 1.166-.013.36.065.757.069 1.173.003.373-.023.763.003 1.169.026.377.059.766.11 1.166.05.38.145.76.22 1.15.072.38.137.763.242 1.143.1.373.232.74.366 1.11.13.368.189.767.356 1.124.166.351.395.676.6 1.014.203.33.373.695.615 1.006.239.306.559.55.84.832.271.273.52.588.833.835.304.236.634.454.98.662.327.195.703.331 1.072.497.346.156.725.257 1.11.383.363.117.716.318 1.111.406.373.081.762.169 1.164.224.375.052.777.013 1.186.04.379.022.774.058 1.18.058.404 0 .793-.065 1.169-.088.405-.026.79-.055 1.166-.107.402-.055.781-.133 1.15-.215.396-.087.8-.09 1.16-.207a10.044 10.044 0 002.134-.984c.343-.208.643-.462.944-.699.31-.247.562-.549.826-.825.275-.285.589-.53.82-.838.236-.315.366-.695.56-1.03.195-.34.372-.678.529-1.032.156-.357.343-.701.463-1.068.125-.374.236-.747.327-1.12.092-.384.164-.767.226-1.144.065-.39.134-.776.17-1.156.039-.397.081-.786.094-1.163.017-.406-.058-.796-.065-1.166a20.66 20.66 0 00-.052-1.166c-.03-.438.026-.838-.013-1.169-.089-.721-.079-.581-.2-1.15" stroke="#595757" stroke-linecap="round" stroke-linejoin="round"/><path d="M28.03 83.268c.366.13.702.308 1.026.47.343.173.63.42.921.638.304.224.592.454.837.733.245.276.444.585.627.92.173.315.392.63.503 1 .101.338.157.714.206 1.104.046.35.082.724.082 1.117s-.004.8-.053 1.16c-.052.403-.209.766-.32 1.114-.12.383-.265.737-.45 1.058-.197.338-.393.68-.657.955-.262.276-.621.448-.945.673-.31.214-.598.48-.957.65-.337.158-.732.21-1.114.334a13.11 13.11 0 01-1.111.315c-.366.084-.735.204-1.127.266a25.3 25.3 0 01-1.15.15c-.376.042-.758.123-1.15.152-.38.03-.765.058-1.16.078-.38.02-.768.013-1.16.023-.382.01-.771-.065-1.163-.059-.383.007-.768.004-1.16.007-.382 0-.771.032-1.163.032-.383 0-.771-.023-1.163-.023-.393 0-.771-.01-1.154-.013-.388 0-.774.098-1.153.091-.389-.006-.774-.016-1.153-.025-.39-.01-.771-.098-1.15-.11-.39-.017-.775-.02-1.15-.046-.393-.026-.781.016-1.154-.017-.392-.035-.771-.113-1.143-.159-.393-.048-.775-.084-1.144-.15-.389-.067-.771-.123-1.134-.21-.385-.094-.741-.257-1.094-.374a9.824 9.824 0 01-1.065-.432 7.16 7.16 0 01-.99-.575 5.748 5.748 0 01-.87-.734c-.27-.27-.555-.522-.76-.85a5.018 5.018 0 01-.5-1.03 6.047 6.047 0 01-.255-1.114c-.053-.357-.03-.737-.03-1.14 0-.403.026-.763.062-1.117a7.73 7.73 0 01.186-1.101c.099-.383.128-.767.278-1.091.164-.354.347-.692.572-.981.232-.299.552-.52.843-.757.287-.234.595-.445.934-.627.324-.172.686-.27 1.052-.4" stroke="#595757" stroke-linecap="round" stroke-linejoin="round"/><path d="M81.034 48.418c0 .539-.395 1.013-.938 1.013-.542 0-.98-.477-.98-1.013a.97.97 0 01.98-.965c.543 0 .938.426.938.965zm.764 3.578c0 .539-.486 1.039-1.029 1.039-.542 0-.98-.5-.98-1.04 0-.538.441-1.003.98-1.003.54 0 1.03.465 1.03 1.004zm.322 4.29c0 .539-.5 1.006-1.043 1.006-.542 0-.934-.467-.934-1.006 0-.54.392-.933.934-.933s1.042.393 1.042.933zm-.024 3.911c0 .54-.477 1.004-1.02 1.004-.542 0-.976-.468-.976-1.004 0-.535.434-1.02.977-1.02.542 0 1.019.481 1.019 1.02zm-.353 3.907c0 .54-.431 1.036-.974 1.036-.542 0-1.038-.497-1.038-1.036 0-.54.496-.932 1.038-.932.543 0 .974.393.974.932zM80.6 67.926c0 .54-.409.958-.948.958-.539 0-1.02-.419-1.02-.958 0-.539.481-1 1.02-1 .54 0 .948.464.948 1zm-3.486 2.537c0 .539-.487.91-1.03.91-.542 0-.977-.374-.977-.91s.435-.936.977-.936c.543 0 1.03.397 1.03.936zm-1.964-7.129c0 .54-.398.994-.94.994-.543 0-.968-.455-.968-.994 0-.539.425-1 .967-1 .543 0 .941.461.941 1zm-.579 4.086c0 .54-.43 1.036-.97 1.036-.539 0-.921-.5-.921-1.036s.379-.99.921-.99.97.451.97.99zm1.04-8.17c0 .538-.487.912-1.03.912-.542 0-.99-.374-.99-.913s.448-.919.99-.919c.543 0 1.03.38 1.03.92z" fill="#fff"/><path d="M81.057 48.417c0 .54-.421.929-.96.929-.54 0-1.02-.39-1.02-.929 0-.54.477-.987 1.02-.987m1.617 4.566a.919.919 0 01-.944.942c-.543 0-.918-.403-.918-.942 0-.54.379-1.004.918-1.004m1.307 5.294c0 .539-.458.97-1 .97a.967.967 0 01-.97-.97c0-.536.427-.942.97-.942m1.042 4.853c0 .54-.5.916-1.042.916-.543 0-.96-.38-.96-.916 0-.535.417-1.02.96-1.02m.66 4.926c0 .54-.428.971-.967.971a.975.975 0 01-.977-.97c0-.537.434-1.024.977-1.024m-.174 4.845c0 .54-.401 1.033-.944 1.033-.542 0-.924-.493-.924-1.033 0-.539.382-1.023.924-1.023m-2.535 3.56c0 .539-.49 1.036-1.033 1.036-.542 0-.947-.497-.947-1.036 0-.54.408-.997.947-.997m-.856-6.131c0 .54-.474.926-1.016.926s-.984-.39-.984-.926.445-.99.984-.99m.311 5.076c0 .539-.382.925-.921.925-.54 0-.984-.386-.984-.925 0-.54.441-.916.984-.916m1.908-7.256c0 .539-.386.99-.928.99-.543 0-.941-.451-.941-.99 0-.54.401-.935.94-.935" stroke="#595757" stroke-linecap="round" stroke-linejoin="round"/><path d="M76.103 72.535c-.545-.204-.545-.159-1.065.455-.186.22-.29.591-.463 1.062-.115.305-.314.646-.406 1.088-.085.406-.163.818-.313 1.218-.15.393-.32.78-.513 1.153-.196.38-.383.763-.598 1.114-.232.373-.5.708-.732 1.032a23.95 23.95 0 01-.768 1.004c-.392.487-.69.812-.804.952.562.321.536.087 1.271.22.39.069.834.14 1.281.215.441.071.87.237 1.271.292.565.075 1.032.049 1.284.036.31-.465.036-.439.118-1.101.039-.325.14-.698.19-1.101.042-.354.035-.737.08-1.117.043-.374.109-.747.148-1.108.036-.34.052-.714.105-1.097.045-.361.12-.728.163-1.092.046-.377.091-.747.117-1.094.03-.406.036-.783.017-1.101-.033-.51-.121-.92-.376-1.02l-.007-.01z" fill="#fff"/><path d="M72.431 82.044c.34.059.706.043 1.05.095.365.055.711.175 1.028.214.454.055.804.026 1.016.013.285-.48.125-.422.206-1.085.04-.325-.006-.714.04-1.12.042-.354.114-.728.16-1.108.042-.373.163-.74.202-1.1.036-.342.05-.715.098-1.099.046-.36.033-.737.079-1.104.045-.376.196-.737.222-1.088.03-.406-.085-.782-.105-1.1-.033-.51-.095-.861-.35-.962-.545-.205-.512-.214-1.032.4-.186.22-.304.584-.477 1.052a8 8 0 00-.3 1.11c-.085.406-.252.806-.402 1.202-.15.393-.31.79-.5 1.163-.196.38-.438.73-.657 1.081-.232.374-.467.731-.7 1.053-.27.376-.568.688-.8.977-.392.487-.705.822-.816.961" stroke="#595757" stroke-linecap="round" stroke-linejoin="round"/></g><defs><clipPath id="clip0_100_735"><path fill="#fff" d="M0 0h103v97H0z"/></clipPath></defs></svg>