<svg width="81" height="98" fill="none" xmlns="http://www.w3.org/2000/svg"><g clip-path="url(#clip0_100_473)"><path d="M80.403 97.401c-.67.674-.977-.01-1.927-.01-.95 0-.95.005-1.895.005-.945 0-.95-.122-1.895-.122-.945 0-.95.021-1.896.021-.945 0-.95.032-1.895.032-.945 0-.95.09-1.895.09-.945 0-.95-.116-1.895-.116-.945 0-.95.047-1.9.047-.951 0-.951.122-1.896.122s-.95-.132-1.895-.132c-.945 0-.95.074-1.896.074-.945 0-.95.021-1.895.021-.945 0-.95.01-1.9.01s-.95-.11-1.896-.11c-.945 0-.95.063-1.895.063-.945 0-.95-.032-1.9-.032H48.13c-.95 0-.95-.042-1.895-.042-.945 0-.95-.043-1.9-.043h-1.901c-.95 0-.95.18-1.9.18-.951 0-.951-.026-1.901-.026-.95 0-.95-.17-1.901-.17h-1.9c-.95 0-.95.038-1.901.038-.95 0-.95.058-1.9.058s-.95.005-1.896.005c-.945 0-.95-.09-1.9-.09s-.95.08-1.896.08c-.945 0-.95.095-1.9.095s-.95-.021-1.896-.021c-.945 0-.95-.005-1.9-.005s-.95-.064-1.9-.064-.95-.037-1.901-.037c-.95 0-.95.01-1.9.01s-.95-.026-1.901-.026c-.95 0-.95.09-1.9.09-.951 0-.951-.138-1.901-.138-.95 0-.95.07-1.9.07-.951 0-.951.015-1.901.015-.95 0-.95.058-1.906.058s-1.199.6-1.874-.074c-.67-.668-.058-.917-.058-1.867 0-.949-.058-.949-.058-1.893 0-.944.042-.95.042-1.893 0-.944-.027-.95-.027-1.899 0-.949.006-.949.006-1.893 0-.944.09-.95.09-1.893 0-.944-.117-.95-.117-1.894s.1-.949.1-1.893c0-.944.016-.95.016-1.893 0-.944.006-.95.006-1.893v-5.691c0-.944.01-.95.01-1.893 0-.944-.074-.95-.074-1.893 0-.944.08-.95.08-1.894S.59 66.096.59 65.147c0-.95-.026-.95-.026-1.899 0-.95.147-.95.147-1.893 0-.944-.19-.95-.19-1.893 0-.945.085-.95.085-1.9 0-.948.08-.948.08-1.898 0-.949-.154-.949-.154-1.898 0-.95.095-.95.095-1.899 0-.95.026-.95.026-1.898 0-.95-.058-.95-.058-1.899 0-.95-.058-.95-.058-1.899 0-.949.064-.949.064-1.898 0-.95-.016-.95-.016-1.899 0-.95.142-.95.142-1.898 0-.95-.037-.95-.037-1.899 0-.95-.158-.95-.158-1.898 0-.95.016-.95.016-1.9 0-.948.095-.948.095-1.898 0-.949-.01-.949-.01-1.898 0-.95-.09-.95-.09-1.894s.147-.949.147-1.898c0-.95.032-.95.032-1.893 0-.944-.116-.95-.116-1.899 0-.95-.063-.95-.063-1.899 0-.949.063-.949.063-1.898v-1.899c0-.95.037-.95.037-1.898 0-.95-.085-.95-.085-1.899 0-.95.08-.95.08-1.899 0-.949-.09-.949-.09-1.898 0-.95.116-.95.116-1.899 0-.949.026-.949.026-1.898 0-.95-.147-.95-.147-1.899 0-.95.02-.95.02-1.904S-.09 1.226.58.552c.67-.672 1.004.112 1.95.112.945 0 .95-.112 1.895-.112.945 0 .95.138 1.895.138h1.895c.945 0 .949-.11 1.895-.11h1.895c.945 0 .95-.01 1.895-.01.945 0 .95.036 1.9.036s.95.053 1.896.053c.945 0 .95-.08 1.895-.08.945 0 .95.102 1.895.102.945 0 .95-.053 1.896-.053.945 0 .95.031 1.9.031s.95-.005 1.895-.005h1.896c.945 0 .95-.085 1.9-.085s.95.059 1.9.059c.951 0 .951-.027 1.896-.027s.95-.01 1.9-.01.95-.017 1.901-.017c.95 0 .95.075 1.9.075.951 0 .951-.149 1.901-.149.95 0 .95.101 1.9.101.951 0 .951-.085 1.901-.085.95 0 .95.106 1.9.106.951 0 .951-.037 1.901-.037.95 0 .95.085 1.896.085.945 0 .95-.1 1.9-.1s.95-.027 1.895-.027c.945 0 .95.153 1.901.153.95 0 .95-.137 1.895-.137.945 0 .95-.032 1.9-.032.951 0 .951.127 1.901.127.95 0 .95.016 1.9.016.951 0 .951-.042 1.901-.042.95 0 .95-.096 1.901-.096.95 0 .95.111 1.9.111s.95-.106 1.901-.106c.95 0 .95.16 1.9.16s.95-.038 1.901-.038c.95 0 .95-.026 1.906-.026S79.627 0 80.303.674c.67.668.095.875.095 1.825 0 .949-.127.949-.127 1.893 0 .944.032.95.032 1.893 0 .944.08.95.08 1.899 0 .949.02.949.02 1.893 0 .944-.127.95-.127 1.893 0 .944.159.95.159 1.894s.031.949.031 1.893c0 .944-.02.95-.02 1.893 0 .944-.016.95-.016 1.893 0 .944-.106.95-.106 1.899 0 .95.08.95.08 1.899 0 .949.063.949.063 1.893 0 .944-.058.95-.058 1.893 0 .944.036.95.036 1.893 0 .945-.095.95-.095 1.894s.016.949.016 1.898c0 .95.048.95.048 1.899 0 .95-.021.95-.021 1.893 0 .944.058.95.058 1.894s-.1.949-.1 1.898c0 .95.02.95.02 1.899 0 .949-.005.949-.005 1.898 0 .95-.005.95-.005 1.899 0 .95-.09.95-.09 1.898 0 .95.19.95.19 1.899 0 .95-.1.95-.1 1.899 0 .949.042.949.042 1.898 0 .95-.127.95-.127 1.899 0 .95.037.95.037 1.898 0 .95-.026.95-.026 1.899 0 .95.069.95.069 1.899 0 .949-.053.949-.053 1.898 0 .95.09.95.09 1.899 0 .949-.127.949-.127 1.898 0 .95.11.95.11 1.894s-.078.949-.078 1.898c0 .95.084.95.084 1.894s-.069.949-.069 1.898v1.899c0 .949.111.949.111 1.898 0 .95-.02.95-.02 1.899 0 .95.026.95.026 1.898 0 .95.01.95.01 1.899 0 .95-.105.95-.105 1.899 0 .949.132.949.132 1.898 0 .95-.085.95-.085 1.899 0 .95-.084.95-.084 1.898 0 .95.174.95.174 1.899 0 .95-.328.976-.122 1.904.222 1.007.718 1.257.048 1.93l.005.022z" fill="#fff"/><path d="M4.757 20.772c0-.98.063-.98.063-1.967 0-.986.026-.981.026-1.968 0-.986.016-.98.016-1.967 0-.987-.126-.981-.126-1.968 0-.986-.016-.98-.016-1.967 0-.987-.027-.981-.027-1.968 0-.986.016-.986.016-1.967 0-.981-.01-.987-.01-1.968 0-.148.18-.276.322-.276.929 0 .929.027 1.853.027.924 0 .929-.01 1.853-.01.924 0 .929-.043 1.853-.043.924 0 .929.021 1.853.021.924 0 .929.085 1.853.085.924 0 .929.037 1.858.037h1.858c.93 0 .93-.148 1.859-.148m56.372 36.763c0 .955-.053.955-.053 1.904 0 .95.174.955.174 1.904 0 .95-.116.955-.116 1.904 0 .95-.053.954-.053 1.904s.164.954.164 1.904c0 .949-.122.954-.122 1.904 0 .949.085.954.085 1.904 0 .949.032.954.032 1.903 0 .95-.032.955-.032 1.904 0 .95-.042.955-.042 1.904 0 .95.047.955.047 1.904 0 .95-.031.955-.031 1.904 0 .95.047.955.047 1.904 0 .95.016.954.016 1.904 0 .949-.153.954-.153 1.904 0 .949.026.954.026 1.904 0 .949.074.954.074 1.909v1.904c0 .949.037.954.037 1.909 0 .954-.01.954-.01 1.909v1.91c0 .954-.048.954-.048 1.908 0 .955.069.955.069 1.91 0 .954-.08.954-.08 1.909 0 .954-.042.954-.042 1.909 0 .955.074.955.074 1.91 0 .954-.09.954-.09 1.908 0 .149-.079.281-.221.281-.956 0-.956-.031-1.917-.031-.96 0-.955.005-1.916.005s-.961-.074-1.917-.074H68.32c-.956 0-.956.127-1.916.127-.961 0-.956.016-1.917.016-.96 0-.96-.111-1.916-.111h-1.916c-.956 0-.961.074-1.917.074-.955 0-.96-.032-1.916-.032s-.961-.027-1.917-.027c-.955 0-.96-.037-1.916-.037s-.96.18-1.916.18-.961-.116-1.917-.116c-.955 0-.96.005-1.916.005s-.96.064-1.916.064-.961-.133-1.917-.133c-.955 0-.96.101-1.916.101s-.961.01-1.917.01c-.955 0-.96-.09-1.916-.09-.955 0-.96.112-1.916.112s-.961-.122-1.917-.122h-1.916c-.956 0-.956.117-1.917.117-.96 0-.96-.165-1.916-.165-.955 0-.96.143-1.916.143s-.961-.016-1.917-.016c-.955 0-.96-.02-1.916-.02s-.96.052-1.916.052-.961-.047-1.922-.047c-.96 0-.96-.027-1.922-.027-.96 0-.96.1-1.921.1-.961 0-.961-.02-1.917-.02-.955 0-.96-.106-1.921-.106-.961 0-.961-.027-1.922-.027-.96 0-.96.026-1.922.026-.96 0-.96.107-1.921.107-.148 0-.233-.186-.233-.335 0-.949-.105-.949-.105-1.903 0-.955.126-.95.126-1.904 0-.955-.052-.95-.052-1.904 0-.955.058-.95.058-1.904 0-.955-.048-.95-.048-1.904 0-.955.09-.95.09-1.904 0-.955-.074-.95-.074-1.904s-.01-.95-.01-1.904-.027-.949-.027-1.904c0-.954-.058-.949-.058-1.904 0-.954.132-.949.132-1.903 0-.955-.106-.95-.106-1.899 0-.95-.02-.95-.02-1.904s-.032-.95-.032-1.898c0-.95.063-.95.063-1.904 0-.955.084-.95.084-1.904 0-.955-.031-.95-.031-1.904V58.67c0-.955.063-.95.063-1.904 0-.955-.148-.955-.148-1.904s.027-.954.027-1.904c0-.949.095-.954.095-1.904 0-.949-.006-.949-.006-1.903 0-.955-.084-.955-.084-1.904 0-.95-.01-.955-.01-1.904 0-.95.11-.955.11-1.91 0-.954-.063-.954-.063-1.909M60.696 4.752c.956 0 .956.021 1.911.021.956 0 .956.096 1.912.096h1.91c.956 0 .956-.006 1.912-.006.955 0 .955-.085 1.91-.085.956 0 .956.016 1.912.016.955 0 .955.006 1.916.006s.956-.122 1.917-.122c.148 0 .21.222.21.366 0 .933.059.933.059 1.872 0 .938-.1.933-.1 1.872 0 .938-.011.933-.011 1.867 0 .933.2.933.2 1.872 0 .938-.031.933-.031 1.872 0 .938-.127.933-.127 1.872 0 .938.148.938.148 1.872 0 .933-.11.938-.11 1.872M36.691 4.79c.919 0 .919-.106 1.838-.106.918 0 .918.148 1.837.148h1.842c.924 0 .919-.021 1.843-.021" stroke="#595757" stroke-linecap="round" stroke-linejoin="round"/><path d="M2.846 28.128c.436-.45.873-.898 1.31-1.347.654-.674.522-.8 1.171-1.474.655-.674.787-.541 1.441-1.215.655-.673.55-.774 1.204-1.448.655-.673.713-.615 1.367-1.288.655-.674.56-.764 1.215-1.438.654-.673.665-.662 1.32-1.336.654-.674.717-.61 1.372-1.283.655-.674.591-.738 1.246-1.411.655-.674.765-.562 1.42-1.241.655-.674.639-.69 1.293-1.363.655-.674.581-.748 1.236-1.421.655-.674.68-.642 1.335-1.316.655-.673.597-.726 1.252-1.405.654-.673.644-.684 1.298-1.358.655-.673.755-.578 1.41-1.251.655-.674.544-.785 1.198-1.459.655-.678.74-.594 1.4-1.267.654-.679.67-.663 1.325-1.342.026-.026.031-.058.063-.058 1.008 0 1.008-.016 2.016-.016h2.017c1.009 0 1.009-.09 2.017-.09s1.008.196 2.022.196c1.014 0 1.008-.085 2.022-.085.11 0 .121.074.047.16-.623.715-.649.689-1.272 1.405-.623.716-.475.843-1.098 1.559-.623.716-.697.647-1.32 1.363-.623.716-.554.774-1.177 1.49s-.687.658-1.31 1.374c-.622.716-.575.758-1.198 1.469-.623.716-.691.652-1.314 1.368-.623.716-.581.753-1.204 1.469-.623.71-.676.668-1.293 1.379-.623.716-.655.684-1.283 1.4-.623.716-.576.758-1.199 1.469-.623.71-.554.769-1.177 1.485-.623.716-.723.625-1.346 1.341-.623.716-.512.812-1.135 1.528s-.665.679-1.288 1.39c-.623.715-.703.646-1.325 1.362-.623.716-.502.822-1.125 1.533-.623.716-.681.663-1.31 1.379-.622.716-.628.71-1.25 1.426-.623.716-.666.68-1.289 1.395-.623.716-.586.748-1.209 1.464-.623.716-.601.732-1.224 1.448s-.655.69-1.278 1.405c-.623.716-.618.721-1.24 1.437-.624.716-.56.77-1.188 1.485-.623.716-.76.594-1.384 1.31-.628.716-.56.78-1.182 1.496-.628.716-.639.705-1.267 1.42-.08.091-.17.043-.17-.079 0-.896-.041-.896-.041-1.797 0-.902.063-.897.063-1.798 0-.902-.01-.897-.01-1.793 0-.896.02-.896.02-1.798 0-.901-.02-.896-.02-1.797 0-.902-.037-.897-.037-1.798 0-.902-.07-.902-.07-1.798s.117-.902.117-1.798c0-.032.01 0 .037-.026l-.021-.011zm77.5-1.807c-.65-.663-.713-.604-1.362-1.267-.65-.663-.66-.653-1.315-1.31-.65-.663-.644-.668-1.293-1.331-.65-.663-.544-.77-1.194-1.432-.649-.663-.67-.642-1.32-1.305-.649-.663-.707-.604-1.356-1.273-.65-.663-.644-.668-1.293-1.33-.65-.664-.629-.69-1.278-1.353-.65-.663-.707-.61-1.357-1.273-.65-.663-.56-.753-1.214-1.416-.65-.663-.686-.631-1.336-1.294s-.739-.578-1.388-1.24c-.65-.664-.644-.67-1.294-1.332-.654-.663-.67-.647-1.325-1.31-.654-.663-.538-.78-1.188-1.442-.654-.663-.68-.637-1.33-1.3-.655-.663-.602-.716-1.256-1.379-.655-.663-.724-.594-1.378-1.262-.042-.042-.1-.095-.164-.095-.93 0-.93.074-1.858.074-.93 0-.93-.09-1.859-.09-.929 0-.929-.027-1.858-.027s-.929.08-1.864.08c-.934 0-.929-.096-1.863-.096-.19 0-.354.35-.232.488.628.71.644.7 1.272 1.41.628.712.692.659 1.32 1.37.628.71.65.694 1.277 1.405.629.71.544.79 1.172 1.5.629.711.607.732 1.236 1.443.628.71.755.6 1.383 1.31.628.71.633.705 1.262 1.416.628.71.496.832 1.124 1.543.628.71.713.636 1.341 1.347l1.257 1.421c.628.711.586.748 1.214 1.459.628.71.665.679 1.293 1.395.628.71.58.753 1.21 1.463.627.711.654.69 1.282 1.406.628.71.713.636 1.34 1.352.42.474.84.948 1.263 1.421.628.711.628.716 1.256 1.427.628.71.544.79 1.172 1.5.628.711.734.621 1.362 1.337.628.71.491.833 1.12 1.543.628.711.76.6 1.388 1.31l1.262 1.427c.628.71.586.753 1.214 1.464.628.71.67.678 1.299 1.395.633.715.533.806 1.161 1.516.633.716.74.62 1.373 1.331.137.154.311.122.311-.074 0-.939.042-.939.042-1.877 0-.939.032-.939.032-1.872 0-.934-.026-.939-.026-1.878 0-.938.074-.938.074-1.877 0-.939-.117-.939-.117-1.878 0-.938.027-.938.027-1.877 0-.939.063-.939.063-1.877 0-.053-.063-.133-.1-.175l.016-.01z" fill="#DDDCD6"/><path d="M9.307.701c.898 0 .898-.074 1.79-.074s.892.037 1.79.037c.897 0 .897-.032 1.79-.032.891 0 .897.106 1.789.106.892 0 .897-.08 1.79-.08.892 0 .897.075 1.794.075.898 0 .898-.165 1.795-.165.898 0 .94.16 1.88.16s.94-.107 1.88-.107c.939 0 .939.075 1.879.075.94 0 .94-.09 1.88-.09.939 0 .939-.038 1.879-.038.94 0 .94.048 1.879.048.94 0 .94.117 1.88.117s.94-.037 1.879-.037c.94 0 .94-.112 1.88-.112.939 0 .939-.053 1.879-.053.94 0 .94.165 1.88.165.939 0 .939-.011 1.878-.011.94 0 .94.021 1.88.021s.94-.032 1.88-.032.94-.069 1.879-.069c.94 0 .94.064 1.88.064.939 0 .939.032 1.879.032.94 0 .94-.164 1.88-.164.939 0 .939-.006 1.878-.006.94 0 .94.18 1.88.18s.94-.026 1.88-.026.94.032 1.879.032c.94 0 .94-.16 1.88-.16.939 0 .939-.015 1.879-.015.94 0 .94.08 1.879.08.94 0 .94-.07 1.88-.07s.94-.015 1.879-.015c.94 0 .94.026 1.88.026.939 0 .939.027 1.879.027.94 0 .94.095 1.884.095.945 0 .94.005 1.885.005.148 0 .206.059.206.207 0 .96-.026.96-.026 1.92s.121.96.121 1.92-.074.96-.074 1.925c0 .965.01.96.01 1.925 0 .965.07.96.07 1.92s-.106.96-.106 1.92.079.96.079 1.92-.074.96-.074 1.92-.042.96-.042 1.919c0 .96.158.96.158 1.925 0 .965-.095.96-.095 1.925 0 .965-.047.96-.047 1.925 0 .966.02.96.02 1.92s.043.96.043 1.92-.074.96-.074 1.925c0 .965.185.96.185 1.925 0 .965-.1.96-.1 1.925 0 .965-.011.96-.011 1.925v1.925c0 .966.01.96.01 1.925 0 .966-.042.96-.042 1.926 0 .965.143.96.143 1.925 0 .965-.137.96-.137 1.925 0 .965-.053.96-.053 1.925 0 .965.148.96.148 1.925 0 .965-.143.96-.143 1.925 0 .965.19.96.19 1.925 0 .965-.148.96-.148 1.925 0 .966.064.96.064 1.925 0 .966.052.96.052 1.926 0 .965-.026.96-.026 1.925 0 .965-.058.96-.058 1.925 0 .965.069.96.069 1.925 0 .965-.127.965-.127 1.925 0 .96.106.96.106 1.925 0 .965.036.96.036 1.925 0 .965-.147.96-.147 1.925 0 .965.137.96.137 1.925v1.925c0 .966-.159.966-.159 1.926s.043.96.043 1.925c0 .965.02.965.02 1.925 0 .96-.02.965-.02 1.925 0 .96-.027.965-.027 1.925 0 .96.138.965.138 1.925 0 .96-.016.965-.016 1.925 0 .96.01.965.01 1.925 0 .96-.047.966-.047 1.925 0 .96-.048.966-.048 1.93 0 .966.064.966.064 1.931 0 .149-.143.234-.285.234-.94 0-.94.016-1.885.016-.945 0-.945-.022-1.885-.022-.94 0-.945.106-1.884.106-.94 0-.94-.143-1.885-.143-.945 0-.94.106-1.885.106-.945 0-.94-.058-1.885-.058-.945 0-.94-.058-1.884-.058-.945 0-.945.11-1.885.11-.94 0-.945.054-1.885.054-.94 0-.94-.117-1.884-.117-.945 0-.94.006-1.885.006-.945 0-.945.031-1.885.031-.94 0-.945.08-1.885.08-.94 0-.945-.053-1.884-.053-.94 0-.945-.1-1.885-.1-.94 0-.945.068-1.885.068-.94 0-.945-.1-1.884-.1-.94 0-.945.084-1.885.084-.94 0-.945-.085-1.885-.085-.94 0-.945.112-1.885.112-.94 0-.944-.037-1.884-.037s-.945-.011-1.885-.011c-.94 0-.945.027-1.885.027-.94 0-.945.047-1.884.047-.94 0-.945.016-1.885.016-.94 0-.945-.111-1.885-.111-.94 0-.94.085-1.884.085-.945 0-.945.005-1.885.005-.94 0-.94-.058-1.885-.058-.945 0-.945-.011-1.884-.011-.94 0-.945-.037-1.885-.037-.94 0-.945.005-1.885.005-.94 0-.945-.016-1.885-.016-.94 0-.945.191-1.884.191-.94 0-.945-.196-1.89-.196s-.945.111-1.89.111-.945.016-1.89.016-.945.027-1.885.027c-.94 0-.945-.043-1.89-.043s-.945-.085-1.89-.085-.945.075-1.89.075-.945.1-1.89.1c-.148 0-.237-.217-.237-.365 0-.955-.006-.955-.006-1.904 0-.95-.037-.955-.037-1.904 0-.95.09-.955.09-1.91 0-.954-.09-.954-.09-1.909 0-.954.085-.954.085-1.903 0-.95-.159-.955-.159-1.904 0-.95.159-.955.159-1.904 0-.95-.1-.955-.1-1.904 0-.95.116-.955.116-1.904 0-.95-.022-.955-.022-1.91 0-.954-.137-.954-.137-1.908 0-.955.111-.955.111-1.91 0-.954.037-.954.037-1.903 0-.95.01-.955.01-1.904 0-.95-.163-.955-.163-1.91 0-.954.1-.954.1-1.909 0-.954-.095-.954-.095-1.909 0-.955.021-.955.021-1.91 0-.954.064-.954.064-1.908 0-.955-.095-.955-.095-1.91 0-.954-.006-.954-.006-1.909 0-.954.185-.954.185-1.909 0-.955-.137-.955-.137-1.91 0-.954-.016-.954-.016-1.908 0-.955-.032-.955-.032-1.91 0-.954.17-.954.17-1.909 0-.954-.133-.954-.133-1.909 0-.954.08-.954.08-1.91 0-.954-.032-.954-.032-1.908 0-.955-.027-.955-.027-1.91 0-.954.053-.954.053-1.909 0-.954.058-.954.058-1.909 0-.954-.01-.954-.01-1.91 0-.954-.058-.954-.058-1.908 0-.955.052-.955.052-1.91 0-.954-.1-.954-.1-1.909 0-.954-.042-.954-.042-1.909 0-.954.148-.954.148-1.91 0-.954.01-.954.01-1.908 0-.955-.09-.955-.09-1.91 0-.954.064-.954.064-1.909 0-.954-.148-.954-.148-1.909 0-.954.158-.954.158-1.91 0-.954-.163-.954-.163-1.908 0-.955.121-.955.121-1.91 0-.954.006-.954.006-1.909 0-.954-.048-.954-.048-1.909 0-.954-.021-.954-.021-1.909 0-.955.09-.955.09-1.915 0-.96-.085-.954-.085-1.914" stroke="#595757" stroke-linecap="round" stroke-linejoin="round"/><path d="M3.035 24.946c.655-.663.676-.642 1.325-1.304.655-.663.724-.594 1.373-1.257.655-.663.554-.764 1.209-1.427.654-.663.755-.557 1.41-1.225.654-.663.522-.796 1.177-1.458.654-.663.718-.6 1.372-1.263.655-.663.708-.61 1.362-1.272.655-.663.665-.653 1.32-1.316.655-.662.533-.784 1.188-1.447.655-.663.681-.642 1.336-1.305.654-.663.712-.605 1.362-1.268.654-.662.601-.715 1.256-1.378.655-.663.718-.605 1.373-1.268.654-.663.538-.78 1.193-1.442.654-.663.787-.536 1.441-1.199.655-.668.644-.679 1.299-1.342.655-.668.57-.747 1.23-1.416m10.871.421c-.644.726-.655.71-1.299 1.437-.644.726-.591.768-1.235 1.495-.644.727-.687.684-1.33 1.405-.645.727-.544.812-1.189 1.538-.644.727-.654.711-1.298 1.438-.644.726-.618.747-1.257 1.474-.639.721-.65.716-1.293 1.437-.644.727-.734.642-1.378 1.368L24.57 15.82c-.644.721-.565.79-1.209 1.517-.644.727-.612.753-1.256 1.474-.644.727-.776.605-1.42 1.331-.644.727-.555.801-1.199 1.528-.644.726-.66.71-1.304 1.437-.644.727-.612.753-1.251 1.48-.644.726-.76.62-1.404 1.347-.644.726-.502.848-1.146 1.575-.644.726-.655.716-1.299 1.442-.644.727-.723.652-1.367 1.379s-.554.806-1.198 1.527c-.644.727-.687.684-1.33 1.411-.645.727-.735.647-1.379 1.368-.644.727-.517.838-1.161 1.56-.644.726-.734.647-1.378 1.373-.644.727-.655.721-1.299 1.448-.644.726-.638.732-1.283 1.458M77.991 24.92c-.654-.663-.76-.557-1.41-1.22-.654-.662-.527-.784-1.182-1.447-.655-.663-.66-.658-1.314-1.32-.655-.664-.713-.605-1.368-1.268-.654-.663-.713-.605-1.367-1.268-.655-.663-.612-.705-1.267-1.368-.655-.663-.634-.684-1.288-1.347-.655-.663-.729-.589-1.383-1.252-.655-.663-.602-.71-1.257-1.379-.655-.662-.665-.652-1.32-1.315-.654-.663-.66-.652-1.314-1.315-.655-.663-.613-.705-1.262-1.368l-1.31-1.326c-.654-.663-.59-.727-1.245-1.395-.655-.663-.713-.604-1.368-1.273-.654-.668-.644-.673-1.304-1.341-.654-.669-.596-.727-1.25-1.39m-10.93.467c.64.721.565.785 1.204 1.506s.76.61 1.4 1.331c.638.721.606.748 1.245 1.47.639.72.692.673 1.33 1.394.64.721.523.827 1.162 1.549.639.72.697.668 1.336 1.389.638.721.654.705 1.288 1.427.639.72.644.716 1.283 1.437.638.721.66.7 1.298 1.421.426.48.852.96 1.278 1.437.639.722.618.738 1.256 1.459.64.721.528.822 1.167 1.538.639.72.665.694 1.304 1.416.639.72.676.69 1.315 1.41.638.722.607.748 1.245 1.47.64.72.687.678 1.326 1.4.638.72.554.8 1.193 1.516.639.721.786.589 1.425 1.31.639.721.491.854 1.13 1.575.639.721.66.706 1.299 1.427.638.721.733.636 1.372 1.357.639.722.555.796 1.199 1.517.638.721.607.748 1.246 1.47.638.72.702.667 1.34 1.389.64.72.597.763 1.236 1.485.639.72.744.63 1.383 1.357" stroke="#595757" stroke-linecap="round" stroke-linejoin="round"/><path d="M50.724 51.893c.4-.435.744-.928 1.087-1.426.338-.488.66-.992.94-1.528.274-.525.523-1.071.744-1.633.222-.552.46-1.108.634-1.687.169-.567.264-1.166.385-1.76.575-.393.987-.88 1.341-1.369.401-.556.723-1.119.876-1.707a5.137 5.137 0 00.111-1.925c-.095-.748-.332-1.406-.712-1.777-.402-.392-.887-.514-1.31-.562-.079-.652-.221-1.3-.359-1.936a20.084 20.084 0 00-.485-1.883c-.196-.625-.338-1.267-.592-1.86-.253-.605-.485-1.22-.797-1.788a19.54 19.54 0 00-1.019-1.67c-.37-.542-.85-.998-1.267-1.49-.427-.5-.829-1.014-1.299-1.454-.48-.445-1.034-.796-1.557-1.172-.533-.382-1.056-.769-1.62-1.066-.576-.302-1.21-.461-1.822-.668-.612-.212-1.198-.51-1.842-.615-.634-.107-1.283-.038-1.943-.038-.66 0-1.304-.058-1.938.053-.639.112-1.283.25-1.895.462a13.05 13.05 0 00-1.784.79c-.57.302-1.151.615-1.68.997-.522.377-.95.88-1.43 1.326-.47.44-1.024.811-1.446 1.315-.417.488-.787 1.04-1.157 1.58a18.37 18.37 0 00-1.024 1.666c-.306.567-.512 1.193-.77 1.798-.254.594-.396 1.23-.592 1.856-.195.615-.46 1.214-.596 1.856-.138.631-.317 1.22-.396 1.872-.417.048-.708.34-1.109.737-.38.377-.776.939-.866 1.697-.074.594.127 1.246.306 1.92.164.594.391 1.183.798 1.734.359.488.744 1.008 1.33 1.395.132.567.37 1.093.544 1.639.18.556.406 1.082.628 1.612.227.54.39 1.098.665 1.602.28.514.597.996.93 1.463.337.477.701.923 1.087 1.347.454.499.86 1.05 1.378 1.464.528.424 1.15.705 1.715 1.04.581.344 1.162.668 1.77.922.01.546 0 1.082 0 1.596 0 .579-.064 1.12-.085 1.597-.032.716.079 1.315-.01 1.617-.112.371-.687.886-1.426 1.38-.486.323-1.067.667-1.68.996-.564.303-1.25.43-1.826.706-.628.302-1.166.726-1.7.965-1.04.466-2.391-.075-1.9.763.46.785.807.51 1.562 1.013.755.504.84.377 1.595.88.755.505.77.483 1.525.987.755.504.681.615 1.442 1.12.755.503.744.519 1.499 1.023.755.503.776.477 1.531.975.755.504.829.393 1.59.897.754.504.659.647 1.42 1.15.76.504.749.515 1.51 1.019.76.504.654 1.002 1.562.944.902-.059.665-.62 1.34-1.215.677-.599.74-.53 1.416-1.13.675-.599.58-.71 1.256-1.304.676-.6.75-.514 1.425-1.114.681-.599.676-.604 1.352-1.204.681-.599.718-.551 1.399-1.15.681-.6.597-.695 1.272-1.294.681-.6.687-.589 1.368-1.194.68-.599.94-.376 1.314-1.203.375-.817-.633-.212-1.594-.642-.491-.218-1.083-.414-1.658-.695a32.452 32.452 0 01-1.584-.859 13.24 13.24 0 01-1.489-1.018c-.628-.488-1.06-1.002-1.087-1.422-.026-.418-.1-1.16-.127-2.052-.016-.631.016-1.358 0-2.079.597-.238 1.252-.419 1.811-.737.56-.313 1.003-.811 1.51-1.21.502-.392 1.056-.736 1.494-1.214l.01-.02z" fill="#fff"/><path d="M60.026 42.23c.02-.652.042-1.288.037-1.909-.006-.652-.095-1.283-.127-1.904-.037-.652.058-1.299 0-1.914a33.723 33.723 0 00-.248-1.899c-.1-.647-.254-1.267-.39-1.872a33.458 33.458 0 00-.47-1.85c-.185-.632-.407-1.226-.624-1.81-.227-.614-.496-1.187-.755-1.75-.274-.593-.612-1.129-.923-1.664a21.121 21.121 0 00-1.035-1.591c-.375-.536-.75-1.04-1.151-1.507a17.892 17.892 0 00-1.325-1.357c-.475-.446-.924-.886-1.415-1.268-.517-.397-.95-.89-1.478-1.214-.554-.34-1.172-.541-1.732-.806-.586-.281-1.203-.451-1.779-.658-.617-.223-1.182-.54-1.774-.684-.644-.16-1.293-.154-1.89-.233a13.939 13.939 0 00-1.884-.101c-.586 0-1.23-.122-1.906-.032-.597.08-1.22.233-1.864.387-.591.149-1.182.393-1.8.615-.58.207-1.198.372-1.79.653-.56.27-1.114.588-1.668.928-.528.323-1.019.732-1.536 1.13-.491.376-1.02.736-1.494 1.187-.449.425-.94.849-1.368 1.337-.406.466-.728 1.029-1.108 1.564-.36.504-.708 1.04-1.03 1.607-.311.536-.543 1.13-.818 1.724-.259.562-.47 1.156-.702 1.771a23.862 23.862 0 00-.618 1.798c-.174.594-.454 1.177-.596 1.819-.132.605-.148 1.252-.254 1.899-.095.61-.306 1.23-.375 1.877-.063.615-.042 1.262-.079 1.914-.031.62-.132 1.257-.142 1.91-.006.62.169 1.256.19 1.914.02.647-.127 1.278-.137 1.883a35.64 35.64 0 01-.09 1.877c-.043.652-.048 1.278-.111 1.878-.069.647-.095 1.278-.18 1.877-.095.647-.274 1.257-.375 1.845-.11.653-.195 1.273-.3 1.857-.116.657-.19 1.283-.275 1.866-.1.669-.264 1.284-.29 1.867-.032.674.005 1.31.126 1.888.127.615.418 1.183.782 1.713.322.472.776.891 1.33 1.31.454.345 1.114.695 1.98.97.623.202 1.362.313 2.16.478.675.138 1.398.302 2.174.419.517-.228 1.162-.456 1.81-.77.582-.275 1.115-.71 1.696-1.023.617-.329 1.277-.546 1.773-.875.755-.498 1.326-.992 1.436-1.363.122-.392.048-1.273.064-2.328.01-.71.132-1.538.116-2.35-.586-.249-1.24-.455-1.8-.79a12.412 12.412 0 01-1.574-1.13 12.845 12.845 0 01-1.425-1.314c-.465-.51-.776-1.157-1.161-1.75-.375-.579-.771-1.157-1.072-1.798-.296-.626-.486-1.3-.713-1.973-.221-.658-.533-1.284-.691-1.973-.565-.376-1.061-.785-1.41-1.257-.39-.54-.538-1.188-.697-1.766-.174-.652-.164-1.278-.09-1.856.09-.732.248-1.374.618-1.74.386-.381.829-.503 1.23-.546.523-.382 1.072-.747 1.59-1.145.511-.398.97-.87 1.477-1.278.507-.409 1.03-.801 1.526-1.22.502-.424 1.056-.78 1.542-1.204.496-.435.94-.923 1.41-1.352.495-.451.892-.981 1.35-1.416.492-.462.956-.923 1.4-1.358.49-.482 1.082-.817 1.51-1.252.501-.509.966-.98 1.356-1.41.544-.589.914-1.21 1.215-1.591.417.398.84.98 1.372 1.495.438.43.998.812 1.5 1.305.448.445.855.976 1.335 1.469.449.456.972.875 1.447 1.363.448.467.818 1.034 1.277 1.522.45.477 1.014.86 1.463 1.352.443.488.807 1.056 1.246 1.554.438.499.87.997 1.298 1.501.433.51.914.95 1.325 1.458.713.24.734.122 1.484.191.401.048.829.175 1.214.557.364.36.639.976.729 1.703.068.572-.074 1.193-.243 1.84-.148.573-.322 1.167-.708 1.707-.338.478-.728.955-1.282 1.337-.117.573-.349 1.092-.507 1.644-.164.562-.211 1.161-.423 1.697-.216.546-.612 1.002-.876 1.511-.27.52-.523 1.04-.845 1.512-.332.483-.617 1.002-1.003 1.426-.422.462-.924.849-1.404 1.23a12.86 12.86 0 01-1.547 1.03c-.538.307-1.093.572-1.668.8.016.7.105 1.374.121 1.984.027.864-.01 1.586.016 1.989.027.403.37.917.971 1.39.407.317.946.593 1.484.9.491.287 1.056.483 1.568.738.554.276 1.035.658 1.505.87.923.413.85.206 1.647.54.005 0-.053.139-.042.139.702-.112 1.377-.191 1.985-.324.723-.16 1.325-.498 1.89-.69.77-.26 1.42-.456 1.837-.768.56-.425.929-.907 1.25-1.38.365-.535.613-1.076.74-1.696.121-.578.116-1.194.084-1.867-.026-.584-.042-1.204-.142-1.872-.09-.584-.143-1.21-.264-1.867-.106-.583-.338-1.183-.449-1.83-.1-.588-.042-1.235-.132-1.882-.084-.594-.253-1.204-.322-1.857-.063-.599-.18-1.22-.216-1.872-.037-.604 0-1.235-.006-1.888-.01-.61-.079-1.235-.058-1.887l-.01.015z" fill="#DDDCD6"/><path d="M8.083 89.966c.106-.95-.084-.732.095-1.909.08-.536.248-1.161.375-1.872.1-.578.27-1.199.396-1.867.116-.594.232-1.22.375-1.867.132-.604.21-1.24.37-1.872.147-.604.432-1.193.601-1.813.164-.61.206-1.263.39-1.873.185-.61.423-1.203.629-1.803.211-.604.412-1.214.644-1.797.238-.6.444-1.21.707-1.777.275-.589.67-1.103.972-1.644.306-.557.612-1.109 1.019-1.591.406-.483.844-.939 1.33-1.352.475-.409 1.024-.727 1.558-1.072.527-.34 1.098-.599 1.668-.885.565-.287 1.108-.6 1.694-.833a26.47 26.47 0 011.774-.647c.613-.196 1.23-.329 1.827-.483.633-.164 1.225-.434 1.816-.551.655-.133 1.314-.08 1.89-.17.702-.111 1.314-.34 1.853-.398 1.161-.127 1.03-.503 1.911-.17.855.324.46.552 1.473 1.104.449.244 1.003.514 1.663.753.517.186 1.093.43 1.742.573.554.122 1.183.031 1.832.1.57.059 1.167.117 1.816.117.65 0 1.246-.037 1.816-.095.65-.064 1.262-.07 1.816-.191.65-.144 1.246-.292 1.769-.478.66-.238 1.166-.604 1.615-.853 1.009-.552.713-.563 1.568-.886.887-.334.697-.149 1.864-.021.538.058 1.166.19 1.869.297.58.09 1.193.26 1.853.392.59.122 1.198.302 1.832.467.596.154 1.187.366 1.8.562.591.19 1.22.313 1.81.551.587.234 1.188.435 1.753.722.565.286 1.083.663 1.61 1.002.534.345.998.774 1.473 1.183.486.413.982.8 1.384 1.278.406.483.797.981 1.103 1.538.3.54.538 1.135.813 1.723.264.568.639 1.103.876 1.703.233.588.328 1.235.539 1.835.206.599.449 1.193.633 1.797.19.616.317 1.242.48 1.851.17.626.376 1.23.523 1.835.153.637.248 1.268.38 1.872.143.647.338 1.263.46 1.857.132.668.253 1.299.354 1.877.12.71.19 1.352.269 1.888.18 1.177.222.933.332 1.877" fill="#fff"/><path d="M50.86 61.9c.539.059 1.183.09 1.89.202.581.09 1.194.281 1.859.414.596.122 1.24.164 1.874.328.596.154 1.182.435 1.795.631.596.191 1.214.345 1.81.584.587.233 1.172.488 1.743.769.57.286 1.066.695 1.6 1.034.538.345 1.134.605 1.615 1.013.485.414.892.912 1.298 1.395.412.482.819.98 1.125 1.538.3.54.618 1.103.892 1.691.264.568.444 1.188.681 1.788.233.588.539 1.156.75 1.76.206.6.237 1.263.422 1.872.19.616.533 1.178.702 1.788.17.625.296 1.251.444 1.861.153.636.206 1.278.338 1.883.142.647.264 1.278.385 1.872.132.668.264 1.294.364 1.872.122.71.222 1.342.306 1.877.18 1.178.217.934.323 1.878M31.972 61.757c.654.641.454.535 1.462 1.087.449.244 1.04.424 1.7.663a14.27 14.27 0 001.747.509c.555.122 1.151.164 1.8.233.57.059 1.167.25 1.817.25.65 0 1.256-.053 1.826-.112.65-.064 1.257-.17 1.811-.291.65-.144 1.199-.43 1.721-.616.66-.238 1.262-.387 1.71-.63 1.009-.552.798-.462 1.447-1.104M8.03 89.956c.106-.95.01-.716.19-1.9.08-.535.138-1.176.259-1.887.1-.578.38-1.177.512-1.846.116-.594.254-1.214.396-1.861.132-.605.18-1.246.333-1.877.147-.605.316-1.22.485-1.846.164-.61.354-1.22.539-1.83.185-.61.322-1.235.528-1.835.21-.604.39-1.22.628-1.808.238-.6.639-1.119.903-1.692.274-.588.422-1.23.723-1.771.296-.541.697-1.018 1.088-1.49.39-.467.828-.902 1.293-1.305.46-.398.95-.764 1.468-1.103a18.75 18.75 0 011.578-.939c.544-.28 1.14-.44 1.705-.673.57-.234 1.088-.589 1.663-.785.586-.196 1.183-.36 1.764-.515.607-.164 1.22-.249 1.8-.376.628-.138 1.246-.164 1.81-.265.66-.112 1.241-.377 1.785-.446m.03 1.723c.038.912-.02.795.212 1.808.121.541.285 1.162.549 1.745.248.552.686.997 1.103 1.432.412.43.871.758 1.484.939a4.02 4.02 0 001.631.132c.57-.069 1.109-.196 1.6-.424.544-.25.982-.615 1.383-.923.77-.578.68-.466 1.23-1.103m12.074-3.612c-.043.928-.027.79-.28 1.82-.137.545-.206 1.208-.496 1.792a5.384 5.384 0 01-1.093 1.516c-.433.409-1.019.605-1.658.78-.602.164-1.177.355-1.737.297-.602-.064-1.156-.35-1.678-.573-.587-.25-1.178-.445-1.61-.748-.835-.583-.682-.578-1.284-1.225M27.653 37.165c-.729-.551-.718-.631-1.642-.695-.533-.037-1.125.106-1.652.632-.365.36-.534.965-.634 1.675-.085.563-.222 1.194-.08 1.835.133.568.45 1.114.803 1.66.312.488.724.928 1.24 1.337m27.031-6.576c.728-.551.818-.482 1.742-.54.533-.038 1.167.037 1.7.562.338.334.517.912.633 1.553a4.89 4.89 0 01.027 1.671c-.085.53-.2 1.098-.475 1.618-.248.472-.565.965-.988 1.384M38.94 25.043c-.375.44-.792.917-1.246 1.421-.396.44-.897.838-1.351 1.316-.417.44-.877.87-1.33 1.336-.428.435-.787.97-1.252 1.416-.443.43-.887.88-1.357 1.315-.454.42-1.05.7-1.53 1.12-.47.407-.845.943-1.33 1.346-.481.398-1.015.748-1.51 1.13M39.87 22.236c.39.366.907.801 1.483 1.342.438.419.834.97 1.356 1.48.45.44.893.944 1.389 1.437.454.45 1.061.795 1.547 1.283.454.462.823 1.04 1.293 1.533.454.472 1.003.875 1.468 1.368.454.483.808 1.066 1.261 1.565.45.493.961.933 1.4 1.437.443.504.85 1.04 1.277 1.543m-4.746 25.658c-.865-.594-1.446-1.188-1.478-1.697-.021-.329-.063-.86-.084-1.506-.016-.456.052-.97.036-1.517m-11.382-.18c0 .684-.063 1.332-.079 1.91-.026.864.053 1.57-.053 1.909-.095.313-.506.732-1.077 1.14" stroke="#595757" stroke-linecap="round" stroke-linejoin="round"/><path d="M59.503 62.117c.575-.435 1.045-.907 1.377-1.395.38-.551.444-1.209.581-1.85.127-.6.2-1.215.17-1.91-.027-.6-.106-1.236-.212-1.925-.09-.6-.227-1.236-.348-1.91-.111-.604-.206-1.245-.322-1.914-.106-.61-.096-1.267-.196-1.935a55.872 55.872 0 01-.248-1.925c-.069-.62-.211-1.257-.253-1.93-.037-.627 0-1.279-.016-1.947-.01-.626-.064-1.278-.042-1.947.02-.641.147-1.267.142-1.882-.005-.642-.227-1.262-.259-1.872-.031-.642.053-1.273-.01-1.883-.063-.642-.195-1.257-.285-1.861-.095-.637-.132-1.268-.259-1.867-.132-.631-.354-1.22-.512-1.809-.169-.62-.306-1.235-.507-1.808-.21-.61-.37-1.22-.612-1.782-.254-.589-.65-1.098-.935-1.633-.3-.568-.538-1.151-.87-1.666a21.546 21.546 0 00-1.072-1.548c-.396-.504-.882-.912-1.299-1.358a18.314 18.314 0 00-1.367-1.278c-.48-.419-.935-.854-1.431-1.21-.523-.37-1.019-.752-1.552-1.054-.554-.319-1.183-.457-1.737-.706-.586-.265-1.13-.578-1.7-.769a18.148 18.148 0 00-3.637-.843c-.66-.08-1.289-.032-1.864-.032-.575 0-1.204-.074-1.869.006-.586.074-1.214.137-1.853.286-.586.138-1.204.276-1.816.482-.575.197-1.135.494-1.721.754-.554.249-1.05.641-1.605.96-.528.302-1.13.514-1.652.885-.497.355-.908.843-1.389 1.262-.46.403-.918.817-1.357 1.278-.422.446-.913.838-1.309 1.347a22.674 22.674 0 00-1.072 1.544c-.332.514-.596 1.082-.897 1.649-.285.541-.639 1.066-.892 1.655-.243.556-.333 1.193-.544 1.803-.2.578-.37 1.172-.538 1.792-.159.589-.433 1.167-.565 1.798-.122.6-.138 1.23-.233 1.867-.09.605-.137 1.225-.2 1.867-.058.61-.285 1.22-.322 1.861-.032.61.068 1.241.063 1.883-.005.615-.005 1.24.01 1.883.017.625-.02 1.251-.031 1.872-.01.625-.053 1.246-.095 1.866-.042.62.01 1.252-.053 1.872-.063.62-.148 1.241-.227 1.857-.084.615-.348 1.209-.449 1.824-.1.615-.195 1.23-.306 1.846-.1.551-.227 1.13-.338 1.718-.105.567-.031 1.177-.09 1.755a9.554 9.554 0 00-.047 1.734c.037.589.148 1.135.349 1.687.184.52.285 1.066.607 1.464.332.408.839.636 1.277.938" stroke="#595757" stroke-linecap="round" stroke-linejoin="round"/><path d="M54.197 44.893a19.396 19.396 0 01-.586 1.877c-.232.626-.343 1.3-.634 1.877-.3.6-.702 1.13-1.066 1.67-.375.552-.845 1.014-1.283 1.491-.443.483-.824 1.018-1.33 1.416-.512.398-1.088.71-1.648 1.029-.564.318-1.182.509-1.784.742-.602.239-1.182.541-1.805.695-.634.16-1.278.218-1.911.297-.65.08-1.289.26-1.927.26-.64 0-1.283-.085-1.948-.186a15.046 15.046 0 01-1.901-.434c-.612-.175-1.22-.42-1.827-.68-.59-.254-1.124-.625-1.689-.965a14.345 14.345 0 01-1.594-1.103c-.502-.403-1.056-.763-1.5-1.246-.4-.435-.718-.95-1.066-1.448-.338-.482-.697-.97-.982-1.5-.28-.52-.412-1.12-.644-1.682-.227-.546-.544-1.066-.723-1.644" stroke="#595757" stroke-linecap="round" stroke-linejoin="round"/><path d="M40.102 42.963c-.412 1.236-.465 1.22-.877 2.455-.02.064-.016.191.042.223.581.302.634.191 1.215.493m-7.297-5.373c.507-.477.38-.344 1.262-.387.877-.047.734-.117 1.325.297m11.842.107c-.507-.477-.36-.53-1.24-.578-.883-.048-.846-.085-1.432.329m1.035-5.309c.983-.249.972-.371 1.928.276m-12.824-.377c-.982-.25-.96-.218-1.911.43m5.068 13.613c.972.589.993.615 2.17.615s1.204.064 2.096-.551m-5.829-1.999c-.364.254-.739.663-1.119 1.097a3.775 3.775 0 00-.776 1.332m9.291-2.436c.365.255.734.674 1.114 1.104.338.387.67.806.83 1.315" stroke="#595757" stroke-linecap="round" stroke-linejoin="round"/></g><defs><clipPath id="clip0_100_473"><path fill="#fff" d="M0 0h81v98H0z"/></clipPath></defs></svg>