<svg width="121" height="117" fill="none" xmlns="http://www.w3.org/2000/svg"><g clip-path="url(#clip0_100_812)"><path d="M63.555 56.023c0 .39-.168.777-.455 1.076-.25.262-.615.447-1.013.59-.347.122-.737.147-1.153.147-.415 0-.805-.023-1.152-.148a2.51 2.51 0 01-.962-.637c-.287-.299-.538-.635-.538-1.025 0-.39.26-.72.547-1.018.25-.262.566-.479.964-.62a3.42 3.42 0 011.144-.183c.416 0 .817.006 1.164.128.398.142.729.382.979.643.287.3.48.66.48 1.05l-.005-.003zm-6.212-4.255c0 .387-.134.72-.36 1.044-.204.296-.46.57-.807.783-.31.188-.652.37-1.045.47-.355.09-.742.184-1.14.184a4.72 4.72 0 01-1.153-.145c-.39-.1-.74-.293-1.05-.484a2.804 2.804 0 01-.842-.774 1.891 1.891 0 01-.36-1.078c0-.387.149-.746.374-1.07.205-.296.458-.61.805-.82.31-.188.689-.316 1.078-.415.356-.091.743-.1 1.144-.1.402 0 .783.023 1.139.114.39.1.77.216 1.078.407.347.213.646.49.851.785.225.325.285.712.285 1.099h.002zM54.96 27.662c0 .341 0 .68-.014 1.021-.011.342.04.686.015 1.025-.026.341-.06.68-.1 1.019-.037.341-.057.683-.108 1.018-.051.34-.134.672-.2 1.005-.062.336-.15.666-.227.999-.077.333-.19.654-.279.984-.088.33-.097.683-.196 1.008-.1.327-.208.651-.322.973-.114.322-.324.606-.45.925-.125.319-.17.669-.307.979-.136.313-.361.583-.51.89-.147.308-.292.615-.452.917-.159.302-.31.606-.478.902-.17.296-.361.578-.543.865-.182.287-.347.586-.54.868-.194.282-.4.552-.601.825-.202.273-.353.59-.567.857-.213.267-.47.498-.691.757-.222.259-.407.552-.64.8-.234.25-.541.426-.78.668-.24.242-.424.54-.675.774-.25.23-.566.39-.825.612-.259.222-.478.49-.745.703-.268.213-.535.42-.811.626-.273.202-.58.358-.863.549-.281.194-.569.37-.859.552-.287.182-.532.438-.828.61-.296.17-.592.343-.89.503-.302.16-.621.284-.928.435-.308.148-.63.268-.942.404-.313.137-.643.225-.962.35-.316.125-.629.26-.95.373-.322.111-.627.279-.954.379-.324.1-.674.116-1.004.204-.328.089-.635.265-.97.342-.33.074-.684.065-1.02.128-.332.063-.671.102-1.01.154-.336.05-.671.11-1.01.148-.338.036-.669.153-1.01.179-.339.025-.683-.023-1.024-.012-.34.012-.68.083-1.022.083-.342 0-.683-.048-1.022-.06-.341-.011-.68-.088-1.018-.114-.342-.025-.692.043-1.028.003-.338-.037-.671-.142-1.007-.19-.339-.052-.669-.143-1.002-.205a30.588 30.588 0 01-1.001-.205c-.333-.077-.678-.108-1.005-.197-.33-.088-.66-.173-.985-.276-.327-.1-.634-.256-.956-.37-.321-.113-.663-.173-.979-.298-.318-.126-.623-.276-.936-.413-.313-.136-.643-.236-.95-.384-.308-.148-.595-.342-.894-.5-.301-.16-.577-.365-.873-.536-.296-.17-.61-.31-.897-.492a26.237 26.237 0 01-.85-.57c-.282-.193-.556-.395-.832-.597-.273-.202-.546-.41-.81-.623-.268-.214-.555-.399-.814-.623-.26-.222-.49-.476-.74-.706-.25-.233-.527-.438-.769-.677-.242-.24-.458-.507-.691-.757-.23-.25-.455-.51-.677-.769-.222-.259-.422-.537-.635-.802-.213-.268-.447-.518-.649-.791s-.381-.567-.575-.845c-.193-.282-.404-.553-.586-.84-.182-.287-.316-.606-.486-.9-.171-.295-.396-.56-.555-.861-.16-.302-.25-.638-.399-.945-.148-.307-.335-.595-.472-.908-.137-.313-.259-.632-.384-.948-.125-.315-.26-.631-.373-.953a27.84 27.84 0 01-.319-.973c-.1-.324-.21-.649-.299-.979-.088-.327-.08-.683-.153-1.016-.074-.33-.185-.657-.248-.993-.062-.333-.102-.672-.153-1.01-.052-.336-.086-.675-.123-1.016-.037-.339-.14-.672-.165-1.013-.025-.339.012-.683 0-1.025-.011-.338-.074-.68-.074-1.021 0-.342.043-.683.054-1.022.012-.341.071-.68.097-1.019.026-.341.014-.682.051-1.021.037-.339.12-.672.168-1.01a28.576 28.576 0 01.379-2.007c.076-.332.125-.671.213-1.001.088-.33.145-.669.245-.993.1-.328.202-.655.313-.976.114-.322.267-.63.392-.948.126-.319.237-.64.373-.953.137-.313.342-.595.49-.902.148-.308.279-.624.438-.922.16-.302.284-.624.455-.917.171-.296.376-.569.558-.86.182-.287.324-.602.518-.884.193-.282.475-.498.677-.771.202-.274.347-.592.56-.86.214-.267.413-.546.635-.805.222-.259.527-.444.757-.694.234-.25.407-.555.646-.797.242-.242.47-.498.72-.729.25-.23.527-.435.786-.66.259-.222.535-.424.802-.637.268-.214.56-.387.837-.59.273-.201.523-.44.805-.631.282-.194.558-.393.848-.575.287-.182.62-.29.916-.46.296-.172.55-.416.851-.576.302-.16.64-.242.948-.39.307-.148.597-.333.908-.47.313-.136.62-.284.936-.409.316-.125.643-.228.964-.341.322-.111.643-.225.97-.325.325-.1.661-.17.991-.259.327-.088.669-.128 1.002-.205.33-.074.657-.173.993-.239.333-.062.674-.09 1.01-.142.336-.051.666-.154 1.005-.19.338-.038.674-.117 1.015-.14.34-.026.683 0 1.025-.011.339-.012.68.014 1.024.014.345 0 .686-.063 1.025-.051.341.01.68.08 1.018.105.342.025.683.034 1.022.074.339.037.669.153 1.005.205.338.05.685.031 1.021.094.336.062.675.12 1.005.193.333.077.651.216.979.305.33.088.648.207.973.307.327.1.671.142.993.256.322.114.652.21.967.336.32.125.61.316.92.452.313.137.643.236.947.384.308.148.618.296.917.456.301.16.6.327.893.498.296.17.552.404.842.586.288.182.59.341.871.535.282.193.538.421.811.623s.538.416.805.63a28.762 28.762 0 011.549 1.33c.25.234.54.422.782.661.242.242.424.538.657.788.231.25.524.444.746.703.222.26.455.51.666.777.213.267.384.563.589.84.202.273.415.54.609.822.193.282.373.572.555.86.182.287.364.577.535.87.17.296.287.62.447.922.159.302.378.572.526.88.148.307.265.628.401.941.137.313.248.635.373.954.125.316.296.617.41.939.11.321.136.671.236.998.1.325.242.638.33.968.088.327.117.672.194 1.005.074.33.224.648.29.984.063.333.117.672.168 1.01.051.336.048.68.085 1.022.037.339.097.674.123 1.016.025.338.005.68.017 1.024.01.339-.02.68-.02 1.022h.02z" fill="#fff"/><path d="M62.83 57.363a2.908 2.908 0 01-.906.435 3.563 3.563 0 01-.993.131c-.415 0-.822-.068-1.172-.19-.399-.142-.726-.401-.977-.66-.287-.3-.452-.663-.452-1.053 0-.39.19-.732.478-1.03a2.45 2.45 0 01.976-.612 3.436 3.436 0 011.147-.202c.416 0 .808.048 1.158.173.399.143.7.396.95.658.288.298.467.626.467 1.016m-7.051-2.564c-.222.165-.495.279-.774.395-.26.108-.54.154-.837.211-.276.051-.558.13-.856.13-.399 0-.786-.047-1.142-.139a3.8 3.8 0 01-1.055-.45c-.347-.213-.672-.446-.877-.742a1.915 1.915 0 01-.321-1.098c0-.387.142-.743.367-1.067.205-.296.464-.595.81-.809a3.96 3.96 0 011.07-.435 4.65 4.65 0 011.145-.13c.398 0 .777.084 1.132.175.39.1.749.237 1.059.427.347.214.649.461.854.757.224.325.355.695.355 1.082m-8.429-6.966c-.213.264-.438.518-.66.774-.222.256-.427.526-.66.774-.23.247-.473.486-.712.726-.241.239-.486.472-.734.702-.25.23-.535.419-.79.64-.26.22-.507.45-.772.66-.265.211-.515.442-.788.644-.273.2-.57.37-.848.56-.282.191-.555.39-.842.57-.288.179-.57.37-.863.538-.293.167-.594.324-.896.48-.299.157-.62.27-.928.419-.304.145-.575.373-.888.506-.31.134-.631.248-.947.373-.316.122-.66.168-.982.279-.319.11-.626.259-.95.358-.325.1-.652.183-.982.27-.327.089-.652.18-.985.257-.33.074-.666.12-1.001.182-.333.063-.66.165-.996.216-.333.049-.675.08-1.01.12-.336.037-.672.088-1.014.114-.335.025-.68-.023-1.018-.009-.34.011-.675.077-1.016.077-.342 0-.683-.085-1.022-.097-.341-.011-.68-.028-1.019-.051-.341-.026-.688.034-1.027 0-.339-.037-.672-.13-1.01-.182-.339-.051-.683-.054-1.019-.12-.336-.062-.669-.148-.999-.224-.333-.077-.654-.2-.982-.288-.33-.088-.657-.18-.984-.279-.327-.1-.646-.222-.965-.336-.321-.113-.654-.196-.973-.318-.319-.125-.612-.302-.925-.438-.313-.137-.614-.29-.922-.439-.307-.148-.657-.21-.959-.37-.301-.159-.595-.335-.89-.506-.296-.17-.59-.347-.877-.53-.287-.182-.52-.45-.802-.643-.282-.193-.587-.35-.86-.555-.273-.201-.577-.367-.845-.58-.267-.213-.515-.45-.774-.672-.259-.222-.498-.47-.746-.7-.25-.233-.489-.475-.73-.714a24.695 24.695 0 01-.704-.743c-.23-.25-.49-.475-.714-.734-.222-.259-.427-.532-.64-.8-.214-.267-.384-.563-.586-.839-.203-.273-.39-.558-.584-.84-.193-.281-.455-.514-.637-.805-.182-.287-.325-.6-.495-.896-.171-.296-.313-.606-.473-.908-.16-.302-.301-.609-.45-.916-.147-.307-.301-.61-.438-.922-.136-.313-.273-.623-.398-.942-.125-.316-.213-.646-.327-.968-.111-.321-.282-.623-.382-.95-.1-.325-.202-.652-.29-.982-.088-.327-.125-.671-.202-1.004-.074-.33-.136-.666-.2-1.002-.062-.333-.147-.666-.195-1.005a23.57 23.57 0 01-.126-1.015c-.037-.34-.096-.675-.122-1.016-.026-.339-.068-.68-.08-1.022a30.636 30.636 0 01-.014-1.024c0-.342.04-.683.054-1.025.012-.341.04-.683.066-1.021.025-.342.034-.683.07-1.022.038-.339.109-.674.16-1.01.051-.339.131-.672.194-1.005.062-.336.082-.68.156-1.013.077-.333.22-.649.307-.979.089-.33.137-.671.237-.996.1-.327.193-.654.304-.976.114-.321.242-.64.367-.956.125-.319.31-.609.447-.922.137-.313.202-.657.35-.965.148-.307.359-.583.518-.885.16-.301.319-.603.49-.899.17-.296.315-.606.495-.896.182-.288.432-.532.623-.814.193-.282.344-.592.546-.865.202-.273.39-.56.603-.828.214-.268.444-.518.666-.777.222-.26.475-.49.706-.74.233-.25.427-.538.666-.777.239-.239.506-.458.757-.691.25-.23.495-.47.754-.692.259-.222.558-.396.825-.609.268-.213.515-.45.788-.652.274-.202.57-.375.851-.569.282-.193.547-.412.834-.592.287-.182.598-.327.893-.498.296-.17.587-.347.888-.506.302-.16.595-.333.903-.481.307-.148.625-.27.939-.407.313-.137.623-.273.941-.398a27.802 27.802 0 012.917-.948c.328-.088.66-.165.993-.239.33-.074.67-.12 1.005-.182.333-.063.666-.134 1.004-.185.336-.051.672-.117 1.01-.154.34-.037.675-.088 1.017-.114.338-.025.682.032 1.024.02.339-.011.677-.108 1.021-.108.345 0 .684.054 1.022.068.342.012.683.012 1.022.037a26.354 26.354 0 012.032.228c.338.051.677.094 1.01.157.335.062.666.153.996.23.333.077.666.145.996.233.33.089.654.191.981.29.328.1.644.228.965.34.322.113.652.201.97.327.32.125.61.313.92.45.313.136.62.278.927.426.308.148.64.245.942.404.302.16.618.293.914.464.296.17.569.381.856.56.288.183.56.39.84.584.281.193.557.39.83.595.274.202.584.361.849.575.267.213.478.492.737.714.259.222.572.384.822.617.25.234.49.478.728.72.24.242.433.53.666.78.23.25.49.478.712.737.222.259.415.54.629.805.213.268.432.527.634.803.202.273.353.583.547.865.193.282.42.538.603.825.182.288.404.552.575.848.17.296.333.598.492.9.16.301.287.62.435.927.148.307.31.61.447.922.137.313.28.623.404.942.125.316.21.649.325.973.11.322.219.646.318.974.1.324.188.654.276.984.089.327.214.649.288.982.074.33.077.68.142 1.016.063.333.18.66.23.999.052.335.015.685.055 1.024.037.339.113.672.14 1.013.025.339.01.68.025 1.022.011.338.023.68.023 1.021 0 .342.002.663-.01.993a22.85 22.85 0 01-.053.994c-.023.332-.103.657-.137.984-.037.33-.011.666-.06.993-.048.33-.148.65-.204.973-.06.328-.094.658-.165.98-.072.324-.089.663-.171.981-.083.322-.174.643-.27.96-.094.318-.302.6-.407.913-.106.313-.148.651-.265.959-.117.31-.236.62-.364.925-.128.304-.282.6-.424.899-.14.301-.273.606-.424.899-.151.296-.328.578-.49.865-.162.29-.336.57-.51.854" stroke="#595757" stroke-miterlimit="10" stroke-linecap="round"/><path d="M41.523 24.574c-.335-.202-.674-.301-1.001-.384-.373-.094-.694-.21-1.036-.18-.04-.278-.102-.563-.168-.898-.06-.31-.114-.632-.193-.934-.086-.333-.254-.623-.365-.879-.176-.41-.347-.748-.58-.726-.25.023-.396.427-.43.925-.02.302.037.66.063 1.03.025.342.005.7.048 1.036.051.381.154.732.205 1.016-.225.168-.367.396-.51.615-.15.233-.33.452-.36.717-.043.33.079.617.173.88.108.304.242.574.424.782.333.378.498.168.629.6.14.47.062.473.062.962 0 .49-.04.49-.04.979 0 .49-.347.663-.002 1.013.352.358.538-.063 1.041-.043l1.008.043c.503.02.62.418 1.001.091.347-.296-.005-.452 0-.91.006-.459-.008-.459 0-.917.006-.458-.034-.464.037-.916.16-.202.381-.447.566-.737.163-.254.31-.54.413-.831.103-.296.145-.61.108-.917-.034-.284-.179-.546-.398-.816a2.614 2.614 0 00-.689-.6h-.006z" fill="#fff"/><path d="M33.032 30.6c.296-.115.603-.3.916-.502.285-.187.56-.404.791-.671.228-.26.43-.544.547-.882a2.48 2.48 0 00.113-1.033 3.271 3.271 0 00-.27-1.008c-.13-.307-.27-.611-.381-.922-.111-.316-.18-.643-.273-.959-.094-.321-.222-.631-.3-.953-.076-.327-.133-.657-.19-.979-.06-.333-.051-.671-.097-.993a21.913 21.913 0 01-.102-.99c-.031-.342-.137-.669-.15-.988-.018-.347.028-.683.022-.996-.003-.358.017-.691.026-.996.01-.378-.012-.714.005-.996.043-.626.598-1.007.103-.987-.495.023-.464.18-.917.381-.455.2-.466.17-.922.37-.455.2-.415.288-.87.49-.456.199-.481.139-.937.338-.455.2-.444.222-.899.424-.455.2-.447.216-.902.419-.455.202-.447.216-.902.418-.455.2-.47.162-.925.364-.455.2-.44.233-.896.433-.456.202-.484.136-.94.338-.455.202-.423.274-.879.473-.455.202-.486.13-.942.333-.455.202-.628.017-.873.452-.242.427.008.478.077.965.068.486.11.48.179.964.068.487.023.493.088.98.069.486.105.48.174.964.068.487.04.49.108.976.068.487.077.484.145.97.068.487.043.49.111.977.068.486.145.475.213.961.069.487-.09.53.106.982.202.461.358.151.953.347.273.091.586.23.95.333.3.086.635.143.985.225.313.074.646.134.987.2.322.059.66.076 1 .119.33.043.66.108.998.13.333.023.672.052 1.008.05a9.91 9.91 0 001.007-.052c.336-.034.654-.162.982-.233.33-.074.666-.117.976-.237h-.003z" fill="#DDDCD6"/><path d="M27.236 8.209c-.353 0-.694.08-1.036.128-.347.048-.709.034-1.039.13-.335.098-.646.274-.961.414-.32.142-.658.253-.954.435-.296.182-.563.415-.833.635-.27.216-.515.466-.757.72-.24.247-.422.546-.635.825-.208.276-.487.506-.666.808-.176.296-.273.64-.415.959a9.228 9.228 0 00-.393.965 10.46 10.46 0 00-.27 1.007c-.072.336-.08.686-.117 1.036-.034.341-.14.683-.14 1.036s.109.703.146 1.041c.037.356.042.706.116 1.039.08.347.182.68.3 1.004.119.333.215.678.372.982.162.313.395.583.595.868.202.287.37.603.606.86.236.256.54.446.808.671.265.225.563.404.857.598.29.19.583.404.899.563.096.49-.069.5-.111.999-.043.498-.012.5-.054.996-.043.498-.089.492-.131.99-.043.498-.026.498-.069.996-.042.498-.045.498-.088.996-.042.498-.054.498-.096.996-.043.498-.27.54-.02.976.267.464.446.245.919.495.472.25.444.305.916.555.472.25.51.18.982.43s.44.307.913.558c.473.25.475.244.948.495.472.25.464.264.939.515.472.25.506.188.982.438.472.25.43.751.942.59.47-.149.128-.522.307-.977.18-.458.262-.424.44-.882.18-.458.115-.484.294-.942.18-.458.16-.467.339-.925.179-.458.259-.427.438-.885.18-.458.526-.484.327-.933-.225-.51-.498-.26-.993-.512-.495-.257-.524-.203-1.019-.459-.031-.017-.05-.09-.06-.125-.119-.569-.102-.572-.221-1.14-.12-.57-.131-.567-.25-1.136-.12-.57-.214-.56-.177-1.141.313-.063.577-.151.876-.248.305-.1.578-.256.862-.393.288-.14.555-.293.82-.47.262-.176.532-.34.765-.557.23-.213.416-.467.615-.72.19-.245.373-.498.53-.783.167-.301.29-.643.395-1.021.094-.342.245-.692.299-1.07.05-.361.068-.737.094-1.107.025-.373.04-.746.048-1.11.008-.384-.02-.76-.02-1.11 0-.35 0-.7-.037-1.041-.037-.35-.045-.703-.117-1.042-.07-.344-.207-.671-.313-.999-.108-.332-.29-.634-.432-.947-.145-.319-.23-.666-.407-.962a9.083 9.083 0 00-.578-.874c-.21-.278-.5-.49-.74-.737-.242-.25-.438-.555-.705-.77-.27-.22-.578-.396-.871-.579-.296-.182-.592-.372-.91-.515-.317-.142-.664-.207-1-.304a7.19 7.19 0 00-1.018-.21c-.342-.049-.683-.117-1.036-.117v-.006z" fill="#fff"/><path d="M44.629 44.48c-.088-.52-.066-.526-.157-1.047-.088-.52-.136-.515-.227-1.036-.091-.523-.077-.523-.168-1.047-.088-.52-.111-.518-.2-1.041-.09-.524-.025-.533-.113-1.056-.091-.524-.145-.513-.236-1.036-.091-.524-.012-.535-.103-1.059-.091-.523-.094-.52-.182-1.044-.091-.524-.18-.507-.27-1.03-.091-.524-.04-.532-.131-1.053-.091-.524-.142-.515-.23-1.036-.092-.523-.075-.526-.163-1.05-.091-.523-.045-.532-.136-1.053-.01-.057-.069-.102-.129-.1-.486.018-.486 0-.973.018-.486.017-.484.054-.97.07-.487.018-.487-.033-.973-.016-.487.017-.487 0-.974.02-.486.017-.483.12-.97.136-.063 0-.071 0-.071.063v1.061c0 .532-.011.53-.1 1.053-.122-.319-.185-.595-.31-.817-.156-.278-.395-.483-.626-.7a3.94 3.94 0 00-.748-.563 5.844 5.844 0 00-.848-.416 8.688 8.688 0 00-.905-.284 10.007 10.007 0 00-.93-.188c-.559-.082-.522-.293-.928-.054-.171.336-.376.6-.595.837-.248.267-.547.438-.84.597a3.35 3.35 0 01-.967.327c-.336.066-.677.177-1.027.166-.345-.012-.69-.094-1.03-.16-.345-.065-.675-.18-1-.282-.344-.108-.665-.241-.97-.367a14.739 14.739 0 01-.95-.418c-.558-.282-.404-.393-.914-.498-.5-.102-.4.04-1.01.196-.285.074-.6.23-.965.342-.304.094-.626.21-.964.333-.308.114-.643.196-.965.336-.307.133-.623.27-.928.43-.301.156-.586.35-.873.531-.29.185-.572.376-.837.587-.27.216-.5.466-.728.714a5.174 5.174 0 00-.595.82 4.04 4.04 0 00-.418.916c-.097.316-.222.64-.316.984-.086.325-.18.658-.262 1.002-.08.333-.134.675-.21 1.013-.075.336-.171.669-.24 1.008-.07.341-.159.677-.224 1.013-.066.347-.077.697-.137 1.027-.063.353-.185.683-.242 1.01-.063.364-.071.714-.12 1.03-.062.384-.1.732-.142 1.022-.096.637-.657.828-.17 1.002.492.173.515.04 1.035.022.521-.02.518-.102 1.039-.122.52-.02.524.045 1.044.025.521-.02.521-.025 1.042-.045.52-.02.518-.057 1.038-.074.521-.02.524.057 1.045.037.52-.02.518-.074 1.038-.091.521-.02.521-.043 1.042-.063.52-.02.52 0 1.041-.02.521-.02.521.015 1.042-.005.52-.02.518-.08 1.039-.097.52-.02.52.009 1.041-.011.521-.02.521-.032 1.042-.049.52-.02.523.04 1.041.023.521-.02.521-.057 1.039-.074.52-.02.52.008 1.041-.008.521-.02.521-.057 1.042-.077.52-.02.52.014 1.044-.003.521-.02.521-.034 1.042-.051.52-.02.52-.043 1.041-.06.521-.02.521 0 1.042-.017.52-.02.52-.026 1.044-.043l1.044-.034c.527-.017.527-.014 1.05-.031.527-.018.527-.015 1.05-.032.524-.017.527-.011 1.05-.028.524-.017.527.008 1.05-.009.527-.017.524-.031 1.05-.048.527-.017.527-.04 1.05-.057.527-.017.527-.037 1.05-.054.072 0 .12-.043.106-.114l.006-.003z" fill="#fff"/><path d="M32.93 10.265a5.992 5.992 0 00-.757-.657c-.282-.2-.552-.41-.842-.552-.31-.151-.65-.208-.962-.305-.333-.102-.652-.202-.97-.253-.35-.057-.686-.114-1-.125-.372-.014-.71.062-1.001.082-.609.043-.51-.03-1.002.06-.523.097-.39.131-1.018.313-.294.086-.666.103-1.04.25a11.02 11.02 0 00-.972.447 9.986 9.986 0 00-.91.56c-.288.189-.561.422-.843.658a8.087 8.087 0 00-.774.734 7.79 7.79 0 00-.68.823c-.188.264-.399.543-.55.865-.136.296-.173.649-.284.985-.103.313-.262.62-.345.961-.076.322-.085.67-.147 1.014-.06.327-.185.654-.234.995-.045.333-.025.678-.062 1.022-.037.336-.137.669-.168 1.01-.032.339-.054.677-.08 1.019-.026.339.011.686-.011 1.024-.023.342-.026.683-.049 1.022-.023.344-.045.686-.07 1.022-.026.347-.098.683-.126 1.016-.031.347-.128.68-.165 1.01-.04.35.011.7-.04 1.024-.057.353-.108.695-.182 1.005-.088.37-.15.694-.15 1.001 0 .379.028.712.136 1.008.125.336.293.637.532.873.236.234.558.373.876.524.3.14.62.228.968.305.324.073.652.21.999.236.338.025.688.04 1.03.025.347-.011.697-.04 1.024-.082.319-.04.623-.168.89-.31.277-.148.476-.399.681-.632a2.62 2.62 0 00.484-.777c.11-.287.15-.583.16-.9.005-.3.028-.617-.078-.921-.116-.336-.279-.663-.367-1.016-.088-.347-.065-.72-.128-1.076-.062-.355-.136-.706-.18-1.064-.042-.361-.084-.72-.107-1.073-.026-.367-.034-.726-.043-1.078a28.275 28.275 0 01-.011-1.09 2.691 2.691 0 01-.763-.578 2.234 2.234 0 01-.515-.785 2.193 2.193 0 01-.137-.934c.029-.375.108-.72.3-.899.449-.43 1.02-.265 1.32-.12.005-.054-.043-.06-.006-.085.176-.1.475-.316.868-.609.247-.185.586-.333.89-.586.254-.21.51-.461.789-.717.247-.228.447-.535.706-.797.241-.245.523-.467.765-.737.23-.259.424-.558.652-.84.219-.273.489-.512.697-.805.202-.287.375-.563.56-.868.194.27.427.464.64.723.211.253.408.518.638.768.222.237.413.513.657.755.23.227.473.452.723.688.234.222.535.387.788.618.24.216.453.475.709.705.24.217.5.464.757.695.438-.262.006-.421-.051-1.047-.029-.294-.125-.627-.197-1.002-.06-.313-.048-.669-.15-1.016-.092-.313-.25-.623-.387-.95-.129-.308-.225-.64-.399-.948a7.548 7.548 0 00-.555-.868c-.199-.268-.475-.484-.723-.731l-.008-.012z" fill="#DDDCD6"/><path d="M29.352 22.877c.399.248.362.287.874.299.273.005.6-.049.91-.242m-.329-3.02c.12.357.24.713.362 1.07.008.028-.023.122-.049.137-.253.13-.264.108-.518.239m-3.162-2.362c.27-.157.757-.31 1.164-.094m5.023.056c-.27-.122-.635-.258-.959-.085m-3.782 2.732c-.347.29-.282.28-.612.663a4.49 4.49 0 00-.532.729m.553-6.557c-.456-.116-.476-.102-.865.171m5.27-.305c.454-.117.517-.097.91.174M22.543 31.986c.11.359.25.754.464 1.102.207.335.53.583.862.808.307.21.649.37 1.087.401.376.029.706-.02 1.01-.082.367-.075.683-.174.956-.328.33-.188.646-.361.848-.583.404-.438.34-.404.541-.877m.919.38c.225.242.558.515.965.723.347.177.717.282 1.155.225.413-.054.69-.293.886-.657.179-.336.315-.732.378-1.11.102-.626.034-.586.014-1.175m4.847 4.371c.21.5.239.358.478.976.113.293.176.66.313 1.038.116.319.267.652.39 1.01.113.334.247.675.355 1.025.108.344.148.714.245 1.059.1.358.236.697.313 1.041.082.373.19.726.236 1.062.054.4.069.774.051 1.087m-4.436-13.87c.268-.26.433-.61.58-.954a2.25 2.25 0 00.174-1.078c-.023-.33-.068-.697-.245-1.084-.13-.29-.273-.572-.384-.865-.114-.297-.205-.6-.298-.897-.097-.304-.205-.6-.282-.902M30.27 11.29c.202.275.364.585.591.853.22.259.453.512.698.768.233.245.463.5.72.748.241.234.483.479.745.72.245.225.518.441.785.678.25.222.533.424.803.66.25.222.504.458.771.694m-10.546.592c.256-.182.543-.421.868-.683.265-.213.526-.475.82-.737.261-.233.551-.461.825-.731.253-.248.532-.493.79-.771.245-.265.493-.541.732-.829.23-.279.45-.58.669-.879" stroke="#595757" stroke-linecap="round" stroke-linejoin="round"/><path d="M35.237 14.884c-.04-.293-.048-.62-.128-.962-.071-.299-.142-.62-.25-.942-.1-.296-.194-.615-.333-.92-.131-.287-.33-.554-.501-.838-.165-.27-.367-.524-.572-.786-.196-.25-.427-.47-.666-.703-.259-.253-.506-.498-.785-.691-.296-.205-.578-.427-.885-.575a7.358 7.358 0 00-.99-.37c-.348-.105-.703-.134-1.036-.188-.367-.06-.718-.074-1.048-.088-.392-.014-.748-.054-1.05-.034-.637.045-.532.008-1.047.102-.478.088-.356.117-.936.27-.27.072-.595.131-.94.257-.28.102-.602.187-.918.33-.282.128-.527.364-.823.532-.273.154-.594.253-.87.444-.26.182-.484.424-.735.643-.239.208-.44.464-.666.708a8.011 8.011 0 00-.62.743c-.196.27-.452.527-.609.857a8.253 8.253 0 00-.39.979c-.108.318-.21.66-.296 1.01-.082.33-.102.686-.17 1.038-.063.336-.143.68-.194 1.03-.048.342-.065.692-.105 1.045-.04.344-.137.686-.168 1.039-.031.347-.054.697-.082 1.047-.029.35-.032.7-.058 1.047-.025.35-.005.703-.03 1.05-.026.353-.015.706-.04 1.05-.03.356-.075.703-.103 1.045-.031.358-.06.708-.1 1.044-.042.361-.13.703-.185 1.033-.06.364-.153.7-.23 1.022-.094.384-.094.742-.094 1.061 0 .393.026.751.145 1.056.134.344.387.597.646.84.25.235.518.477.854.628.313.14.657.256 1.016.336.338.074.705.031 1.067.057.353.025.705.054 1.061.043.362-.012.723.017 1.067-.029.33-.043.643-.154.922-.299.29-.15.533-.372.746-.609.216-.239.35-.526.47-.825.119-.296.236-.595.241-.92a2.682 2.682 0 00-.173-.938c-.111-.31-.143-.652-.23-.98-.086-.32-.197-.637-.26-.967-.062-.327-.142-.654-.188-.987-.045-.333-.096-.666-.125-.999-.028-.339-.07-.674-.085-1.002-.014-.341.068-.68.065-1.007" stroke="#595757" stroke-linecap="round" stroke-linejoin="round"/><path d="M24.228 17.749c-.35-.253-.345-.262-.786-.29-.256-.017-.535.02-.788.256-.21.196-.376.552-.393.967-.014.325.029.703.185 1.053.134.299.365.59.66.843m7.712 8.727c-.12-.57-.188-.555-.307-1.121-.12-.57-.088-.575-.208-1.147-.12-.57-.207-.558-.17-1.138.313-.063.577-.108.879-.205.304-.1.592-.245.876-.381.288-.14.572-.288.834-.464.262-.177.51-.382.743-.598.23-.213.43-.464.629-.717.19-.245.398-.492.555-.777.167-.302.29-.66.392-1.039.094-.341.148-.71.202-1.09.052-.36.1-.73.126-1.1.025-.373.022-.746.03-1.11.01-.385.058-.757.058-1.107m-4.388 13.158c-.213.264-.484.44-.734.614a3.21 3.21 0 01-.854.419 3.96 3.96 0 01-.936.165c-.316.022-.638.074-.96.042-.318-.03-.628-.13-.938-.202-.316-.07-.62-.173-.92-.273-.315-.105-.605-.239-.887-.358m12.19 1.998c-.125-.327-.322-.58-.45-.81-.159-.288-.333-.553-.572-.772a4.469 4.469 0 00-.768-.595 6.098 6.098 0 00-.876-.43 8.63 8.63 0 00-.937-.278c-.347-.086-.683-.108-.964-.148-.572-.086-.481-.017-.965-.032m13.084 14.647c-.085-.498-.082-.498-.168-.993-.085-.498-.014-.51-.1-1.008-.084-.498-.093-.495-.178-.993-.086-.498-.108-.492-.194-.99-.085-.498-.117-.492-.202-.988-.085-.498-.094-.495-.18-.993-.085-.498-.02-.509-.107-1.007-.086-.498-.114-.492-.2-.99-.085-.498-.042-.504-.128-1.002-.085-.498-.162-.484-.247-.982-.086-.498.017-.515-.068-1.013-.086-.498-.106-.495-.191-.993-.086-.498-.105-.495-.19-.993-.086-.498-.066-.5-.152-1.002-.011-.06-.096-.06-.159-.06-.498.017-.5-.06-1.002-.042-.498.017-.498.09-.996.108-.498.017-.5-.003-.998.014-.501.017-.501-.037-1.002-.02-.5.017-.5.032-.999.052m-18.946 1.115c-.319.16-.666.273-.97.46-.307.191-.6.402-.88.621-.284.225-.577.444-.819.703-.248.265-.433.583-.617.882-.188.305-.362.623-.467.968-.1.324-.197.668-.29 1.021-.089.333-.109.695-.194 1.045-.083.341-.23.668-.307 1.018-.077.345-.126.698-.197 1.045-.07.35-.17.694-.236 1.036-.068.355-.048.72-.11 1.058-.066.362-.2.7-.257 1.033-.063.373-.063.734-.117 1.056-.062.395-.102.748-.148 1.047-.1.655-.159.512-.23 1.036m27.13-21.647c-.04-.28-.136-.595-.199-.931-.06-.31-.051-.646-.128-.948-.085-.333-.265-.62-.373-.879-.176-.41-.344-.689-.58-.666-.25.023-.359.373-.393.87-.02.302.008.658.037 1.028.026.342-.011.703.034 1.036.051.381.174.74.222 1.024-.225.168-.472.333-.615.553a1.87 1.87 0 00-.261.774c-.043.33-.026.645.068.907.108.305.35.53.53.735.332.378.489.182.64.608.133.376.036.393.036.792 0 .398-.04.398-.04.8m3.026-.189c.005-.547-.054-.558.017-1.099.16-.202.438-.43.623-.72.162-.253.236-.572.336-.862.102-.296.23-.595.193-.9-.034-.284-.182-.56-.401-.83-.168-.205-.41-.387-.717-.572a3.544 3.544 0 00-1.21-.47" stroke="#595757" stroke-linecap="round" stroke-linejoin="round"/><path d="M44.862 98.885c.509 0 .509-.029 1.021-.029.512 0 .51.026 1.022.026s.51-.043 1.021-.043c.512 0 .512-.017 1.022-.017s.512.009 1.021.009c.51 0 .51.02 1.022.02s.51-.003 1.022-.003.51.065 1.021.065c.513 0 .51-.09 1.022-.09s.51.008 1.021.008c.513 0 .513.085 1.022.085.51 0 .512-.091 1.022-.091.509 0 .509.028 1.021.028.512 0 .51.072 1.022.072s.51-.003 1.021-.003c.513 0 .513.005 1.022.005.51 0 .512-.065 1.022-.065h1.021c.51 0 .512.031 1.022.031s.51.003 1.021.003c.513 0 .51-.071 1.022-.071s.51.085 1.019.085c.509 0 .509-.074 1.018-.074.51 0 .51-.008 1.022-.008s.51.028 1.022.028.509.046 1.021.046c.512 0 .512.008 1.022.008s.512.012 1.021.012c.51 0 .51-.08 1.022-.08s.51-.006 1.022-.006.509.08 1.021.08c.512 0 .51.008 1.022.008s.51-.068 1.021-.068h1.022c.51 0 .512.006 1.022.006.509 0 .509.006 1.021.006.512 0 .51.02 1.022.02s.509-.02 1.021-.02c.513 0 .51-.017 1.022-.017s.512.056 1.021.056c.51 0 .513-.056 1.022-.056.51 0 .512-.006 1.022-.006.509 0 .509.068 1.021.068.512 0 .512-.028 1.022-.028s.512-.037 1.021-.037c.51 0 .513.04 1.022.04.51 0 .512-.046 1.022-.046h1.021c.51 0 .512.048 1.022.048s.512-.048 1.021-.048c.51 0 .513.082 1.022.082.51 0 .512-.022 1.022-.022.509 0 .512-.046 1.021-.046.51 0 .512-.017 1.022-.017.509 0 .512-.005 1.021-.005.51 0 .512-.01 1.022-.01.509 0 .512.018 1.021.018.51 0 .513.029 1.022.029s.509.053 1.022.053c.512 0 .512-.008 1.021-.008h1.022c.512 0 .512-.091 1.021-.091h1.022c.509 0 .512.08 1.024.08.513 0 .513-.089 1.022-.089s.512.012 1.022.012c.509 0 .512-.006 1.024-.006s.512.066 1.024.066c.513 0 .513-.02 1.025-.02.512 0 .512-.032 1.024-.032.513 0 .513.003 1.025.003.512 0 .512-.02 1.024-.02s.512.071 1.025.071h1.024a.5.5 0 01.47.703c-.205.473-.217.467-.424.942-.205.473-.222.464-.43.936-.205.473-.159.493-.364.965s-.254.453-.458.925c-.205.472-.131.504-.336.979-.205.472-.219.467-.424.942-.205.472-.225.464-.433.936-.205.472-.168.489-.375.962-.205.472-.268.447-.473.919-.205.472-.179.487-.384.959-.205.472-.242.458-.447.931-.205.472-.199.475-.407.95-.205.472-.148.498-.355.97-.205.473-.225.467-.43.939-.205.473-.248.456-.455.928-.205.473-.171.49-.376.962-.208.475-.193.481-.401.953-.208.475-.217.47-.424.945-.083.191-.288.359-.495.359-.513 0-.513-.026-1.028-.026s-.512-.074-1.027-.074c-.515 0-.512.071-1.027.071-.515 0-.512-.04-1.028-.04-.515 0-.512.052-1.027.052-.515 0-.512-.052-1.027-.052-.515 0-.512-.034-1.027-.034h-1.028c-.515 0-.512.063-1.027.063-.515 0-.512-.003-1.027-.003-.515 0-.512-.029-1.027-.029-.516 0-.513.015-1.028.015s-.512.045-1.027.045c-.515 0-.512-.057-1.027-.057h-1.028c-.515 0-.512.032-1.027.032-.515 0-.512.025-1.027.025-.515 0-.512-.003-1.027-.003-.515 0-.513-.085-1.028-.085s-.512.06-1.027.06c-.515 0-.512.028-1.027.028-.515 0-.513-.082-1.028-.082s-.512.099-1.027.099c-.515 0-.512-.014-1.027-.014-.515 0-.512-.091-1.027-.091-.516 0-.513.074-1.028.074s-.512-.009-1.027-.009c-.515 0-.512-.042-1.027-.042-.515 0-.513-.017-1.025-.017-.512 0-.512.065-1.024.065H81.22c-.512 0-.512.02-1.024.02s-.512-.028-1.024-.028c-.513 0-.513-.046-1.028-.046s-.512-.008-1.027-.008c-.515 0-.512.091-1.027.091-.515 0-.513-.017-1.028-.017s-.512-.04-1.024-.04h-1.024c-.513 0-.513.062-1.025.062-.512 0-.512-.022-1.027-.022-.515 0-.512-.026-1.027-.026-.516 0-.513-.02-1.028-.02s-.512.006-1.027.006c-.515 0-.512.022-1.027.022-.515 0-.512.029-1.027.029-.516 0-.513-.071-1.028-.071h-1.027c-.515 0-.512.005-1.027.005-.515 0-.513-.002-1.028-.002s-.512.039-1.027.039c-.515 0-.512.043-1.027.043-.515 0-.515.006-1.027.006-.513 0-.513-.023-1.028-.023s-.512-.031-1.027-.031c-.515 0-.512.025-1.027.025-.515 0-.515-.025-1.028-.025-.512 0-.512-.003-1.027-.003-.515 0-.512.028-1.027.028-.515 0-.515-.034-1.027-.034-.513 0-.513.043-1.028.043s-.515-.085-1.027-.085c-.512 0-.512.085-1.027.085-.515 0-.515-.057-1.028-.057-.512 0-.515.009-1.027.009H45.28c-.512 0-.512.022-1.027.022-.516 0-.516.04-1.028.04s-.512-.02-1.027-.02c-.515 0-.515-.065-1.027-.065-.513 0-.513.06-1.027.06-.516 0-.516-.04-1.028-.04s-.512.062-1.027.062c-.515 0-.515-.02-1.027-.02-.513 0-.515-.034-1.028-.034-.512 0-.515-.017-1.027-.017-.512 0-.515.029-1.027.029-.512 0-.515-.037-1.027-.037-.513 0-.516.042-1.028.042s-.515-.022-1.027-.022c-.512 0-.515-.049-1.03-.049s-.515.037-1.03.037c-.456 0-.652-.489-.342-.822.347-.37.308-.407.655-.777.347-.37.364-.353.711-.723s.319-.395.663-.765c.347-.37.327-.387.675-.757.347-.37.384-.336.73-.706.348-.37.342-.376.69-.746.347-.37.313-.404.657-.771.347-.37.358-.358.706-.728.347-.37.338-.379.685-.749.348-.37.419-.304.766-.674.347-.37.31-.404.66-.774.347-.37.384-.336.731-.706.348-.37.29-.424.638-.794.347-.37.376-.344.723-.714s.364-.353.711-.726l.697-.74c.347-.37.293-.418.64-.788.348-.37.368-.353.715-.723s.35-.367.7-.74c.347-.37.381-.338.728-.711.347-.37.328-.39.675-.763.35-.372.313-.404.663-.776.35-.373.367-.353.717-.726.097-.106.247-.14.393-.14l.037-.005z" fill="#fff"/><path d="M55.003 103.62c-.486.165-.407.302-.81.615-.405.313-.402.318-.809.631-.404.316-.444.262-.85.578-.405.316-.373.356-.777.672-.404.315-.39.335-.794.648s-.439.271-.843.587c-.404.315-.372.355-.78.668-.404.316-.395.328-.799.643-.404.316-.41.311-.814.626-.407.316-.415.305-.822.618-.407.316-1.019.137-.848.623.168.487.54 0 1.055 0 .515 0 .515-.014 1.033-.014.518 0 .515.057 1.033.057.518 0 .516-.026 1.033-.026.518 0 .515-.005 1.03-.005.516 0 .516-.017 1.034-.017.517 0 .514.019 1.032.019s.515-.076 1.033-.076c.518 0 .515.105 1.033.105.518 0 .515-.068 1.033-.068.518 0 .515-.015 1.033-.015.518 0 .515-.005 1.033-.005.518 0 .515-.009 1.033-.009.518 0 .515.02 1.033.02.518 0 .515.011 1.033.011.518 0 .515-.008 1.033-.008.518 0 .515-.026 1.033-.026.518 0 .515.069 1.033.069.518 0 .515.011 1.03.011s.515-.046 1.033-.046c.518 0 .515.049 1.033.049.518 0 .515-.02 1.033-.02.518 0 .515.037 1.033.037.518 0 .515-.091 1.033-.091.518 0 .518-.014 1.033-.014.515 0 .518.008 1.033.008.515 0 .518.091 1.033.091.515 0 .515-.057 1.033-.057.518 0 .515.063 1.033.063.518 0 .518-.029 1.033-.029.515 0 .518.015 1.036.015s.58.213 1.038-.026c.476-.248.348-.415.663-.848.316-.432.322-.43.635-.862.316-.433.265-.47.578-.902l.631-.865c.316-.433.336-.419.652-.851.316-.433.287-.453.603-.885.316-.433.285-.458.598-.891.316-.432.91-.35.68-.837-.222-.469-.524-.042-1.044-.042-.521 0-.521.077-1.042.077-.52 0-.52-.063-1.041-.063-.521 0-.521-.014-1.042-.014-.52 0-.52.097-1.041.097-.521 0-.521-.035-1.042-.035-.52 0-.52-.054-1.041-.054-.521 0-.521.009-1.042.009-.52 0-.52.043-1.041.043-.521 0-.521-.055-1.042-.055-.52 0-.52.063-1.041.063-.521 0-.521.014-1.042.014-.52 0-.52-.011-1.041-.011-.521 0-.521-.063-1.042-.063-.52 0-.52.04-1.041.04-.521 0-.521-.06-1.042-.06-.52 0-.52.017-1.041.017-.521 0-.521.035-1.042.035-.52 0-.52.031-1.041.031-.521 0-.521-.037-1.042-.037-.52 0-.52.014-1.041.014H61.26c-.52 0-.52-.006-1.042-.006-.52 0-.52-.051-1.041-.051-.52 0-.52.023-1.041.023-.521 0-.521-.031-1.042-.031-.52 0-.52.079-1.041.034-.524-.049-.544-.123-1.04.045l-.01.009z" fill="#fff"/><path d="M64.104 103.56c-.507 0-.507.034-1.01.034-.504 0-.507-.023-1.013-.023-.507 0-.507.032-1.013.032-.507 0-.507.022-1.01.022-.504 0-.507-.051-1.014-.051-.506 0-.506-.025-1.013-.025-.506 0-.506.017-1.013.017-.506 0-.506.077-1.013.077-.506 0-.53-.2-1.01-.035-.472.163-.376.325-.768.632-.396.307-.39.313-.786.618-.395.307-.424.27-.817.577-.395.308-.372.333-.768.641-.395.307-.407.293-.802.597-.396.308-.436.253-.828.561-.396.307-.387.316-.783.623-.395.307-.398.302-.794.609-.395.307-.35.367-.742.674-.396.308-.433.259-.829.567-.395.307-.387.318-.782.626-.074.057-.026.153.068.153.504 0 .504.029 1.005.029.5 0 .5.014 1.004.014s.504-.026 1.005-.026c.5 0 .5.043 1.004.043s.504.006 1.005.006c.5 0 .503-.009 1.004-.009s.504.017 1.005.017c.5 0 .503-.071 1.004-.071s.504.046 1.005.046c.5 0 .503.023 1.007.023.504 0 .504-.012 1.008-.012h1.004c.5 0 .504-.008 1.007-.008.504 0 .504-.029 1.008-.029.503 0 .503.043 1.007.043h1.007c.504 0 .504-.009 1.008-.009" stroke="#595757" stroke-linecap="round" stroke-linejoin="round"/><path d="M53.308 108.518c.333-.328.378-.282.711-.609.333-.328.33-.33.666-.658.333-.327.302-.361.634-.688.336-.328.376-.288.71-.615.335-.327.32-.341.656-.669m-.042 3.233c.39-.41.398-.401.79-.811.39-.41.402-.401.792-.808.392-.41.404-.399.797-.808.392-.41.438-.365.828-.774m.617 3.269c.33-.409.327-.412.66-.819.33-.41.259-.467.592-.877.333-.41.387-.364.717-.774.333-.41.319-.421.652-.831m1.304 3.239c.293-.41.307-.399.6-.809.293-.409.347-.37.64-.779.293-.41.262-.433.555-.843.293-.409.256-.435.552-.845" stroke="#595757" stroke-miterlimit="10" stroke-linecap="round"/><path d="M69.727 107.039c-.487.165-.404.325-.808.64-.404.314-.407.311-.814.627-.404.315-.395.327-.8.643-.404.316-.384.341-.79.654-.405.316-.396.327-.8.643-.404.313-.407.31-.811.626-.404.316-.424.293-.828.606l-.809.632c-.404.316-.446.262-.85.578-.407.316-.382.347-.789.66-.407.316-1.004.157-.836.643.168.487.543 0 1.058 0s.515-.014 1.033-.014c.518 0 .515.017 1.033.017h1.033c.518 0 .515-.008 1.03-.008s.515.048 1.033.048c.518 0 .515-.04 1.033-.04.518 0 .515-.034 1.033-.034h1.033c.518 0 .515-.026 1.033-.026.518 0 .515.02 1.033.02.518 0 .515.057 1.033.057.518 0 .515.003 1.033.003.518 0 .515-.02 1.033-.02.518 0 .515-.043 1.033-.043.518 0 .515.066 1.033.066.518 0 .515-.074 1.033-.074.518 0 .515.091 1.033.091.518 0 .515-.06 1.03-.06s.515.014 1.033.014c.518 0 .515.052 1.033.052h1.033c.518 0 .515-.029 1.033-.029.518 0 .515.003 1.033.003.518 0 .518-.08 1.033-.08.515 0 .518.032 1.033.032.515 0 .518-.012 1.033-.012.515 0 .515-.003 1.033-.003.518 0 .515.063 1.033.063.518 0 .518-.037 1.033-.037.515 0 .518.02 1.036.02.517 0 .56.193 1.018-.043.476-.247.322-.407.638-.839.316-.433.287-.453.6-.885.316-.433.347-.41.66-.843.316-.432.336-.418.652-.85.316-.433.302-.444.615-.877.316-.432.35-.407.666-.839.315-.433.313-.436.626-.871.316-.433.856-.418.629-.902-.222-.47-.55.06-1.068.06-.517 0-.52-.009-1.041-.009-.52 0-.52-.02-1.042-.02-.52 0-.52-.048-1.041-.048-.52 0-.52-.026-1.042-.026-.52 0-.52.088-1.041.088-.52 0-.52-.065-1.042-.065-.52 0-.52.068-1.041.068-.52 0-.52-.04-1.042-.04-.52 0-.52-.02-1.041-.02-.52 0-.52.032-1.042.032-.52 0-.52-.015-1.041-.015-.52 0-.52.018-1.042.018-.52 0-.52-.023-1.041-.023-.521 0-.52.014-1.042.014-.52 0-.52.028-1.041.028-.521 0-.521-.082-1.042-.082-.52 0-.52.014-1.041.014-.521 0-.521.037-1.042.037h-1.041c-.521 0-.521-.051-1.042-.051-.52 0-.52.017-1.041.017-.521 0-.521.065-1.042.065-.52 0-.52-.076-1.041-.076l-1.042.002c-.52 0-.52.092-1.041.092-.521 0-.524-.003-1.042-.063-.53-.06-.558-.168-1.05 0l-.017-.006z" fill="#fff"/><path d="M93.819 113.955c.307-.421.338-.396.646-.817.307-.421.327-.404.631-.825.305-.418.305-.421.61-.84.307-.421.27-.446.574-.868.307-.421.344-.392.649-.813.307-.422.256-.456.563-.877.308-.421.328-.407.632-.828.307-.421.299-.427.603-.848.06-.082.023-.171-.08-.171-.503 0-.503-.051-1.01-.051-.506 0-.506.06-1.01.06-.503 0-.506-.077-1.01-.077s-.506.068-1.01.068-.507.006-1.01.006c-.504 0-.507-.057-1.01-.057-.504 0-.504.029-1.01.029-.507 0-.507-.04-1.01-.04-.505 0-.507.034-1.011.034-.504 0-.507-.012-1.01-.012-.504 0-.507.029-1.013.029-.507 0-.507-.017-1.014-.017m-15.181.075c-.401 0-.401-.026-.802-.026-.402 0-.422-.159-.797-.014-.461.176-.401.279-.791.58-.39.302-.416.268-.806.572-.39.302-.35.353-.74.655-.39.301-.426.256-.816.557-.39.302-.379.316-.769.621-.39.301-.367.33-.756.632-.39.301-.388.307-.777.611-.39.302-.424.259-.814.561-.39.302-.344.364-.734.666-.39.304-.382.316-.772.62-.39.305-.452.225-.842.53-.11.085-.017.355.123.355.503 0 .503-.065 1.01-.065.506 0 .503.048 1.01.048h1.01c.507 0 .504.017 1.01.017.507 0 .504-.097 1.01-.097.507 0 .504.04 1.01.04.507 0 .504.063 1.01.063.508 0 .505-.037 1.011-.037.507 0 .504-.023 1.01-.023.507 0 .504-.023 1.01-.023.507 0 .504-.025 1.01-.025.507 0 .505.105 1.011.105.507 0 .504-.085 1.01-.085.507 0 .504.068 1.01.068.507 0 .504.017 1.008.017.503 0 .503-.043 1.01-.043s.504-.042 1.007-.042c.504 0 .504-.015 1.01-.015.507 0 .504.052 1.01.052.507 0 .507-.017 1.01-.017.505 0 .505.051 1.011.051h1.01c.507 0 .507-.088 1.01-.088.504 0 .507.059 1.01.059.504 0 .504.029 1.011.029.507 0 .507-.046 1.01-.046.504 0 .507-.008 1.01-.008.504 0 .507.057 1.01.057.504 0 .507-.091 1.014-.091.506 0 .506.039 1.013.039" stroke="#595757" stroke-linecap="round" stroke-linejoin="round"/><path d="M68.734 112.304c.339-.358.328-.367.666-.723.339-.358.3-.395.638-.751.338-.358.384-.313.722-.671.34-.359.365-.333.703-.692l.678-.717m.791 3.581c.321-.401.301-.418.623-.819.321-.402.301-.419.623-.823.322-.404.364-.37.686-.774.321-.404.344-.387.666-.788m2.201 3.109c.345-.384.359-.373.703-.757.345-.384.359-.373.703-.757s.373-.359.717-.746c.345-.387.308-.418.652-.802m1.696 3.141c.356-.478.37-.467.726-.945.356-.478.358-.475.717-.956.356-.478.361-.475.717-.953m2.476 2.957c.236-.427.276-.404.512-.834.236-.426.253-.418.492-.845.237-.427.157-.472.396-.902.239-.43.245-.424.484-.851m14.59-10.152c.509 0 .509.01 1.015.01.507 0 .507-.028 1.016-.028.51 0 .51.035 1.016.035.507 0 .507.045 1.016.045s.509-.077 1.016-.077.509.04 1.016.04c.506 0 .509-.011 1.019-.011.509 0 .509.048 1.016.048.506 0 .509-.051 1.018-.051.51 0 .51.026 1.019.026.509 0 .509-.026 1.019-.026.509 0 .509.026 1.019.026.509 0 .509-.012 1.018-.012.51 0 .51.063 1.019.063.509 0 .509-.069 1.019-.069.509 0 .509.052 1.019.052.509 0 .509-.069 1.018-.069m-75.062.074c.498 0 .498.014.999.014.5 0 .498-.082.998-.082.501 0 .498.071 1 .071.5 0 .497-.02.998-.02s.498.031.999.031c.5 0 .5-.074.999-.074.498 0 .5-.028.999-.028.498 0 .498.048.998.048.501 0 .501.04 1 .04.497 0 .5-.034.998-.034s.5-.06.999-.06c.498 0 .5-.005 1.002-.005.5 0 .5.082 1.001.082" stroke="#595757" stroke-miterlimit="10" stroke-linecap="round"/><path d="M74.013 49.6c-.49.147.057.338.125.978.031.288.048.632.085 1.02.032.312.075.65.106 1.018.028.321.028.666.054 1.022.025.327.082.665.105 1.015.023.333 0 .678.02 1.025.017.336.088.674.103 1.019.014.338.03.68.04 1.021.008.342-.035.683-.032 1.025 0 .341-.037.683-.04 1.024-.003.344-.023.686-.034 1.022a37.92 37.92 0 01-.043 1.021c-.022.35-.02.692-.054 1.022-.037.353-.045.697-.096 1.019-.057.355-.168.68-.245.993-.088.358-.142.7-.256.99-.143.353-.305.64-.493.874.129.472.276.247.865.41.265.073.595.09.97.122.294.023.615 0 .971-.023.299-.023.626-.02.97-.091.3-.063.593-.208.923-.316.29-.097.6-.185.916-.322.282-.122.64-.23.942-.392.082-.501-.145-.51-.2-1.016-.053-.507.01-.512-.045-1.019-.054-.506-.074-.504-.13-1.01-.055-.507-.018-.51-.072-1.016-.054-.506-.122-.498-.18-1.004-.053-.507-.082-.504-.139-1.01-.054-.507-.02-.51-.076-1.017-.055-.506-.023-.509-.08-1.015-.054-.507-.02-.51-.074-1.02-.054-.506-.071-.503-.128-1.012-.054-.507-.123-.498-.177-1.008-.054-.506-.082-.503-.136-1.01-.054-.506.008-.515-.046-1.022-.054-.506-.117-.5-.173-1.007-.057-.506-.04-.51-.094-1.016-.057-.506.293-.663-.074-1.018-.367-.356-.507-.069-1.016-.109-.51-.04-.51-.054-1.019-.09-.51-.04-.523.07-1.027-.018-.507-.09-.518-.216-1.008-.065l-.008.005z" fill="#C8B197"/><path d="M83.725 41.607c.35 0 .691.043 1.032.077.348.034.698.028 1.033.097.34.07.672.176 1 .279.33.102.668.196.984.33.319.136.606.338.908.503.301.165.597.342.885.538.284.194.583.376.85.595.265.219.516.46.76.706.245.242.49.486.715.75.224.263.412.553.614.835.2.279.418.549.598.845.176.293.279.632.432.942.154.307.322.609.45.93.128.319.259.638.364.97.103.328.157.67.234 1.008.076.333.184.663.236 1.007.051.34.085.683.11 1.03.026.342.015.686.015 1.036s.028.672.003 1c-.026.338-.128.66-.177.984-.05.333-.045.671-.12.99-.076.327-.215.635-.318.945-.105.319-.153.657-.284.959-.134.307-.34.58-.496.868-.159.293-.27.617-.455.893s-.387.55-.595.806c-.21.259-.478.466-.711.705-.233.24-.478.461-.731.678-.25.216-.493.45-.763.643-.267.193-.566.347-.85.52-.283.171-.559.345-.857.496.028.16.19-.143.267 0 .253.483.148.512.262 1.044.114.532.071.544.185 1.076s.188.518.301 1.05c.114.535.089.54.203 1.073.113.535.13.532.222 1.07.085.495.09.495.153.993s-.008.506.054 1.004c.063.498.131.49.194.99.062.499.438.615.125 1.01-.322.408-.526.055-1.042.129-.512.07-.506.128-1.018.199-.513.071-.515.06-1.028.13-.512.072-.52.032-1.033.103-.512.072-.512.074-1.027.145-.512.072-.512.089-1.024.16-.513.071-.513.085-1.025.156-.512.072-.52.029-1.033.1-.515.071-.51.097-1.024.168-.515.071-.518.043-1.033.117-.515.07-.635.503-1.01.145-.385-.367.06-.513.094-1.042.03-.532.017-.532.05-1.064.035-.532.052-.53.086-1.062.032-.532-.054-.537-.023-1.067.032-.532.072-.529.103-1.061.031-.532.02-.532.051-1.064.031-.533.094-.527.125-1.059.032-.532.014-.532.046-1.067.031-.532.097-.535-.023-1.056a9.852 9.852 0 01-.91-.213 9.45 9.45 0 01-.925-.336c-.305-.123-.62-.23-.908-.381-.29-.154-.56-.348-.831-.533a8.308 8.308 0 01-.771-.609c-.248-.21-.447-.472-.672-.714-.219-.239-.486-.44-.68-.711-.188-.262-.336-.558-.498-.851-.168-.302-.287-.646-.407-1.008-.11-.332-.233-.677-.31-1.041-.074-.347-.108-.711-.156-1.078a22.023 22.023 0 01-.111-1.082c-.029-.364-.043-.726-.057-1.087-.015-.37-.035-.734-.04-1.087-.006-.376.034-.74.034-1.087s0-.691.025-1.033c.026-.347.057-.689.109-1.027.05-.345.07-.692.148-1.028.076-.338.148-.68.247-1.007.103-.333.27-.64.399-.959.128-.322.307-.617.46-.925.154-.31.26-.646.436-.942.18-.298.424-.549.623-.828.202-.282.342-.612.566-.87.225-.265.461-.521.709-.763.248-.242.555-.421.82-.638.267-.219.503-.48.788-.674.287-.194.58-.381.885-.546.304-.166.626-.3.945-.433.315-.137.663-.196.993-.302.327-.102.643-.259.984-.33.336-.068.689-.062 1.033-.096.342-.035.683-.077 1.033-.077l-.005.011z" fill="#fff"/><path d="M94.356 46.418a10.53 10.53 0 00-.52-.865 9.253 9.253 0 00-.59-.82c-.216-.267-.415-.54-.648-.773-.242-.242-.479-.487-.74-.698a9.56 9.56 0 00-.826-.592c-.287-.184-.6-.315-.899-.469-.304-.154-.597-.33-.908-.453a10.908 10.908 0 00-.959-.33c-.327-.096-.666-.13-.996-.199-.332-.07-.663-.153-.993-.199-.338-.046-.677-.054-1.01-.074-.344-.02-.68.006-1.01.009-.344 0-.686-.06-1.013-.035-.347.026-.689.037-1.01.083-.322.045-.626.142-.914.22a8.82 8.82 0 00-1.758.64c-.51.255-.34.37-.78.52-.447.154-.327-.048-.914.245-.227.114-.478.31-.785.532-.225.162-.504.319-.771.552-.216.188-.384.47-.626.714-.205.208-.473.387-.697.64-.197.223-.39.476-.6.735-.217.267-.43.523-.601.794-.182.29-.308.6-.447.89-.148.31-.233.63-.336.934-.108.327-.219.637-.282.95-.068.339-.07.672-.096.985-.032.353-.123.683-.117.99.009.373.08.706.117.988.08.606-.316.944.179.981.12-.347.267-.666.373-.964.122-.347.148-.7.256-1 .128-.34.313-.63.44-.93.14-.321.226-.654.388-.953.156-.293.37-.558.57-.857.175-.264.42-.503.645-.794.194-.25.364-.591.603-.873.254.233.544.47.789.688.258.231.455.516.705.729.262.225.535.427.786.635.267.222.572.378.83.58.274.216.507.461.769.657.279.211.55.41.814.598.284.202.572.381.84.56.29.197.554.408.827.578.3.188.592.353.868.515.308.18.58.382.862.535.313.168.62.308.905.45.32.16.635.279.922.413.325.153.652.247.937.378.327.15.597.353.876.495.048.032.029.063.043.137.233-.111.566-.296.925-.276.284.017.594.14.87.398.22.205.333.558.407.96a2.8 2.8 0 01.014 1.046c-.062.33-.21.65-.398.97-.168.288-.353.593-.637.84-.248.217-.57.387-.917.55-.017.33-.022.68-.06 1.027-.034.33-.04.671-.096 1.013-.057.33-.154.657-.233.99a12.97 12.97 0 01-.282.976c-.103.319-.26.62-.39.936-.128.31-.239.63-.398.931-.154.299-.35.572-.538.86-.182.281-.319.6-.532.867-.21.26-.49.507-.732.749.256.45.421.014 1.065 0a19.1 19.1 0 001.035-.046c.32-.023.66-.122 1.025-.165.33-.04.686 0 1.038-.063.333-.06.666-.162 1.01-.244.334-.08.678-.137 1.01-.242.328-.102.653-.233.974-.367.319-.131.626-.299.93-.458a8.62 8.62 0 00.877-.552c.285-.197.575-.387.831-.62a6.56 6.56 0 00.709-.76c.21-.268.435-.541.603-.851.16-.296.267-.632.381-.97.106-.317.131-.664.19-1.02.052-.307.112-.643.152-1.01.034-.321.122-.657.145-1.016.02-.327-.034-.671-.026-1.027.009-.33.08-.672.077-1.024a25.328 25.328 0 00-.028-1.025c-.015-.336-.117-.671-.143-1.016-.025-.335.029-.683-.011-1.027-.04-.336-.148-.666-.2-1.007-.05-.336-.056-.68-.122-1.02-.065-.332-.17-.66-.25-.995-.077-.33-.188-.655-.282-.985-.09-.327-.14-.671-.247-.996-.108-.324-.282-.623-.404-.944-.123-.32-.22-.65-.359-.96-.14-.31-.316-.606-.475-.907l-.006.008z" fill="#C8B197"/><path d="M81.178 55.462c0 .25.202.475.452.475s.43-.225.43-.475c0-.25-.18-.476-.43-.476s-.452.228-.452.476zm-6.163.284c0 .25.207.444.458.444.25 0 .504-.194.504-.444s-.257-.398-.504-.398c-.248 0-.458.148-.458.398z" fill="#595757"/><path d="M80.37 61.201c-.575.265-.51.302-1.218.313-.376.006-.802-.094-1.23-.29m-.264-3.837c-.125.367-.082.381-.207.751-.126.367-.114.373-.237.74-.014.04 0 .02.037.04l.695.358m-3.549-6.67c.35-.222.315-.168.78-.24.241-.036.514-.062.816.02m6.608.346c-.35-.222-.319-.196-.782-.264a1.993 1.993 0 00-.82.07" stroke="#595757" stroke-linecap="round" stroke-linejoin="round"/><path d="M69.12 98.016c.527-.137.515.267 1.005.506.49.24.47.28.959.518.49.24.5.216.99.453.49.239.487.247.976.486.49.239.447.373.974.507.48.122.37-.148.97-.256.279-.049.612-.054.984-.077.305-.017.638-.097.99-.08.314.017.641.091.983.154.313.057.651.077.979.179.304.094.608.236.921.381.29.134.578.302.868.481.27.168.535.368.806.584.29.233.546.481.8.7.284.247.546.484.782.714.276.268.58.467.794.711.259.299.41.629.572.897.216.35.412.649.47.95.07.376-.02.723-.186 1.033-.148.279-.384.532-.711.771-.22.16-.544.302-.956.373a7.475 7.475 0 01-1.028.108c-.321.012-.671-.011-1.032-.025-.333-.014-.68-.009-1.033-.04-.336-.028-.675-.117-1.022-.157-.341-.039-.68-.113-1.019-.162-.344-.051-.694-.057-1.027-.114-.35-.059-.677-.185-1.002-.25-.355-.071-.7-.117-1.013-.188-.373-.085-.708-.182-.996-.262-.478-.133-.808-.259-.953-.35a5.27 5.27 0 01-.797-.623c-.219-.205-.44-.469-.714-.725-.233-.22-.49-.444-.754-.683a32.277 32.277 0 00-.76-.681c-.256-.216-.515-.441-.785-.651-.268-.208-.55-.404-.831-.595a11.776 11.776 0 00-.874-.526c-.302-.168-.589-.282-.896-.405.176-.526.287-.463.611-.91.325-.45.348-.433.672-.882.327-.45.435-.393.66-.9.245-.554.08-.822.618-.961l.006-.003z" fill="#fff"/><path d="M100.503 78.022c-.145-.31-.384-.575-.586-.87-.194-.282-.353-.601-.59-.871-.227-.257-.517-.464-.776-.71-.25-.235-.504-.474-.78-.7-.267-.218-.512-.48-.796-.685-.282-.205-.62-.336-.911-.526-.293-.194-.532-.473-.831-.652-.305-.185-.646-.299-.945-.467-.313-.173-.634-.318-.936-.475-.324-.168-.606-.395-.908-.54-.338-.163-.666-.297-.962-.43-.361-.163-.711-.242-.987-.356-.606-.253-.438-.524-.959-.467-.273.208-.538.427-.8.606-.284.197-.557.379-.825.541-.296.18-.569.364-.848.507-.31.159-.626.256-.913.37a9.05 9.05 0 01-.934.307c-.338.094-.648.236-.95.276a5.638 5.638 0 01-.993.028c-.356-.02-.663-.159-.956-.242-.345-.096-.663-.176-.925-.324-.322-.182-.615-.358-.823-.552-.427-.401-.145-.578-.583-.8-.467-.236-.381.074-1.019.254-.284.08-.634.145-1.01.276-.302.102-.629.233-.979.373-.304.122-.617.281-.95.435-.305.14-.612.301-.937.47a21.57 21.57 0 00-.916.506c-.293.17-.569.387-.868.583-.284.188-.629.305-.916.515-.276.202-.53.447-.805.672a19.15 19.15 0 00-.794.686c-.254.23-.524.458-.772.711-.236.24-.435.54-.657.84-.202.27-.378.58-.572.896-.18.293-.415.566-.589.89-.162.305-.319.615-.472.948-.032.04.042-.114.014-.068-.287.472-.105.396-.347 1.047-.148.347-.376.672-.518 1.036-.137.353-.214.737-.342 1.104-.125.359-.287.712-.407 1.079-.11.301-.19.626-.304.947-.111.305-.262.604-.376.922-.11.308-.179.638-.293.954-.11.31-.193.631-.307.947-.111.31-.248.615-.359.93-.108.314-.264.613-.372.926-.109.316-.185.64-.29.956-.109.316-.251.62-.354.933-.108.319-.184.646-.287.956-.105.322-.16.655-.259.965-.105.324-.227.635-.324.942-.103.327-.168.654-.262.962-.1.333-.262.634-.347.936-.097.344-.117.683-.19.979-.092.364-.246.671-.297.953-.085.464-.045.806 0 .985.06.25.245.543.555.862.216.219.464.475.768.714.257.205.521.444.823.652.279.193.586.37.888.563.29.188.58.393.879.575.302.182.657.271.956.444.31.179.6.384.897.549.324.18.62.373.907.53.344.185.689.296.956.435.572.299.515.868.885.498.348-.344.168-.444.356-.896.185-.453.27-.416.455-.868.185-.453.174-.458.359-.911.185-.452.122-.478.307-.93.185-.453.205-.444.393-.897.185-.452.18-.455.364-.908.185-.452-.006-.611.407-.873.447-.285.515.008 1.044.008.53 0 .53-.085 1.062-.085s.53.026 1.061.026c.532 0 .53-.015 1.062-.015s.53.094 1.061.094c.532 0 .53-.102 1.062-.102s.529.048 1.061.048c.532 0 .53-.037 1.061-.037.533 0 .53.06 1.062.06s.53-.014 1.061-.014c.532 0 .532-.043 1.062-.043s.575-.182 1.078-.011c.157.418.308.84.47 1.169.213.436.427.783.649 1.03.236.262.478.518.742.743.268.231.57.41.86.603.293.197.558.439.865.598.313.162.629.327.953.452.33.128.68.2 1.013.291.342.091.692.128 1.036.182a8.524 8.524 0 002.091.099c.356-.028.712-.048 1.045-.122.35-.08.68-.213.996-.344.333-.14.609-.35.89-.547.27-.187.575-.341.843-.555.259-.204.48-.458.728-.697.24-.227.504-.435.729-.697.213-.248.39-.535.583-.822.182-.268.424-.515.589-.823.154-.284.285-.6.421-.922.126-.299.225-.62.333-.953.1-.307.185-.635.268-.973.077-.316.111-.65.171-.996.056-.319.148-.646.19-.993.04-.322.108-.655.134-1.002.023-.325-.009-.666.003-1.013.011-.327-.026-.663-.026-1.01 0-.328.034-.666.02-1.013.031-.353.063-.709.083-1.062.02-.356.054-.708.059-1.061.009-.356.04-.712.037-1.065-.002-.358-.108-.711-.122-1.061-.014-.359.063-.72.04-1.067-.026-.359-.128-.706-.165-1.053-.037-.359-.046-.717-.094-1.059-.048-.358-.088-.714-.148-1.052-.063-.362-.202-.695-.276-1.028-.08-.361-.125-.714-.214-1.041-.099-.362-.224-.695-.332-1.008-.126-.361-.217-.708-.353-1.001l-.009-.009z" fill="#EEE9D1"/><path d="M71.964 97.62c-.467-.31-.487-.279-.954-.589-.466-.31-.458-.321-.924-.632-.467-.31-.453-.33-.92-.64-.466-.31-.48-.29-.947-.6-.467-.31-.453-.333-.92-.643" stroke="#595757" stroke-linecap="round" stroke-linejoin="round"/><path d="M82.598 63.914a4.187 4.187 0 00-1.016-.125c-.344 0-.683.063-1.013.137-.336.076-.672.15-.982.293a5.61 5.61 0 00-.888.518c-.281.202-.523.446-.76.688-.244.25-.503.49-.682.769-.194.296-.274.643-.382.953-.12.339-.259.663-.259.99 0 .347.108.683.268.988.145.284.335.583.637.805.322.233.677.359.96.538.338.216.6.486.89.649.35.196.708.296 1.002.458.341.188.62.41.896.623.279.214.515.467.748.783.194.261.413.543.587.919.156.338.258.683.4.993.16.347.305.674.442.973.168.364.361.615.49.894.537 0 .531-.04 1.05-.18.52-.14.494-.23 1.015-.37.52-.139.535-.08 1.056-.221.52-.143.84.21 1.084-.27.248-.49-.27-.524-.46-1.04-.191-.515-.212-.509-.365-1.035-.145-.496-.023-.399-.12-1.025-.045-.293-.12-.634-.19-1.013-.06-.316-.165-.646-.248-.999-.074-.321-.105-.668-.202-1.01a24.323 24.323 0 00-.304-.984c-.108-.325-.245-.644-.373-.96a11.172 11.172 0 00-.433-.933 8.773 8.773 0 00-.515-.89 6.096 6.096 0 00-.626-.814 4.29 4.29 0 00-.771-.678 3.16 3.16 0 00-.936-.424z" fill="#fff"/><path d="M72.485 81.137c-.168.48-.168.344-.353.959-.085.279-.17.611-.273.984-.083.302-.105.65-.194 1.005-.08.313-.162.643-.239.99-.07.322-.182.646-.247.99-.063.328-.117.663-.174 1.005-.054.333-.085.672-.13 1.013-.043.336-.157.666-.189 1.007-.031.339-.057.683-.074 1.022-.017.342-.011.686-.008 1.024 0 .345 0 .69.02 1.025.023.344.136.677.185 1.01.05.344.097.68.179 1.005.085.338.216.651.339.959m4.658-48.738c-.248.29-.473.557-.675.813-.233.3-.492.541-.677.814-.208.307-.37.615-.532.916-.168.308-.299.63-.441.96-.134.307-.302.611-.436.964-.113.308-.199.649-.324 1.008-.108.31-.25.631-.376.99m14.653 1.058c-.288-.13-.564-.33-.888-.483-.288-.134-.58-.293-.903-.45-.284-.139-.588-.281-.901-.446-.282-.151-.607-.256-.911-.43-.279-.16-.532-.39-.831-.572a33.586 33.586 0 01-.85-.538c-.271-.176-.599-.296-.883-.495-.268-.185-.495-.444-.774-.652-.262-.193-.566-.347-.842-.557-.26-.2-.53-.402-.8-.618-.256-.205-.464-.48-.731-.703-.25-.21-.521-.412-.783-.64m9.46 18.533c.193-.313.423-.603.582-.925.163-.33.262-.683.393-1.022.131-.341.228-.694.327-1.038.103-.353.254-.692.328-1.045.076-.361.088-.73.136-1.084.051-.367.12-.726.148-1.081" stroke="#595757" stroke-linecap="round" stroke-linejoin="round"/><path d="M72.214 50.346c.008-.296.105-.606.148-.933.04-.3.114-.6.193-.92.071-.295.123-.606.234-.91.105-.285.205-.586.35-.877.136-.273.333-.52.51-.794.167-.256.358-.5.563-.75.219-.268.426-.519.631-.75.234-.26.47-.483.686-.696.253-.254.481-.481.706-.678.279-.241.518-.46.751-.626.322-.227.623-.347.86-.463.605-.3.432-.2.896-.356.458-.157.301-.228.83-.493.251-.125.556-.25.894-.378.282-.105.595-.194.928-.282.299-.08.612-.182.945-.23.333-.049.688-.023 1.05-.049.338-.025.688-.12 1.047-.122.344 0 .694.066 1.05.085.344.02.689.1 1.039.148.344.046.685.106 1.03.177.341.071.686.117 1.024.216a12.524 12.524 0 011.947.774c.31.157.637.29.936.478.293.185.583.384.862.603.27.214.484.501.737.749.245.242.487.49.711.763.22.264.436.535.632.833.188.285.413.558.58.877.166.31.263.657.408.976.145.321.279.646.407.973.128.327.304.637.415.97.114.336.205.675.302 1.014.096.341.219.674.301 1.013.083.344.106.7.174 1.044.068.347.102.7.156 1.044.054.353.097.7.137 1.047.043.356.1.703.128 1.048.029.358.026.708.04 1.055.017.359.125.709.128 1.053.003.362-.02.718-.028 1.059-.009.367-.006.72-.026 1.059-.023.37-.142.714-.18 1.044-.042.376-.079.726-.133 1.041-.057.342-.083.678-.182.985a5.884 5.884 0 01-.379.93 6.38 6.38 0 01-.518.866c-.202.27-.489.464-.725.697-.24.233-.456.492-.723.691-.268.2-.575.339-.865.507a9.894 9.894 0 01-.888.455c-.304.14-.609.273-.922.387a14.77 14.77 0 01-.95.307c-.328.092-.655.148-.976.217-.336.071-.65.207-.97.259-.342.054-.68.077-.997.11-.353.04-.691.03-.999.05m-13.647-4.371c-.048.318-.063.628-.125.922-.068.318-.188.606-.276.885-.1.315-.17.62-.302.876-.15.302-.279.546-.472.754.125.453.253.188.828.341.253.069.56.151.92.194.28.034.594-.008.938-.008.29 0 .6-.009.933-.043" stroke="#595757" stroke-linecap="round" stroke-linejoin="round"/><path d="M87.86 54.689c.48-.347.475-.407 1.08-.444.354-.023.732.086 1.082.413.2.188.404.455.49.802.068.282.008.61-.023.945a3.08 3.08 0 01-.21.91c-.117.277-.28.541-.49.8-.188.23-.37.504-.643.7m-11.961 6.171a9.806 9.806 0 01-.874-.507 8.795 8.795 0 01-.82-.589c-.255-.216-.528-.42-.759-.671-.228-.245-.384-.552-.586-.828a8.329 8.329 0 01-.53-.857c-.167-.301-.352-.614-.472-.976a9.474 9.474 0 01-.267-1.053 13.715 13.715 0 01-.197-1.07c-.045-.355-.028-.723-.056-1.087-.029-.364-.123-.723-.137-1.081-.014-.37 0-.734-.003-1.09-.006-.376.02-.74.02-1.087M89.74 68.219c.088.412.046.42.134.836m-2.092 5.827c-.23-.62-.293-.6-.486-1.233-.151-.492-.02-.4-.117-1.03-.046-.293-.028-.649-.102-1.03-.06-.316-.143-.654-.222-1.007a21.035 21.035 0 00-.265-1 22.734 22.734 0 00-.305-.984c-.108-.324-.298-.623-.426-.939-.131-.321-.28-.629-.433-.93a8.401 8.401 0 00-.512-.888c-.196-.296-.33-.629-.558-.874-.242-.259-.56-.418-.842-.6a3.1 3.1 0 00-.925-.424c-.341-.088-.674-.182-1.01-.185-.344 0-.683.09-1.013.168-.336.076-.683.128-.993.27a5.647 5.647 0 00-.885.53c-.282.201-.524.452-.76.694-.245.25-.424.543-.606.822-.194.296-.407.575-.515.885-.12.339-.131.686-.131 1.013 0 .347.062.675.219.982.145.284.356.546.657.768.322.234.586.492.871.672.339.216.692.333.982.495.35.196.68.341.973.504.341.188.615.42.894.634.278.214.509.473.742.789.194.261.438.529.612.907.174.376.322.746.478 1.084.18.388.353.746.504 1.073m.993 19.502c-.071-.507-.034-.513-.105-1.02-.071-.506-.046-.509-.114-1.016-.071-.506-.131-.498-.202-1.001-.071-.507-.031-.512-.103-1.019-.07-.507-.133-.498-.204-1.002-.072-.506-.035-.512-.103-1.018-.071-.507-.065-.507-.136-1.014-.072-.506-.066-.506-.134-1.012-.071-.507-.083-.504-.154-1.01-.071-.507-.028-.513-.1-1.02-.07-.506-.102-.5-.173-1.007-.071-.506-.12-.5-.19-1.007-.072-.507-.08-.507-.152-1.013-.07-.507-.045-.51-.116-1.016-.071-.507 0-.515-.071-1.022-.072-.506-.16-.495-.228-1.001-.071-.507.026-.521-.046-1.028-.07-.506-.472-.58-.193-1.01.279-.424.498-.111.987-.242.49-.13.487-.136.976-.267.49-.131.493-.123.982-.257.49-.13.484-.153.973-.284.49-.13.501-.088.99-.22.49-.13.482-.164.974-.298.49-.13.538-.526.979-.276.455.259.15.5.304 1.002.157.5.14.503.293 1.004.157.501.205.484.359.985.156.5.128.506.284 1.007.157.501.137.507.29 1.008.157.5.194.486.35.987.157.5.135.507.291 1.007.157.501.202.487.359.985.156.5.13.507.287 1.007l.313 1.002c.157.5.142.504.299 1.005.156.5.153.5.307 1.001.157.501.114.513.27 1.013.157.501.165.498.322 1 .156.5.22.48.376.98.156.502.07.53.225 1.031.156.5.224.481.38.982M72.79 99.861c.62.302.571.441 1.234.638.475.139.37-.191.97-.299.28-.048.618-.06.988-.083.305-.017.638-.059.99-.039.313.017.638.108.98.167.312.057.645.083.975.185.305.094.615.217.928.362.29.134.58.293.874.475.27.168.56.339.828.555.29.233.503.532.757.751.284.248.586.441.825.669.276.267.538.509.751.751.26.299.404.626.57.894.216.35.352.651.41.953.07.376.028.689-.138 1.002-.147.279-.35.549-.677.788-.219.159-.555.236-.967.307-.302.052-.64.16-1.016.171-.322.011-.669-.043-1.03-.057-.333-.014-.675-.057-1.028-.085a27.1 27.1 0 01-1.024-.103c-.341-.039-.689-.039-1.027-.088-.345-.051-.692-.077-1.025-.134-.35-.059-.686-.145-1.013-.207-.355-.071-.688-.18-1.001-.251-.373-.085-.703-.202-.99-.281-.479-.134-.823-.231-.971-.322-.17-.108-.381-.327-.669-.592-.193-.179-.472-.321-.711-.549-.205-.194-.404-.418-.638-.632" stroke="#595757" stroke-linecap="round" stroke-linejoin="round"/><path d="M79.12 102.461c.484.23.418.117.973.452.268.163.575.362.897.589.276.197.532.459.816.698.268.224.555.444.809.705.247.259.47.544.677.834m-5.196-2.028c.45.236.378.168.902.469.259.151.575.305.885.504.276.177.52.433.802.632.285.199.552.413.803.623.284.239.54.467.728.7m-5.173-1.061c.515.231.47.196 1.036.45.333.148.734.242 1.064.39.57.256 1.019.486 1.016.486m9.356-36.65c-.29.2-.549.424-.825.592-.302.185-.589.373-.874.52m-2.148 27.502c.165.427.327.811.498 1.144.225.439.427.811.663 1.059.23.247.515.435.771.649.26.216.53.409.808.597.28.188.535.416.831.572.3.16.598.325.905.45.313.128.632.25.95.347.325.097.672.097 1 .162.332.069.654.199.984.234.339.034.68.031 1.013.031.342 0 .683-.006 1.01-.043.342-.04.658-.188.976-.267.336-.083.675-.123.976-.251.32-.133.644-.253.917-.435.281-.188.555-.401.834-.612.267-.205.526-.435.785-.672.248-.224.461-.498.697-.759.225-.248.435-.515.643-.803.194-.27.393-.546.569-.856.165-.288.311-.598.456-.922.133-.302.313-.604.426-.94.106-.312.217-.64.308-.987.082-.319.131-.663.196-1.016.06-.324.111-.666.157-1.019.042-.33.005-.677.034-1.03.025-.33.043-.671.054-1.027.011-.333.099-.674.099-1.03 0-.333-.022-.677-.034-1.033.032-.33.043-.663.063-.99.02-.333 0-.666.006-.996.008-.333.045-.663.045-.993 0-.336-.051-.666-.06-.994-.011-.335.054-.671.032-.999-.02-.335-.071-.665-.1-.99-.031-.335-.028-.671-.068-.993-.043-.336-.165-.654-.216-.973-.055-.336-.086-.666-.148-.982-.066-.336-.083-.671-.16-.985-.079-.335-.193-.651-.284-.956-.1-.333-.188-.657-.296-.95-.123-.333-.345-.598-.478-.874a6.172 6.172 0 00-.496-.89c-.19-.274-.384-.558-.617-.82-.225-.248-.438-.523-.694-.763-.248-.227-.51-.455-.78-.674-.265-.213-.59-.353-.868-.555-.276-.2-.535-.43-.822-.617-.288-.188-.592-.35-.885-.524-.296-.177-.57-.396-.865-.56-.305-.168-.627-.302-.922-.456-.314-.162-.64-.276-.94-.421-.321-.157-.606-.364-.902-.498-.335-.154-.68-.228-.967-.35a32.992 32.992 0 00-.95-.381m-12.897.921c-.287.094-.597.208-.93.333-.29.109-.624.174-.942.31-.29.123-.564.322-.874.47-.287.137-.583.282-.885.441-.284.151-.606.253-.896.427-.28.165-.538.373-.82.558-.27.176-.572.321-.845.518-.262.19-.518.404-.78.614-.253.202-.472.459-.722.68-.245.217-.533.39-.774.624a8.321 8.321 0 00-.729.82c-.213.275-.393.597-.598.916-.19.296-.347.626-.529.953-.17.31-.393.595-.558.93-.034.04-.014-.148-.042-.105-.3.475-.145.398-.404 1.059-.154.35-.245.737-.393 1.104-.142.358-.342.7-.478 1.073-.134.364-.19.76-.316 1.132-.117.305-.307.595-.43.92-.116.307-.208.634-.327.956-.117.31-.176.648-.296.97-.117.313-.248.623-.364.945-.117.316-.24.628-.356.947-.117.316-.248.63-.361.945-.114.319-.197.649-.31.965-.114.321-.296.614-.407.93-.114.322-.157.666-.265.982-.111.324-.276.626-.381.942-.111.327-.14.674-.242.987-.108.333-.302.626-.399.937-.105.338-.133.683-.222.99-.102.347-.185.674-.261.976-.097.37-.228.686-.282.97-.091.473-.148.831-.1 1.016.06.236.282.521.575.82.205.208.49.39.78.614.245.191.49.422.777.618.261.179.555.341.845.524.276.173.583.304.87.478.285.168.536.398.823.56.29.165.57.35.857.507.298.165.597.313.882.461.31.165.623.284.899.427.33.17.615.352.868.478.55.273.592.791.939.438.347-.356.154-.492.35-.951.196-.458.245-.435.441-.893s.128-.487.324-.945c.197-.458.23-.444.424-.899.197-.458.205-.453.402-.911.196-.458.13-.486.327-.944.196-.459.282-.422.478-.88" stroke="#595757" stroke-linecap="round" stroke-linejoin="round"/><path d="M73.565 98.87c.49 0 .49-.046.982-.046h.98c.489 0 .489.06.98.06.493 0 .49.034.983.034.492 0 .489-.071.981-.071.493 0 .49.009.98.009.489 0 .489-.015.981-.015s.49-.017.982-.017.49.04.981.04c.493 0 .493.031.982.031.49 0 .493-.057.982-.057" stroke="#595757" stroke-miterlimit="10" stroke-linecap="round"/></g><defs><clipPath id="clip0_100_812"><path fill="#fff" d="M0 0h121v117H0z"/></clipPath></defs></svg>