<svg width="26" height="23" fill="none" xmlns="http://www.w3.org/2000/svg"><path fill-rule="evenodd" clip-rule="evenodd" d="M3.064.721A2.912 2.912 0 014.065.16a3.223 3.223 0 012.326.127c.356.163.667.39.914.666l2.917 3.261c.534.598.723 1.377.512 2.113l-.89 3.097a.839.839 0 00.008.488.94.94 0 00.282.421l3.992 3.475a1.232 1.232 0 001.046.251l3.558-.773c.417-.09.852-.098 1.273-.02.42.076.815.236 1.155.465l3.747 2.537c1.347.913 1.47 2.645.265 3.693l-1.68 1.462c-1.203 1.046-3 1.506-4.676.993-4.287-1.313-8.18-3.45-11.39-6.25C4.205 13.37 1.75 9.982.24 6.251-.347 4.796.181 3.23 1.384 2.184L3.064.72z" fill="#fff"/></svg>